<?xml version="1.0" encoding="utf-8"?>
<!-- Generator: Adobe Illustrator 20.1.0, SVG Export Plug-In . SVG Version: 6.00 Build 0)  -->
<svg version="1.1" xmlns="http://www.w3.org/2000/svg" xmlns:xlink="http://www.w3.org/1999/xlink" x="0px" y="0px"
	 viewBox="0 0 1440 900" style="enable-background:new 0 0 1440 900;" xml:space="preserve">
<style type="text/css">
	.st0{fill:url(#SVGID_1_);}
	.st1{fill:url(#SVGID_2_);}
	.st2{fill:url(#SVGID_3_);}
	.st3{fill:url(#SVGID_4_);}
	.st4{fill:url(#SVGID_5_);}
	.st5{fill:url(#SVGID_6_);}
	.st6{fill:url(#SVGID_7_);}
	.st7{fill:url(#SVGID_8_);}
	.st8{fill:url(#SVGID_9_);}
	.st9{fill:url(#SVGID_10_);}
	.st10{fill:url(#SVGID_11_);}
	.st11{fill:url(#SVGID_12_);}
</style>
<g id="Layer_2_1_">
	
		<linearGradient id="SVGID_1_" gradientUnits="userSpaceOnUse" x1="18.662" y1="315.4375" x2="169.9169" y2="315.4375" gradientTransform="matrix(0.6831 -0.4932 -0.7304 -0.4637 274.5372 519.5259)">
		<stop  offset="0" style="stop-color:#404770"/>
		<stop  offset="1" style="stop-color:#3745A5"/>
	</linearGradient>
	<path class="st0" d="M125.1,298c-9.2,0.7-17.6,2.4-25.2,5.4c-13.1,5.2-24.3,11.9-34.2,19.6c-1,0.7-1,2-1.5,3.1
		c-0.2,0.4-0.3,0.9-0.6,1.3c0.1-0.4,0.1-0.9,0.2-1.3c0.1-0.5,0.1-1,0.1-1.7c-0.5,0.4-0.9,0.6-1.2,0.8c-3.4,3-7.1,5.9-10,9.1
		c-2.9,3.2-6.9,5.2-11.8,6.4c-4.6,1.1-9.4,1.9-14.2,2.9c-0.4,0.1-0.7,0.1-1.1,0.2c0,0.1,0,0.2,0.1,0.3c3.2-0.2,6.5-0.2,9.6-0.7
		c11.8-1.6,22.3-5.2,32.3-9.7c8.7-3.9,16.2-8.7,24.5-12.9c13.2-6.7,27.5-11.9,43.8-14.4c2-0.3,4.1-0.5,5.1-0.7
		c-4.8,1-10.6,2-16.2,3.4c-11.2,2.8-21.3,7-30.7,12c-6.7,3.6-13.2,7.4-19.8,11c-6.4,3.5-13.5,6.3-21.3,8.1c-0.4,0.1-0.7,0.2-1,0.4
		c21.6,2.5,41.3-1.3,60.3-8.7c-4.3-0.6-8.1-1.2-12-1.8c0,0,0-0.1,0-0.1c2.4,0.1,4.8,0.2,7.1,0.3c0.3,0,0.5,0,0.8,0
		c7.8,0.2,7.8,0.2,14.1-3c4.8-2.4,9.4-5,14.4-7.3c12-5.5,25.2-8.8,39.5-10.1c5.1-0.5,10.3-0.6,15.5-0.9c-2.3-0.8-4.6-1.8-7-2.6
		c-11.8-4-24.1-7-37.1-8.4c-2.9-0.3-5.9-0.5-8.8-0.6c-0.6,0-1.3,0.2-1.7,0.5c-1.6,0.9-3.2,1.9-5,2.7c1.3-1,2.6-2.1,4.3-3.3
		c-3.5,0.1-6.6-0.5-9.3,1.2c-3.5,2.1-7.2,4.1-11.1,6.2C119.1,302.7,122,300.5,125.1,298z"/>
	
		<linearGradient id="SVGID_2_" gradientUnits="userSpaceOnUse" x1="177.4168" y1="480.3634" x2="337.7832" y2="480.3634" gradientTransform="matrix(-1 0 0 1 343.4 0)">
		<stop  offset="0" style="stop-color:#404770"/>
		<stop  offset="1" style="stop-color:#3745A5"/>
	</linearGradient>
	<path class="st1" d="M166,470.2c-6.4,2.9-12.8,6.1-19.4,8.7c-14.5,5.9-29.6,8.6-45.3,7.8c-10.8-0.6-21.3-2.6-31.6-5.8
		c-6.4-2-12.7-4.3-19-6.7c-4-1.6-7.6-3.9-11.5-5.7c-2.9-1.4-5.9-2.5-8.8-3.9c1.6,0.5,3.2,0.9,4.7,1.6c5.2,2.3,10.3,4.9,15.5,7.1
		c4,1.7,8.1,3,12.2,4.4c13.3,4.4,26.9,7.3,41,7.7c14.6,0.4,28.7-2.3,42-8.5c0.4-0.2,0.8-0.4,1.4-0.7c-5.1-6.6-12-9.1-20-9.3
		c0.5,1.6,0.9,3.2,1.4,4.7c-0.1,0.1-0.2,0.2-0.4,0.3c-1.2-3.2-3.8-3.9-6.8-4c-6.1-0.1-12.1-0.2-18.2-0.4c-6.2-0.2-12.4-0.5-18.5-0.8
		c1.3,1.9,2.8,4.1,4.2,6.3c-3.1-3.1-6-6.6-10.6-8.7c0.7,1.9,1.3,3.4,1.9,5c-11.7-10.3-25.1-16.8-40.8-19.1c1,1.4,1.9,2.6,2.8,3.8
		c-0.1,0.1-0.3,0.3-0.4,0.4c-0.7-0.3-1.4-0.8-2.1-1c-7.5-2-15.1-3.5-22.7-1.1c-5.4,1.7-9.5,5.1-11.2,10.8c-1.2,4.2,0.1,8.2,3.4,10.7
		c7.7,5.8,15.9,10.8,25.8,12.2c1.2,0.2,2.5,0.2,3.8,0.6c-1.3,0.3-2.5,0.6-4,1c1.7,1.4,3.7,2.2,5.7,2.6c4.5,0.9,8.7-0.2,12.9-1.5
		c2.5-0.8,5.1-1.5,7.6-2.1c-6.6,2.5-13.1,5.4-20.3,6.2c1.9,0.9,3.7,1.9,5.6,2.8c10.6,5,21.2,10,32.6,12.8c7.9,2,15.9,3.1,24.1,1.9
		c7.4-1.1,13.8-4.1,18.9-9.7c-0.5,1.8-1.7,3.1-3,4.3c-1.3,1.2-2.7,2.4-3.9,3.8c6.4-2.8,12.9-5.4,17.4-11.6c-0.1,0.6-0.1,0.8-0.2,1.1
		c-0.1,0.3-0.2,0.6-0.4,1.2c0.8-0.5,1.3-0.8,1.8-1.1c4.9-3.5,9.3-7.5,12.5-12.6c0.3-0.5,0.7-0.9,0.8-1.5c0.6-2.4,2.3-3.5,4.4-4.6
		c4.8-2.4,9.4-5.1,13.5-8.6C165.6,470.6,165.8,470.3,166,470.2z"/>
	
		<linearGradient id="SVGID_3_" gradientUnits="userSpaceOnUse" x1="39.2" y1="646.0159" x2="128.1972" y2="646.0159" gradientTransform="matrix(0.9623 0.272 -0.272 0.9623 178.8988 1.5945)">
		<stop  offset="0" style="stop-color:#404770"/>
		<stop  offset="1" style="stop-color:#3745A5"/>
	</linearGradient>
	<path class="st2" d="M115.4,614.9c0.6,1.9,1.2,3.7,1.8,5.4c0.1,0,0.2,0,0.3-0.1c0-1.8-0.2-3.6-0.1-5.3c0.2-3.1,0.6-6.3,1-9.4
		c1.5-9.8,4-19.5,4.3-29.4c0-1.5,0-3,0.3-4.5c0.9,3.2,1.9,6.3,2.8,9.5c1.6,6.1,3.4,12.2,4.7,18.3c1,4.8,2.2,9.7,1.3,14.7
		c-0.5,3-1.6,5.9-2.5,9.2c0.9-1.1,1.6-2,2.6-3.2c-0.2,8.9-3.1,16.6-7.9,23.6c0.1,0.1,0.2,0.1,0.3,0.2c2.1-1.6,4.2-3.3,6.6-5.1
		c-0.6,6.1-4.3,10-8.2,13.8c1-0.5,2-1,3-1.6c1-0.5,1.9-1.1,3.3-1.6c-0.7,2.3-1.2,4.6-2,6.9c-2.3,6.8-5.7,13.1-10.1,18.8
		c-1.3,1.7-3.2,2.4-5,3.1c-2.1,0.9-4.3,1.5-6.4,2.6c2.6-0.5,5.1-1,8-1.6c-1.8,2-3.2,4-5,5.5c-4.1,3.7-8.2,7.5-12.6,10.8
		c-8.9,6.5-18.7,10.9-29.9,11.7c-5.4,0.4-9.3-0.1-16.1-1.8c1.8,0.8,3.6,1.7,5.6,2.7c-2.2,0-4.2-0.2-6.2-0.1
		c-7.5,0.2-14.8,2.2-22.1,3.7c-2.8,0.6-5.7,1-8.5,1.5c0-0.1-0.1-0.3-0.1-0.4c1.2-0.4,2.4-0.8,3.6-1.3c17.3-6,33.7-13.9,48.8-24.4
		c12.9-9,24.1-19.9,33.5-32.5c6-8.1,11.4-16.5,14.8-26.1c2-5.8,3.4-11.8,4.9-17.8c-1.2,4.2-2.3,8.5-3.6,12.7
		c-2.9,9.5-7.3,18.2-13.2,26.2c-16.3,21.8-36.8,38.4-61.3,50c-2.2,1-4.4,2-6.6,3.1c-3.4-6.1,0.9-16.2,6.8-20.5
		c0.2,2.1,0.4,4.1,0.6,6.1c0.4-5.3,2.3-9.9,6.1-13.5c2.6-2.5,5.5-4.9,8.5-6.9c6.4-4,12.9-7.7,19.4-11.5c0.2,1.2,0.3,2.5,0.5,3.7
		c0.7-3.5,2-6.5,5.3-8.7c-0.5,5.3,1,10,3,14.6c-0.1-1.8-0.3-3.6-0.3-5.5c0-7.9,3.1-14.8,7.7-21c5-6.7,10.3-13.2,15.4-19.8
		C113.4,618.2,114.3,616.5,115.4,614.9z"/>
	
		<linearGradient id="SVGID_4_" gradientUnits="userSpaceOnUse" x1="1698.0199" y1="-199.9316" x2="1849.2748" y2="-199.9316" gradientTransform="matrix(-0.6942 4.414708e-02 8.365818e-02 0.6934 1323.3433 892.7664)">
		<stop  offset="0" style="stop-color:#404770"/>
		<stop  offset="1" style="stop-color:#3745A5"/>
	</linearGradient>
	<path class="st3" d="M47.4,846c5.4,3.8,11,6.6,17.1,7.9c10.5,2.4,20.9,2.6,31.4,1.6c1-0.1,1.9-1,2.8-1.6c0.4-0.2,0.7-0.5,1.2-0.7
		c-0.3,0.3-0.7,0.6-1,0.9c-0.3,0.3-0.7,0.7-1.2,1.2c0.5,0,0.9,0,1.2-0.1c3.8-0.7,7.7-1.1,11.4-2.1c3.6-1,7.1-0.6,10.6,0.8
		c3.2,1.4,6.3,3,9.5,4.6c0.2,0.1,0.5,0.2,0.7,0.4c0.1-0.1,0.1-0.2,0.2-0.3c-1.9-1.4-3.6-2.9-5.6-4.1c-7.4-4.4-15.4-6.7-23.7-8.1
		c-7.2-1.2-14.5-1.2-21.7-2c-11.5-1.3-22.7-4.2-33-10c-1.3-0.7-2.5-1.5-3.2-1.9c3.2,1.5,7,3.6,10.9,5.2c7.9,3.2,16.1,4.9,24.4,5.6
		c6,0.5,12,0.8,18,1.2c5.8,0.4,11.4,1.7,16.8,4c0.3,0.1,0.5,0.2,0.8,0.2c-10-12.1-23-18.7-38.1-22.1c1.9,2.5,3.6,4.8,5.3,7
		c0,0-0.1,0.1-0.1,0.1c-1.2-1.2-2.4-2.4-3.6-3.6c-0.1-0.1-0.3-0.3-0.4-0.4c-4.1-3.8-4.1-3.9-9.6-4.5c-4.2-0.5-8.4-0.7-12.6-1.4
		c-10-1.6-19.4-5.4-27.9-11.2c-3.1-2.1-5.9-4.5-8.9-6.7c0.7,1.7,1.3,3.5,2,5.3c3.6,8.6,8.2,16.7,14.4,23.9c1.4,1.6,2.8,3.1,4.3,4.7
		c0.3,0.3,0.8,0.4,1.2,0.5c1.5,0.1,3,0.1,4.5,0.3c-1.4,0.1-2.8,0.3-4.5,0.5c1.9,1.6,3.2,3.5,5.8,3.5c3.3,0.1,6.5,0.4,10.1,0.6
		C53.7,845.4,50.7,845.7,47.4,846z"/>
	
		<linearGradient id="SVGID_5_" gradientUnits="userSpaceOnUse" x1="997.5065" y1="-309.0418" x2="1148.7614" y2="-309.0418" gradientTransform="matrix(0.7972 0.1203 -0.5085 0.6619 318.3235 601.1666)">
		<stop  offset="0" style="stop-color:#404770"/>
		<stop  offset="1" style="stop-color:#3745A5"/>
	</linearGradient>
	<path class="st4" d="M1356.2,542c-8.7,3.1-17,5.1-25,5.8c-13.8,1.1-26.4,0.2-38.2-2c-1.1-0.2-1.6-1.2-2.4-1.9
		c-0.3-0.3-0.6-0.6-1-0.8c0.2,0.3,0.4,0.6,0.6,1c0.2,0.4,0.4,0.7,0.7,1.3c-0.6-0.1-1-0.1-1.4-0.2c-4.1-1.1-8.5-1.9-12.3-3.3
		c-3.7-1.4-8.1-1.4-13-0.4c-4.6,1-9.3,2.2-14,3.3c-0.4,0.1-0.7,0.2-1.1,0.3c0-0.1,0-0.2-0.1-0.3c3-1.1,6-2.4,9-3.3
		c11.4-3.5,22.2-4.8,32.9-5.2c9.3-0.4,17.8,0.5,26.9,0.5c14.4,0,29.3-1.5,45.1-6c2-0.6,3.9-1.2,4.9-1.5c-4.7,1.1-10.4,2.7-16,3.8
		c-11.3,2.2-22,2.9-32.3,2.7c-7.4-0.1-14.6-0.6-22-0.8c-7.1-0.2-14.5,0.4-22.3,2c-0.4,0.1-0.7,0.1-1.1,0.1
		c19-10.6,38.3-15.5,58.3-17.2c-3.7,2.2-7,4.2-10.4,6.2c0,0,0.1,0.1,0.1,0.1c2.1-1,4.3-2.1,6.4-3.1c0.2-0.1,0.5-0.2,0.7-0.3
		c7.1-3.3,7.1-3.3,14-3.3c5.3,0,10.4,0.2,15.7,0.1c12.9-0.4,26.2-3.1,39.7-7.8c4.9-1.7,9.7-3.7,14.5-5.5c-1.8,1.6-3.6,3.3-5.5,4.9
		c-9.4,7.9-19.6,15.2-31.1,21.5c-2.6,1.4-5.2,2.7-7.9,4c-0.5,0.2-1.2,0.3-1.8,0.3c-1.8-0.1-3.6-0.2-5.5-0.2c1.6,0.3,3.1,0.6,5.1,1
		c-3.2,1.3-5.8,3-8.9,2.8c-3.9-0.3-8-0.4-12.3-0.5C1349,540.7,1352.4,541.3,1356.2,542z"/>
	
		<linearGradient id="SVGID_6_" gradientUnits="userSpaceOnUse" x1="-1018.4667" y1="672.7469" x2="-858.1003" y2="672.7469" gradientTransform="matrix(0.7196 0.2921 -0.3978 0.5858 2261.0239 559.8792)">
		<stop  offset="0" style="stop-color:#404770"/>
		<stop  offset="1" style="stop-color:#3745A5"/>
	</linearGradient>
	<path class="st5" d="M1264.6,650.6c3.5,3.6,6.8,7.3,10.5,10.8c8.1,7.7,17.9,13.7,29.5,17.8c8,2.8,16.4,4.7,25,5.9
		c5.4,0.7,10.9,1.2,16.3,1.6c3.5,0.2,7,0,10.5,0c2.6,0,5.2,0.3,7.9,0.3c-1.3-0.2-2.7-0.4-4-0.4c-4.7-0.1-9.4-0.1-14-0.4
		c-3.5-0.2-7-0.6-10.5-1c-11.3-1.3-22.3-3.6-32.6-7.5c-10.7-4.1-19.8-9.7-26.8-17.3c-0.2-0.2-0.4-0.5-0.7-0.8
		c6.3-2.4,12.3-1.8,18.1,0.4c-1,0.8-1.9,1.6-2.9,2.3c0.1,0.1,0.1,0.2,0.2,0.3c2.1-1.5,4.3-1.2,6.5-0.4c4.4,1.7,8.8,3.4,13.2,5.1
		c4.5,1.7,9.1,3.3,13.6,5c-1.7,0.7-3.6,1.6-5.5,2.4c3.5-0.9,6.9-2.1,11.1-2c-1.3,0.9-2.3,1.6-3.4,2.3c12.5-2.6,24.8-2.5,37,0.7
		c-1.3,0.5-2.4,1-3.5,1.4c0,0.1,0.1,0.2,0.1,0.4c0.6,0,1.3-0.1,1.9,0c6.2,1,12.2,2.4,16.8,6c3.2,2.6,4.8,5.8,3.7,9.6
		c-0.8,2.8-3.3,4.8-6.7,5.3c-7.9,1.2-15.8,1.7-23.4-0.4c-1-0.3-1.9-0.6-3-0.8c0.8,0.5,1.6,1.1,2.5,1.7c-1.8,0.3-3.5,0.2-5.2-0.2
		c-3.6-0.8-6.2-2.7-8.7-4.7c-1.5-1.2-3-2.4-4.7-3.5c3.7,3.4,7.2,7,12.2,9.6c-1.7,0-3.4,0-5.2,0c-9.6-0.1-19.2-0.3-28.6-2
		c-6.5-1.2-12.7-2.8-18.1-5.9c-4.9-2.8-8.3-6.5-9.8-11.2c-0.4,1.2,0,2.3,0.4,3.4c0.4,1.1,1,2.2,1.3,3.4c-3.5-3.5-7.1-6.9-7.9-11.9
		c-0.2,0.4-0.2,0.5-0.3,0.7c-0.1,0.2-0.1,0.4-0.2,0.8c-0.4-0.5-0.6-0.9-0.9-1.2c-2.2-3.5-3.7-7.1-4-11c0-0.4-0.1-0.8,0-1.1
		c0.6-1.6-0.3-2.8-1.4-4c-2.5-2.8-4.7-5.7-6.3-9C1264.7,650.9,1264.6,650.7,1264.6,650.6z"/>
	
		<linearGradient id="SVGID_7_" gradientUnits="userSpaceOnUse" x1="937.938" y1="26.4494" x2="1026.9352" y2="26.4494" gradientTransform="matrix(7.330589e-02 0.9973 0.9973 -7.330589e-02 1206.462 -770.4447)">
		<stop  offset="0" style="stop-color:#404770"/>
		<stop  offset="1" style="stop-color:#3745A5"/>
	</linearGradient>
	<path class="st6" d="M1268,232.2c1.7,1,3.3,1.9,5,2.8c0,0.1-0.1,0.2-0.1,0.3c-1.7-0.4-3.5-0.9-5.2-1.1c-3.1-0.4-6.3-0.7-9.4-0.9
		c-9.9-0.5-19.9,0-29.7-1.7c-1.5-0.3-3-0.6-4.5-0.7c2.9,1.5,5.8,3.1,8.8,4.6c5.6,2.8,11.2,5.8,17,8.3c4.5,1.9,9.1,4.1,14.1,4.3
		c3.1,0.1,6.1-0.4,9.6-0.6c-1.3,0.7-2.3,1.2-3.6,1.9c8.7,1.5,16.8,0.3,24.7-3c0.1,0.1,0.1,0.2,0.2,0.3c-2,1.8-4.1,3.5-6.3,5.4
		c6.1,0.6,10.6-2.2,15.2-5.3c-0.7,0.9-1.4,1.7-2.1,2.6c-0.7,0.8-1.5,1.6-2.2,2.9c2.4-0.2,4.8-0.3,7.2-0.5c7.1-0.9,13.9-2.9,20.4-6.1
		c1.9-0.9,2.9-2.6,4-4.3c1.3-1.9,2.4-3.9,3.8-5.8c-1,2.4-2,4.8-3.2,7.5c2.3-1.3,4.5-2.4,6.4-3.8c4.5-3.3,9-6.5,13.1-10.2
		c8.2-7.4,14.5-16.1,17.5-26.9c1.5-5.2,1.7-9.2,1.5-16.1c0.5,1.9,0.9,3.8,1.5,6c0.4-2.2,0.7-4.2,1.1-6.1c1.7-7.3,5.1-14,8.1-20.9
		c1.1-2.6,2.1-5.4,3.2-8c-0.1-0.1-0.3-0.1-0.4-0.2c-0.6,1.1-1.3,2.2-1.9,3.2c-9.4,15.7-20.4,30.3-33.7,42.9
		c-11.4,10.8-24.3,19.6-38.6,26.3c-9.2,4.3-18.5,7.9-28.5,9.2c-6.1,0.8-12.3,1-18.4,1.2c4.4-0.3,8.8-0.6,13.1-1
		c9.9-0.9,19.3-3.5,28.3-7.7c24.6-11.5,45-28.3,61.3-50.1c1.5-2,2.9-3.9,4.3-5.9c-5.3-4.6-16.1-2.4-21.5,2.5c2,0.6,3.9,1.2,5.8,1.8
		c-5.2-0.7-10.1,0.3-14.5,3.2c-3,2.1-5.9,4.4-8.5,7c-5.2,5.4-10.1,11.1-15.1,16.7c1.2,0.4,2.4,0.8,3.6,1.3c-3.6,0-6.8,0.6-9.6,3.4
		c5.3,0.5,9.6,3,13.7,5.9c-1.8-0.5-3.5-1-5.3-1.3c-7.8-1.6-15.1,0-22.1,3.4c-7.5,3.6-15,7.4-22.5,11.1
		C1271.6,230.9,1269.8,231.5,1268,232.2z"/>
	
		<linearGradient id="SVGID_8_" gradientUnits="userSpaceOnUse" x1="1412.4574" y1="406.8403" x2="1501.4546" y2="406.8403" gradientTransform="matrix(-0.5412 0.5734 0.7273 0.6864 1819.6342 -283.9345)">
		<stop  offset="0" style="stop-color:#404770"/>
		<stop  offset="1" style="stop-color:#3745A5"/>
	</linearGradient>
	<path class="st7" d="M1287.1,816.9c0.6,1.8,1.2,3.4,1.7,5.1c-0.1,0-0.2,0-0.3,0.1c-1-1.5-1.8-3-2.9-4.4c-1.9-2.5-3.9-4.9-5.9-7.3
		c-6.5-7.5-13.7-14.4-19.4-22.5c-0.9-1.2-1.7-2.4-2.7-3.6c1.1,2.9,2.1,5.9,3.3,8.8c2.2,5.6,4.2,11.2,6.7,16.7
		c1.9,4.3,3.8,8.7,7.1,12.5c2,2.3,4.4,4.3,6.9,6.6c-1.3-0.6-2.3-1-3.6-1.6c5.1,7.2,11.4,12.4,18.7,16.4c0,0.1-0.1,0.2-0.1,0.3
		c-2.4-0.6-4.9-1.1-7.6-1.8c3.8,4.7,8.6,6.6,13.5,8.3c-1-0.1-2-0.1-3-0.2c-1-0.1-2-0.2-3.3-0.1c1.7,1.6,3.4,3.3,5.2,4.9
		c5.4,4.7,11.3,8.6,17.6,11.6c1.9,0.9,3.6,0.8,5.3,0.7c2-0.1,3.9-0.3,6-0.2c-2.1,0.5-4.3,1-6.6,1.6c2.4,1,4.5,2,6.7,2.7
		c5,1.5,10,3.2,15,4.2c10,2.1,19.5,2.1,28-1.3c4.1-1.7,6.6-3.5,10.6-7.3c-0.8,1.3-1.6,2.7-2.5,4.2c1.6-0.9,2.9-1.7,4.4-2.3
		c5.5-2.6,11.8-3.6,17.9-5c2.4-0.6,4.6-1.2,7-1.9c-0.1-0.1-0.1-0.3-0.2-0.4c-1.1,0.1-2.2,0.2-3.3,0.3c-15.8,1.4-31.9,1-48.5-2.1
		c-14.3-2.7-28.3-7.4-42-14.4c-8.8-4.4-17.3-9.3-25-15.9c-4.7-4-9-8.4-13.3-12.8c3.2,3,6.4,6.1,9.6,9c7.3,6.7,15.3,12.2,24,16.5
		c23.7,11.9,47.6,17.9,71.7,18.4c2.2,0,4.3,0,6.5,0.1c-0.9-6.2-9.6-12.9-16.2-14.3c1,1.8,2,3.5,2.9,5.2c-3.2-4.2-7.1-7.2-11.8-8.8
		c-3.3-1.1-6.7-2-9.9-2.5c-6.8-1-13.6-1.6-20.3-2.3c0.6,1.1,1.1,2.1,1.7,3.2c-2.5-2.6-5.1-4.6-8.6-5.2c3.3,4.1,4.8,8.5,5.9,13
		c-0.9-1.5-1.8-3.1-2.8-4.6c-4.4-6.5-10.4-11-17.2-14.3c-7.3-3.6-14.7-7-22-10.5C1290.4,818.8,1288.7,817.8,1287.1,816.9z"/>
</g>
<g id="Layer_1">
	<g id="Layer_2">
	</g>
	
		<linearGradient id="SVGID_9_" gradientUnits="userSpaceOnUse" x1="1204.4973" y1="833.6933" x2="1408.4702" y2="833.6933" gradientTransform="matrix(1 0 0 -1 0 900)">
		<stop  offset="0" style="stop-color:#404770"/>
		<stop  offset="1" style="stop-color:#3745A5"/>
	</linearGradient>
	<path class="st8" d="M1408.5,38.2c-7.3,4.3-14.4,8.7-21.9,12.8c-16.5,8.9-34.8,14.9-54.8,17.6c-13.8,1.9-27.7,2.2-41.6,1.6
		c-8.7-0.5-17.4-1.2-25.9-2.2c-5.4-0.6-10.7-2-16.2-2.9c-4.1-0.7-8.2-1.1-12.2-1.8c2.1,0.2,4.3,0.2,6.4,0.5
		c7.3,1.1,14.4,2.4,21.8,3.4c5.5,0.7,11.1,1.1,16.7,1.4c18.1,1.2,36.2,1,54-1.8c18.6-2.9,35.6-8.6,50.5-17.6c0.5-0.3,0.9-0.6,1.5-1
		c-8.5-5.2-17.8-6.1-28-4.4c1.1,1.4,2.1,2.8,3.2,4.2c-0.2,0.1-0.2,0.2-0.4,0.3c-2.5-2.8-6-2.9-9.7-2.3c-7.7,1.2-15.3,2.5-23,3.7
		c-7.9,1.2-15.8,2.3-23.6,3.4c2.2,1.6,4.7,3.3,7.2,5.1c-4.9-2.3-9.5-5-15.9-6c1.5,1.7,2.7,3,3.9,4.3c-17.8-7.3-36.7-10.6-57.2-9.2
		c1.7,1.2,3.2,2.1,4.7,3c-0.2,0.2-0.3,0.3-0.4,0.5c-1-0.2-2-0.5-2.9-0.5c-10-0.2-20.1,0.1-29,4c-6.3,2.8-10.5,7.1-11,12.9
		c-0.3,4.4,2.5,7.9,7.5,9.6c11.5,3.9,23.3,6.9,36.2,6c1.7-0.1,3.2-0.3,5.1-0.2c-1.5,0.6-3,1.2-4.8,1.8c2.6,0.9,5.3,1.3,8,1.2
		c5.9-0.1,11-2.2,15.9-4.4c2.9-1.3,5.9-2.6,9-3.7c-7.6,3.9-14.9,8.2-23.9,10.6c2.6,0.5,5.3,1,7.9,1.4c14.9,2.5,29.7,4.8,45,5
		c10.6,0.1,21-0.6,31-3.5c9.1-2.7,16.2-7.1,21.1-13.6c-0.1,1.8-1.2,3.3-2.5,4.8c-1.3,1.5-2.6,2.9-3.9,4.5
		c7.3-4.1,14.7-8.1,18.5-15.1c0,0.6,0.1,0.8,0.1,1.1c0,0.3-0.1,0.6-0.2,1.3c0.8-0.6,1.4-1,2-1.5c5.2-4.4,9.5-9.3,12-15
		c0.2-0.5,0.6-1,0.6-1.6c0-2.5,1.9-3.9,4.2-5.4c5.4-3.4,10.3-7,14.5-11.3C1408.1,38.6,1408.3,38.3,1408.5,38.2z"/>
	
		<linearGradient id="SVGID_10_" gradientUnits="userSpaceOnUse" x1="1194.658" y1="569.8177" x2="1292.2872" y2="569.8177" gradientTransform="matrix(-0.5402 0.8415 0.8415 0.5402 1502.88 -981.2639)">
		<stop  offset="0" style="stop-color:#404770"/>
		<stop  offset="1" style="stop-color:#3745A5"/>
	</linearGradient>
	<path class="st9" d="M1340,407.9c-9.1,1.9-17.8,2.3-26.5,0.4c-14.9-3-28.7-9-41.7-16.6c-1.2-0.7-1.9-2.6-2.8-3.9
		c-0.3-0.6-0.6-1.1-1.2-1.6c0.3,0.6,0.5,1.2,0.8,1.7c0.3,0.6,0.6,1.3,0.9,2.3c-0.7-0.4-1.2-0.6-1.5-0.8c-4.7-3.2-9.5-6-13.8-9.6
		c-4.2-3.5-9-5.1-14.2-5.1c-4.9-0.1-9.9,0.3-14.7,0.5c-0.4,0-0.8,0-1.2,0.1c-0.1-0.1-0.1-0.4-0.1-0.5c3.2-0.7,6.2-1.7,9.4-2.2
		c11.9-1.5,23.6,0.2,35.1,3.3c10,2.7,19.5,7,29.3,10.3c15.7,5.2,31.7,7.9,48.3,6.2c2.1-0.2,4.1-0.6,5.2-0.7c-5,0.1-10.9,0.6-17,0.5
		c-12-0.3-23.6-3-34.8-7c-8.1-2.9-16-6.1-24-9.1c-7.7-2.8-15.8-4.4-24-4.6c-0.4,0-0.7-0.1-1.2-0.2c19.3-10.4,39.8-11.3,61.3-7
		c-3.7,2.2-7.1,4.2-10.5,6.2c0.1,0,0.1,0.1,0.2,0.2c2.2-0.9,4.4-1.8,6.6-2.7c0.3-0.1,0.5-0.1,0.7-0.3c7.3-2.8,7.3-2.8,14.8-0.3
		c5.7,1.9,11.3,4,17.1,5.6c13.9,3.8,28,4.2,42.3,1.5c5.1-0.9,10-2.5,15.1-3.7c-1.7,1.9-3.6,4-5.4,5.8c-9.3,9.4-19.4,17.5-31.3,23.5
		c-2.7,1.3-5.4,2.5-8,3.7c-0.5,0.2-1.3,0-1.9-0.2c-2-0.8-4-1.6-6-2.3c1.8,1,3.5,2.1,5.6,3.3c-3.4,1-6,2.8-9.4,1.3
		c-4.3-1.9-8.8-3.4-13.4-5.2C1332,403.3,1335.9,405.5,1340,407.9z"/>
	
		<linearGradient id="SVGID_11_" gradientUnits="userSpaceOnUse" x1="675.3885" y1="1586.3772" x2="772.989" y2="1586.3772" gradientTransform="matrix(0.3159 0.9488 -0.9488 0.3159 1399.3484 -1140.04)">
		<stop  offset="0" style="stop-color:#404770"/>
		<stop  offset="1" style="stop-color:#3745A5"/>
	</linearGradient>
	<path class="st10" d="M85.9,74.9c8.3,4.1,16.7,6.6,25.6,7c15.2,0.7,30-1.6,44.5-5.8c1.4-0.4,2.5-2,3.7-3c0.5-0.4,0.9-0.9,1.6-1.3
		c-0.4,0.5-0.8,1-1.2,1.5c-0.4,0.6-0.8,1.1-1.4,2c0.8-0.2,1.2-0.2,1.7-0.4c5.3-1.9,10.7-3.5,15.7-5.9s9.9-2.7,15-1.5
		c4.8,1.1,9.5,2.7,14.2,4.1c0.4,0.1,0.7,0.2,1.1,0.3c0.1-0.2,0.1-0.3,0.2-0.5c-2.9-1.5-5.6-3.2-8.6-4.4c-11.2-4.5-22.9-5.6-34.9-5.5
		c-10.4,0.1-20.6,2-30.9,2.7c-16.5,1.1-32.7-0.2-48.3-5.9c-1.9-0.7-3.8-1.6-4.8-1.9c4.8,1.4,10.5,3.3,16.3,4.6
		c11.7,2.6,23.6,2.9,35.4,1.8c8.5-0.8,17-2,25.5-2.9c8.2-0.8,16.4-0.4,24.4,1.5c0.4,0.1,0.8,0.2,1.2,0
		c-16.2-14.8-35.7-20.8-57.7-21.9c3.1,3.1,5.9,5.9,8.7,8.7c-0.1,0.1-0.1,0.1-0.2,0.2c-1.9-1.4-3.8-2.8-5.8-4.2
		c-0.2-0.2-0.4-0.3-0.6-0.4c-6.4-4.5-6.4-4.5-14.3-4c-6,0.4-12,1.1-18,1.2c-14.2,0.2-28-2.8-41.1-8.9c-4.7-2.2-9.1-4.9-13.7-7.4
		c1.2,2.3,2.4,4.7,3.8,7c6.6,11.4,14.6,21.7,24.5,30.5c2.2,2,4.6,3.8,6.9,5.6c0.4,0.3,1.2,0.4,1.8,0.3c2.1-0.3,4.2-0.6,6.4-0.7
		c-1.9,0.6-3.9,1.1-6.3,1.8c3,1.7,5.1,4.2,8.7,3.6c4.6-0.7,9.3-1.1,14.3-1.7C94.8,72.4,90.5,73.6,85.9,74.9z"/>
	
		<linearGradient id="SVGID_12_" gradientUnits="userSpaceOnUse" x1="-9.999621e-02" y1="720.8716" x2="171.7" y2="720.8716" gradientTransform="matrix(1 0 0 -1 0 900)">
		<stop  offset="0" style="stop-color:#404770"/>
		<stop  offset="1" style="stop-color:#3745A5"/>
	</linearGradient>
	<path class="st11" d="M35.4,162c34.7,17,69.7,33.1,107.5,42.4c-1.7,5.2-13.4,9.2-22.2,7.6c1.1-1.2,2.2-2.3,3.2-3.5
		c-0.1-0.1-0.1-0.1-0.2-0.2c-1.2,0.8-2.4,1.6-3.5,2.4c-1.3,1-2.7,1.2-4.3,0.9c-9.4-1.6-18.3-4.8-27-8.6c-4.2-1.9-8.4-4-12.6-6
		c-0.5-0.2-1-0.5-1.6-0.9c1.3-0.7,2.4-1.3,3.6-2c0,0,0-0.1-0.1-0.1c-1.7,0.4-3.5,1.3-5.2,1.1s-3.2-1.6-4.9-2.5
		c3.4-1.8,6.6-3.6,9.9-5.3c-0.1-0.1-0.1-0.2-0.2-0.4c-1.8,0.6-3.5,1.2-5.3,1.9c-0.3,0.1-0.7,0.2-1,0.3c-6.4,1.8-6.5,1.9-12.2-1.6
		c-8.8-5.6-17.5-11.4-26.3-17c-0.5-0.3-1-0.6-1.8-1c1.4-0.8,2.4-1.3,3.4-1.9c0-0.1-0.1-0.2-0.1-0.2c-0.2,0.1-0.3,0.1-0.5,0.2
		c-2.5,1.4-4.5,0.7-6.7-1c-8.7-6.7-17.5-13.2-26.3-19.7c-0.3-0.2-0.5-0.5-1.1-1c3.6,0.3,6.9,0.4,10.1,0.8
		c11.7,1.6,23.3,3.3,34.9,4.9c1.4,0.2,2.5,0.8,3.3,1.9c0.5,0.7,1.2,1.4,2.1,1.9c-0.6-0.9-1.2-1.8-1.9-3c2.6,0.4,4.9,0.6,6.6,2.7
		c1.5,1.9,3.2,3.6,5,5.3c-1.4-2.1-2.7-4.1-4.3-6.4c1.2,0.2,2.2,0.4,3.1,0.6c12.3,3,24.4,6.4,36.1,11.3c6.3,2.6,12.6,5.4,18.6,8.7
		c5.8,3.2,11.3,7.1,16.8,10.9c1.1,0.8,1.9,2.2,2.6,3.5c1,1.6,1.7,3.4,2.6,5.1c0.1,0.2,0.3,0.3,0.7,0.6c-0.8-2.2-1.6-4-2.3-5.9
		c0.1-0.1,0.2-0.2,0.3-0.2c0.4,0.3,0.8,0.5,1.1,0.8c2.7,2.6,5.2,5.3,8,7.7c1.3,1.2,2.8,2.3,4.5,3c6.6,2.7,13.3,5.1,20,7.7
		c1.4,0.5,2.7,1.2,3.9,2C124.6,198.6,79,183.2,35.4,162z"/>
</g>
</svg>
