<?xml version="1.0" encoding="utf-8"?>
<!-- Generator: Adobe Illustrator 20.1.0, SVG Export Plug-In . SVG Version: 6.00 Build 0)  -->
<svg version="1.1" id="Layer_1" xmlns="http://www.w3.org/2000/svg" xmlns:xlink="http://www.w3.org/1999/xlink" x="0px" y="0px"
	 viewBox="0 0 1440 900" style="enable-background:new 0 0 1440 900;" xml:space="preserve">
<style type="text/css">
	.st0{fill:#F2F2F2;}
	.st1{fill:url(#SVGID_1_);}
	.st2{opacity:0.41;fill:#71B1B1;enable-background:new    ;}
	.st3{opacity:0.22;fill:#71B1B1;}
	.st4{fill:#CEECFB;}
	.st5{fill:#71B1B1;}
</style>
<g id="Layer_6">
	<rect y="-0.8" class="st0" width="1440" height="900.4"/>
</g>
<g id="Layer_2">
	
		<linearGradient id="SVGID_1_" gradientUnits="userSpaceOnUse" x1="719.0648" y1="900.9" x2="719.0648" y2="0.3" gradientTransform="matrix(-1 0 0 -1 1439.0648 900)">
		<stop  offset="0" style="stop-color:#0071BC;stop-opacity:0.5"/>
		<stop  offset="0.2855" style="stop-color:#4C9BD0;stop-opacity:0.6428"/>
		<stop  offset="0.7815" style="stop-color:#CCE26E;stop-opacity:0.8908"/>
		<stop  offset="1" style="stop-color:#A9E16F"/>
	</linearGradient>
	<polygon class="st1" points="0,899.7 1440,899.7 1440,-0.9 0,-0.8 	"/>
</g>
<path class="st2" d="M1218,900c0,0-52.5-781.8-36-898.1L1124-1c0,0,31.5,860.9,47,901.1L1218,900L1218,900z"/>
<path class="st2" d="M296.9,899.8c0,0-40.4-781.6-27.7-897.9L224.5-1c0,0,24.2,860.9,36.2,900.9L296.9,899.8L296.9,899.8z"/>
<path class="st2" d="M1398.2,900c0,0-20.1-781.6-13.8-897.9l-22.2-2.9c0,0,12.1,860.7,18,900.9L1398.2,900L1398.2,900z"/>
<path class="st3" d="M996,631.3c7.9-4.4,8.5-6.1,6.3-15.3c-1.7-7.2-1.5-14.3,4.2-20c5-4.9,6.9-10.7,6.2-17.6
	c-0.4-3.5-0.2-7-0.4-10.5c-0.3-5.6,0.4-10.9,3.6-15.7c3.4-5.2,3.2-10.8,2.5-16.8c-0.7-5.4-0.1-11,0.1-16.5
	c0.4,6.1,0.8,12.3,1.3,18.4c0.5,0,1,0.1,1.5,0.1c1.4-2.9,2.8-5.7,4.1-8.6c-2,13.5-9.8,25.3-9.7,39.2c5.4-8.3,17.8-12,14.8-25.5
	c0.6,0.2,1.1,0.4,1.7,0.6c0.3,1.6,0.6,3.2,0.8,4.6c8.6,1.2,11.6-6.5,16.9-10.5c-1.8,2.8-3.6,5.5-5.6,8.2c-0.7,0.9-1.6,2.2-2.5,2.3
	c-10.7,1.3-12.9,11.9-19.2,17.9c-5.7,5.5-8.8,13-5.7,21.7c6.8-1.7,12.4-9.3,21.4-5.3c1.9-7.8,4.9-14.6,14-16
	c-10.5,8.7-10.9,9.3-10.3,17.1c6.2-1.9,12.2-3.8,17.4-5.4c-5.2,4.6-11.6,7.7-19.6,6.8c-12.2-1.3-21.3,5.2-29.7,12.8
	c-4.3,4-5.8,9.1-3.9,15c2.6,8.2,1.4,15.2-4.8,22c-3.9,4.3-5.8,10.5-8.3,16c-0.7,1.5-0.3,3.4-0.5,6.5c1.7-1.9,2.4-2.5,2.9-3.2
	c3.6-6.1,9.1-9.6,15.9-11c6.6-1.4,10-4.9,10.6-11.8c0.8-8.8,8.7-16.3,17.8-15.3c2.4,0.3,5.5-1.3,7.4-3.1c2.9-2.7,4.7-6.4,7.4-9.3
	c1.9-2.1,4.4-5.1,6.7-5.1c6.4-0.2,11.2-3.3,16.4-6.3c-2.4,2.2-4.8,4.5-8.2,7.6c6.2,0.5,11.5,0.9,16.8,1.3c0,0.2,0.1,0.4,0.1,0.6
	c-3.9,0-7.9,0.2-11.8-0.1c-1.8-0.1-3.5-1-5.3-1.5c-6.6-1.6-9.2-0.3-12.8,5.4c-2.9,4.5-6.5,8.6-10.3,13.5c6,0,11.9-0.3,17.8,0.1
	c5.8,0.3,11.5,1.3,17.1,3c-6.7-0.5-13.6-2-20.2-1.2c-7.5,0.8-14.5,0-21.8-1.8c-6.1-1.5-10.4,2.1-12.6,8.1c-0.3,0.9-0.8,1.9-0.9,2.9
	c-1.2,10-6.1,16.2-16.5,18.3c-7.9,1.7-11.3,8.9-14.5,15.5c-0.9,1.8,0.7,4.8,0.9,7.2c0.7,6.1,1.7,12.2,1.7,18.3
	c0.1,6.1-3.4,10.6-8.9,13.3c-3.3,1.6-6.7,3-9.8,4.9c-3.4,2-5.5,5.1-5.2,10.2c2.2-1.6,3.8-3.3,5.7-4c3.8-1.4,7.7-3.1,11.7-3.2
	c4.3-0.1,7.5-1.2,9.4-5c2.6-5.2,6.6-7.5,12.3-8.8c11.8-2.8,11.6-3.9,14.9-18.6c0.7-2.9,0.7-5.9,1-8.9c0.6-6.1,4.2-8.7,10.2-7.5
	c4.6,1,11.8-6.3,11.9-12.2c0.1-3.7,0-7.4,0.5-11.1c2.1,9.8,1.4,18.9-7.5,25.2c4.3,5.6,7.5,6,11.8,1.6c3.4-3.5,6.5-6.7,12.1-6.6
	c2.1,0,4.3-2.7,6.4-4.3c1.4-1.1,2.6-2.4,4-3.7c3.5,6.2,13.2,7.9,24.5,4.6c-7.2,5.6-9.6,5.9-17.7,2.2c-4.4-2-8.7-3.5-12.3,1.5
	c-0.5,0.7-1.7,1.6-2.5,1.5c-6.2-0.7-9.5,3.9-13.6,7.2c-5.7,4.6-9.4,4.1-14.8-0.6c-1.7-1.5-4.2-2.1-6.4-3.2c-1,2.3-2.5,4.5-2.9,6.9
	c-1,6.5-1.6,13.1-2.4,19.7c2.1,0.7,4.7,1.7,7.3,2.6c0.9,0.3,2.4,1.1,2.8,0.7c3.3-3.1,7.7-2.2,11.4-3.5c5.4-1.9,10.2-5.5,15.5-7.2
	c5.4-1.7,11.2-2.1,17-1.9c-5.5,1-11.1,1.9-16.6,2.9c0,0.6,0.1,1.1,0.1,1.7c6.2,4.5,12.8,7.9,20.9,7.5c-6,1-11.7,0.7-17-2.7
	c-6.8-4.4-9.2-3.9-15.8,0.8c-1.7,1.3-4.1,1.7-6.2,2.4c-0.6,0.2-1.6-0.1-1.9,0.3c-4,4.6-8.1,2.7-12.9,1c-2.7-1-6.4,0.2-9.5,1.2
	c-3.6,1.1-6.9,3.2-10.5,4.3c-4.5,1.4-8.2,3.7-10.4,8c-2.3,4.4-6.2,6-10.8,7.1c-3.5,0.8-7.5,1.6-10.1,3.8
	c-10.2,8.7-18.4,18.6-18,33.3c0.3,8.6-1.1,17.3-0.6,25.9c0.7,11.4,2.7,22.7,4.1,34c0.1,0.8,0.1,1.6,0.2,3.2c-3.3,0-6.4-0.1-9.4,0
	c-4.9,0.1-9.8,0.2-14.6,0.6c-3.5,0.3-6.3,0-5.4-4.5c1.1-5.7,1.8-11.5,3.8-16.9c4.7-12.8,4.9-25.7,2.1-38.8
	c-3.6-16.4-1.6-32.3,3.6-48.1c1.4-4.2,2.4-8.6,3.7-12.9c1.1-4,1.8-7.8-1.3-11.3c-0.5-0.5-0.6-1.5-0.6-2.3c0-4.6,0.3-8.3-6-10.5
	c-5.2-1.9-9.2-7.3-13.4-11.6c-4.8-4.8-9.9-5.1-15.3-1.8c-5.6,3.4-10.4,3.8-15.7-1.1c-2.4-2.2-6.9-1.8-10.3-3.1
	c-2.3-0.9-5.1-2-6.4-3.9c-7.3-11.3-7.3-11.5-19.1-7.3c-2-1.8-3.8-3.4-5.5-4.9c0,0.4,0,0.7,0.1,1.1c4.4,0.1,8.8,0.6,13.1,0.2
	c5.1-0.5,8.4,1.6,10.7,5.7c3.2,5.4,7.7,7.6,13.9,6.2c0.3-4.2,1-8.4,0.6-12.6c-0.2-2-2-4.4-3.7-5.6c-4.2-2.7-8.8-4.8-13.4-7.2
	c3.6-4.5,1.7-7.4-8.4-13.8c6.5,1.4,10.4,4.1,11.6,9.5c1.2,5.5,4.4,8.8,10,9.6c4.7,0.7,6.4,3.4,6.1,8c-0.2,3.6-0.1,7.4,0.4,10.9
	c0.9,5.4,6.4,8,11.3,5.7c10.5-4.9,10.5-4.9,21.2-3.2c-0.2-1.7-0.4-3.3-0.6-4.9c-0.4-5.6,0.5-10.6,5.9-13.8c3.4-2,4.9-4.8,2.7-8.8
	c-0.9-1.7-1.4-3.7-1.8-5.7c-0.9-4.8-2.9-8.1-8.1-10.1c-6.4-2.4-11.7-7.6-12.7-14.5c-1.6-10.6-10.3-14.5-21.2-9.5
	c-4.2,1.9-8.1,2.9-10.9,1.4c5.9-1.7,12.8-3.7,19.8-5.7c-5.2-9.6-11.9-12.8-23.2-11.7c-3.1,0.3-6.3-0.2-9.4-0.4c0-0.4,0-0.8,0.1-1.3
	c4.6,0,9.3,0,15.2,0c-3.1-2.4-5-3.9-6.8-5.3c0.3-0.4,0.5-0.8,0.8-1.2c6.3,3.8,12.8,7.5,19,11.6c4.4,3,8.7,6.3,12.4,10
	c2.8,2.8,5.5,6.3,6.8,10c2.1,6,5.9,9.8,11.5,12.2c3,1.3,4.7,0.8,5.7-2.8c3.7-13.1,0.7-21.2-11.3-28c-5.3-3-9.4-6.7-11.4-12.6
	c-2.6-7.3-7.7-11.4-15.5-12c-2.1-0.2-4.1-0.8-6.1-2.1c4.3,0.4,8.5,0.9,13.7,1.4c-1.8-2.3-3.2-4.1-4.6-5.9c0.4-0.3,0.7-0.6,1.1-0.9
	c4.4,5.7,9.4,11.1,13,17.3c4.3,7.5,10.8,11.8,18.7,15.6c0.5-4.6,1.2-8.8,1.3-13c0.2-5.7-2.2-10.1-7.5-13.1c-2.7-1.5-4.7-4.1-6.4-6.8
	c5.1,4,10.1,8,15.4,12.2c5.2-2.2,7.4-6.5,7.5-12.4c0.1-3.8,1-7.5,1.5-11c1.5,0,2.4,0,2.3,0c-0.7,3.7-2,7.6-2,11.5
	c-0.1,5.5-1.5,9.9-6,13.5c-1.6,1.3-2.4,4-2.9,6.2c-0.6,3.2-0.7,6.6-0.8,9.9c0,2.3-0.2,5,0.9,6.7c5,8.2,4.5,16.9,3.2,25.7
	c-0.8,5.2-0.6,9.9,2,14.4c1,1.7,1.6,3.6,2.5,5.5c2.1,4.8,1.3,9-3,11.8c-7.5,4.8-6.6,11.6-5,18.6c1.6,6.9,6.4,10.5,13,11.2
	c4.2,0.4,5.3,2.2,5.5,5.9c0.1,1.9,1.7,3.6,2.5,5.4c1.7-1.1,3.9-1.8,5.1-3.2c4-5,9.1-7.4,15.5-7.8c6.6-0.5,7.4-1.8,7.7-8.1
	c0.3-5.3,1-10.6,2.1-15.7c1.4-6.6-0.2-12.1-4.4-17.1c-1.9-2.3-4-4.5-5.8-6.9c-3.6-4.8-3.8-8,0.9-11.6c7.1-5.6,7.2-12.5,5-20.1
	c-0.9-3.1-2.5-5.4-6.4-4.7c-4.8,0.9-6.7-2-8.3-6c-1.8-4.7-4.3-9.1-6.1-12.8c3.3,1.2,5.4,4.9,6.7,9.3c2.2,7.4,2.2,7.1,9.8,7
	c2,0,4.2,2.4,6,4.1c0.8,0.8,0.9,2.4,1.3,3.7c0.3,1.2,0.6,2.5,1.3,3.7c1.9-5.1,0.8-10.1-1-14.9c-3-8.2-6.1-16.3-3.2-26.2
	c0.5,1.7,1.1,2.8,0.9,3.7c-1.7,6.2,0.6,11.7,2.7,17.4c1.8,4.8,3.4,9.7,4.2,14.8c1.2,7.2-1.5,13.4-6.2,18.8c-0.4,0.5-0.9,1-1.3,1.5
	c-6,7.4-5.7,7.8,1.4,14.4C990.7,623,993,627.3,996,631.3z M956.1,728.8c0.8,0.2,1.6,0.4,2.4,0.6c1.8-3.5,4.4-6.9,5.2-10.7
	c2.5-11.6,8-19.8,20.1-23.4c3.2-0.9,7-5.1,7.5-8.3c0.9-5.5-0.6-11.4-1.1-17.3c-3.5,0.9-5.6,1.5-7.7,1.9
	c-10.2,2.1-19.5,10.7-19.6,21.1c-0.1,9.8-2.8,18.5-6.2,27.3C955.7,722.8,956.3,725.9,956.1,728.8z"/>
<path class="st2" d="M63.2,900c0,0-20.1-781.6-13.8-897.9l-22.2-3c0,0,12.1,860.9,18,900.9H63.2z"/>
<path class="st4" d="M431.8,900H1084l354.9,0.1c0,0-348.7-258.3-1007.1-44.3V900z"/>
<path class="st5" d="M0,900h652.2l354.9,0.1c0,0-348.7-258.3-1007.1-44.3V900z"/>
<path class="st4" d="M1198.1,141.1c0.5-15.9,1-29.3,1.4-42.7c0.9,0.1,1.8,0.1,2.8,0.2c-0.5,8.6-1.7,17.2-1.3,25.7
	c1,21.7,4.5,41.9,20.6,53.9c7,5.2,13.5,11.7,19.7,17.1c11.1-18.1,10.5-26.8,0.1-54.4c-5.9-15.6-8.1-34-10.8-51.4
	c-3-19.9-10.7-34.8-23.1-46.3c-22.5-20.9-28.1-44.7-18.1-84.3c-2.3,33.8-3,62.8,20.1,77.5c2.2-13.6,4.4-27.6,6.7-41.6
	c1.3,0.2,2.6,0.4,4,0.7c-9.1,23.9-5,44.5,6.4,65c5.5,9.8,7.4,23.1,10.8,34.5c9.2-11.1,20.7-20.9,27.6-34.6
	c5.5-10.9,6.3-26.5,7.9-40.3c1.4-12,1.1-24.3,3.1-36.5c0.8,13.3-4.8,27.8,4.5,40.5c-1.2,7-2.9,16.4-4.5,25.8
	c0.9,1.4,1.8,2.8,2.7,4.3c9.4-8,18.9-16,26.7-22.6c-0.7,10.4-3,14.3-15.5,20.2c-16.7,7.9-30.6,20.8-41.3,39.5
	c-10.2,17.9-9.8,30.4,2,46.5c9.8,13.3,11.3,28.5,5.5,43.7c-8.3,21.9-8.9,44-3.7,66.4c10.3,44,4.9,84.9-12.7,123.5
	c-15.6,34.2-16.9,70.1-8.3,107.1c7.2,30.8,15.5,61.2,23.3,91.8c9.3,36.4,8.1,71.5-5.7,106c-9.4,23.6-16.7,48.8-9.6,76.2
	c2.6,10,7.3,19.1,12.9,28.1c1.1-38.3,15.8-69,26.5-101.6c6-18.3,7-37.5,2.1-56c-15.5-59.1-3.1-111.4,26.4-154.9
	c28.7-42.4,30.3-90.4,26.3-141.4c-0.6-7.2-5.6-15.1-10.2-20.3c-12.2-13.8-20.8-29.9-26.2-50.2c-3.1-11.6-10-21.3-16.9-35.4
	c5.6,6.3,9.2,10.4,13.7,15.4c0.7-3.5,1.3-6.5,2.4-12.3c3.4,35.2,14.5,61.1,37.3,79.5c0.5-39.3,14.5-71.2,27.7-103
	c11.7-28.2,11.6-55.2-0.2-82.9c-2.7-6.3-5.4-13.9-5.2-20.8c0.6-22.4-5.2-40.1-18.3-54.5c3.7,3.3,7.4,6.7,12,10.7
	c0.6-4.4,1.2-8,1.1-7.2c6.9,28.7,14.6,60.9,22.4,93.1c1.3-0.4,2.6-0.8,3.9-1.1c4-38.9,15.1-76.9,7.4-117.2
	c-1.7-8.7-2.9-18.2-6.5-25.5c-10.6-21.7-2.6-42.7,0.1-64.2c-8.3,36.2,6.9,66.7,13.6,104.1c3.7-18.4,6.6-32.4,9.4-46.4
	c0.4,0.1,0.8,0.3,1.3,0.4c-5,37.1-10,74.1-15,111.2c1.1,0.7,2.2,1.3,3.2,2c25.8-25.3,54.9-46.7,60.7-95.5c-0.5,8.8-1,17.6-1.6,26.5
	c-9.2,28.9-28.1,49.2-48.5,67.1c-9.4,8.3-14.7,19.2-16.6,33.4c-2.1,15.9-3.9,31.8-5.8,47.6c5.6-5.6,11.5-11.9,17.7-17.5
	c10.4-9.5,21.6-9.9,34.2-9.5c13.8,0.4,27.7-7.3,41.6-14.3c-3.3,4-6.6,8.1-9.9,12.2c11.6,21.3,15.9,21.7,30.3,3.2
	c4.6-5.9,9.5-11.5,14.8-16c2.5-2.2,6.3-1.6,7.8-1.9c-7.5,8.3-16,16-22.8,25.8c-10.4,14.9-15.5,16.6-26.9,3.8
	c-6.4-7.2-12.7-10-20.8-5.2c-3.4,2-8,2.3-11.6,1c-18.6-6.7-33.4,2.9-45.6,19.6c-32,43.6-49,94.6-41.7,160.9c3.6-5.5,6-8.4,7.7-11.8
	c12.3-24.5,27.7-42.3,49.3-53c10.9-5.4,19.2-21.1,27.9-33.2c4.4-6.2,7-14.8,12.7-20.4c-7.5,16.6-15.1,33.3-22.7,50.1
	c16.2,0.6,31.9-3,46.2-17.4c14.8-14.8,27.9-34.3,48.4-36.1c2-0.2,4-0.6,6-0.7c0.7,0,1.4,0.7,1.6,0.8c-10.2,4.9-20.8,10-34,16.4
	c9.5,4.7,15.6,7.7,21.7,10.7c-17.2-11-29.4-0.7-41.2,15c-11.1,14.8-26.1,19.1-40.9,19.2c-32.8,0.3-54.6,21.9-67.6,59.7
	c-6,17.6-8.6,37.2-13.3,55.6c-6.2,24.1-13.1,47.9-19.6,71.3c0.7-0.2,3.8-0.7,6.6-2.3c13.8-8.2,28.1-15.2,40.8-25.5
	c7.5-6,12.6-17.3,18.5-26.5c8.5-13.2,17.1-26.4,25-40.2c5-8.7,8.8-18.6,13.9-29.7c-1.7,8.8-3.1,16.2-4.5,23.9
	c29.2,7.5,39-23.8,53.5-46.2c-2.6,5.7-5.1,11.4-7.9,17.4c2.1,1,3.8,1.8,8.1,3.9c-14,10.5-25.9,24.9-39.2,27.8
	c-16.6,3.7-28.6,10.7-36.7,30.1c-5.2,12.5-11.2,24.5-17.7,38.5c18.1,2.2,35,1.4,47-18.1c10.5-17,22.1-25.6,39.2-23.9
	c6.7,0.7,13.9-6.1,20.7-10.1c6.6-3.9,13-8.4,20.3-11c-5.1,7.9-17.5,3.3-17.5,20.9c0,2.1-15.3,6.4-23.4,5.8c-14.8-1-25.1,5.3-33,22.4
	c-9.2,20-25.3,21.1-41.2,23c-42.7,4.9-77.5,29.5-98.8,80c-12.8,30.2-9.6,62.8,5.2,83.3c11.8-11.6,23.6-23.2,35.5-34.9
	c14.1-13.9,28.9-24,47.4-23.1c13.1,0.7,24.4-6.5,35.2-17.4c10.6-10.7,23.2-18.1,34.8-27.1c4.1-3.2,8-6.9,11.9-10.3
	c0.6,2.2,1,6.6,2.1,7c14.7,4.5,40.4-12,49.1-31c-0.7,14-6.5,24.7-18.7,29.7c-9.8,4.1-20.3,5.6-30.4,8.3c-23.6,6.3-42.6,23-58.7,46.2
	c14.8,21.4,36.4,20.5,55.4,27.9c-0.2,1.3-0.3,2.6-0.5,3.9c-10-2-19.9-3.9-31.2-6.1c1.2,4.7,2,8.1,2.5,10.3
	c-6.6-6.4-13.5-12.8-20.2-19.7c-19.5-20.3-40-14.1-58.3,0.4c-15.5,12.4-28.8,30.1-42.2,46.6c-4.4,5.4-6.8,14.3-8.8,22.2
	c-8.9,35-18.7,69.7-25.4,105.4c-4.1,22.1-3.3,45.9-4.4,68.9c-0.5,10.8-0.1,21.7-0.1,31.8c-17,0-31.2,0.2-45.4-0.1
	c-6.9-0.1-10.3-4.2-11-14.6c-2.4-33.6-6.6-67-8.6-100.7c-0.9-14.4,1.4-29.3,3.4-43.6c1.1-7.6,4.3-14.9,7.4-21.7
	c16.4-35.6,17.4-72.2,6.7-111.1c-9.3-33.7-17.5-68.2-23.8-103c-2.9-15.8,0.2-33.5-0.1-50.3c-0.1-8.6-1.5-17.3-2.3-25.9
	c0-0.5-0.4-0.9-0.6-1.4c-21-39.4-41.6-79-63-117.9c-15.8-28.7-37.7-34.5-63.1-27.3c-18.5,5.3-36.9,5-51-16.3
	c-0.8-1.2-1.3-2.6-1.9-3.9c-0.1-0.3,0.2-0.9,0.1-0.5c7.2,5.4,14.6,11,22,16.6c0.7-1.1,1.4-2.2,2.1-3.4c-2.1-7.2-4.3-14.4-6.4-21.5
	c7.3,26.7,21.3,29.2,39.9,17.7c-6.6-15.5-13.2-30.8-19.8-46.2c0.4-0.5,0.8-0.9,1.2-1.4c4.8,8.6,10,16.8,14.3,25.9
	c6,12.8,12.3,19.8,25.5,20.7c11.7,0.8,23.1,12.5,34.3,20.1c4.1,2.8,7.4,7.6,12.5,12.9c-1.1-32.5-3.3-61.8-19.2-86.3
	c-5.4-8.3-8.6-19.1-13.6-28c-22.8-40.5-41.2-47.4-78.2-30.1c-12.7,6-25,7.8-35.8-7c24,19.3,42.9-6.5,66.1-10.2
	c-11.1-11.7-20.3-21.4-30.9-32.6c12.6-2.5,15.5,13.8,23.3,18.4c9.1,5.4,17.4,12.8,26.3,19c8.7,6.1,17.7,11.7,27.2,18
	c-0.7-19.3-6.5-35.3-14.2-51.1c-9-18.6-16.9-38.2-24.8-57.7c-1.6-3.8-1.4-8.9-2.7-17.4c4.8,14.9,8.4,25.8,11.9,36.7
	c0.6-0.2,1.2-0.5,1.8-0.7c0.5-12,1-24,1.4-36c-1.4,32.7,6.7,60.3,26.1,87c5.4-29.1,10.4-55.9,15.4-82.6c-0.4-0.3-0.8-0.6-1.2-0.9
	c0,11.3,0,22.7,0,36.8c4.2-4.4,6.6-7,11.5-12.2c-6.6,12.7-12.6,20.8-15.6,30.6c-13.5,44.6-4.3,83.8,16.3,121.3
	c7.2,13,13.2,29.9,14.2,45.6c3.1,48.6,19.5,87.7,43.2,122.9c6.1,9.1,12.2,18.2,18.5,27.7c22.6-31.9,29.5-68.3,20.7-110.7
	c-6.4-31.1-13.3-60.9-34.6-80.9c-5.2-4.8-9.4-13.7-11.4-21.8c-4.8-20.3-11.8-36.9-28.6-43c-2.2-0.8-3.9-3.6-5.4-7
	c4.7,2.3,9.4,4.6,15.1,7.5c-0.8-6.9-1.5-12.3-2-16.9C1182.2,108.7,1189.7,123.9,1198.1,141.1z"/>
<path class="st5" d="M-117.1,128c4.9,3.6,9.8,7.1,15.8,11.5c0.9-9,1.9-16.5,2.4-24.1c0.5-6.9,0.6-13.9,0.8-20.8
	c1.5,13.1,1.5,26.1,1.5,39c0,18.7,10.7,35.8,25.1,38.5c15.3,2.9,30.7,4.6,45.7,6.8c-1.7-5.3-4-12.3-6-19.5
	c-3.4-12.1-5.1-25.5-10.3-36.1C-55.6,95.9-70.7,69.7-85.2,43c1.2-1.1,2.4-2.2,3.7-3.2c12.3,24.6,24.7,49.2,37,73.8
	c1.1-0.9,2.2-1.8,3.3-2.7C-47.5,74-53.9,37-60.2,0.1c0.9-0.3,1.9-0.6,2.8-0.8c3.4,21.1,6.8,42.2,10.2,63.3c1.3-0.2,2.5-0.3,3.8-0.5
	c2.3-4.3,4.7-8.7,7-13c-0.2,6.3-2.7,11-4.2,16.1c-1.2,3.9-2.3,8.7-1.6,12.5c4.6,24.1,8.1,46.9,25.8,65C-1.8,157.6,10.7,166.9,29,164
	c13.3-2.1,25.2,1,34.5,16.1c6.6,10.7,16.1,11.8,26.9,4.1C75.2,163,63,140.7,66.7,110.9c4.9-39.6-4.8-70-30.7-93.5
	C18.5,1.5,10.3-22,12.7-50.5c1.3,35,16.1,58.2,38.2,76.2c2.2-10.2,4.8-18.8,5.9-27.8c1.2-9.1,0.9-18.5,1.3-27.7
	c1.1,0.1,2.3,0.1,3.4,0.2c-0.6,11-1.6,21.9-1.7,32.9c-0.1,12-3.1,27.7,1.5,35.5c13.1,21.9,14.5,44.9,12.5,70.4
	c-2.6,33.5,17.3,70.7,42,80.5c18.6,7.3,30.1,22,31,48.1c1,29.2,7.1,54.7,24.9,75.9c7.6,9,9.7,25.9,13.7,39.5
	c3.5,12.1,5.6,24.9,9.4,36.8c4,12.2,12.1,15.3,21.8,12c25.7-8.7,42-43.2,33.5-75.7c-5.8-22.2-14.7-43.2-23.7-63.7
	c-8-18.2-9.9-37.3-6.2-56.5c4.2-21.7-1.8-36.3-14.7-49.1c-6.3-6.3-14-14-16.2-23c-8.8-36.4-27.5-58.9-54.5-72
	c-11-5.3-16.4-16.4-14.1-32.7c3.6,30.6,26.1,29.4,41.2,43.3c9.3-25.8,11.6-51.4,2.9-75c-8.4-22.7-5.6-42.7,0.9-65.8
	c-1.2,15.7-4.1,29.8-2.8,43.2c1.3,13.3,6.8,26,10.9,40.6c2.8-7.5,5-13.6,7.2-19.6c-0.4,10.1-3.6,18.8-4.7,28
	c-3.2,25.5-16.8,53.1,7.9,74.2c3,2.5,4.5,9,5.5,14c5.3,25.9,18.9,42.2,36.8,54.5c19.2-14.8,34.5-33,37-64c0.5-6.2,2.6-12.7,5.3-17.9
	c9.9-19.1,9.1-40,8.1-61.5c-0.5-10.5,2.5-21.3,3.9-31.9c0.4,0.3,0.9,0.6,1.3,0.9c0,28.6,0,57.2,0,86.5c21.8,5,42.3,3.6,53.7-29.8
	c2.6-7.7,10-13.7,16.2-18.2c11.3-8.1,23.3-14.4,35-21.5c-7.5,8.3-16.3,13.9-24.5,20.8c-8.3,6.9-19.4,12.9-23.3,23.1
	c-10.9,28.8-27.5,37.3-50.7,33.2c-11.5-2-19.4,5.7-19.9,20.5c-1.1,29-14.2,47.7-30.6,64.2c-2.8,2.9-7.7,6.2-7.7,9.3
	c-0.1,23.1-8.6,46.7,3,69.1c10.1,19.5,19.4,39.5,29.6,60.4c4.7-40.2,21.6-70.7,44.8-95.4c17.9-19,30.5-41.4,38.9-69.5
	c3.7-12.5,12.7-25.2,21.9-31.5c13-8.8,20.9-20.2,25-37.5c1.5-6.4,3.7-12.4,5.6-18.7c0.5,0.2,1,0.4,1.6,0.7
	c-2.6,12.6-5.2,25.3-8.2,40c12.7-6.5,23.5-12.1,34.4-17.6c-16.3,13-33.1,24.4-50.6,33.9c-19.3,10.5-27,29.9-29.2,53.1
	c14.5,0,28.7,0,42.9,0c-3.9,2.9-8,3.7-11.7,2.7c-15-3.6-27.6,3.9-37.7,16.3c-14,17.1-26.7,35.8-39.8,54.2
	c-16.7,23.4-26.5,51.4-29.3,82.6c-3.5,39.5-16.2,71.6-39.3,98.4c-10.2,11.9-21.1,27.2-24.5,43.4c-4.4,21.1-10.4,39.5-20.5,56.7
	c-3.8,6.4-5.6,14.8-7.9,22.5c-5.5,18.2-9.7,37-16.2,54.5c-11.5,30.9-13.5,62.5-6.3,94.9c9.5,43.1,19.5,86,30.3,128.6
	c3.9,15.5,10.7,29.8,16,44.8c3.2,9,5.8,18.3,8.5,26.8c-11-1.1-21-6.1-27.3-1.9c-19,12.6-38.2,6.1-59.9,8c22-27.6,22.2-55.1,8.8-85.7
	c-5.7-13-9-28.6-10.6-43.5c-3-27.7-7.7-53.9-17.9-79.2c-15.1-37.5-21.9-77.8-15-120.2c4.4-27.1,9.7-54,15.1-80.9
	c2.4-12,1.6-21.5-6.1-30.2c-24.6-27.8-49.9-53.7-83-63.6c-13.8-4.1-27.3-10.1-40.5-16.6c-14.4-7.1-26.7-5.1-38.2,8.3
	c-8.2,9.5-16.3,19.3-25.4,27.3c-10.9,9.6-23.1,12.3-37.5,2.3c26,6.6,42-4.7,63.4-44.2c-9.5-1.8-18.1-3.3-26.6-4.9
	c18.4-2.6,36.8-3.7,55.1-2.3c18.1,1.4,33.8,21.5,53.7,13.7C15,343.2,6.9,328.1-23.8,326c-10.8-0.8-22.9-9.4-31.3-18.9
	c-12.5-14.1-26-22.1-42.1-22.3c-8.2-0.1-17.8-0.6-24.1,4.5c-5.4,4.4-10.3,6.5-16.2,7.7c-6.2,1.3-12.2,3.6-18.3,5.5
	c27.1-13.3,53.2-36.1,84.8-18.6c-20.7-32.9-46.8-50.3-79.4-52.1c8.5,0,17.1,0,26.4,0c-5.1-16.5-9.7-31.4-15.3-49.4
	c3.1,2.4,3.6,2.6,3.7,3c1,2.6,2.3,5.2,2.9,8c7.1,28.8,21.4,48,43.1,60.6c9.8,5.7,18.7,17.4,24.9,29.1c12.2,23.1,27.6,34.4,49.4,34.9
	c23.6,0.6,34.9,14.1,43.3,43.3c2.8,9.7,7.3,19.2,12.8,26.5c2.9,3.8,11.8,5.9,14.3,3.2c10.7-11.3,16.7-0.6,18.8,8
	c5.8,23.7,23.1,27.8,36.5,43.9c4.6-58.3-6.2-107.1-32.1-149.5c-5.3-8.7-17.6-16.1-25.9-15c-27.9,3.5-43.8-13.7-53.3-44
	c-7.9-25.1-22.8-45.7-41.3-47.9c-32.5-3.8-52.8-28.2-73.9-53.8c-0.7-0.8-1.4-1.4-2.1-2.2C-117.9,129.7-117.5,128.8-117.1,128z
	 M188.3,440.6c0.8-8.4-1.7-17.3-3.1-25.9c-0.6-3.3-3.2-6.2-3.6-9.5c-5.5-49.6-28-90.6-40.9-136.4c-1.2-4.3-1.4-9.3-1.6-14
	c-1.7-43.2-22.7-66-55.9-58.1c-10.6,2.6-17.8-0.2-24.4-9.8c-9.1-13.2-21-17.5-33.8-14.7c-16.9,3.7-30.8,0.9-40.6-19.5
	c-2.7-5.6-8.1-9.1-12.2-13.6c-1.2,0.8-2.4,1.6-3.6,2.4c4.7,13.9,8.5,28.3,14.2,41.5c9.1,21.1,19.3,41.5,29.4,61.9
	c7.8,15.8,18.5,24.2,33.7,21c17.5-3.7,31.4,5.2,42.9,21.4c20.3,28.8,28.5,64.5,32.5,101.6c2.4,22.1,1.5,44.7,2.3,67.1
	c0.2,4.5,0.8,9.4,2.2,13.4c8.1,22.3,16.6,44.3,25.8,68.5C169.7,509,184.6,478.1,188.3,440.6z M111.9,623.1
	c22.4-40.3,17.2-78.1,5.6-120.7C111.3,543.7,103,580.3,111.9,623.1z"/>
<path class="st3" d="M431.6,823.4c-3.1-1.7-6-4.2-10-1.8c-0.8,0.5-2.6,0-3.5-0.7c-0.5-0.4-0.2-2.3,0.3-3.1c5-8.1,5-17.1,4.8-26.1
	c-0.2-11.7,0-23.3-0.6-34.9c-0.2-4.2-1.8-8.8-3.9-12.5c-3.1-5.3-7.8-9.6-10.9-14.9c-2.6-4.5-3.9-9.8-6-14.6c-1.2-2.8-2.4-6-4.5-7.9
	c-7.4-6.9-12.6-14.9-15.5-24.6c-1.6-5.4-3.7-10.7-5.4-16c-0.9-2.8-1.5-5.6-2-8.5c7.8,15.2,8.1,34.3,24.3,45
	c-11.6-23-7.3-49.3-17.3-72.6c0.9-0.2,1.9-0.4,2.8-0.6c2.7,14.8,5.2,29.6,8.4,44.3c2.1,9.5,5.2,18.7,9,27.8
	c3.6-9.5,7.3-18.7,3.6-28.7c-2-5.4-4.4-10.8-6.8-16c-3.1-6.6-4.4-13.5-3.8-20.8c0.2-2.1,0-4.4-0.8-6.3c-3.8-9.6-8.1-18.9-11.6-28.6
	c-2.1-5.7-2.9-11.8-3.3-17.9c1.1,4.8,1.7,9.7,3.3,14.3c1.6,4.9,4.2,9.4,6.1,14.2c1.9,4.7,3.7,9.5,5.5,14.3c0.6-0.1,1.2-0.2,1.7-0.3
	c-2.2-18.8-4.4-37.6-6.6-56.4c0.4,0,0.8-0.1,1.1-0.1c2.5,19.2,5.1,38.4,7.3,57.7c0.7,6.4-0.7,13.1,0.6,19.3
	c1.3,6.4,4.6,12.4,7.2,18.5c5,11.7,6.7,23.3,1.8,35.7c-4.6,11.7,0,21.8,7.4,30.9c1.9,2.3,4,4.5,6.1,6.6c2.7,2.8,5.6,1.8,5.9-1.3
	c0.7-8.8,2.8-18.5,0.1-26.5c-4.8-14.1-9.1-27.9-9.3-43c-0.1-7.1-3.6-14.1-5-21.2c-1.4-6.9-3.1-14-3.2-21
	c-0.2-13.3-0.2-26.6-3.9-39.6c0.8,2.5,1.8,4.9,2.5,7.4c0.8,2.9,1.3,5.8,1.8,8.8c0.5,2.8,1.2,5.7,0.9,8.4
	c-1.6,18.1,3.1,35.1,8.3,52.2c2,6.6,1.4,13.9,2.9,20.7c1.5,7.2,4,14.1,6.1,21.1c0.6-0.1,1.3-0.2,1.9-0.3c0.4-3.9,0.9-7.9,1.3-11.8
	c0.9-8.4,2.1-16.8,2.6-25.3c0.2-3.3,0-7.5-1.9-9.7c-7.3-8.6-9.5-18.8-10.6-29.5c-1.3-11.9-2.5-23.8-4-35.7c-0.3-2.2-1.5-4.4-2.8-6.2
	c-9.6-14.1-11.3-30.2-12.2-46.5c2.3,15.7,3.9,31.6,15,44.7c-0.9-20.2-1.9-40.4-2.8-60.6c0.4,0,0.8,0,1.1,0
	c0.5,10.3,0.7,20.6,1.5,30.8c1.5,20.5,3.1,41,5,61.6c0.6,6.9,1.8,13.8,3.1,20.7c1.3,6.8,4.4,12.7,9.9,18.9c0.4-3.7,1.2-6.4,1-9
	c-1.2-13.4-2-26.8-4.2-40.1c-2.4-15.4-2-30.5,0.6-45.7c2.4-14.3,4.5-28.6,0.4-43.8c3.9,6,4.6,12.3,3.1,31.7c-0.8,10.3-2.4,20.6-3,31
	c8.5-5.8,11.6-14.2,12-23.5c0.4-9.1,0.1-18.3,0.1-28.2c3.1,11.1,2.2,33.5-2.1,42.9c-1.6,3.6-4,6.9-6.7,9.8
	c-2.9,3.1-3.8,6.5-3.2,10.5c1.7,11.3,3.6,22.6,5.5,34.7c1.1-1.3,1.9-1.9,2.4-2.8c5.2-9.4,6.3-19.8,7.4-30.3
	c0.6-5.8,2.7-11.5,3.8-17.3c1.2-6.5,2.2-13,3-19.6c0.4-3.1,0.1-6.3,0.5-9.4c0.5,10.2,1.7,20.4-2.5,30.4c-1.9,4.5-2.9,9.6-3,14.5
	c-0.4,13-3,25.3-8.9,37c-1.2,2.4-1.6,5.4-1.8,8.1c-1.1,14.1-2.1,28.2-2.9,42.3c-0.6,9.7-0.9,19.5-0.4,29.5c0.7-1.2,1.5-2.3,2-3.5
	c5.6-13.3,8.6-27.1,9.2-41.6c0.3-6.9,1.8-13.8,2.8-20.7c1-7.4,1.9-14.7,2.9-22.1c0,5.4,0.4,10.9-0.1,16.4c-1.4,14.4-3.1,28.7-4.9,43
	c-1.4,11-4.2,21.6-9.9,31.1c-4.2,7-4.5,14.5-4,22.2c0.1,2.1,1.8,5.2,3.5,5.9c1.5,0.5,5-1.3,5.9-2.9c2.4-4.6,4.4-9.6,5.6-14.6
	c1.8-7.2,2.6-14.7,4-22c2.3-11.9,4.7-23.7,7.1-35.6c1.7-8.4,4.6-16.8,4.7-25.3c0.3-14.6-1.1-29.2-1.8-43.8c0-1-0.2-1.9-0.3-2.9
	c0.4-0.1,0.9-0.1,1.3-0.2c1.3,11.9,2.7,23.7,4.1,36c5.8-4.7,3.6-11.1,4.3-16.7c0.7-5.9,1.5-11.8,2.5-17.7
	c-0.4,9.2-0.8,18.5-1.4,27.7c-0.1,1.9-0.7,4.2-2,5.6c-3.7,3.8-3.7,8.6-4.5,13.3c-1.7,10.3-3.9,20.5-5.7,30.7
	c-1.8,10.5-3.2,21-4.9,32.2c1.7-1.2,3.6-1.8,4.1-3.1c5.3-12.5,14.7-23.3,16.3-37.2c1.8-15.5,2.7-31.1,4-46.7
	c0.1-1.6,0.2-3.2,0.5-4.8c0,12.7,0,25.4,0,39.1c2-3.3,3.6-5.8,5.1-8.4c0.1,0.1,0.3,0.1,0.4,0.2c-0.5,1.3-0.8,2.8-1.6,3.9
	c-4.3,6-5.8,12.8-7.2,19.9c-1,5.3-3.4,10.3-5.5,15.4c-1.9,4.6-4,9.1-6.4,13.5c-2,3.8-4.5,7.5-6.6,11c8.1-2.3,14.3-8,18.1-16.2
	c3.7-7.9,6.9-16.1,10.3-24.2c0.5,0.2,1,0.5,1.5,0.7c-4.9,10.7-9,21.9-15.2,31.8c-3.1,5-10,7.8-15.6,10.9c-3.3,1.8-5,3.7-5.1,7.6
	c-0.3,11.8-3.1,22.5-13,30.5c-2.4,2-3.8,6.4-3.8,9.8c0,18.3,0.3,36.6,1,54.9c0.1,3.5,2.4,6.9,3.9,10.9c-0.1,0.1-1,0.7-1.9,1.3
	C436.9,823.4,434.2,823.4,431.6,823.4z"/>
</svg>
