<?xml version="1.0" encoding="utf-8"?>
<!-- Generator: Adobe Illustrator 20.1.0, SVG Export Plug-In . SVG Version: 6.00 Build 0)  -->
<svg version="1.1" xmlns="http://www.w3.org/2000/svg" xmlns:xlink="http://www.w3.org/1999/xlink" x="0px" y="0px"
	 viewBox="0 0 1440 900" style="enable-background:new 0 0 1440 900;" xml:space="preserve">
<style type="text/css">
	.st0{fill:#F2F2F2;}
	.st1{fill:url(#SVGID_1_);}
	.st2{opacity:0.41;fill:#71B1B1;}
	.st3{fill:#71B1B1;}
</style>
<g id="Layer_6">
	<rect x="0" y="-0.8" class="st0" width="1440" height="900.4"/>
</g>
<g id="Layer_2">
	
		<linearGradient id="SVGID_1_" gradientUnits="userSpaceOnUse" x1="719.0649" y1="-0.886" x2="719.0649" y2="899.7466" gradientTransform="matrix(-1 0 0 1 1439.0648 0)">
		<stop  offset="0" style="stop-color:#0071BC;stop-opacity:0.5"/>
		<stop  offset="0.2855" style="stop-color:#4C9BD0;stop-opacity:0.6428"/>
		<stop  offset="0.7815" style="stop-color:#CCE2F2;stop-opacity:0.8908"/>
		<stop  offset="1" style="stop-color:#FFFFFF"/>
	</linearGradient>
	<polygon class="st1" points="0,899.7 1440,899.7 1440,-0.9 0,-0.8 	"/>
</g>
<g id="Layer_4">
	<path class="st2" d="M1268.2,900c0,0-66-781.6-45.2-897.9l-73-2.9c0,0,39.6,860.7,59.1,900.9H1268.2z"/>
	<path class="st2" d="M281.2,900c0,0-66-781.6-45.2-897.9l-73-2.9c0,0,39.6,860.9,59.1,900.9H281.2z"/>
	<path class="st2" d="M1398.2,900c0,0-20.1-781.6-13.8-897.9l-22.2-2.9c0,0,12.1,860.7,18,900.9H1398.2z"/>
	<path class="st2" d="M63.2,900c0,0-20.1-781.6-13.8-897.9L27.2-0.9c0,0,12.1,860.9,18,900.9H63.2z"/>
</g>
<g id="Layer_1">
	<path class="st3" d="M1084.5-0.1c0,0,15,176.9,25.6,233.9c10.5,56.4,43.2,199.9,93,231.6s24.4,434.6,24.4,434.6h184.1
		c0,0-92.1-161.1-92.1-259.2s-25.7-165.6-25.7-165.6s-13.5-101.2,46.9-135.9c60.4-34.7,98.2-107.4,98.2-117.9v-40.5
		c0,0-43.2,100.4-101.5,122.6s-59.3,38.8-59.3,38.8s-15.8-18.5,14.7-74.9S1347.4,20,1336.3-0.1l-32.4,0c0,0,12,76.9-49,238.8
		c-61,161.8-35.1,134.1-35.1,166.4s-71-140.5-88.5-189.5c-17.6-49-14.4-196.9-33.1-215.6L1084.5-0.1z"/>
	<path class="st3" d="M151.8,270.3c-1.5-15.7-12.1-59.8-65.8-104.5c-79.2-66-12.2-166-12.2-166L48-0.2c0,0-85.3,119.6,28,212.8
		c53.1,43.7,48,158,27.4,267.1c0,0-3.2,366.6-56.5,419.9h182.5c0,0-15.7-313.1-27.1-360.3c0,0-26.9-148.1,46.1-245
		S407.6,44.1,451.3-0.2h-38.2c0,0-81.4,152.3-191,261.9c0,0-33.5,41.3-54.1,52.4c-1.4,0.8-3.2,0.2-3.9-1.3
		C161.1,306.2,153.5,288.2,151.8,270.3z"/>
	<path class="st3" d="M0,900h1440v-64.5c0,0-781.6-259.9-1440,8.9V900z"/>
</g>
<g id="Layer_5">
</g>
</svg>
