<?xml version="1.0" encoding="utf-8"?>
<!-- Generator: Adobe Illustrator 20.1.0, SVG Export Plug-In . SVG Version: 6.00 Build 0)  -->
<svg version="1.1" xmlns="http://www.w3.org/2000/svg" xmlns:xlink="http://www.w3.org/1999/xlink" x="0px" y="0px"
	 viewBox="0 0 1440 900" style="enable-background:new 0 0 1440 900;" xml:space="preserve">
<style type="text/css">
	.st0{fill:url(#SVGID_1_);}
	.st1{opacity:0.33;fill:#90A62E;}
	.st2{fill:#7D9510;}
</style>
<g id="Layer_3">
</g>
<g id="Layer_2">
	<linearGradient id="SVGID_1_" gradientUnits="userSpaceOnUse" x1="719.9509" y1="0" x2="719.9509" y2="899.6324">
		<stop  offset="0" style="stop-color:#3FA9F5;stop-opacity:0.5"/>
		<stop  offset="0.3103" style="stop-color:#96D49E;stop-opacity:0.8053"/>
		<stop  offset="0.5083" style="stop-color:#C9ED6B"/>
		<stop  offset="0.6159" style="stop-color:#C2E463"/>
		<stop  offset="0.8844" style="stop-color:#90A62E"/>
		<stop  offset="0.8861" style="stop-color:#90A62E"/>
	</linearGradient>
	<polygon class="st0" points="1440,899.6 0,899.6 0,0 1440,0 	"/>
</g>
<g id="Layer_4">
	<path class="st1" d="M170.9,900c0,0,66-781.6,45.2-897.9l73-2.9c0,0-39.6,860.7-59.1,900.9H170.9z"/>
	<path class="st1" d="M1157.9,900c0,0,66-781.6,45.2-897.9l73-2.9c0,0-39.6,860.7-59.1,900.9H1157.9z"/>
	<path class="st1" d="M40.9,900c0,0,20.1-781.6,13.8-897.9l22.2-2.9c0,0-12.1,860.7-18,900.9H40.9z"/>
	<path class="st1" d="M1375.9,900c0,0,20.1-781.6,13.8-897.9l22.2-2.9c0,0-12.1,860.7-18,900.9H1375.9z"/>
</g>
<g id="Layer_1">
	<path class="st2" d="M354.5-0.1c0,0-15,176.9-25.6,233.9c-10.5,56.4-43.2,199.9-93,231.6S211.5,900,211.5,900H27.4
		c0,0,92.1-161.1,92.1-259.2s25.7-165.6,25.7-165.6s13.4-101.2-47-135.9S0,231.9,0,221.4v-40.5c0,0,43.3,100.4,101.5,122.6
		s59.4,38.8,59.4,38.8s15.8-18.5-14.7-74.9S91.6,20,102.7-0.1l32.4,0c0,0-12,76.9,49,238.8s35.1,134.1,35.1,166.4
		s71-140.5,88.5-189.5S322.2,18.7,340.9,0L354.5-0.1z"/>
	<path class="st2" d="M1287.3,270.3c1.5-15.7,12.1-59.8,65.8-104.5c79.2-66,12.2-166,12.2-166h25.8c0,0,85.3,119.6-28,212.8
		c-53.1,43.7-48,158-27.4,267.1c0,0,3.2,366.6,56.5,419.9h-182.5c0,0,15.7-313.1,27.1-360.3c0,0,26.9-148.1-46.1-245
		S1031.4,44.1,987.8-0.2h38.2c0,0,81.4,152.3,191,261.9c0,0,33.5,41.3,54.1,52.4c1.4,0.8,3.2,0.2,3.9-1.3
		C1278,306.2,1285.6,288.2,1287.3,270.3z"/>
	<path class="st2" d="M0-2c0,0,12.5,161.1,100.6,161.1s118.2-2.4,149.7-59.1s45.3-61,96.9-61S473.6,141,553.4-2H0z"/>
	<path class="st2" d="M1440,189.2c0,0-28.6-1.8-45-4.7c-19.9-3.4-34-19.2-34.4-20.1c-5-10.2,3-17.1-2-22.9
		c-13.7-15.7-46.7-6.4-53.9-3.5c-0.8,0.3-1.7,0.6-2.6,0.9c-12.4,3.3-95.1,22.2-132.2-42.9c-32.2-56.5-51-21.1-57.1-4.9
		c-1.8,4.8-5.3,8.9-9.9,11.3c-23.7,12.8-97.6,43.7-146.7-32.8c-5-7.8-14.4-11.5-23.3-9.3c-31.7,7.9-104.6,21.6-151.3-3.8
		c-12.8-7-31.6-48.1-24.4-57.7c0,0,27.3,0.2,34.8,0.2L1440-1"/>
	<path class="st2" d="M0,317.8c0,0,61.2,28,109.2-20S120,163.2,120,163.2L0-3.9V317.8z"/>
	<path class="st2" d="M770.7-2.1C739.3,3,704.2,6.6,666,7.3c-49.1,0.9-93.4-3.1-131.7-9.3L770.7-2.1z"/>
</g>
</svg>
