<?xml version="1.0" encoding="utf-8"?>
<!-- Generator: Adobe Illustrator 20.1.0, SVG Export Plug-In . SVG Version: 6.00 Build 0)  -->
<svg version="1.1" id="Layer_1" xmlns="http://www.w3.org/2000/svg" xmlns:xlink="http://www.w3.org/1999/xlink" x="0px" y="0px"
	 viewBox="0 0 1440.9 1037.2" style="enable-background:new 0 0 1440.9 1037.2;" xml:space="preserve">
<style type="text/css">
	.st0{fill:url(#SVGID_1_);}
	.st1{opacity:0.33;fill:#90A62E;enable-background:new    ;}
	.st2{opacity:0.88;}
	.st3{fill:#90A62E;}
	.st4{opacity:0.75;}
	.st5{opacity:0.16;fill:#90A62E;enable-background:new    ;}
	.st6{fill:#7D9510;}
	.st7{fill:url(#SVGID_2_);}
	.st8{opacity:4.000000e-02;}
	.st9{opacity:5.000000e-02;}
	.st10{opacity:6.000000e-02;}
	.st11{opacity:7.000000e-02;}
	.st12{opacity:8.000000e-02;}
	.st13{opacity:9.000000e-02;}
</style>
<g id="Layer_2">
	
		<linearGradient id="SVGID_1_" gradientUnits="userSpaceOnUse" x1="720" y1="904.8" x2="720" y2="4.2" gradientTransform="matrix(1 0 0 -1 0 907.8)">
		<stop  offset="0" style="stop-color:#3FA9F5;stop-opacity:0.5"/>
		<stop  offset="0.3103" style="stop-color:#96D49E;stop-opacity:0.8053"/>
		<stop  offset="0.5083" style="stop-color:#C9ED6B"/>
		<stop  offset="0.6159" style="stop-color:#C2E463"/>
		<stop  offset="0.8844" style="stop-color:#90A62E"/>
		<stop  offset="0.8861" style="stop-color:#90A62E"/>
	</linearGradient>
	<polygon class="st0" points="1440,903.6 0,903.6 0,3 1440,3.1 	"/>
</g>
<g id="Layer_4">
	<path class="st1" d="M171.8,903.9c0,0,66-781.6,45.2-897.9l73-2.9c0,0-39.6,860.7-59.1,900.9L171.8,903.9L171.8,903.9z"/>
	<path class="st1" d="M1158.8,903.9c0,0,66-781.6,45.2-897.9l73-2.9c0,0-39.6,860.7-59.1,900.9L1158.8,903.9L1158.8,903.9z"/>
	<path class="st1" d="M41.8,903.9c0,0,20.1-781.6,13.8-897.9l22.2-2.9c0,0-12.1,860.7-18,900.9L41.8,903.9L41.8,903.9z"/>
	<path class="st1" d="M1376.8,903.9c0,0,20.1-781.6,13.8-897.9l22.2-2.9c0,0-12.1,860.7-18,900.9L1376.8,903.9L1376.8,903.9z"/>
	<g id="RHThSi.tif" class="st2">
		<g>
			<path class="st3" d="M1088.3,785.9c0.1-0.6,0.2-1.3,0.2-1.9c0.1-0.2,0.1-0.4,0.2-0.5c0.8-3,1.4-6.1,2.4-9.1
				c3.6-10.8,9.5-20.1,17.4-28.2c0.2-0.2,0.4-0.5,0.4-0.8c0.3-2.2,0.5-4.5,0.7-6.7c0.5-4.3,1.6-8.5,3.3-12.5
				c1.1-2.7,2.6-5.2,4.9-7.1c3.3-2.9,7.2-3.7,11.4-3.7c4.3,0.1,8.4,0.9,12.5,2c2.8,0.8,5.6,0.8,8.2-0.6c1.4-0.7,2.7-1.5,4-2.3
				c6.2-4.3,13.2-6.6,20.5-8.1c4.3-0.9,8.7-1.1,13.1-0.7c4.3,0.3,8.6,0.9,12.9,2.1c5.4,1.5,10.6,3.6,15.6,6.3
				c4.6,2.4,8.9,5.2,12.6,9c6.5,6.8,9.8,14.9,9.7,24.4c0,1.2-0.1,2.4-0.1,3.7c-0.2,1.4-0.3,2.8-0.5,4.2c-0.3,1.4-0.6,2.8-0.9,4.1
				c-0.7,3.2-1.5,6.4-2.7,9.5c-1.9,5.2-4.9,9.7-9.4,12.9c-2.4,1.8-5.1,3.3-7.7,4.8c-4,2.3-7.7,4.9-10.8,8.4c-2.7,3-4.5,6.4-5.1,10.5
				c-0.4,2.4-0.1,4.6,1.7,6.5c0.6,0.6,0.3,1.1-0.5,1.2c-0.7,0.1-1.4-0.1-2.1-0.1c-1.3-0.1-2.6-0.2-3.9-0.2c-2.7,0.2-5.2,1.1-7.6,2.2
				c-0.9,0.4-1.8,0.7-2.7,1.1l-0.1-0.1c0.6-1.7,1.2-3.4,1.8-5.1c-3.9-0.4-7.8-0.5-11.8,0c0.1-0.2,0.1-0.3,0.2-0.3
				c1-1.4,2.4-2.3,4-2.9c2.1-0.8,4.3-1.1,6.5-1.4c2.2-0.4,4.5-0.8,6.7-1.2c1.2-0.2,2-1.1,2.6-2.1c0.3-0.6,0.6-1.3,0.8-2
				c0.6-2.2,0.7-4.4,0.7-6.6c0-2-0.3-3.9-1.4-5.7c-2-3.2-5.1-4.5-8.6-4.8c-0.2,0-0.4,0.1-0.5,0.2c-0.8,0.9-1.6,1.7-2.3,2.7
				c-2.4,3.7-3.6,7.8-4.5,12c-0.2,1.1-0.2,2,0.7,2.8c0,0,0,0.1,0.1,0.1c0.3,0.4,0.2,0.9-0.3,1.1c-0.3,0.1-0.6,0.2-0.9,0.1
				c-0.6,0-1.1-0.1-1.7-0.1c-1.2-0.1-2.5-0.2-3.7,0.1c-2.6,0.7-4.5,2.3-6.2,4.3c-0.1,0.2-0.2,0.3-0.4,0.5h-0.1
				c0.2-1.9,0.5-3.8,0.7-5.8c-3.4,0.3-6.8,0.7-9.2,3.7c-0.1-1.1,0.3-2.7,0.9-3.9c1.2-2.1,3.2-3.3,5.4-4c2.7-0.9,5.4-1.1,8.2-1.1
				c0.4,0,0.6-0.1,0.7-0.5c1.2-4.4,2.5-8.7,3.8-13.1c0.3-0.9,0.5-1.9,0.8-2.8c-2.6-1.1-5.2-2-7.7-3.2c-8.4-3.8-15.8-9-21.8-16
				c-4-4.6-7.2-9.6-9.3-15.4c0-0.1-0.1-0.1-0.1-0.2c-0.3,0.2-0.6,0.4-1,0.6c-2.3,1.4-4.8,2.4-7.4,3.2c-5.6,1.6-11.3,1.9-17.1,0.8
				c-0.4-0.1-0.6,0-0.9,0.2c-2.6,2.2-5,4.5-7.2,7.1c-4.4,5.2-7.8,10.9-10.6,17.1c-2.2,4.9-4.3,10-6.4,14.9c-0.1,0.2-0.2,0.4-0.3,0.6
				c-0.2-0.4-0.4-0.9-0.4-1.3C1088.4,787.6,1088.4,786.7,1088.3,785.9z"/>
		</g>
	</g>
	<g id="P7VRDc.tif" class="st4">
		<g>
			<path class="st3" d="M1393.8,731.8c4.1,0.4,6.1,3.2,7.5,6.6c1.1,2.6,1.4,5.4,1.1,8.3c-0.4,3.1-0.2,4.1,3.5,5.3
				c2.2,0.7,4.7,0.8,7.1,1.1c3.3,0.3,6.7,0.5,9.6,2.3c6.7,3.9,12.6,8.8,15.4,16.4c0.9,2.5,1.3,5.2,1.8,7.8c0.1,0.5,0.1,0.9,0.2,1.4
				c0,0.9,0,1.8,0,2.7c-0.1,0.4-0.2,0.8-0.2,1.2c-0.1,2.7-1.4,4.4-4.1,5.3c-1.5,0.5-2.8,1.8-4.2,2.7c0.3,0.3,0.5,0.4,0.6,0.5
				c1.3,1.1,1.4,1.4,0.7,2.9c-1.5,3.5-3,7.1-4.5,10.6c-0.2,0.4-0.6,0.8-1.1,0.9c-3.5,1.1-7,2-10.5,3.1c-0.5,0.1-0.9,0.5-1.3,0.8
				c-1.9,1.9-4,3.6-6.9,3.8c-2.1,0.2-4.2,0.5-6.3,0.7c-0.3,0-0.6,0-0.9,0c0-0.1,0-0.2,0-0.3c1.1-0.7,2.1-1.4,3.2-2.1
				c0-0.1-0.1-0.1-0.1-0.2c-1.7,0.1-3.5,0.3-5.2,0.4c0-0.1-0.1-0.2-0.1-0.3c0.3-0.1,0.5-0.3,0.8-0.4c4.1-2.1,8.4-3.5,13.1-3.7
				c0.4,0,1-0.3,1.2-0.7c1.8-2.3,3.5-4.5,5.3-6.8c0.2-0.3,0.4-0.7,0.3-1c-0.1-1.2-0.3-2.4-0.5-3.6c-0.1-0.4-0.4-0.9-0.7-1.1
				c-1.5-1-3-2-4.5-3c-8.6-5.7-15.2-13.3-21.1-21.6c-4.3-6.1-6.7-12.6-5.3-20.2c0.4-2.1,0.3-4.4,0.1-6.6c-0.1-1.7-0.7-2-2.3-1.6
				c-6.5,1.2-12.7,3.2-18.2,7.2c-1.4,1-2.9,1.9-4.4,2.8c-0.6,0.3-1.3,0.5-2,0.7c-0.1-0.1-0.1-0.2-0.2-0.3c0.3-0.4,0.5-0.8,0.8-1.1
				c1.4-1.2,2.8-2.5,4.3-3.6c5-3.7,10.6-6.3,16.5-8.2c0.7-0.2,1.1-0.6,1.4-1.3c1-2.8,2.7-5.1,5.5-6.4c1.3-0.6,2.7-0.8,4.1-1.1
				C1393.4,731.8,1393.6,731.8,1393.8,731.8z M1424.1,795.6c0.2,1.6,0.3,3,0.5,4.3c0.1,0.8-0.1,1.3-0.6,1.8c-1,1.1-2,2.3-2.9,3.7
				c1.5-0.2,3.1-0.4,4.6-0.6c0.2,0,0.4-0.3,0.5-0.5c0.7-2.5,1.3-5,2-7.7C1426.8,796.3,1425.5,796,1424.1,795.6z"/>
		</g>
	</g>
	<path class="st5" d="M94.6,449.9c1.1,2,1,1.7,3.2,1.6c3.1-0.2,5.2-1.9,7.2-4c1.9-1.9,3.9-3.7,6-5.4c0.9-0.7,1.5-0.5,2,0.6
		c0.1,0.2,0.1,0.5,0.3,0.5c2.4,1,4.8,2.2,7.3,2.9c2.5,0.7,5.2,1,7.9,1.3c1,0.1,2.1-0.2,3.2-0.2c2.6,0,5.1,0,7.7,0.2
		c1.9,0.1,3.7,0.6,5.5,0.9c0.5,0.1,1.1,0,1.6,0c0.6,0.1,1.3,0.2,1.9,0.3c0.8,0.1,1.7,0.2,2.5,0.3c0.4,0.1,0.9,0,1.3,0.2
		c0.9,0.3,1.9,0.7,2.8,1c0.1-0.1,0.2-0.2,0.3-0.3c-0.9-1.1-1.7-2.1-2.6-3.2c0-0.1,0.1-0.2,0.1-0.3c1.5,0.3,3.1,0.5,4.6,0.8
		c0.1-0.2,0.1-0.3,0.2-0.5c-1-0.5-1.9-0.9-2.9-1.4c0-0.1,0-0.2,0-0.3c0.7-0.1,1.3-0.2,2-0.3c-0.1-0.3-0.2-0.5-0.2-0.7
		c1.1-0.9,2.9-0.3,3.6-2.3c-2.1,0.5-4,2.1-6,0.1c1.2-0.4,2.8,0.5,3.5-1.4c-3.4,1.8-5.3-1-7.7-2.2c-2.3-1.2-4.2-2.9-6.4-4.3
		c-1-0.6-2.1-1-3.2-1.2c-2.2-0.4-4.4-0.4-6.5-0.7c-1.3-0.2-2.6-0.7-3.8-1.3c-0.4-0.2-0.6-1.1-0.5-1.6c0.3-1.8,1.5-3.1,2.8-4.3
		c0.6-0.5,1.8-0.4,2.7-0.5c0-1.3-0.5-1.8-1.9-2.1c-1.9-0.4-3.8-0.6-5.8-0.3c-0.3,0-0.6,0.2-0.9,0.3c-0.9,0.3-1.7,0.8-2.7,1
		c-1.1,0.3-1.9-0.1-2.6-1.1c-1.5-2.2-2.1-4.7-2.5-7.3c-0.6-4.9-1.1-9.8-4-14c-1.5-2.1-2.7-4.5-4.1-6.7c-1.8-2.8-3.1-5.8-4-9.1
		c-0.2-0.7-0.4-1.4-0.7-2.3c-1.2,1.4-0.8,3-0.9,4.6c-2.1-2.5-2.9-5.4-4.3-8.3c-0.1,1.5-0.2,3-0.2,4.8c-1.2-2.3-2.3-4.4-3.5-6.7
		c-0.7,2.6,0.6,4.7,0.6,7c-1.6-1.7-3.1-3.4-4.7-5.1c-0.2,0.1-0.4,0.2-0.5,0.3c0.7,1.6,1.4,3.2,2.1,4.8c-0.1,0.1-0.2,0.2-0.3,0.2
		c-1.4-1-2.8-2-4.2-2.9c-0.1,0.1-0.3,0.3-0.4,0.4c0.6,1.1,1.2,2.2,1.8,3.3c0.3,0.5,0.7,0.9,0.1,1.5c-0.2,0.2-0.1,0.7,0,1
		c0.6,1.7,1,3.5,0.8,5.4c-0.1,0.7,0.5,1.5,0.6,2.3c0.2,1.2,0,2.6,0.5,3.6c0.7,1.4,0.6,3,1.4,4.2c0.7,1.1,0.5,2,0.3,3
		c-0.1,0.4,0.1,0.9,0.1,1.4c0,0.6-0.1,1.2,0,1.8c0.2,1.8,0.4,3.6,0.8,5.4c0.2,1.2,0.8,2.3,1,3.4c0.2,0.9,0.2,1.9,0.4,2.8
		c0,0.2,0.1,0.4,0.1,0.6c1.9,4.6,4.4,8.9,7.1,13.1c0.4,0.6,0.3,1-0.1,1.7c-2,3.3-5.4,5-8.3,7.2c-0.5,0.4-0.9,0.7-1.4,1
		c-1.4,0.8-2.2,2-2.2,3.7C92.5,449.8,92.7,450.1,94.6,449.9z"/>
</g>
<g id="Layer_1_1_">
	<path class="st6" d="M354.7,3.8c0,0-15,176.9-25.6,233.9c-10.5,56.4-43.2,199.9-93.1,231.6s-24.4,434.6-24.4,434.6H27.4
		c0,0,92.2-161.1,92.2-259.2s25.7-165.6,25.7-165.6s13.4-101.2-47-135.9S0,235.8,0,225.3v-40.5c0,0,43.3,100.4,101.6,122.6
		s59.4,38.8,59.4,38.8s15.8-18.5-14.7-74.9S91.7,23.9,102.8,3.8h32.4c0,0-12,76.9,49,238.8s35.1,134.1,35.1,166.4
		s71-140.5,88.6-189.5c17.5-49,14.5-196.9,33.2-215.6L354.7,3.8z"/>
	<path class="st6" d="M1288.1,274.2c1.5-15.7,12.1-59.8,65.8-104.5c79.2-66,12.2-166,12.2-166h25.8c0,0,85.4,119.6-28,212.8
		c-53.1,43.7-48,158-27.4,267.1c0,0,3.2,366.6,56.5,419.9h-182.6c0,0,15.7-313.1,27.1-360.3c0,0,26.9-148.1-46.1-245
		c-73-96.9-159.4-250.2-203-294.5h38.2c0,0,81.5,152.3,191.1,261.9c0,0,33.5,41.3,54.1,52.4c1.4,0.8,3.2,0.2,3.9-1.3
		C1278.8,310.1,1286.4,292.1,1288.1,274.2z"/>
	<path class="st6" d="M0,0c0,0,12.5,161.1,100.7,161.1s118.3-2.4,149.8-59.1s45.3-61,97-61S473.9,143,553.7,0H0z"/>
	<path class="st6" d="M1440.9,193.1c0,0-28.6-1.8-45-4.7c-19.9-3.4-34-19.2-34.4-20.1c-5-10.2,3-17.1-2-22.9
		c-13.7-15.7-46.7-6.4-53.9-3.5c-0.8,0.3-1.7,0.6-2.6,0.9c-12.4,3.3-95.2,22.2-132.3-42.9c-32.2-56.5-51-21.1-57.1-4.9
		c-1.8,4.8-5.3,8.9-9.9,11.3c-23.7,12.8-97.7,43.7-146.8-32.8c-5-7.8-14.4-11.5-23.3-9.3c-31.7,7.9-104.7,21.6-151.4-3.8
		c-12.8-7-31.6-50.8-24.4-60.4c0,0,27.3,0,34.8,0h648.4"/>
	<path class="st6" d="M0,321.7c0,0,61.2,28,109.3-20s10.8-134.6,10.8-134.6L0,0V321.7z"/>
	<path class="st6" d="M771.2,0c-25.8,9.4-66.8,22.6-118.3,22.7c-51.4,0-91.7-13.4-117.5-22.7H771.2z"/>
</g>
<g id="Layer_5">
	<g id="wjbogK.tif">
		<g>
			<path class="st6" d="M243.6,904.5c-0.9,0-9.8-0.1-10.7-0.1c-76.1,0-152.2,0-228.4,0c-1,0-2.1,0-3.3,0c-0.1-1-0.1-1.7-0.1-2.5
				c0-9.8-0.5-19.6,0.1-29.3c0.6-10.2,2-20.4,3.4-30.5c1.6-12,4.2-23.9,8.3-35.3c2-5.7,4.4-11.2,8.3-15.9c1-1.2,1.9-2.3,3.2-3.2
				c-9.7,26.4-16.3,53-11.5,81.4c1.2-10.2,2-20.4,3.6-30.6c1.5-10,3-20.2,8.8-29c-0.8,5.8-1.7,11.5-2.3,17.3
				c-1.3,11.3-2.4,22.7-0.8,34.1c0.4,2.8,1.4,5.5,2.5,8.2c1.8-24.9,2.4-49.9,15.1-72.9c-1.4,12.9-3,25.2-3.8,37.6
				c-0.8,12.4,0,24.8,4.4,36.6c0.2,0,0.5,0,0.7,0c1.8-19.9,3.7-39.8,5.5-59.5c0.8,5.6,1.8,11.5,2.6,17.4c0.8,6.1,1.6,12.3,2.1,18.4
				c0.5,6.1,0.6,12.2,1,18.3c3.6-29.2,7.5-58.4,6.6-88c0.2,0,0.5,0,0.7,0c0.9,12.2,2,24.3,2.5,36.5c0.4,12.3,0.1,24.6,0.5,36.9
				c1.7-11.4,3.3-22.7,10.2-33.1c-2.5,18.2-6.7,35.9,0.1,53.5c3.3-11.4,5.9-23,7.3-34.7c1.5-11.8,2-23.7,0.8-35.6
				c6.9,21,6.6,42.7,6.4,64.5c0.7-6.6,1.4-13.2,2.2-19.8c0.8-6.5,1.6-13,4.2-19.2c0.4,13.9,0.8,27.8,1.2,41.8c0.2,0,0.4,0,0.6,0.1
				c0.5-3.9,0.9-7.7,1.4-11.6c2.2-17.4,4.5-34.7,9.8-51.4c1.6-4.9,3.1-7.4,5.1-8.9c-3.1,24.7-7.2,49.4-3.4,74.6
				c7.2-15.4,14.5-30.7,16.1-48c2.9,6.8,4.5,13.9,5.2,21.1c0.6,7.3,0.9,14.6,1.4,22c2.8-9,4.1-18.3,4.5-27.8
				c0.3-9.5-0.8-18.8-3.8-27.9c7.6,9.4,9.4,20.7,10.2,32.1c1.6-9.5,3.1-19.1,5-28.6s4.4-18.9,9.3-27.4c-5.7,25.9-10.3,51.8-7.2,78.8
				c4.9-7.3,11.9-26.3,8.7-36.5c2.5,3.3,3.6,7.2,4.2,11.2c0.7,4,1,8.1,1.2,12.1c0.2,4.1,0,8.3,0.3,12.4c7-17.3,7-35,3.4-53.1
				c5.1,12,7,24.6,7.7,37.5c1.7-14.8,3.3-29.5,7.7-43.8c0,11-0.1,21.9,0,32.9c0.2,11,0.7,22,3.4,32.8c6.3-18,8.8-36.5,7.6-55.5
				c3.7,12.5,3.5,25.2,2.8,38c4.4-19.4,7.5-39.2,20-55.7c-8.7,23.7-16.1,47.7-13,73.9c13.4-11.1,17.4-25.1,14.6-41.4
				c4.9,12.4,5.2,25.3,4,38.4c5.4-25.6,6.9-51.3,1.4-77.3c1.2,2.4,2.7,4.7,3.7,7.2c4.1,10,5.8,20.5,6.8,31.1
				c0.8,8.1,1.1,16.2,1.6,24.4c0,0.7,0.2,1.4,0.4,2.1C235.6,871.9,243.6,888.2,243.6,904.5z"/>
		</g>
	</g>
	<g id="wjbogK.tif_1_">
		<g>
			<path class="st6" d="M1440.4,904.5c-0.9,0-1.8-0.1-2.7-0.1c-76.1,0-152.2,0-228.4,0c-1,0-2.1,0-3.3,0c-0.1-1-0.1-1.7-0.1-2.5
				c0-9.8-0.5-19.6,0.1-29.3c0.6-10.2,2-20.4,3.4-30.5c1.6-12,4.2-23.9,8.3-35.3c2-5.7,4.4-11.2,8.3-15.9c1-1.2,1.9-2.3,3.2-3.2
				c-9.7,26.4-16.3,53-11.5,81.4c1.2-10.2,2-20.4,3.6-30.6c1.5-10,3-20.2,8.8-29c-0.8,5.8-1.7,11.5-2.3,17.3
				c-1.3,11.3-2.4,22.7-0.8,34.1c0.4,2.8,1.4,5.5,2.5,8.2c1.8-24.9,2.4-49.9,15.1-72.9c-1.4,12.9-3,25.2-3.8,37.6
				c-0.8,12.4,0,24.8,4.4,36.6c0.2,0,0.5,0,0.7,0c1.8-19.9,3.7-39.8,5.5-59.5c0.8,5.6,1.8,11.5,2.6,17.4c0.8,6.1,1.6,12.3,2.1,18.4
				c0.5,6.1,0.6,12.2,1,18.3c3.6-29.2,7.5-58.4,6.6-88c0.2,0,0.5,0,0.7,0c0.9,12.2,2,24.3,2.5,36.5c0.4,12.3,0.1,24.6,0.5,36.9
				c1.7-11.4,3.3-22.7,10.2-33.1c-2.5,18.2-6.7,35.9,0.1,53.5c3.3-11.4,5.9-23,7.3-34.7c1.5-11.8,2-23.7,0.8-35.6
				c6.9,21,6.6,42.7,6.4,64.5c0.7-6.6,1.4-13.2,2.2-19.8c0.8-6.5,1.6-13,4.2-19.2c0.4,13.9,0.8,27.8,1.2,41.8c0.2,0,0.4,0,0.6,0.1
				c0.5-3.9,0.9-7.7,1.4-11.6c2.2-17.4,4.5-34.7,9.8-51.4c1.6-4.9,3.1-7.4,5.1-8.9c-3.1,24.7-7.2,49.4-3.4,74.6
				c7.2-15.4,14.5-30.7,16.1-48c2.9,6.8,4.5,13.9,5.2,21.1c0.6,7.3,0.9,14.6,1.4,22c2.8-9,4.1-18.3,4.5-27.8
				c0.3-9.5-0.8-18.8-3.8-27.9c7.6,9.4,9.4,20.7,10.2,32.1c1.6-9.5,3.1-19.1,5-28.6s4.4-18.9,9.3-27.4c-5.7,25.9-10.3,51.8-7.2,78.8
				c4.9-7.3,11.9-26.3,8.7-36.5c2.5,3.3,3.6,7.2,4.2,11.2c0.7,4,1,8.1,1.2,12.1c0.2,4.1,0,8.3,0.3,12.4c7-17.3,7-35,3.4-53.1
				c5.1,12,7,24.6,7.7,37.5c1.7-14.8,3.3-29.5,7.7-43.8c0,11-0.1,21.9,0,32.9c0.2,11,0.7,22,3.4,32.8c6.3-18,8.8-36.5,7.6-55.5
				c3.7,12.5,3.5,25.2,2.8,38c4.4-19.4,7.5-39.2,20-55.7c-8.7,23.7-16.1,47.7-13,73.9c13.4-11.1,17.4-25.1,14.6-41.4
				c4.9,12.4,5.2,25.3,4,38.4c5.4-25.6,6.9-51.3,1.4-77.3c1.2,2.4,2.7,4.7,3.7,7.2c4.1,10,5.8,20.5,6.8,31.1
				c0.8,8.1,1.1,16.2,1.6,24.4c0,0.7,0.2,1.4,0.4,2.1C1440.4,871.9,1440.4,888.2,1440.4,904.5z"/>
		</g>
	</g>
	<g id="wjbogK.tif_2_">
		<g>
			<path class="st6" d="M582.3,880.6c-0.2-0.3-0.4-0.6-0.5-1c-0.8-4-1.2-8-2.4-12c-1.5-5.2-4-10.4-9.9-15.3
				c-1.5-1.3-3.6-2.4-5.4-3.6c8,12.8,5.9,25.4-2,38c1.8-6.4,1.3-12.8-5.8-18.9c4.1,8.1-1.7,14.9-21.3,20.4
				c-4.6-12.9,6.2-24.7,18.9-36.4c-18.1,8.1-22.6,17.9-29.1,27.4c1.2-6.3,1.4-12.6-4-18.7c1.8,9.3-1.8,18.4-11,27.3
				c-3.9-5.3-4.7-10.7-4.9-16.1s0-10.8,0-16.2c-6.4,7-8.7,14.2-11.2,21.5c-1.1-6.3-3.8-12.5-11.3-18.4c5.4,8.9,5.3,17.6-4.9,26.1
				c-0.3-2-0.1-4.1-0.4-6.1s-0.8-4-1.8-6c-1-1.9-2.6-3.9-6.2-5.5c4.7,5-5.6,14.3-12.7,17.9c-2.3-6.5-1.8-12.9,0.3-19.3
				c-0.9,0.9-1.6,1.6-1.8,1.8c-1,1-10.9,12-11.8,11.6c-0.8-0.4-1.5-0.8-2.1-1.2c-2.6,2.6-5.2,5.2-7.8,7.8c-2.7,2.8-5.5,5.5-8.3,8.2
				c0.2-0.2-0.6,0.5-1.4,1.2l-2.1,2.1c0-0.5,0-1,0.1-1.5c0.1-1.4,0.2-2.8,0.2-4.2c-0.5-0.3-1-0.6-1.5-0.7c-1.5,1.7-3.1,3.6-5.3,3.8
				c-0.8,0.1-1.5-0.2-2.2-0.3c-1.3,1.3-2.6,2.5-3.9,3.5c-0.9,0.7-2.1,1.4-3.2,1.7c-2.4,0.6-4.3,0-6.2-1c-0.6,0.6-1.2,1.1-1.1,1.1
				c-0.4-1.5-1.5-2.2-2.7-2.3c-1.8,0.2-3.6,0.6-5.3,0.9c-1.5,0.2-5.4,1.5-6.5-0.1c-0.1-0.1,0.7-1.1,2-2.4c-0.4-0.1-0.9-0.1-1.3-0.2
				c-1.4,1.4-2.6,2.3-2.9,2.2c-1.5-0.6-4.8-4-6.9-3.7c0,0-0.1,0.1-0.1,0.1c-1.6,1.5-3.2,3.8-5.6,3.3c-1.6-0.4-2.7-1.3-4.3-1.8
				c-0.4,0.5-1.7,1.8-2.2,1.7c-1.5-0.3-2.3-3.5-3.4-4.4c-0.6-0.5-1.1-0.7-1.7-0.7c-0.8,0.8-1.6,1.6-2.4,2.4
				c-1.4,1.4-2.8,3.2-4.5,4.3l-0.2,0.2c0,0,0.1-0.1,0.1-0.1c-0.8,0.5-1.8,0.8-2.8,0.8c-2.3,0-5.1-1.8-7.2-2.5
				c-1.7-0.6-3.5-1.4-5.3-1.2c-0.8,0.1-1.8,0.7-2.6,0.6c-2-0.2-3-2.7-4.9-3.3c-0.6-0.2-3.5,0.3-3.5,0.4c-0.5-0.5,0.3-2.8,0.4-3.3
				c0.4-1.3,1-2.5,1.6-3.7c-0.7,0-1.3-0.2-1.4-0.8c-0.3-1.3,1.4-4,1.9-5.2c0.6-1.3,2.3-4.1,1.9-5.5c-0.4-1.7-2.7-0.3-3.3-1.4
				c-0.6-1,0.3-3.8-0.2-5.2c-0.4-1.4-1.2-2.4-2.4-3.1c0,0,0,0-0.1,0c-1.9,6.5-4.3,13-6.7,19.5c-0.6-3-0.8-6-1.5-9
				c-0.7-3.1-1.8-6.1-3-9.1c-1.1-2.9-2.6-5.8-3.8-8.6c-2.7,9.7-5.4,19.5-8.1,29.3h-1c-6.5-5.8-7.7-11.9-6.5-18s3.6-12.1,5.6-18.5
				c-18.6,11.4-19.5,23.7-22.1,35.9c-1.5-1.3-3-2.6-3.6-4c-2.3-5.6-0.8-11.2,1.1-16.8c1-2.8,2.3-5.7,3.4-8.5
				c-8.5,4.4-10.6,9.4-12.8,14.3s-3.5,10-5.2,15c-7-13.9,2.7-27,16.8-40c-1.9,0.4-3.3,1-4.7,1.6c-5.7,2.3-9.2,5-12.1,7.8
				c-5.9,5.7-9.6,11.5-12,17.4c-2.1,5-4.1,10-5,15c-0.9,4.8-0.2,9.6-0.2,14.4c0,0.3,0.1,0.7,0.2,1.2h353.5
				C594.5,896.5,582.9,888.5,582.3,880.6z"/>
		</g>
	</g>
	<g id="wjbogK.tif_3_">
		<g>
			<path class="st6" d="M568.6,904.5c1.4,0,15.3,0,16.7,0c119.1,0,238.3,0,357.4,0c1.6,0,3.3,0,5.2,0c0.1-0.4,0.2-0.7,0.2-1
				c0-3.9,0.7-7.7-0.2-11.6c-0.9-4-3.2-8.1-5.3-12.1c-2.6-4.8-6.6-9.4-12.9-14c-3.2-2.3-6.9-4.4-13-6.3c-1.5-0.5-3-0.9-5-1.3
				c15.2,10.5,25.6,21,18,32.2c-1.8-4-3.2-8.1-5.6-12.1c-2.4-4-4.7-8-13.7-11.5c1.2,2.3,2.6,4.6,3.6,6.9c2,4.5,3.7,9,1.2,13.5
				c-0.6,1.1-2.2,2.2-3.9,3.3c-2.8-9.8-3.8-19.7-23.7-28.8c2.1,5.1,4.8,10,6,14.9c1.3,4.9,0,9.8-6.9,14.5c-0.4,0-0.7,0-1.1,0
				c-2.9-7.9-5.8-15.7-8.6-23.5c-1.3,2.2-2.8,4.6-4.1,6.9c-1.3,2.4-2.4,4.9-3.2,7.3c-0.8,2.4-1,4.8-1.6,7.2
				c-5.6-11.6-11.8-23.1-10.3-34.8c-0.4,0-0.8,0-1.2,0c-1.3,4.8-3.2,9.6-3.8,14.5c-0.7,4.9-0.1,9.7-0.8,14.6c-2.7-4.5-5.2-9-16-13.1
				c3.9,7.2,10.5,14.2-0.1,21.2c-5.2-4.5-9.2-9.1-11.5-13.7c-2.3-4.7-3.2-9.4-1.3-14.1c-10.8,8.3-10.3,16.9-10,25.5
				c-1.1-2.6-2.2-5.2-3.5-7.8s-2.5-5.1-6.6-7.6c-0.6,5.5-1.2,11-1.8,16.5c-0.3,0-0.6,0-0.9,0c-0.7-1.5-1.4-3.1-2.2-4.6
				c-3.4-6.9-7-13.7-15.4-20.3c-2.5-1.9-4.9-2.9-8-3.5c4.8,9.8,11.2,19.6,5.3,29.5c-11.3-6.1-22.7-12.1-25.1-19
				c-4.6,2.7-7.1,5.5-8.1,8.4s-1.5,5.8-2.2,8.7c-4.4-3.6-6.5-7.3-7-11c-0.5-3.8,1.3-7.4,5.9-11c-11.8,3.7-14.6,8.2-16,12.7
				c-2.5-3.8-4.8-7.5-7.8-11.3s-6.8-7.5-14.6-10.9c8.9,10.2,16.2,20.5,11.2,31.2c-7.6-2.9-18.7-10.4-13.7-14.4
				c-3.9,1.3-5.6,2.9-6.6,4.4c-1,1.6-1.6,3.2-1.9,4.8c-0.3,1.6-0.1,3.3-0.5,4.9c-10.9-6.8-11-13.9-5.3-21c-8,4.7-10.9,9.7-12.1,14.8
				c-2.7-5.8-5.1-11.7-12.1-17.3c0,4.3,0.2,8.7-0.1,13c-0.2,4.4-1.1,8.7-5.3,13c-9.9-7.1-13.7-14.4-11.8-22
				c-5.8,4.9-5.5,10-4.3,15.1c-6.9-7.7-11.8-15.5-31.2-22c13.7,9.4,25.3,18.9,20.3,29.2c-21-4.4-27.3-9.9-22.9-16.4
				c-7.7,4.9-8.2,10-6.3,15.2c-8.5-10.1-10.8-20.3-2.2-30.6c-1.9,1-4.2,1.9-5.8,2.9c-6.3,3.9-9,8.1-10.7,12.3
				c-1.2,3.2-1.7,6.4-2.6,9.6c-0.1,0.3-0.4,0.6-0.6,0.8C581.2,891.6,568.6,898.1,568.6,904.5z"/>
		</g>
	</g>
	<g id="wjbogK.tif_4_">
		<g>
			<path class="st6" d="M928.2,867.9c2.7-5.4,1.1-2.7-1.8-0.2c-5.9,5.1-7.2,3.8-9.6,9.1c-2,4.5-4.1,9-5,13.5
				c-0.8,4.3-0.2,8.7-0.2,13c0,0.3,0.1,0.7,0.2,1.1c1.8,0,3.3,0,4.9,0c111,0,222,0,333,0c1.3,0,14.3,0,15.6,0
				c0-7.2-11.7-14.4-11.7-21.7c-0.2-0.3-0.5-0.6-0.5-0.9c-0.8-3.6-1.2-7.2-2.4-10.8c-1.5-4.7-4-9.4-9.9-13.8
				c-1.5-1.1-3.6-2.1-5.4-3.2c8,11.5,5.9,22.9-2,34.3c1.8-5.8,1.3-11.5-5.8-17c4.1,7.3-1.7,13.4-21.3,18.4
				c-4.6-11.6,6.2-22.3,18.9-32.8c-18.1,7.3-22.7,16.1-29.1,24.7c1.1-5.7,1.3-11.3-4-16.9c1.7,8.4-1.8,16.6-11,24.6
				c-3.9-4.8-4.7-9.7-4.9-14.6c-0.2-4.9,0-9.7,0-14.6c-6.5,6.3-8.7,12.9-11.2,19.4c-1.1-5.7-3.8-11.3-11.3-16.6
				c5.3,8,5.3,15.9-4.9,23.5c-0.4-1.8-0.1-3.7-0.4-5.5s-0.8-3.6-1.8-5.4c-1-1.8-2.5-3.5-6.2-5c4.7,4.5-5.6,12.9-12.7,16.2
				c-4.6-12,2.1-23.5,10.5-35c-7.3,3.8-10.9,7.9-13.6,12.2c-2.8,4.2-4.9,8.5-7.2,12.7c-1.3-5.1-3.9-10.1-14.9-14.3
				c4.3,4,6,8.1,5.5,12.4c-0.5,4.2-2.4,8.3-6.5,12.3c-0.7-3.3-1.1-6.5-2-9.7s-3.2-6.4-7.5-9.4c-2.3,7.7-12.9,14.5-23.4,21.3
				c-5.5-11.1,0.5-22.1,5-33.1c-2.9,0.6-5.2,1.8-7.5,3.9c-7.8,7.4-11.2,15.1-14.3,22.8c-0.7,1.7-1.3,3.4-2,5.2c-0.3,0-0.6,0-0.8,0
				c-0.6-6.2-1.1-12.3-1.7-18.5c-3.8,2.7-4.9,5.6-6.1,8.5s-2.2,5.8-3.2,8.8c0.3-9.6,0.8-19.3-9.3-28.6c1.7,5.3,0.9,10.5-1.2,15.8
				c-2.1,5.2-5.9,10.3-10.7,15.4c-9.9-7.8-3.7-15.6-0.1-23.7c-10,4.6-12.4,9.6-14.9,14.7c-0.6-5.5-0.1-10.9-0.7-16.4
				c-0.6-5.4-2.3-10.8-3.6-16.2c-0.4,0-0.7,0-1.1,0c1.4,13.1-4.3,26.1-9.6,39c-0.6-2.7-0.8-5.4-1.5-8.1c-0.7-2.7-1.8-5.5-3-8.2
				c-1.1-2.6-2.6-5.2-3.8-7.7c-2.7,8.7-5.4,17.6-8.1,26.4c-0.3,0-0.7,0-1,0c-6.5-5.3-7.6-10.7-6.5-16.3c1.2-5.5,3.6-10.9,5.6-16.7
				c-18.6,10.2-19.5,21.3-22.1,32.3c-1.6-1.2-3.1-2.4-3.6-3.6c-2.3-5.1-0.7-10.1,1.1-15.1c0.9-2.6,2.2-5.1,3.4-7.7
				c-8.4,3.9-10.5,8.4-12.8,12.9s-3.5,9-5.2,13.6C928.8,888.7,924,876.2,928.2,867.9z"/>
		</g>
	</g>
</g>
<rect y="901.9" class="st6" width="1440.9" height="135.3"/>
<linearGradient id="SVGID_2_" gradientUnits="userSpaceOnUse" x1="424.1464" y1="968.5269" x2="0" y2="968.5269">
	<stop  offset="0" style="stop-color:#B2D844;stop-opacity:5.000000e-02"/>
	<stop  offset="1" style="stop-color:#C1A62E;stop-opacity:0.1"/>
</linearGradient>
<path class="st7" d="M331.6,899.9h92.6c0,0-23.6,76.4-423,137.3L0,969.5c50.2-0.9,111.3-2.5,179.5-17.5
	C235.6,939.7,291.2,916.1,331.6,899.9z"/>
<g id="eThpVe.tif_6_" class="st8">
	<g>
		<path d="M368.6,910.3c-0.1,0-0.1,0-0.2,0.1c-0.4,0.4-0.9,0.5-1.4,0.8c-0.1,0.1-0.2,0.2-0.4,0.3c-0.1,0.1-0.2,0.1-0.3,0.2
			c-0.2,0.1-0.3,0.1-0.4,0.2c-0.6,0.4-1.2,0.8-1.9,1.1c-0.2,0.1-0.4,0.1-0.6,0c0.2-0.2,0.4-0.5,0.5-0.7c0.1-0.1,0.3-0.2,0.4-0.3
			c0.6-0.5,1.2-1.1,1.9-1.5c0.6-0.3,1.3-0.7,2-0.9c0.4-0.1,0.7-0.3,0.9-0.6c0.2-0.3,0.6-0.6,0.9-0.9c0.4-0.4,0.8-0.8,1.1-1.3
			c0.4-0.6,1-0.9,1.7-1.2c-0.2,0.4-0.3,0.8-0.6,1.2c-0.3,0.4-0.6,0.8-0.9,1.2c-0.3,0.4-0.6,0.7-0.8,1.1c0,0.2-0.2,0.3-0.3,0.5
			c-0.1,0.1-0.2,0.2-0.1,0.4c0.1,0.1,0.1,0.2,0.2,0.4c0.1,0.3,0.2,0.7,0.2,1c0,0.5,0,1,0.2,1.6c0,0.1,0,0.3,0,0.4
			c-0.1,0.5-0.1,0.9-0.2,1.4c-0.1,0.3-0.1,0.6-0.2,1c-0.3-0.2-0.5-0.3-0.5-0.8c0,0,0-0.1-0.1-0.2c-0.1-0.3-0.2-0.5-0.2-0.8
			c0-0.5,0-1-0.1-1.6c0-0.4-0.1-0.7-0.3-1.1c0,0.1-0.1,0.1-0.1,0.2c-0.2,0.3-0.2,0.6-0.5,0.9c-0.3,0.4-0.6,0.8-0.8,1.3
			c-0.1,0.2-0.2,0.4-0.5,0.6c-0.1,0.1-0.2,0.3-0.3,0.4c-0.1,0.1-0.1,0.2-0.1,0.2c-0.2,0.4-0.4,0.7-0.6,1c-0.2,0.3-0.3,0.6-0.6,0.8
			c-0.1,0.2-0.4,0.3-0.6,0.5c-0.1,0.1-0.2,0.2-0.3,0.2c0,0,0,0-0.1,0c0.1-0.4,0.3-0.8,0.4-1.1c0.1-0.2,0.2-0.4,0.4-0.7
			c0.2-0.3,0.4-0.7,0.6-1c0.2-0.3,0.4-0.5,0.6-0.8c0.3-0.6,0.4-1.2,0.8-1.6c0,0,0-0.1,0.1-0.1c0.2-0.3,0.4-0.6,0.5-0.9
			C368.3,911,368.4,910.7,368.6,910.3C368.6,910.3,368.6,910.3,368.6,910.3z"/>
		<path d="M348.9,913.8c0.4,0,0.9-0.1,1.3-0.2c0.4-0.1,0.8-0.1,1.3,0c0.3,0.1,0.7,0.1,1,0.1c0.6-0.1,1.1,0.1,1.5,0.3
			c0.2,0.1,0.3,0,0.5-0.1c0.2-0.1,0.3-0.2,0.5-0.3c0.1,0,0.2,0,0.3-0.1c0.3-0.2,0.7-0.4,0.9-0.7c0.5-0.5,1.1-0.9,1.8-1.2
			c0.1-0.1,0.3-0.1,0.4-0.2c-0.1,0.2-0.2,0.4-0.2,0.5c-0.2,0.5-0.5,0.8-1,1.1c-0.5,0.3-0.9,0.7-1.3,1c-0.2,0.2-0.5,0.5-0.7,0.7
			c-0.2,0.2-0.5,0.4-0.7,0.7c-0.3,0.5-0.4,1-0.7,1.6s-0.6,1.1-0.9,1.6c-0.3,0.6-0.9,1-1.3,1.6c-0.2,0.3-0.5,0.4-0.8,0.5
			c-0.1-0.2-0.1-0.4,0-0.5c0.3-0.6,0.7-1.2,1-1.7c0.1-0.2,0.3-0.4,0.3-0.6c0-0.1,0.1-0.2,0.1-0.2c0.3-0.2,0.4-0.4,0.5-0.7
			c0.2-0.3,0.4-0.6,0.6-1c0.1-0.1,0.1-0.3,0.2-0.4l0,0c-0.1,0.1-0.3,0.2-0.4,0.2c-0.3,0.2-0.7,0.4-1,0.6c-0.2,0.1-0.4,0.2-0.6,0.3
			c-0.1,0.1-0.3,0.2-0.4,0.2c-0.3,0.1-0.6,0.3-0.9,0.4c-0.2,0.1-0.3,0.1-0.5,0.2c-0.5,0.4-1,0.7-1.5,0.9c-0.5,0.2-1,0.5-1.5,0.7
			c-0.1,0-0.2,0-0.4,0.1l0-0.1c0.1-0.2,0.3-0.4,0.5-0.6c0.1-0.1,0.2-0.2,0.3-0.3c0.4-0.3,0.8-0.5,1.2-0.8c0.2-0.2,0.5-0.3,0.7-0.4
			c0.1-0.1,0.2-0.1,0.3-0.2c0.2-0.2,0.3-0.4,0.6-0.4c0.5-0.2,0.9-0.4,1.3-0.7c0.2-0.2,0.4-0.3,0.7-0.4c0.1-0.1,0.2-0.1,0.4-0.2
			c-0.5-0.3-1-0.3-1.5-0.3c-0.4,0-0.9,0-1.3-0.1c-0.4-0.1-0.7-0.2-1.1-0.3c-0.1-0.1-0.2-0.2-0.4-0.4
			C348.5,913.9,348.7,913.8,348.9,913.8z"/>
	</g>
</g>
<g id="eThpVe.tif_1_" class="st9">
	<g>
		<path d="M351,929.1c-0.1,0-0.1,0-0.2,0c-0.5,0.2-1,0.2-1.6,0.4c-0.1,0-0.3,0.1-0.4,0.2c-0.1,0-0.2,0.1-0.3,0.1c-0.2,0-0.3,0-0.5,0
			c-0.7,0.2-1.4,0.4-2.1,0.6c-0.2,0-0.4,0-0.6-0.2c0.3-0.2,0.5-0.4,0.7-0.5c0.1-0.1,0.3-0.1,0.5-0.1c0.7-0.3,1.4-0.7,2.2-0.9
			c0.7-0.1,1.4-0.3,2.1-0.3c0.4,0,0.7-0.1,1.1-0.3c0.3-0.2,0.7-0.4,1.1-0.6c0.5-0.3,1-0.6,1.4-0.9c0.6-0.5,1.2-0.6,1.9-0.6
			c-0.3,0.3-0.6,0.7-0.9,1c-0.4,0.3-0.8,0.6-1.3,0.9c-0.4,0.3-0.8,0.5-1.1,0.8c-0.1,0.1-0.3,0.2-0.4,0.4c-0.1,0.1-0.3,0.2-0.2,0.4
			c0,0.1,0.1,0.3,0,0.4c0,0.3,0,0.7-0.1,1c-0.2,0.5-0.3,1-0.3,1.5c0,0.1-0.1,0.3-0.1,0.4c-0.2,0.4-0.4,0.9-0.6,1.3
			c-0.2,0.3-0.3,0.6-0.5,0.9c-0.2-0.3-0.4-0.4-0.2-0.9c0,0,0-0.1,0-0.2c0-0.3,0-0.5,0-0.8c0.1-0.5,0.3-1,0.4-1.5
			c0.1-0.4,0.1-0.7,0-1.1c-0.1,0.1-0.1,0.1-0.1,0.1c-0.2,0.3-0.4,0.5-0.7,0.7c-0.4,0.3-0.8,0.6-1.1,1c-0.2,0.2-0.4,0.4-0.6,0.5
			c-0.2,0.1-0.3,0.2-0.4,0.3c-0.1,0.1-0.1,0.1-0.2,0.2c-0.3,0.3-0.6,0.6-0.9,0.8c-0.2,0.2-0.5,0.4-0.8,0.6c-0.2,0.1-0.5,0.2-0.7,0.3
			c-0.1,0-0.2,0.1-0.4,0.1c0,0,0,0-0.1-0.1c0.2-0.3,0.5-0.7,0.7-1c0.2-0.2,0.4-0.4,0.5-0.6c0.3-0.3,0.5-0.6,0.8-0.8
			c0.2-0.2,0.5-0.4,0.8-0.6c0.4-0.4,0.7-1,1.2-1.3c0,0,0.1-0.1,0.1-0.1c0.2-0.3,0.5-0.5,0.8-0.7C350.6,929.7,350.8,929.4,351,929.1
			C351,929.2,351,929.2,351,929.1z"/>
		<path d="M331.4,926.4c0.4,0.1,0.9,0.2,1.3,0.2c0.4,0,0.8,0.2,1.2,0.4c0.3,0.2,0.6,0.3,0.9,0.4c0.6,0.1,1,0.4,1.4,0.8
			c0.2,0.1,0.3,0.1,0.5,0.1c0.2-0.1,0.4-0.1,0.6-0.2c0.1,0,0.2,0,0.4,0c0.4-0.1,0.8-0.2,1.1-0.4c0.7-0.3,1.3-0.5,2.1-0.6
			c0.1,0,0.3,0,0.5,0c-0.2,0.2-0.3,0.3-0.4,0.4c-0.3,0.4-0.7,0.6-1.2,0.8c-0.5,0.2-1,0.4-1.5,0.6c-0.3,0.1-0.6,0.3-0.9,0.5
			c-0.2,0.1-0.6,0.2-0.8,0.5c-0.4,0.4-0.7,0.9-1.1,1.3c-0.4,0.4-0.9,0.8-1.3,1.3c-0.5,0.4-1.2,0.6-1.7,1.2c-0.2,0.3-0.6,0.3-0.9,0.3
			c-0.1-0.2,0-0.4,0.1-0.5c0.5-0.4,1-0.9,1.5-1.4c0.2-0.1,0.4-0.3,0.5-0.5c0-0.1,0.1-0.2,0.2-0.2c0.3-0.1,0.5-0.3,0.7-0.5
			c0.3-0.3,0.5-0.5,0.8-0.8c0.1-0.1,0.2-0.2,0.3-0.3l0,0c-0.2,0.1-0.3,0.1-0.5,0.1c-0.4,0.1-0.8,0.2-1.2,0.3c-0.2,0-0.4,0.1-0.6,0.1
			c-0.1,0-0.3,0.1-0.4,0.1c-0.3,0-0.7,0.1-1,0.1c-0.2,0-0.4,0-0.5,0.1c-0.6,0.2-1.1,0.4-1.7,0.5c-0.5,0.1-1.1,0.2-1.7,0.2
			c-0.1,0-0.2,0-0.4,0l0-0.1c0.2-0.1,0.4-0.3,0.7-0.4c0.1-0.1,0.3-0.2,0.4-0.2c0.5-0.1,1-0.3,1.4-0.4c0.2-0.1,0.5-0.1,0.8-0.2
			c0.1,0,0.3-0.1,0.4-0.1c0.2-0.1,0.4-0.3,0.7-0.3c0.5,0,1-0.2,1.5-0.3c0.2-0.1,0.5-0.1,0.8-0.2c0.1,0,0.3-0.1,0.4-0.1
			c-0.4-0.4-0.9-0.6-1.4-0.8c-0.4-0.1-0.8-0.3-1.2-0.4c-0.3-0.2-0.6-0.4-0.9-0.6c-0.1-0.1-0.2-0.3-0.3-0.5
			C331,926.4,331.3,926.4,331.4,926.4z"/>
	</g>
</g>
<g id="eThpVe.tif_2_" class="st10">
	<g>
		<path d="M325.4,942.8c-0.1,0-0.1-0.1-0.2-0.1c-0.5,0.1-1.1-0.1-1.6-0.1c-0.1,0-0.3,0-0.5,0c-0.1,0-0.2,0-0.3,0
			c-0.2,0-0.3-0.1-0.5-0.1c-0.7,0-1.4,0-2.2,0c-0.2,0-0.4-0.1-0.5-0.4c0.3-0.1,0.6-0.2,0.9-0.3c0.2,0,0.3,0,0.5,0
			c0.8-0.1,1.6-0.3,2.4-0.2c0.7,0.1,1.5,0.1,2.1,0.3c0.4,0.1,0.7,0.1,1.1,0c0.4-0.1,0.8-0.2,1.3-0.3c0.5-0.1,1.2-0.3,1.6-0.5
			c0.7-0.3,1.3-0.3,2-0.1c-0.3,0.2-0.7,0.5-1.1,0.7c-0.5,0.2-1,0.4-1.4,0.5c-0.5,0.1-0.9,0.2-1.2,0.5c-0.1,0.1-0.3,0.1-0.5,0.2
			c-0.1,0.1-0.3,0.1-0.3,0.3c0,0.1,0,0.3-0.1,0.4c-0.1,0.3-0.2,0.7-0.4,0.9c-0.3,0.4-0.6,0.9-0.7,1.4c-0.1,0.1-0.2,0.3-0.2,0.4
			c-0.3,0.4-0.6,0.7-0.9,1.1c-0.2,0.2-0.4,0.5-0.7,0.8c-0.1-0.4-0.2-0.5,0-0.9c0,0,0-0.1,0-0.2c0.1-0.3,0.1-0.5,0.2-0.8
			c0.2-0.5,0.5-0.9,0.8-1.4c0.2-0.3,0.3-0.7,0.3-1.1c-0.1,0-0.1,0.1-0.2,0.1c-0.3,0.2-0.5,0.4-0.9,0.5c-0.5,0.2-1,0.4-1.3,0.7
			c-0.2,0.1-0.4,0.3-0.7,0.3c-0.2,0-0.3,0.1-0.5,0.2c-0.1,0.1-0.2,0.1-0.2,0.1c-0.4,0.2-0.7,0.4-1.1,0.5c-0.3,0.1-0.6,0.3-0.9,0.4
			c-0.2,0.1-0.5,0.1-0.7,0.1c-0.1,0-0.3,0-0.4,0c0,0,0,0,0-0.1c0.3-0.2,0.6-0.5,1-0.7c0.2-0.1,0.4-0.3,0.7-0.4
			c0.3-0.2,0.7-0.4,1-0.6c0.3-0.1,0.6-0.2,0.9-0.4c0.5-0.3,0.9-0.8,1.6-1c0,0,0.1,0,0.1-0.1c0.3-0.2,0.6-0.3,0.9-0.5
			C324.8,943.2,325.1,943,325.4,942.8C325.4,942.9,325.4,942.9,325.4,942.8z"/>
		<path d="M304.8,933.7c0.4,0.2,0.8,0.4,1.2,0.6s0.8,0.4,1,0.7c0.2,0.3,0.5,0.5,0.8,0.6c0.5,0.2,0.9,0.6,1.1,1.1
			c0.2,0.2,0.3,0.2,0.4,0.2c0.2,0,0.4,0,0.6,0c0.1,0,0.2,0.1,0.4,0.1c0.4,0,0.8,0,1.2-0.1c0.7-0.2,1.4-0.1,2.2,0
			c0.1,0,0.3,0,0.5,0.1c-0.2,0.1-0.4,0.2-0.5,0.3c-0.4,0.3-0.9,0.4-1.4,0.4c-0.6,0-1.1,0.1-1.6,0.2c-0.3,0.1-0.6,0.1-1,0.2
			c-0.3,0.1-0.6,0.1-0.9,0.2c-0.5,0.3-0.9,0.6-1.4,0.9s-1.1,0.6-1.6,0.9c-0.6,0.3-1.3,0.3-1.9,0.7c-0.3,0.2-0.7,0.1-1,0
			c0-0.2,0.1-0.4,0.3-0.5c0.6-0.3,1.2-0.6,1.8-0.9c0.2-0.1,0.4-0.2,0.6-0.4c0-0.1,0.1-0.1,0.2-0.1c0.3,0,0.5-0.1,0.8-0.3
			c0.4-0.2,0.7-0.3,1-0.5c0.1-0.1,0.3-0.2,0.4-0.2l0,0c-0.2,0-0.3,0-0.5,0c-0.4,0-0.8,0-1.2,0c-0.2,0-0.4-0.1-0.6-0.1
			c-0.1,0-0.3,0-0.5,0c-0.3,0-0.7-0.1-1-0.2c-0.2,0-0.4-0.1-0.5-0.1c-0.6,0-1.2,0.1-1.8,0c-0.5-0.1-1.1-0.1-1.7-0.2
			c-0.1-0.1-0.2-0.1-0.4-0.2l0-0.1c0.2-0.1,0.5-0.2,0.8-0.2c0.1,0,0.3-0.1,0.4-0.1c0.5,0,1,0,1.5,0c0.3,0,0.5,0,0.8,0
			c0.1,0,0.3,0,0.4,0c0.2-0.1,0.5-0.1,0.7-0.1c0.5,0.1,1,0.1,1.5,0.1c0.3,0,0.5,0,0.8,0c0.1,0,0.3,0,0.4,0.1
			c-0.3-0.5-0.7-0.8-1.1-1.1c-0.4-0.2-0.7-0.5-1.1-0.8c-0.3-0.2-0.5-0.6-0.7-0.9c-0.1-0.1-0.1-0.3-0.1-0.5
			C304.4,933.6,304.6,933.7,304.8,933.7z"/>
	</g>
</g>
<g id="eThpVe.tif_3_" class="st11">
	<g>
		<path d="M296,957.9c-0.1,0-0.2-0.1-0.3-0.1c-0.7,0.1-1.4-0.1-2.1-0.1c-0.2,0-0.4,0-0.6,0.1c-0.1,0-0.3,0-0.4,0
			c-0.2-0.1-0.4-0.1-0.6-0.1c-1,0-1.9,0-2.9,0c-0.3,0-0.5-0.2-0.7-0.5c0.4-0.1,0.8-0.3,1.1-0.4c0.2-0.1,0.4,0,0.7,0
			c1-0.1,2.1-0.4,3.1-0.3c0.9,0.1,1.9,0.1,2.8,0.4c0.5,0.1,1,0.1,1.5,0c0.5-0.2,1.1-0.3,1.6-0.4c0.7-0.2,1.5-0.4,2.2-0.7
			c0.9-0.4,1.7-0.4,2.6-0.1c-0.5,0.3-1,0.7-1.5,0.9c-0.6,0.3-1.3,0.5-1.9,0.7c-0.6,0.2-1.1,0.3-1.6,0.7c-0.2,0.1-0.4,0.2-0.6,0.3
			c-0.2,0.1-0.4,0.1-0.4,0.4c0,0.2,0,0.4-0.1,0.5c-0.1,0.4-0.3,0.9-0.5,1.2c-0.4,0.6-0.7,1.1-0.9,1.8c-0.1,0.2-0.2,0.4-0.3,0.5
			c-0.4,0.5-0.8,0.9-1.2,1.4c-0.3,0.3-0.6,0.6-0.9,1c-0.2-0.5-0.3-0.6,0-1.2c0,0,0-0.1,0.1-0.2c0.1-0.3,0.1-0.7,0.3-1
			c0.3-0.6,0.7-1.2,1-1.8c0.2-0.4,0.4-0.9,0.4-1.4c-0.1,0.1-0.2,0.1-0.2,0.1c-0.4,0.2-0.7,0.5-1.1,0.7c-0.6,0.2-1.3,0.5-1.8,0.9
			c-0.3,0.2-0.6,0.3-1,0.4c-0.2,0-0.4,0.1-0.6,0.2c-0.1,0.1-0.2,0.1-0.3,0.2c-0.5,0.3-1,0.5-1.4,0.7c-0.4,0.2-0.8,0.4-1.2,0.5
			c-0.3,0.1-0.7,0.1-1,0.2c-0.2,0-0.3,0-0.5,0.1c0,0,0,0-0.1-0.1c0.4-0.3,0.8-0.7,1.3-1c0.3-0.2,0.6-0.3,0.9-0.5
			c0.4-0.3,0.9-0.5,1.3-0.7c0.4-0.2,0.8-0.3,1.2-0.5c0.7-0.4,1.2-1,2-1.3c0,0,0.1-0.1,0.1-0.1c0.4-0.2,0.8-0.4,1.2-0.7
			c0.4-0.2,0.8-0.4,1.2-0.6C296,958,296,958,296,957.9z"/>
		<path d="M268.9,945.9c0.5,0.2,1,0.5,1.6,0.7c0.5,0.2,1,0.5,1.4,0.9c0.3,0.3,0.7,0.6,1.1,0.8c0.7,0.3,1.1,0.8,1.5,1.4
			c0.2,0.2,0.3,0.3,0.6,0.3c0.3,0,0.5,0,0.8,0c0.1,0,0.3,0.1,0.5,0.1c0.5,0,1.1,0,1.6-0.2c0.9-0.2,1.9-0.1,2.8,0
			c0.2,0,0.4,0.1,0.6,0.1c-0.3,0.2-0.5,0.3-0.6,0.4c-0.5,0.4-1.1,0.5-1.8,0.5c-0.8,0-1.5,0.1-2.2,0.3c-0.4,0.1-0.8,0.2-1.3,0.3
			c-0.4,0.1-0.8,0.1-1.2,0.3c-0.7,0.4-1.2,0.8-1.9,1.2c-0.7,0.4-1.4,0.8-2.1,1.1c-0.8,0.4-1.7,0.4-2.5,0.9c-0.4,0.2-0.9,0.1-1.3,0
			c0-0.3,0.1-0.5,0.3-0.6c0.8-0.4,1.6-0.8,2.4-1.2c0.3-0.1,0.6-0.2,0.8-0.5c0.1-0.1,0.2-0.2,0.3-0.2c0.4,0,0.7-0.2,1-0.4
			c0.5-0.2,0.9-0.4,1.3-0.7c0.2-0.1,0.4-0.2,0.5-0.3l0,0c-0.2,0-0.4,0-0.6-0.1c-0.5,0-1.1,0-1.6,0c-0.3,0-0.6-0.1-0.8-0.1
			c-0.2,0-0.4,0-0.6,0c-0.4-0.1-0.9-0.1-1.3-0.2c-0.3,0-0.5-0.1-0.7-0.1c-0.8,0.1-1.6,0.1-2.3,0c-0.7-0.1-1.5-0.2-2.2-0.3
			c-0.2-0.1-0.3-0.1-0.5-0.2l0-0.1c0.3-0.1,0.7-0.2,1-0.3c0.2,0,0.4-0.1,0.6-0.1c0.6,0,1.3,0,1.9,0c0.3,0,0.7,0,1.1,0
			c0.2,0,0.4,0,0.5,0c0.3-0.1,0.6-0.2,1-0.1c0.7,0.1,1.3,0.2,2,0.1c0.3,0,0.7,0,1,0c0.2,0,0.4,0,0.6,0.1c-0.4-0.6-0.9-1.1-1.5-1.4
			c-0.5-0.3-1-0.6-1.4-1c-0.4-0.3-0.7-0.7-1-1.2c-0.1-0.2-0.1-0.4-0.2-0.7C268.4,945.8,268.7,945.9,268.9,945.9z"/>
	</g>
</g>
<g id="eThpVe.tif_4_" class="st10">
	<g>
		<path d="M258.4,972.7c-0.1,0-0.2-0.1-0.4-0.1c-0.9,0.1-1.8-0.1-2.7-0.1c-0.2,0-0.5,0.1-0.8,0.1c-0.1,0-0.3,0.1-0.5,0
			c-0.3-0.1-0.5-0.1-0.8-0.2c-1.2,0-2.4,0-3.6,0c-0.3,0-0.7-0.2-0.9-0.6c0.5-0.1,1-0.4,1.4-0.5c0.3-0.1,0.6,0.1,0.8,0
			c1.3-0.2,2.6-0.5,4-0.4c1.2,0.1,2.4,0.2,3.6,0.5c0.6,0.2,1.2,0.2,1.8,0c0.6-0.2,1.4-0.4,2.1-0.5c0.9-0.2,1.9-0.4,2.7-0.8
			c1.1-0.5,2.2-0.5,3.3-0.2c-0.6,0.4-1.2,0.9-1.9,1.2c-0.8,0.4-1.6,0.6-2.4,0.9c-0.8,0.2-1.4,0.4-2.1,0.8c-0.2,0.2-0.5,0.2-0.8,0.4
			c-0.2,0.1-0.5,0.1-0.5,0.5c0,0.2,0,0.5-0.1,0.7c-0.1,0.5-0.3,1.1-0.6,1.5c-0.5,0.7-0.9,1.5-1.2,2.3c-0.1,0.2-0.3,0.5-0.4,0.6
			c-0.5,0.6-1,1.2-1.5,1.8c-0.4,0.4-0.7,0.8-1.1,1.3c-0.2-0.6-0.4-0.8,0-1.5c0.1,0,0-0.2,0.1-0.3c0.1-0.4,0.2-0.8,0.4-1.3
			c0.4-0.7,0.9-1.5,1.3-2.3c0.3-0.5,0.5-1.1,0.5-1.8c-0.1,0.1-0.2,0.1-0.3,0.2c-0.5,0.3-0.9,0.7-1.4,0.8c-0.8,0.3-1.6,0.6-2.2,1.2
			c-0.4,0.2-0.7,0.4-1.2,0.5c-0.3,0-0.6,0.2-0.8,0.3c-0.2,0.1-0.3,0.2-0.4,0.2c-0.6,0.4-1.2,0.6-1.8,0.9c-0.5,0.2-1,0.5-1.5,0.6
			c-0.4,0.1-0.8,0.1-1.2,0.2c-0.2,0-0.4,0-0.6,0.1c0-0.1,0-0.1-0.1-0.1c0.5-0.4,1.1-0.9,1.6-1.2c0.4-0.2,0.7-0.4,1.1-0.7
			c0.6-0.3,1.1-0.7,1.7-0.9c0.5-0.2,1-0.4,1.5-0.6c0.9-0.5,1.6-1.3,2.6-1.6c0.1,0,0.1-0.1,0.2-0.1c0.5-0.3,1-0.5,1.5-0.8
			c0.5-0.2,1-0.5,1.5-0.7C258.4,972.8,258.4,972.8,258.4,972.7z"/>
		<path d="M224.2,957.6c0.6,0.3,1.3,0.7,2,0.9c0.7,0.3,1.3,0.6,1.7,1.2c0.4,0.4,0.8,0.8,1.3,1c0.8,0.4,1.4,1,1.9,1.8
			c0.3,0.3,0.4,0.3,0.7,0.3c0.4,0,0.7,0,1,0c0.2,0,0.4,0.1,0.6,0.1c0.7,0,1.3,0,2-0.2c1.2-0.3,2.4-0.2,3.6,0c0.2,0,0.5,0.1,0.8,0.2
			c-0.3,0.2-0.6,0.4-0.8,0.5c-0.7,0.5-1.4,0.6-2.3,0.7c-1,0-1.8,0.2-2.7,0.3c-0.5,0.1-1.1,0.2-1.6,0.3c-0.5,0.1-1.1,0.1-1.5,0.4
			c-0.8,0.5-1.5,1.1-2.4,1.5s-1.8,1-2.7,1.4c-1,0.5-2.2,0.5-3.2,1.1c-0.5,0.3-1.1,0.2-1.6,0c0-0.4,0.2-0.6,0.4-0.8c1-0.5,2-1,3-1.5
			c0.4-0.1,0.7-0.3,1-0.6c0.1-0.1,0.2-0.2,0.3-0.2c0.5,0,0.9-0.2,1.3-0.5c0.6-0.3,1.1-0.6,1.7-0.8c0.2-0.1,0.4-0.3,0.7-0.4l0-0.1
			c-0.3,0-0.6-0.1-0.8-0.1c-0.7,0-1.3,0-2,0c-0.3,0-0.7-0.1-1-0.1c-0.2,0-0.5,0-0.8,0c-0.5-0.1-1.1-0.2-1.6-0.3
			c-0.3,0-0.6-0.1-0.9-0.1c-1,0.1-2,0.1-2.9,0c-0.9-0.1-1.8-0.2-2.8-0.4c-0.2-0.1-0.4-0.1-0.6-0.2l0-0.1c0.4-0.1,0.8-0.3,1.3-0.4
			c0.2,0,0.5-0.1,0.7-0.1c0.8,0,1.6,0,2.5,0c0.4,0,0.9,0,1.4,0c0.2,0,0.5,0,0.7,0c0.4-0.1,0.8-0.2,1.2-0.1c0.8,0.2,1.7,0.2,2.6,0.1
			c0.4,0,0.8,0,1.3,0.1c0.2,0,0.5,0,0.7,0.1c-0.5-0.8-1.2-1.3-1.9-1.8c-0.6-0.4-1.2-0.8-1.8-1.3c-0.5-0.4-0.8-0.9-1.2-1.5
			c-0.1-0.2-0.1-0.5-0.2-0.9C223.6,957.5,224,957.6,224.2,957.6z"/>
	</g>
</g>
<g id="eThpVe.tif_5_" class="st9">
	<g>
		<path d="M219.7,985c-0.1,0-0.2-0.1-0.4-0.1c-0.9,0.1-1.8-0.1-2.7-0.1c-0.2,0-0.5,0.1-0.8,0.1c-0.1,0-0.3,0.1-0.5,0
			c-0.3-0.1-0.5-0.1-0.8-0.2c-1.2,0-2.4,0-3.6,0c-0.3,0-0.7-0.2-0.9-0.6c0.5-0.1,1-0.4,1.4-0.5c0.3-0.1,0.6,0.1,0.8,0
			c1.3-0.2,2.6-0.5,4-0.4c1.2,0.1,2.4,0.2,3.6,0.5c0.6,0.2,1.2,0.2,1.8,0c0.6-0.2,1.4-0.4,2.1-0.5c0.9-0.2,1.9-0.4,2.7-0.8
			c1.1-0.5,2.2-0.5,3.3-0.2c-0.6,0.4-1.2,0.9-1.9,1.2c-0.8,0.4-1.6,0.6-2.4,0.9c-0.8,0.2-1.4,0.4-2.1,0.8c-0.2,0.2-0.5,0.2-0.8,0.4
			c-0.2,0.1-0.5,0.1-0.5,0.5c0,0.2,0,0.5-0.1,0.7c-0.1,0.5-0.3,1.1-0.6,1.5c-0.5,0.7-0.9,1.5-1.2,2.3c-0.1,0.2-0.3,0.5-0.4,0.6
			c-0.5,0.6-1,1.2-1.5,1.8c-0.4,0.4-0.7,0.8-1.1,1.3c-0.2-0.6-0.4-0.8,0-1.5c0.1,0,0-0.2,0.1-0.3c0.1-0.4,0.2-0.8,0.4-1.3
			c0.4-0.7,0.9-1.5,1.3-2.3c0.3-0.5,0.5-1.1,0.5-1.8c-0.1,0.1-0.2,0.1-0.3,0.2c-0.5,0.3-0.9,0.7-1.4,0.8c-0.8,0.3-1.6,0.6-2.2,1.2
			c-0.4,0.2-0.7,0.4-1.2,0.5c-0.3,0-0.6,0.2-0.8,0.3c-0.2,0.1-0.3,0.2-0.4,0.2c-0.6,0.4-1.2,0.6-1.8,0.9c-0.5,0.2-1,0.5-1.5,0.6
			c-0.4,0.1-0.8,0.1-1.2,0.2c-0.2,0-0.4,0-0.6,0.1c0-0.1,0-0.1-0.1-0.1c0.5-0.4,1.1-0.9,1.6-1.2c0.4-0.2,0.7-0.4,1.1-0.7
			c0.6-0.3,1.1-0.7,1.7-0.9c0.5-0.2,1-0.4,1.5-0.6c0.9-0.5,1.6-1.3,2.6-1.6c0.1,0,0.1-0.1,0.2-0.1c0.5-0.3,1-0.5,1.5-0.8
			c0.5-0.2,1-0.5,1.5-0.7C219.7,985.1,219.7,985.1,219.7,985z"/>
		<path d="M185.5,969.8c0.6,0.3,1.3,0.7,2,0.9c0.7,0.3,1.3,0.6,1.7,1.2c0.4,0.4,0.8,0.8,1.3,1c0.8,0.4,1.4,1,1.9,1.8
			c0.3,0.3,0.4,0.3,0.7,0.3c0.4,0,0.7,0,1,0c0.2,0,0.4,0.1,0.6,0.1c0.7,0,1.3,0,2-0.2c1.2-0.3,2.4-0.2,3.6,0c0.2,0,0.5,0.1,0.8,0.2
			c-0.3,0.2-0.6,0.4-0.8,0.5c-0.7,0.5-1.4,0.6-2.3,0.7c-1,0-1.8,0.2-2.7,0.3c-0.5,0.1-1.1,0.2-1.6,0.3c-0.5,0.1-1.1,0.1-1.5,0.4
			c-0.8,0.5-1.5,1.1-2.4,1.5c-0.8,0.5-1.8,1-2.7,1.4c-1,0.5-2.2,0.5-3.2,1.1c-0.5,0.3-1.1,0.2-1.6,0c0-0.4,0.2-0.6,0.4-0.8
			c1-0.5,2-1,3-1.5c0.4-0.1,0.7-0.3,1-0.6c0.1-0.1,0.2-0.2,0.3-0.2c0.5,0,0.9-0.2,1.3-0.5c0.6-0.3,1.1-0.6,1.7-0.8
			c0.2-0.1,0.4-0.3,0.7-0.4l0-0.1c-0.3,0-0.6-0.1-0.8-0.1c-0.7,0-1.3,0-2,0c-0.3,0-0.7-0.1-1-0.1c-0.2,0-0.5,0-0.8,0
			c-0.5-0.1-1.1-0.2-1.6-0.3c-0.3,0-0.6-0.1-0.9-0.1c-1,0.1-2,0.1-2.9,0c-0.9-0.1-1.8-0.2-2.8-0.4c-0.2-0.1-0.4-0.1-0.6-0.2l0-0.1
			c0.4-0.1,0.8-0.3,1.3-0.4c0.2,0,0.5-0.1,0.7-0.1c0.8,0,1.6,0,2.5,0c0.4,0,0.9,0,1.4,0c0.2,0,0.5,0,0.7,0c0.4-0.1,0.8-0.2,1.2-0.1
			c0.8,0.2,1.7,0.2,2.6,0.1c0.4,0,0.8,0,1.3,0.1c0.2,0,0.5,0,0.7,0.1c-0.5-0.8-1.2-1.3-1.9-1.8c-0.6-0.4-1.2-0.8-1.8-1.3
			c-0.5-0.4-0.8-0.9-1.2-1.5c-0.1-0.2-0.1-0.5-0.2-0.9C184.9,969.7,185.3,969.8,185.5,969.8z"/>
	</g>
</g>
<g id="eThpVe.tif_7_" class="st11">
	<g>
		<path d="M171,991.1c-0.1,0-0.2-0.1-0.4-0.1c-0.9,0.1-1.8-0.1-2.7-0.1c-0.2,0-0.5,0.1-0.8,0.1c-0.1,0-0.3,0.1-0.5,0
			c-0.3-0.1-0.5-0.1-0.8-0.2c-1.2,0-2.4,0-3.6,0c-0.3,0-0.7-0.2-0.9-0.6c0.5-0.1,1-0.4,1.4-0.5c0.3-0.1,0.6,0.1,0.8,0
			c1.3-0.2,2.6-0.5,4-0.4c1.2,0.1,2.4,0.2,3.6,0.5c0.6,0.2,1.2,0.2,1.8,0c0.6-0.2,1.4-0.4,2.1-0.5c0.9-0.2,1.9-0.4,2.7-0.8
			c1.1-0.5,2.2-0.5,3.3-0.2c-0.6,0.4-1.2,0.9-1.9,1.2c-0.8,0.4-1.6,0.6-2.4,0.9c-0.8,0.2-1.4,0.4-2.1,0.8c-0.2,0.2-0.5,0.2-0.8,0.4
			c-0.2,0.1-0.5,0.1-0.5,0.5c0,0.2,0,0.5-0.1,0.7c-0.1,0.5-0.3,1.1-0.6,1.5c-0.5,0.7-0.9,1.5-1.2,2.3c-0.1,0.2-0.3,0.5-0.4,0.6
			c-0.5,0.6-1,1.2-1.5,1.8c-0.4,0.4-0.7,0.8-1.1,1.3c-0.2-0.6-0.4-0.8,0-1.5c0.1,0,0-0.2,0.1-0.3c0.1-0.4,0.2-0.8,0.4-1.3
			c0.4-0.7,0.9-1.5,1.3-2.3c0.3-0.5,0.5-1.1,0.5-1.8c-0.1,0.1-0.2,0.1-0.3,0.2c-0.5,0.3-0.9,0.7-1.4,0.8c-0.8,0.3-1.6,0.6-2.2,1.2
			c-0.4,0.2-0.7,0.4-1.2,0.5c-0.3,0-0.6,0.2-0.8,0.3c-0.2,0.1-0.3,0.2-0.4,0.2c-0.6,0.4-1.2,0.6-1.8,0.9c-0.5,0.2-1,0.5-1.5,0.6
			c-0.4,0.1-0.8,0.1-1.2,0.2c-0.2,0-0.4,0-0.6,0.1c0-0.1,0-0.1-0.1-0.1c0.5-0.4,1.1-0.9,1.6-1.2c0.4-0.2,0.7-0.4,1.1-0.7
			c0.6-0.3,1.1-0.7,1.7-0.9c0.5-0.2,1-0.4,1.5-0.6c0.9-0.5,1.6-1.3,2.6-1.6c0.1,0,0.1-0.1,0.2-0.1c0.5-0.3,1-0.5,1.5-0.8
			c0.5-0.2,1-0.5,1.5-0.7C171,991.2,171,991.2,171,991.1z"/>
		<path d="M136.8,975.9c0.6,0.3,1.3,0.7,2,0.9c0.7,0.3,1.3,0.6,1.7,1.2c0.4,0.4,0.8,0.8,1.3,1c0.8,0.4,1.4,1,1.9,1.8
			c0.3,0.3,0.4,0.3,0.7,0.3c0.4,0,0.7,0,1,0c0.2,0,0.4,0.1,0.6,0.1c0.7,0,1.3,0,2-0.2c1.2-0.3,2.4-0.2,3.6,0c0.2,0,0.5,0.1,0.8,0.2
			c-0.3,0.2-0.6,0.4-0.8,0.5c-0.7,0.5-1.4,0.6-2.3,0.7c-1,0-1.8,0.2-2.7,0.3c-0.5,0.1-1.1,0.2-1.6,0.3c-0.5,0.1-1.1,0.1-1.5,0.4
			c-0.8,0.5-1.5,1.1-2.4,1.5s-1.8,1-2.7,1.4c-1,0.5-2.2,0.5-3.2,1.1c-0.5,0.3-1.1,0.2-1.6,0c0-0.4,0.2-0.6,0.4-0.8c1-0.5,2-1,3-1.5
			c0.4-0.1,0.7-0.3,1-0.6c0.1-0.1,0.2-0.2,0.3-0.2c0.5,0,0.9-0.2,1.3-0.5c0.6-0.3,1.1-0.6,1.7-0.8c0.2-0.1,0.4-0.3,0.7-0.4l0-0.1
			c-0.3,0-0.6-0.1-0.8-0.1c-0.7,0-1.3,0-2,0c-0.3,0-0.7-0.1-1-0.1c-0.2,0-0.5,0-0.8,0c-0.5-0.1-1.1-0.2-1.6-0.3
			c-0.3,0-0.6-0.1-0.9-0.1c-1,0.1-2,0.1-2.9,0c-0.9-0.1-1.8-0.2-2.8-0.4c-0.2-0.1-0.4-0.1-0.6-0.2l0-0.1c0.4-0.1,0.8-0.3,1.3-0.4
			c0.2,0,0.5-0.1,0.7-0.1c0.8,0,1.6,0,2.5,0c0.4,0,0.9,0,1.4,0c0.2,0,0.5,0,0.7,0c0.4-0.1,0.8-0.2,1.2-0.1c0.8,0.2,1.7,0.2,2.6,0.1
			c0.4,0,0.8,0,1.3,0.1c0.2,0,0.5,0,0.7,0.1c-0.5-0.8-1.2-1.3-1.9-1.8c-0.6-0.4-1.2-0.8-1.8-1.3c-0.5-0.4-0.8-0.9-1.2-1.5
			c-0.1-0.2-0.1-0.5-0.2-0.9C136.2,975.8,136.6,975.9,136.8,975.9z"/>
	</g>
</g>
<g id="eThpVe.tif_8_" class="st12">
	<g>
		<path d="M125.7,1002.7c-0.1,0-0.2-0.1-0.4-0.1c-1.1,0.2-2.1-0.1-3.2-0.1c-0.3,0-0.6,0.1-0.9,0.1c-0.2,0-0.4,0.1-0.6,0
			c-0.3-0.1-0.6-0.2-0.9-0.2c-1.4,0-2.8,0-4.3-0.1c-0.4,0-0.8-0.3-1-0.7c0.6-0.2,1.1-0.5,1.7-0.6c0.3-0.1,0.7,0.1,1,0
			c1.6-0.2,3.1-0.6,4.7-0.4c1.4,0.1,2.9,0.2,4.2,0.5c0.7,0.2,1.5,0.2,2.2,0c0.7-0.3,1.6-0.4,2.5-0.6c1.1-0.3,2.3-0.5,3.2-1
			c1.3-0.6,2.6-0.6,4-0.2c-0.7,0.5-1.4,1-2.2,1.4c-0.9,0.4-1.9,0.7-2.8,1c-0.9,0.3-1.7,0.5-2.4,1c-0.2,0.2-0.6,0.3-1,0.5
			c-0.3,0.2-0.6,0.2-0.6,0.6c0,0.3,0,0.6-0.2,0.8c-0.2,0.6-0.4,1.3-0.7,1.8c-0.6,0.9-1.1,1.7-1.4,2.8c-0.1,0.2-0.3,0.5-0.5,0.7
			c-0.6,0.7-1.2,1.4-1.8,2.1c-0.5,0.4-0.9,0.9-1.3,1.5c-0.3-0.7-0.5-1,0-1.8c0.1,0,0.1-0.2,0.1-0.3c0.1-0.5,0.2-1,0.4-1.5
			c0.5-0.9,1-1.7,1.5-2.7c0.3-0.6,0.6-1.3,0.6-2.1c-0.1,0.1-0.3,0.2-0.3,0.2c-0.6,0.3-1,0.8-1.7,1c-0.9,0.4-1.9,0.7-2.7,1.4
			c-0.5,0.3-0.9,0.5-1.4,0.6c-0.3,0-0.7,0.2-0.9,0.4c-0.2,0.1-0.3,0.2-0.5,0.3c-0.7,0.4-1.4,0.7-2.1,1.1c-0.6,0.2-1.2,0.6-1.8,0.8
			c-0.4,0.2-1,0.1-1.5,0.2c-0.3,0-0.5,0-0.7,0.1c0-0.1,0-0.1-0.1-0.1c0.6-0.5,1.3-1,1.9-1.5c0.5-0.3,0.9-0.5,1.3-0.8
			c0.7-0.4,1.3-0.8,2-1.1c0.6-0.2,1.2-0.5,1.8-0.8c1.1-0.6,1.9-1.5,3.1-1.9c0.1,0,0.1-0.1,0.2-0.1c0.6-0.3,1.2-0.6,1.8-1
			c0.6-0.2,1.2-0.6,1.8-0.9C125.7,1002.8,125.7,1002.8,125.7,1002.7z"/>
		<path d="M85.1,984.7c0.7,0.4,1.5,0.8,2.3,1.1c0.8,0.3,1.5,0.7,2,1.4c0.5,0.5,1,0.9,1.6,1.2c1,0.5,1.7,1.2,2.2,2.1
			c0.3,0.4,0.5,0.4,0.8,0.4c0.4,0,0.8,0,1.2,0c0.2,0.1,0.5,0.2,0.7,0.1c0.8,0,1.6,0,2.4-0.2c1.4-0.3,2.8-0.2,4.3,0
			c0.3,0,0.6,0.1,0.9,0.2c-0.4,0.2-0.7,0.4-1,0.6c-0.8,0.6-1.7,0.7-2.7,0.8c-1.1,0-2.2,0.2-3.2,0.4c-0.6,0.1-1.2,0.3-1.9,0.4
			c-0.5,0.1-1.3,0.1-1.8,0.4c-1,0.6-1.8,1.3-2.8,1.8c-1,0.6-2.1,1.1-3.2,1.7c-1.2,0.6-2.6,0.6-3.8,1.3c-0.6,0.3-1.3,0.2-1.9,0.1
			c0-0.4,0.2-0.7,0.5-0.9c1.2-0.6,2.4-1.2,3.5-1.8c0.4-0.2,0.9-0.3,1.2-0.7c0.1-0.1,0.3-0.3,0.4-0.2c0.6,0,1.1-0.3,1.5-0.5
			c0.7-0.3,1.3-0.7,2-1c0.3-0.2,0.5-0.3,0.8-0.5l0-0.1c-0.3,0-0.7-0.1-0.9-0.1c-0.8,0-1.6,0-2.4,0c-0.4,0-0.9-0.1-1.2-0.2
			c-0.3,0-0.6,0-0.9,0c-0.6-0.1-1.3-0.2-1.9-0.3c-0.4,0-0.7-0.1-1-0.1c-1.2,0.1-2.3,0.1-3.5,0c-1-0.1-2.2-0.2-3.3-0.5
			c-0.2-0.1-0.5-0.2-0.7-0.3l0-0.1c0.4-0.2,1-0.3,1.5-0.4c0.2,0,0.6-0.2,0.9-0.2c1,0,2,0,2.9,0c0.5,0,1.1,0,1.6,0c0.3,0,0.6,0,0.8,0
			c0.5-0.1,0.9-0.3,1.4-0.1c1,0.2,2,0.2,3,0.2c0.5,0,1,0,1.5,0.1c0.3,0,0.6,0,0.9,0.1c-0.5-0.9-1.4-1.6-2.2-2.1
			c-0.7-0.5-1.4-0.9-2.1-1.5c-0.5-0.5-1-1.1-1.5-1.7c-0.2-0.3-0.2-0.6-0.3-1.1C84.4,984.6,84.8,984.7,85.1,984.7z"/>
	</g>
</g>
<g id="eThpVe.tif_9_" class="st13">
	<g>
		<path d="M63.8,1013.7c-0.1-0.1-0.3-0.2-0.4-0.2c-1.2,0-2.3-0.5-3.5-0.7c-0.3-0.1-0.7,0-1-0.1c-0.2,0-0.5,0-0.7-0.1
			c-0.3-0.2-0.7-0.3-1-0.4c-1.6-0.3-3.1-0.6-4.7-0.9c-0.4-0.1-0.8-0.4-1-1c0.7-0.1,1.3-0.3,2-0.4c0.4,0,0.7,0.2,1.1,0.2
			c1.8,0.1,3.6,0,5.3,0.4c1.5,0.4,3.1,0.8,4.6,1.4c0.8,0.4,1.6,0.5,2.4,0.4c0.9-0.1,1.9-0.1,2.8-0.2c1.2-0.1,2.6-0.1,3.8-0.5
			c1.6-0.4,3-0.1,4.4,0.5c-0.9,0.4-1.8,0.9-2.7,1.1c-1.1,0.3-2.2,0.5-3.3,0.6c-1.1,0.1-1.9,0.2-2.9,0.6c-0.3,0.2-0.8,0.2-1.2,0.3
			c-0.3,0.1-0.7,0.1-0.8,0.5c-0.1,0.3-0.1,0.6-0.3,0.9c-0.3,0.7-0.7,1.4-1.1,1.9c-0.8,0.8-1.6,1.7-2.1,2.8c-0.2,0.3-0.4,0.5-0.7,0.7
			c-0.8,0.7-1.6,1.3-2.4,2c-0.6,0.4-1.1,0.9-1.8,1.4c-0.1-0.9-0.3-1.2,0.4-2c0.1,0,0.1-0.2,0.2-0.3c0.3-0.6,0.4-1.1,0.8-1.6
			c0.7-0.9,1.5-1.7,2.2-2.7c0.5-0.6,0.9-1.3,1.1-2.2c-0.2,0.1-0.3,0.1-0.4,0.1c-0.7,0.3-1.3,0.7-2.1,0.8c-1.1,0.2-2.2,0.5-3.2,1
			c-0.6,0.2-1,0.4-1.7,0.4c-0.4,0-0.8,0.1-1.1,0.2c-0.2,0.1-0.4,0.1-0.6,0.2c-0.9,0.3-1.7,0.5-2.5,0.8c-0.7,0.2-1.4,0.4-2.1,0.5
			c-0.5,0.1-1.1,0-1.7,0c-0.3-0.1-0.6-0.1-0.8-0.1c0-0.1,0-0.1-0.1-0.2c0.8-0.4,1.6-0.9,2.4-1.3c0.6-0.2,1-0.4,1.6-0.6
			c0.8-0.3,1.6-0.6,2.4-0.8c0.7-0.2,1.5-0.3,2.1-0.5c1.3-0.5,2.3-1.3,3.7-1.5c0.1,0,0.2-0.1,0.2-0.1c0.7-0.3,1.5-0.5,2.2-0.7
			c0.7-0.2,1.4-0.4,2.1-0.6C63.7,1013.9,63.7,1013.9,63.8,1013.7z"/>
		<path d="M22.5,986.1c0.8,0.5,1.5,1.2,2.4,1.7c0.8,0.5,1.5,1.1,2,1.9c0.4,0.7,0.9,1.2,1.5,1.6c1,0.7,1.6,1.7,2.1,2.8
			c0.3,0.5,0.5,0.6,0.9,0.6c0.5,0.1,0.9,0.1,1.4,0.2c0.2,0.1,0.5,0.3,0.7,0.3c0.9,0.1,1.7,0.3,2.6,0.2c1.6-0.1,3.1,0.3,4.7,0.8
			c0.3,0.1,0.6,0.2,1,0.4c-0.5,0.2-0.9,0.3-1.2,0.5c-1,0.6-2,0.5-3.2,0.4c-1.3-0.2-2.4-0.2-3.6-0.2c-0.7,0-1.4,0.1-2.2,0.1
			c-0.6,0-1.4-0.1-2.1,0.1c-1.2,0.4-2.3,1-3.5,1.5c-1.2,0.4-2.5,0.8-3.8,1.2c-1.4,0.4-3,0.2-4.4,0.7c-0.7,0.3-1.5,0-2.1-0.3
			c0.1-0.5,0.4-0.8,0.8-0.9c1.4-0.4,2.9-0.9,4.3-1.3c0.5-0.1,1-0.2,1.4-0.5c0.1-0.1,0.4-0.2,0.5-0.2c0.7,0.1,1.2-0.1,1.8-0.3
			c0.8-0.2,1.6-0.5,2.4-0.7c0.3-0.1,0.6-0.2,1-0.4l0-0.1c-0.4,0-0.7-0.2-1-0.3c-0.9-0.1-1.7-0.3-2.6-0.5c-0.4-0.1-0.9-0.3-1.3-0.4
			c-0.3-0.1-0.7-0.1-1-0.2c-0.6-0.2-1.4-0.5-2-0.7c-0.4-0.1-0.7-0.3-1.1-0.3c-1.3-0.1-2.6-0.3-3.8-0.7c-1.1-0.3-2.4-0.7-3.5-1.1
			c-0.3-0.2-0.5-0.3-0.7-0.5l0.1-0.1c0.5-0.1,1.1-0.1,1.8-0.2c0.3,0,0.7-0.1,1,0c1.1,0.2,2.2,0.4,3.2,0.5c0.6,0.1,1.2,0.2,1.8,0.3
			c0.3,0.1,0.6,0.1,0.9,0.1c0.5,0,1.1-0.1,1.6,0.1c1.1,0.4,2.2,0.7,3.3,0.8c0.6,0.1,1.1,0.2,1.7,0.4c0.3,0.1,0.6,0.1,0.9,0.3
			c-0.4-1.1-1.2-2-2.1-2.8c-0.7-0.7-1.4-1.3-2.1-2.1c-0.5-0.6-0.9-1.4-1.3-2.2c-0.1-0.3-0.1-0.7-0.1-1.2
			C21.7,985.8,22.2,986,22.5,986.1z"/>
	</g>
</g>
</svg>
