<?xml version="1.0" encoding="utf-8"?>
<!-- Generator: Adobe Illustrator 20.1.0, SVG Export Plug-In . SVG Version: 6.00 Build 0)  -->
<svg version="1.1" xmlns="http://www.w3.org/2000/svg" xmlns:xlink="http://www.w3.org/1999/xlink" x="0px" y="0px"
	 viewBox="0 0 1440 900" style="enable-background:new 0 0 1440 900;" xml:space="preserve">
<style type="text/css">
	.st0{fill:url(#SVGID_1_);}
	.st1{opacity:0.1;fill:url(#SVGID_2_);}
	.st2{opacity:0.1;}
	.st3{fill:url(#SVGID_3_);}
	.st4{fill:#333333;}
	.st5{fill:url(#SVGID_4_);}
	.st6{fill:#404770;}
	.st7{fill:url(#SVGID_5_);}
	.st8{fill:url(#SVGID_6_);}
	.st9{display:none;}
	.st10{display:inline;}
	.st11{display:inline;opacity:0.47;fill:url(#SVGID_7_);}
	.st12{display:inline;opacity:0.47;fill:url(#SVGID_8_);}
	.st13{display:inline;opacity:0.47;fill:url(#SVGID_9_);}
	.st14{display:inline;opacity:0.47;fill:url(#SVGID_10_);}
	.st15{display:inline;opacity:0.47;fill:url(#SVGID_11_);}
	.st16{display:inline;opacity:0.47;fill:url(#SVGID_12_);}
	.st17{display:inline;opacity:0.47;fill:url(#SVGID_13_);}
	.st18{display:inline;opacity:0.47;fill:url(#SVGID_14_);}
	.st19{display:inline;opacity:0.47;fill:url(#SVGID_15_);}
	.st20{display:inline;opacity:0.47;fill:url(#SVGID_16_);}
	.st21{display:inline;opacity:0.47;fill:url(#SVGID_17_);}
	.st22{display:inline;opacity:0.47;fill:url(#SVGID_18_);}
	.st23{display:inline;opacity:0.47;fill:url(#SVGID_19_);}
	.st24{display:inline;opacity:0.47;fill:url(#SVGID_20_);}
	.st25{display:inline;opacity:0.47;fill:url(#SVGID_21_);}
	.st26{display:inline;opacity:0.47;fill:url(#SVGID_22_);}
	.st27{display:inline;opacity:0.47;fill:url(#SVGID_23_);}
	.st28{display:inline;opacity:0.47;fill:url(#SVGID_24_);}
	.st29{display:inline;opacity:0.47;fill:url(#SVGID_25_);}
	.st30{display:inline;opacity:0.47;fill:url(#SVGID_26_);}
	.st31{display:inline;opacity:0.47;fill:url(#SVGID_27_);}
	.st32{display:inline;opacity:0.47;fill:url(#SVGID_28_);}
	.st33{display:inline;opacity:0.47;fill:url(#SVGID_29_);}
	.st34{display:inline;opacity:0.47;fill:url(#SVGID_30_);}
	.st35{display:inline;opacity:0.1;}
	.st36{fill:url(#SVGID_31_);}
	.st37{fill:url(#SVGID_32_);}
</style>
<g id="Layer_2">
	<linearGradient id="SVGID_1_" gradientUnits="userSpaceOnUse" x1="719" y1="4.3566" x2="719" y2="895">
		<stop  offset="0.2367" style="stop-color:#404770"/>
		<stop  offset="0.3507" style="stop-color:#434B70;stop-opacity:0.8507"/>
		<stop  offset="0.4688" style="stop-color:#4C586E;stop-opacity:0.696"/>
		<stop  offset="0.5888" style="stop-color:#5B6C6C;stop-opacity:0.5387"/>
		<stop  offset="0.7102" style="stop-color:#708969;stop-opacity:0.3796"/>
		<stop  offset="0.8327" style="stop-color:#8BAF65;stop-opacity:0.2192"/>
		<stop  offset="0.9543" style="stop-color:#ACDC61;stop-opacity:5.981946e-02"/>
		<stop  offset="1" style="stop-color:#BAEF5F;stop-opacity:0"/>
	</linearGradient>
	<path class="st0" d="M0,151.3c0,0,59.3-9.2,78-2.4c1.8,0.7,3.3,1.5,4.3,2.5c11.1,11.1,85.8-48.1,85.8-48.1s25.9-5.9,31.8-11.8
		c5.9-5.9,17,4.4,17,4.4s11.1,11.1,28.8,18.5s18.5-5.9,18.5-5.9s3.7-8.9,17.8,5.2s50.3,26.6,148.7,26.6c0,0,49.6,5.2,73.2-11.8
		c0,0,31.1-49.6,65.1-49.6c0,0,24.4-3,35.5-29.6c0,0,19.2-12.6,42.2-17c0,0,14.2-15.5,29.4-15.5s32.2-12,32.2-12s12-3.8,16.2,10.5
		c4.2,14.3,47.8,49.3,76.1,57.1c0,0,18.2-1.7,21.1-9.5c0,0,10.1-12.4,19.6,3.2s-4.3,12.6,28.8,36.4c0,0,2.4,4.7,38.7,6.9
		c0,0,22.3-19.2,48.5-11.8c0,0,13.1,18.3,44.6,18.3c0,0,15.6-12.8,36.3-5.6c0,0,29.9,8.9,39.6,23s25.5,0,25.5,0s39.8,3.4,57.2-5.3
		c0,0,14.1-6.8,23.5-4.6c9.5,2.2,20.6-15.5,20.6-15.5s35.2-13.3,45.1,20.6c0,0,26.1,3,31.5-2.4c0,0,47.3,21.1,72.5,21.1
		c0,0,43.7-38.8,60.4-31c16.7,7.8,26-6.2,26-6.2v785H-2L0,151.3z"/>
	<linearGradient id="SVGID_2_" gradientUnits="userSpaceOnUse" x1="939.1837" y1="-135.1951" x2="1294.4307" y2="480.1108">
		<stop  offset="0" style="stop-color:#BDCCD4"/>
		<stop  offset="0.1641" style="stop-color:#BDCDCF;stop-opacity:0.8359"/>
		<stop  offset="0.3566" style="stop-color:#BDD2C1;stop-opacity:0.6434"/>
		<stop  offset="0.5634" style="stop-color:#BCD9A9;stop-opacity:0.4366"/>
		<stop  offset="0.7803" style="stop-color:#BBE388;stop-opacity:0.2197"/>
		<stop  offset="1" style="stop-color:#BAEF5F;stop-opacity:0"/>
	</linearGradient>
	<path class="st1" d="M1439,110c0,0-8.3,13.9-25,6.2c-16.7-7.8-60.4,31-60.4,31c-25.2,0-72.5-21.1-72.5-21.1
		c-5.5,5.5-33.5,2.4-33.5,2.4c-11.2-24.6-45.1-16.6-45.1-16.6s-9.2,13.7-18.6,11.5c-9.5-2.2-23.5,4.6-23.5,4.6
		c-17.5,8.7-57.2,5.3-57.2,5.3s-15.8,14.1-25.5,0s-38.2-19.1-38.2-19.1c-20.7-7.2-37.8,1.6-37.8,1.6c-31.5,0-44.6-18.3-44.6-18.3
		c-26.2-7.4-48.5,11.8-48.5,11.8c-36.3-2.2-38.7-6.9-38.7-6.9c-33.1-23.8-21.3-14.9-30.8-30.4s-21.6-5.2-21.6-5.2
		c-2.8,2.7-17.2,5.6-17.1,5.5c-6.8-1.3-13.6-4.3-21.9-8.9c-8.2-4.2-13.5-8.1-23.3-15.2c-11.4-8.2-17-12.4-20-16.4
		c-1.5-2-5.4-7.6-11.9-16.6c-2.7-3.7-8-4.4-11.1-5.6c-3.3-1.4-4.1-3-4.2-4.5c0-0.2,0-0.3,0.1-0.4c0,0-17.1,12-32.2,12
		c0,0-7.6,10.6,27.7,53.5c0,0,63.8,49.4,71.6,65.9s23.5,26.4,41.8,26.4c18.3,0,26.3,10.2,26.3,10.2s13.7,17.8,51.7,11.7V177l58,20.9
		c0,0,45.7,12.6,41.9-15.1c-0.4-3,0.8-4.5,1-4.7c2.2-2.9,26,9.4,109.5,65.9c51.7,23.7,95.3,39.8,126.1,50.2
		c53.6,18.2,81.5,23.7,122.9,44.9c38.3,19.6,66.6,41.7,84.8,57.5C1439,301.1,1439,205.6,1439,110z"/>
	<g class="st2">
		<linearGradient id="SVGID_3_" gradientUnits="userSpaceOnUse" x1="674.9684" y1="17.8863" x2="674.8318" y2="17.8863">
			<stop  offset="0" style="stop-color:#BDCCD4"/>
			<stop  offset="0.1641" style="stop-color:#BDCDCF;stop-opacity:0.8359"/>
			<stop  offset="0.3566" style="stop-color:#BDD2C1;stop-opacity:0.6434"/>
			<stop  offset="0.5634" style="stop-color:#BCD9A9;stop-opacity:0.4366"/>
			<stop  offset="0.7803" style="stop-color:#BBE388;stop-opacity:0.2197"/>
			<stop  offset="1" style="stop-color:#BAEF5F;stop-opacity:0"/>
		</linearGradient>
		<path class="st3" d="M674.9,18c0.2,0-0.2-0.1,0-0.1"/>
		<path class="st4" d="M676.9,17.8c-14.9,0.5-30.4,15.5-30.4,15.5c-22.9,4.4-42.2,17-42.2,17c-11.1,26.6-35.5,29.6-35.5,29.6
			c-34,0-65.1,49.6-65.1,49.6c6.1,22.8-2.6,37.6-2.6,37.6c17.6-17.6,67.5-34.6,67.5-34.6s59-4.6,66.5-28.7
			c7.4-24.1,58.9-45.9,58.9-45.9C674.1,29.7,673.1,18.5,676.9,17.8z"/>
	</g>
</g>
<g id="Layer_5">
	<linearGradient id="SVGID_4_" gradientUnits="userSpaceOnUse" x1="754.0167" y1="324.9002" x2="685.9932" y2="972.1008">
		<stop  offset="0" style="stop-color:#5E89FF"/>
		<stop  offset="0.3118" style="stop-color:#6494EA"/>
		<stop  offset="0.9511" style="stop-color:#74AFB5"/>
		<stop  offset="1" style="stop-color:#75B1B1"/>
	</linearGradient>
	<polygon class="st5" points="0,397 1440,397 1440,900 0,900 	"/>
</g>
<g id="Layer_4">
	<path class="st6" d="M1440,397H863c0,0,39.3-17.9,49.7-26.8c10.3-9,2.9-51.7,93-43.5c0,0,29.6,9.3,64.6-30s91.2-59,91.2-59
		s115.9-61.1,174.4-25.9c0,0,34.7-5.5,53.8-31.7s50.3-13.4,50.3-13.4V397z"/>
	<path class="st6" d="M0,263.8c0,0,67.5-12,132.2,23.4c70.3,38.5,168.1,41,168.1,41s85.7,31,99.5,44.2
		c13.8,13.1,251.2,24.2,251.2,24.2s-224.5,4.2,9,43.1S0,433.5,0,433.5V263.8z"/>
</g>
<g id="Layer_1">
	<linearGradient id="SVGID_5_" gradientUnits="userSpaceOnUse" x1="-1" y1="786.3379" x2="1439" y2="786.3379">
		<stop  offset="0" style="stop-color:#697300"/>
		<stop  offset="1" style="stop-color:#88A719"/>
	</linearGradient>
	<path class="st7" d="M-1,557.5V1038c0,0,1047.3-495.7,1440-424.4v-1.4C482.3,479.3-1,557.5-1,557.5z"/>
	<linearGradient id="SVGID_6_" gradientUnits="userSpaceOnUse" x1="719" y1="597.2972" x2="719" y2="1038">
		<stop  offset="0" style="stop-color:#697300"/>
		<stop  offset="1" style="stop-color:#88A719"/>
	</linearGradient>
	<path class="st8" d="M-1,705c0,0,1047.3-153.1,1440-94.2V1038H-1V705z"/>
</g>
<g id="Layer_3" class="st9">
	<g id="_x38_g4t7t.tif" class="st10">
		
			<image style="overflow:visible;" width="728" height="408" id="Layer_0_4_" xlink:href="5653D5E859BE16AA.png"  transform="matrix(1.9688 0 0 1.9688 -1433.3014 1044.3884)">
		</image>
	</g>
	<linearGradient id="SVGID_7_" gradientUnits="userSpaceOnUse" x1="-566.2188" y1="1234.2241" x2="-566.2188" y2="1285.4373">
		<stop  offset="0.2367" style="stop-color:#404770"/>
		<stop  offset="0.3507" style="stop-color:#434B70;stop-opacity:0.8507"/>
		<stop  offset="0.4688" style="stop-color:#4C586E;stop-opacity:0.696"/>
		<stop  offset="0.5888" style="stop-color:#5B6C6C;stop-opacity:0.5387"/>
		<stop  offset="0.7102" style="stop-color:#708969;stop-opacity:0.3796"/>
		<stop  offset="0.8327" style="stop-color:#8BAF65;stop-opacity:0.2192"/>
		<stop  offset="0.9543" style="stop-color:#ACDC61;stop-opacity:5.981946e-02"/>
		<stop  offset="1" style="stop-color:#BAEF5F;stop-opacity:0"/>
	</linearGradient>
	<path class="st11" d="M-594.9,1242.1c9.5,15.6-4.3,12.6,28.8,36.4c0,0,2.4,4.7,38.7,6.9c0,0,0,0,0.1-0.1
		c-35.4-2.2-37.8-6.9-37.8-6.9c-33.1-23.8-19.3-20.9-28.8-36.4c-3.9-6.4-7.9-8.1-11.2-7.8C-602,1234.4-598.4,1236.3-594.9,1242.1z"
		/>
	<linearGradient id="SVGID_8_" gradientUnits="userSpaceOnUse" x1="-118.3173" y1="1302.1301" x2="-118.3173" y2="1323.228">
		<stop  offset="0.2367" style="stop-color:#404770"/>
		<stop  offset="0.3507" style="stop-color:#434B70;stop-opacity:0.8507"/>
		<stop  offset="0.4688" style="stop-color:#4C586E;stop-opacity:0.696"/>
		<stop  offset="0.5888" style="stop-color:#5B6C6C;stop-opacity:0.5387"/>
		<stop  offset="0.7102" style="stop-color:#708969;stop-opacity:0.3796"/>
		<stop  offset="0.8327" style="stop-color:#8BAF65;stop-opacity:0.2192"/>
		<stop  offset="0.9543" style="stop-color:#ACDC61;stop-opacity:5.981946e-02"/>
		<stop  offset="1" style="stop-color:#BAEF5F;stop-opacity:0"/>
	</linearGradient>
	<path class="st12" d="M-82.4,1323.2c-25.4-0.5-71.5-21.1-71.5-21.1c-0.1,0.1-0.2,0.2-0.3,0.3
		C-148.5,1304.9-105.9,1323.2-82.4,1323.2C-82.4,1323.2-82.4,1323.2-82.4,1323.2z"/>
	<linearGradient id="SVGID_9_" gradientUnits="userSpaceOnUse" x1="-462.4368" y1="1271.9465" x2="-462.4368" y2="1291.9905">
		<stop  offset="0.2367" style="stop-color:#404770"/>
		<stop  offset="0.3507" style="stop-color:#434B70;stop-opacity:0.8507"/>
		<stop  offset="0.4688" style="stop-color:#4C586E;stop-opacity:0.696"/>
		<stop  offset="0.5888" style="stop-color:#5B6C6C;stop-opacity:0.5387"/>
		<stop  offset="0.7102" style="stop-color:#708969;stop-opacity:0.3796"/>
		<stop  offset="0.8327" style="stop-color:#8BAF65;stop-opacity:0.2192"/>
		<stop  offset="0.9543" style="stop-color:#ACDC61;stop-opacity:5.981946e-02"/>
		<stop  offset="1" style="stop-color:#BAEF5F;stop-opacity:0"/>
	</linearGradient>
	<path class="st13" d="M-434.4,1292C-434.4,1292-434.3,1292-434.4,1292c-30.7-0.4-43.6-18.3-43.6-18.3c-4.3-1.2-8.6-1.7-12.6-1.7
		c3.7,0.1,7.6,0.6,11.6,1.7C-478.9,1273.6-465.8,1292-434.4,1292z"/>
	<linearGradient id="SVGID_10_" gradientUnits="userSpaceOnUse" x1="-358.317" y1="1299.1907" x2="-358.317" y2="1315.6512">
		<stop  offset="0.2367" style="stop-color:#404770"/>
		<stop  offset="0.3507" style="stop-color:#434B70;stop-opacity:0.8507"/>
		<stop  offset="0.4688" style="stop-color:#4C586E;stop-opacity:0.696"/>
		<stop  offset="0.5888" style="stop-color:#5B6C6C;stop-opacity:0.5387"/>
		<stop  offset="0.7102" style="stop-color:#708969;stop-opacity:0.3796"/>
		<stop  offset="0.8327" style="stop-color:#8BAF65;stop-opacity:0.2192"/>
		<stop  offset="0.9543" style="stop-color:#ACDC61;stop-opacity:5.981946e-02"/>
		<stop  offset="1" style="stop-color:#BAEF5F;stop-opacity:0"/>
	</linearGradient>
	<path class="st14" d="M-358.4,1309.4c3.4,4.9,7.5,6.4,11.4,6.2c-3.6-0.1-7.3-1.7-10.4-6.2c-2.9-4.2-7.4-7.5-12.3-10.2
		C-365.1,1302.2-361,1305.6-358.4,1309.4z"/>
	<linearGradient id="SVGID_11_" gradientUnits="userSpaceOnUse" x1="-252.9768" y1="1299.0309" x2="-252.9768" y2="1299.6405">
		<stop  offset="0.2367" style="stop-color:#404770"/>
		<stop  offset="0.3507" style="stop-color:#434B70;stop-opacity:0.8507"/>
		<stop  offset="0.4688" style="stop-color:#4C586E;stop-opacity:0.696"/>
		<stop  offset="0.5888" style="stop-color:#5B6C6C;stop-opacity:0.5387"/>
		<stop  offset="0.7102" style="stop-color:#708969;stop-opacity:0.3796"/>
		<stop  offset="0.8327" style="stop-color:#8BAF65;stop-opacity:0.2192"/>
		<stop  offset="0.9543" style="stop-color:#ACDC61;stop-opacity:5.981946e-02"/>
		<stop  offset="1" style="stop-color:#BAEF5F;stop-opacity:0"/>
	</linearGradient>
	<path class="st15" d="M-250.1,1299.6c-0.3,0-0.7-0.1-1-0.2c-1.5-0.3-3-0.5-4.7-0.4c1.3,0,2.5,0.2,3.7,0.4
		C-251.5,1299.6-250.8,1299.7-250.1,1299.6z"/>
	<linearGradient id="SVGID_12_" gradientUnits="userSpaceOnUse" x1="-323.3818" y1="1309.4053" x2="-323.3818" y2="1310.0544">
		<stop  offset="0.2367" style="stop-color:#404770"/>
		<stop  offset="0.3507" style="stop-color:#434B70;stop-opacity:0.8507"/>
		<stop  offset="0.4688" style="stop-color:#4C586E;stop-opacity:0.696"/>
		<stop  offset="0.5888" style="stop-color:#5B6C6C;stop-opacity:0.5387"/>
		<stop  offset="0.7102" style="stop-color:#708969;stop-opacity:0.3796"/>
		<stop  offset="0.8327" style="stop-color:#8BAF65;stop-opacity:0.2192"/>
		<stop  offset="0.9543" style="stop-color:#ACDC61;stop-opacity:5.981946e-02"/>
		<stop  offset="1" style="stop-color:#BAEF5F;stop-opacity:0"/>
	</linearGradient>
	<path class="st16" d="M-314.8,1310.1c-9.8,0-17.1-0.6-17.1-0.6s0,0-0.1,0.1C-329.6,1309.6-323,1310.1-314.8,1310.1z"/>
	<linearGradient id="SVGID_13_" gradientUnits="userSpaceOnUse" x1="-172.0242" y1="1305.3888" x2="-172.0242" y2="1305.3948">
		<stop  offset="0.2367" style="stop-color:#404770"/>
		<stop  offset="0.3507" style="stop-color:#434B70;stop-opacity:0.8507"/>
		<stop  offset="0.4688" style="stop-color:#4C586E;stop-opacity:0.696"/>
		<stop  offset="0.5888" style="stop-color:#5B6C6C;stop-opacity:0.5387"/>
		<stop  offset="0.7102" style="stop-color:#708969;stop-opacity:0.3796"/>
		<stop  offset="0.8327" style="stop-color:#8BAF65;stop-opacity:0.2192"/>
		<stop  offset="0.9543" style="stop-color:#ACDC61;stop-opacity:5.981946e-02"/>
		<stop  offset="1" style="stop-color:#BAEF5F;stop-opacity:0"/>
	</linearGradient>
	<path class="st17" d="M-171.3,1305.4c-0.5,0-0.9,0-1.4,0C-172.3,1305.4-171.8,1305.4-171.3,1305.4z"/>
	<linearGradient id="SVGID_14_" gradientUnits="userSpaceOnUse" x1="-19.2013" y1="1291.1672" x2="-19.2013" y2="1294.5303">
		<stop  offset="0.2367" style="stop-color:#404770"/>
		<stop  offset="0.3507" style="stop-color:#434B70;stop-opacity:0.8507"/>
		<stop  offset="0.4688" style="stop-color:#4C586E;stop-opacity:0.696"/>
		<stop  offset="0.5888" style="stop-color:#5B6C6C;stop-opacity:0.5387"/>
		<stop  offset="0.7102" style="stop-color:#708969;stop-opacity:0.3796"/>
		<stop  offset="0.8327" style="stop-color:#8BAF65;stop-opacity:0.2192"/>
		<stop  offset="0.9543" style="stop-color:#ACDC61;stop-opacity:5.981946e-02"/>
		<stop  offset="1" style="stop-color:#BAEF5F;stop-opacity:0"/>
	</linearGradient>
	<path class="st18" d="M-11.7,1294.5c-2.7-0.1-5.8-0.7-9.3-2.3c-1.7-0.8-3.6-1.1-5.7-1c1.7,0.1,3.3,0.4,4.7,1
		C-18.2,1294-14.7,1294.6-11.7,1294.5z"/>
	<linearGradient id="SVGID_15_" gradientUnits="userSpaceOnUse" x1="-676.4663" y1="1220.77" x2="-676.4663" y2="1232.4739">
		<stop  offset="0.2367" style="stop-color:#404770"/>
		<stop  offset="0.3507" style="stop-color:#434B70;stop-opacity:0.8507"/>
		<stop  offset="0.4688" style="stop-color:#4C586E;stop-opacity:0.696"/>
		<stop  offset="0.5888" style="stop-color:#5B6C6C;stop-opacity:0.5387"/>
		<stop  offset="0.7102" style="stop-color:#708969;stop-opacity:0.3796"/>
		<stop  offset="0.8327" style="stop-color:#8BAF65;stop-opacity:0.2192"/>
		<stop  offset="0.9543" style="stop-color:#ACDC61;stop-opacity:5.981946e-02"/>
		<stop  offset="1" style="stop-color:#BAEF5F;stop-opacity:0"/>
	</linearGradient>
	<path class="st19" d="M-679.8,1224.3c-1.8-1.3-3.4-2.5-4.9-3.6c5.1,4.1,10.7,8,16.4,11.7C-671.6,1230.2-675.2,1227.6-679.8,1224.3z
		"/>
	<linearGradient id="SVGID_16_" gradientUnits="userSpaceOnUse" x1="-645.6526" y1="1239.52" x2="-645.6526" y2="1248.426">
		<stop  offset="0.2367" style="stop-color:#404770"/>
		<stop  offset="0.3507" style="stop-color:#434B70;stop-opacity:0.8507"/>
		<stop  offset="0.4688" style="stop-color:#4C586E;stop-opacity:0.696"/>
		<stop  offset="0.5888" style="stop-color:#5B6C6C;stop-opacity:0.5387"/>
		<stop  offset="0.7102" style="stop-color:#708969;stop-opacity:0.3796"/>
		<stop  offset="0.8327" style="stop-color:#8BAF65;stop-opacity:0.2192"/>
		<stop  offset="0.9543" style="stop-color:#ACDC61;stop-opacity:5.981946e-02"/>
		<stop  offset="1" style="stop-color:#BAEF5F;stop-opacity:0"/>
	</linearGradient>
	<path class="st20" d="M-634.8,1248.3c-5.5-1.7-13.1-4.4-21.6-8.8c7.3,4,14.5,7.1,20.9,8.9C-635.6,1248.4-635.3,1248.4-634.8,1248.3
		z"/>
	<linearGradient id="SVGID_17_" gradientUnits="userSpaceOnUse" x1="-706.3212" y1="1191.3381" x2="-706.3212" y2="1206.2607">
		<stop  offset="0.2367" style="stop-color:#404770"/>
		<stop  offset="0.3507" style="stop-color:#434B70;stop-opacity:0.8507"/>
		<stop  offset="0.4688" style="stop-color:#4C586E;stop-opacity:0.696"/>
		<stop  offset="0.5888" style="stop-color:#5B6C6C;stop-opacity:0.5387"/>
		<stop  offset="0.7102" style="stop-color:#708969;stop-opacity:0.3796"/>
		<stop  offset="0.8327" style="stop-color:#8BAF65;stop-opacity:0.2192"/>
		<stop  offset="0.9543" style="stop-color:#ACDC61;stop-opacity:5.981946e-02"/>
		<stop  offset="1" style="stop-color:#BAEF5F;stop-opacity:0"/>
	</linearGradient>
	<path class="st21" d="M-711.7,1191.3c1.1,3.8,5,9.1,10.7,14.9C-702.9,1203.5-706.5,1198.5-711.7,1191.3z"/>
	<linearGradient id="SVGID_18_" gradientUnits="userSpaceOnUse" x1="3.6357" y1="1286.0166" x2="3.6357" y2="1572.6436">
		<stop  offset="0.2367" style="stop-color:#404770"/>
		<stop  offset="0.3507" style="stop-color:#434B70;stop-opacity:0.8507"/>
		<stop  offset="0.4688" style="stop-color:#4C586E;stop-opacity:0.696"/>
		<stop  offset="0.5888" style="stop-color:#5B6C6C;stop-opacity:0.5387"/>
		<stop  offset="0.7102" style="stop-color:#708969;stop-opacity:0.3796"/>
		<stop  offset="0.8327" style="stop-color:#8BAF65;stop-opacity:0.2192"/>
		<stop  offset="0.9543" style="stop-color:#ACDC61;stop-opacity:5.981946e-02"/>
		<stop  offset="1" style="stop-color:#BAEF5F;stop-opacity:0"/>
	</linearGradient>
	<path class="st22" d="M4,1286l-0.7,286c0.2,0.2,0.5,0.4,0.7,0.6C4,1477.1,4,1381.6,4,1286z"/>
	<linearGradient id="SVGID_19_" gradientUnits="userSpaceOnUse" x1="-54.5429" y1="1291.1674" x2="-54.5429" y2="1323.228">
		<stop  offset="0.2367" style="stop-color:#404770"/>
		<stop  offset="0.3507" style="stop-color:#434B70;stop-opacity:0.8507"/>
		<stop  offset="0.4688" style="stop-color:#4C586E;stop-opacity:0.696"/>
		<stop  offset="0.5888" style="stop-color:#5B6C6C;stop-opacity:0.5387"/>
		<stop  offset="0.7102" style="stop-color:#708969;stop-opacity:0.3796"/>
		<stop  offset="0.8327" style="stop-color:#8BAF65;stop-opacity:0.2192"/>
		<stop  offset="0.9543" style="stop-color:#ACDC61;stop-opacity:5.981946e-02"/>
		<stop  offset="1" style="stop-color:#BAEF5F;stop-opacity:0"/>
	</linearGradient>
	<path class="st23" d="M-26.7,1291.2c-18.9-0.6-55.1,31.5-55.7,32c0.3,0,0.7,0,1,0C-81.4,1323.2-46,1291.7-26.7,1291.2z"/>
	<linearGradient id="SVGID_20_" gradientUnits="userSpaceOnUse" x1="-211.428" y1="1281.3601" x2="-211.428" y2="1305.3888">
		<stop  offset="0.2367" style="stop-color:#404770"/>
		<stop  offset="0.3507" style="stop-color:#434B70;stop-opacity:0.8507"/>
		<stop  offset="0.4688" style="stop-color:#4C586E;stop-opacity:0.696"/>
		<stop  offset="0.5888" style="stop-color:#5B6C6C;stop-opacity:0.5387"/>
		<stop  offset="0.7102" style="stop-color:#708969;stop-opacity:0.3796"/>
		<stop  offset="0.8327" style="stop-color:#8BAF65;stop-opacity:0.2192"/>
		<stop  offset="0.9543" style="stop-color:#ACDC61;stop-opacity:5.981946e-02"/>
		<stop  offset="1" style="stop-color:#BAEF5F;stop-opacity:0"/>
	</linearGradient>
	<path class="st24" d="M-232.5,1287.9c0,0,34-8,45.1,16.6c0,0,7,0.8,14.7,0.8c-7.2-0.1-13.7-0.8-13.7-0.8
		c-9.9-34-45.1-20.6-45.1-20.6s-9.6,15.3-18.6,15.7C-241.1,1300.7-232.5,1287.9-232.5,1287.9z"/>
	<linearGradient id="SVGID_21_" gradientUnits="userSpaceOnUse" x1="-162.7906" y1="1302.1301" x2="-162.7906" y2="1305.3944">
		<stop  offset="0.2367" style="stop-color:#404770"/>
		<stop  offset="0.3507" style="stop-color:#434B70;stop-opacity:0.8507"/>
		<stop  offset="0.4688" style="stop-color:#4C586E;stop-opacity:0.696"/>
		<stop  offset="0.5888" style="stop-color:#5B6C6C;stop-opacity:0.5387"/>
		<stop  offset="0.7102" style="stop-color:#708969;stop-opacity:0.3796"/>
		<stop  offset="0.8327" style="stop-color:#8BAF65;stop-opacity:0.2192"/>
		<stop  offset="0.9543" style="stop-color:#ACDC61;stop-opacity:5.981946e-02"/>
		<stop  offset="1" style="stop-color:#BAEF5F;stop-opacity:0"/>
	</linearGradient>
	<path class="st25" d="M-154.3,1302.4c-0.4-0.2-0.7-0.3-0.7-0.3c-2.6,2.6-9.6,3.2-16.4,3.3C-164.3,1305.4-157.1,1304.7-154.3,1302.4
		z"/>
	<linearGradient id="SVGID_22_" gradientUnits="userSpaceOnUse" x1="-3.8506" y1="1286.0166" x2="-3.8506" y2="1294.5293">
		<stop  offset="0.2367" style="stop-color:#404770"/>
		<stop  offset="0.3507" style="stop-color:#434B70;stop-opacity:0.8507"/>
		<stop  offset="0.4688" style="stop-color:#4C586E;stop-opacity:0.696"/>
		<stop  offset="0.5888" style="stop-color:#5B6C6C;stop-opacity:0.5387"/>
		<stop  offset="0.7102" style="stop-color:#708969;stop-opacity:0.3796"/>
		<stop  offset="0.8327" style="stop-color:#8BAF65;stop-opacity:0.2192"/>
		<stop  offset="0.9543" style="stop-color:#ACDC61;stop-opacity:5.981946e-02"/>
		<stop  offset="1" style="stop-color:#BAEF5F;stop-opacity:0"/>
	</linearGradient>
	<path class="st26" d="M4,1286c0,0-5.5,8.3-15.7,8.5C-1.2,1294.8,4,1286,4,1286z"/>
	<linearGradient id="SVGID_23_" gradientUnits="userSpaceOnUse" x1="-692.8068" y1="1206.2607" x2="-692.8068" y2="1220.77">
		<stop  offset="0.2367" style="stop-color:#404770"/>
		<stop  offset="0.3507" style="stop-color:#434B70;stop-opacity:0.8507"/>
		<stop  offset="0.4688" style="stop-color:#4C586E;stop-opacity:0.696"/>
		<stop  offset="0.5888" style="stop-color:#5B6C6C;stop-opacity:0.5387"/>
		<stop  offset="0.7102" style="stop-color:#708969;stop-opacity:0.3796"/>
		<stop  offset="0.8327" style="stop-color:#8BAF65;stop-opacity:0.2192"/>
		<stop  offset="0.9543" style="stop-color:#ACDC61;stop-opacity:5.981946e-02"/>
		<stop  offset="1" style="stop-color:#BAEF5F;stop-opacity:0"/>
	</linearGradient>
	<path class="st27" d="M-684.6,1220.8c-6.2-4.9-11.8-9.9-16.3-14.5c0.5,0.7,0.9,1.2,1.2,1.6
		C-697.3,1211.3-692.8,1214.8-684.6,1220.8z"/>
	<linearGradient id="SVGID_24_" gradientUnits="userSpaceOnUse" x1="-619.9636" y1="1234.2296" x2="-619.9636" y2="1248.426">
		<stop  offset="0.2367" style="stop-color:#404770"/>
		<stop  offset="0.3507" style="stop-color:#434B70;stop-opacity:0.8507"/>
		<stop  offset="0.4688" style="stop-color:#4C586E;stop-opacity:0.696"/>
		<stop  offset="0.5888" style="stop-color:#5B6C6C;stop-opacity:0.5387"/>
		<stop  offset="0.7102" style="stop-color:#708969;stop-opacity:0.3796"/>
		<stop  offset="0.8327" style="stop-color:#8BAF65;stop-opacity:0.2192"/>
		<stop  offset="0.9543" style="stop-color:#ACDC61;stop-opacity:5.981946e-02"/>
		<stop  offset="1" style="stop-color:#BAEF5F;stop-opacity:0"/>
	</linearGradient>
	<path class="st28" d="M-613.5,1238.9c0,0,3.5-4.4,8.4-4.7c-5.4-0.3-9.4,4.7-9.4,4.7c-2.5,6.9-16.9,9-20.3,9.4
		c0.1,0,0.2,0.1,0.3,0.1C-634.6,1248.4-616.4,1246.7-613.5,1238.9z"/>
	<linearGradient id="SVGID_25_" gradientUnits="userSpaceOnUse" x1="-662.3791" y1="1232.4739" x2="-662.3791" y2="1239.52">
		<stop  offset="0.2367" style="stop-color:#404770"/>
		<stop  offset="0.3507" style="stop-color:#434B70;stop-opacity:0.8507"/>
		<stop  offset="0.4688" style="stop-color:#4C586E;stop-opacity:0.696"/>
		<stop  offset="0.5888" style="stop-color:#5B6C6C;stop-opacity:0.5387"/>
		<stop  offset="0.7102" style="stop-color:#708969;stop-opacity:0.3796"/>
		<stop  offset="0.8327" style="stop-color:#8BAF65;stop-opacity:0.2192"/>
		<stop  offset="0.9543" style="stop-color:#ACDC61;stop-opacity:5.981946e-02"/>
		<stop  offset="1" style="stop-color:#BAEF5F;stop-opacity:0"/>
	</linearGradient>
	<path class="st29" d="M-656.5,1239.5c-3.9-2.1-7.9-4.5-11.8-7C-664.4,1235.1-660.9,1237.2-656.5,1239.5
		C-656.5,1239.5-656.5,1239.5-656.5,1239.5z"/>
	<linearGradient id="SVGID_26_" gradientUnits="userSpaceOnUse" x1="-711.6748" y1="1191.3381" x2="-711.6748" y2="1191.3381">
		<stop  offset="0.2367" style="stop-color:#404770"/>
		<stop  offset="0.3507" style="stop-color:#434B70;stop-opacity:0.8507"/>
		<stop  offset="0.4688" style="stop-color:#4C586E;stop-opacity:0.696"/>
		<stop  offset="0.5888" style="stop-color:#5B6C6C;stop-opacity:0.5387"/>
		<stop  offset="0.7102" style="stop-color:#708969;stop-opacity:0.3796"/>
		<stop  offset="0.8327" style="stop-color:#8BAF65;stop-opacity:0.2192"/>
		<stop  offset="0.9543" style="stop-color:#ACDC61;stop-opacity:5.981946e-02"/>
		<stop  offset="1" style="stop-color:#BAEF5F;stop-opacity:0"/>
	</linearGradient>
	<path class="st30" d="M-711.7,1191.3"/>
	<linearGradient id="SVGID_27_" gradientUnits="userSpaceOnUse" x1="-285.2953" y1="1299.0314" x2="-285.2953" y2="1310.0546">
		<stop  offset="0.2367" style="stop-color:#404770"/>
		<stop  offset="0.3507" style="stop-color:#434B70;stop-opacity:0.8507"/>
		<stop  offset="0.4688" style="stop-color:#4C586E;stop-opacity:0.696"/>
		<stop  offset="0.5888" style="stop-color:#5B6C6C;stop-opacity:0.5387"/>
		<stop  offset="0.7102" style="stop-color:#708969;stop-opacity:0.3796"/>
		<stop  offset="0.8327" style="stop-color:#8BAF65;stop-opacity:0.2192"/>
		<stop  offset="0.9543" style="stop-color:#ACDC61;stop-opacity:5.981946e-02"/>
		<stop  offset="1" style="stop-color:#BAEF5F;stop-opacity:0"/>
	</linearGradient>
	<path class="st31" d="M-274.7,1304.1c0,0,10-4.8,18.9-5c-9-0.2-19.9,5-19.9,5c-9.7,4.8-26.3,6-39.1,6
		C-301.8,1310.1-284.6,1309-274.7,1304.1z"/>
	<linearGradient id="SVGID_28_" gradientUnits="userSpaceOnUse" x1="-339.4575" y1="1309.4053" x2="-339.4575" y2="1315.6492">
		<stop  offset="0.2367" style="stop-color:#404770"/>
		<stop  offset="0.3507" style="stop-color:#434B70;stop-opacity:0.8507"/>
		<stop  offset="0.4688" style="stop-color:#4C586E;stop-opacity:0.696"/>
		<stop  offset="0.5888" style="stop-color:#5B6C6C;stop-opacity:0.5387"/>
		<stop  offset="0.7102" style="stop-color:#708969;stop-opacity:0.3796"/>
		<stop  offset="0.8327" style="stop-color:#8BAF65;stop-opacity:0.2192"/>
		<stop  offset="0.9543" style="stop-color:#ACDC61;stop-opacity:5.981946e-02"/>
		<stop  offset="1" style="stop-color:#BAEF5F;stop-opacity:0"/>
	</linearGradient>
	<path class="st32" d="M-332,1309.5c-0.6,0-0.9-0.1-0.9-0.1s-6.7,6-14,6.2C-339.7,1315.9-332.8,1310.1-332,1309.5z"/>
	<linearGradient id="SVGID_29_" gradientUnits="userSpaceOnUse" x1="-402.0213" y1="1284.1985" x2="-402.0213" y2="1299.1907">
		<stop  offset="0.2367" style="stop-color:#404770"/>
		<stop  offset="0.3507" style="stop-color:#434B70;stop-opacity:0.8507"/>
		<stop  offset="0.4688" style="stop-color:#4C586E;stop-opacity:0.696"/>
		<stop  offset="0.5888" style="stop-color:#5B6C6C;stop-opacity:0.5387"/>
		<stop  offset="0.7102" style="stop-color:#708969;stop-opacity:0.3796"/>
		<stop  offset="0.8327" style="stop-color:#8BAF65;stop-opacity:0.2192"/>
		<stop  offset="0.9543" style="stop-color:#ACDC61;stop-opacity:5.981946e-02"/>
		<stop  offset="1" style="stop-color:#BAEF5F;stop-opacity:0"/>
	</linearGradient>
	<path class="st33" d="M-395.5,1290.3c0,0,14.1,2.5,25.8,8.8c-12.4-8-28.3-12.8-28.3-12.8c-20.4-7.1-35.9,5.2-36.3,5.6
		c0.3,0,0.6,0,1,0C-433.4,1292-416.2,1283.1-395.5,1290.3z"/>
	<linearGradient id="SVGID_30_" gradientUnits="userSpaceOnUse" x1="-508.941" y1="1271.9418" x2="-508.941" y2="1285.4373">
		<stop  offset="0.2367" style="stop-color:#404770"/>
		<stop  offset="0.3507" style="stop-color:#434B70;stop-opacity:0.8507"/>
		<stop  offset="0.4688" style="stop-color:#4C586E;stop-opacity:0.696"/>
		<stop  offset="0.5888" style="stop-color:#5B6C6C;stop-opacity:0.5387"/>
		<stop  offset="0.7102" style="stop-color:#708969;stop-opacity:0.3796"/>
		<stop  offset="0.8327" style="stop-color:#8BAF65;stop-opacity:0.2192"/>
		<stop  offset="0.9543" style="stop-color:#ACDC61;stop-opacity:5.981946e-02"/>
		<stop  offset="1" style="stop-color:#BAEF5F;stop-opacity:0"/>
	</linearGradient>
	<path class="st34" d="M-490.5,1271.9c-20.1-0.3-35.7,12.5-36.8,13.4c0.3,0,0.6,0,0.9,0.1C-526.4,1285.4-510.9,1272.1-490.5,1271.9z
		"/>
	<g class="st35">
		<linearGradient id="SVGID_31_" gradientUnits="userSpaceOnUse" x1="-763.0536" y1="1192.9601" x2="-763.1472" y2="1192.8103">
			<stop  offset="0" style="stop-color:#BDCCD4"/>
			<stop  offset="0.1641" style="stop-color:#BDCDCF;stop-opacity:0.8359"/>
			<stop  offset="0.3566" style="stop-color:#BDD2C1;stop-opacity:0.6434"/>
			<stop  offset="0.5634" style="stop-color:#BCD9A9;stop-opacity:0.4366"/>
			<stop  offset="0.7803" style="stop-color:#BBE388;stop-opacity:0.2197"/>
			<stop  offset="1" style="stop-color:#BAEF5F;stop-opacity:0"/>
		</linearGradient>
		<path class="st36" d="M-763.1,1193c0.2,0-0.2-0.1,0-0.1"/>
		<linearGradient id="SVGID_32_" gradientUnits="userSpaceOnUse" x1="-828.7613" y1="1301.1034" x2="-864.3966" y2="1244.075">
			<stop  offset="0" style="stop-color:#BDCCD4"/>
			<stop  offset="0.1641" style="stop-color:#BDCDCF;stop-opacity:0.8359"/>
			<stop  offset="0.3566" style="stop-color:#BDD2C1;stop-opacity:0.6434"/>
			<stop  offset="0.5634" style="stop-color:#BCD9A9;stop-opacity:0.4366"/>
			<stop  offset="0.7803" style="stop-color:#BBE388;stop-opacity:0.2197"/>
			<stop  offset="1" style="stop-color:#BAEF5F;stop-opacity:0"/>
		</linearGradient>
		<path class="st37" d="M-762.8,1192.8c-14.9,0.5-28.7,15.4-28.7,15.4c-22.9,4.4-42.2,17-42.2,17c-11.1,26.6-35.5,29.6-35.5,29.6
			c-34,0-66.9,49.2-66.9,49.2c6.1,22.8-0.8,37.9-0.8,37.9c17.6-17.6,67.5-34.6,67.5-34.6s59-4.6,66.5-28.7
			c7.4-24.1,57.2-45.5,57.2-45.5C-764.8,1204.7-766.4,1193.4-762.8,1192.8z"/>
	</g>
	<g id="cXQAwT.tif" class="st10">
		
			<image style="overflow:visible;" width="540" height="360" id="Layer_0_5_" xlink:href="5653D5E859BE16B1.png"  transform="matrix(1 0 0 1 1517 426.3379)">
		</image>
	</g>
</g>
</svg>
