<?xml version="1.0" encoding="utf-8"?>
<!-- Generator: Adobe Illustrator 20.1.0, SVG Export Plug-In . SVG Version: 6.00 Build 0)  -->
<svg version="1.1" id="Layer_1" xmlns="http://www.w3.org/2000/svg" xmlns:xlink="http://www.w3.org/1999/xlink" x="0px" y="0px"
	 viewBox="0 0 1440 900" style="enable-background:new 0 0 1440 900;" xml:space="preserve">
<style type="text/css">
	.st0{fill:url(#SVGID_1_);}
</style>
<linearGradient id="SVGID_1_" gradientUnits="userSpaceOnUse" x1="720" y1="428.626" x2="720" y2="900">
	<stop  offset="0" style="stop-color:#404770;stop-opacity:0.4"/>
	<stop  offset="0.727" style="stop-color:#BAEF5F;stop-opacity:0"/>
</linearGradient>
<path class="st0" d="M1440,485.3c-25.4-0.5-52.2-23.7-77.5-25.1c-27.7-1.5-59-18.1-85.5-23.4c-21.3-4.3-43.2-7.4-65.5-8
	c-42.2-1.2-83.7,6.5-125.8,8.3c-48.7,2.1-95,23.5-142.6,16.6c-20.9-3-42.1-6.4-63.6-5.8c-28.9,0.8-56.1,8.5-84.4,12.2
	c-23,3-46.6,3.2-70.1,3.5c-32.3,0.3-52.8-13.2-85.1-11.5c-13.3,0.7-24.3-6.6-37.4-8.1c-14.8-1.7-28.7,4.2-42.8,7.5
	c-12.1,2.7-36.3,17.1-49,17.8c-22.3,1.4-44.6,2.7-66.9,4.1c-58.7,3.6-35.2-4.9-93.2-11.7c-14.4-1.7-49.4-13.1-64-14
	c-39.8-2.4-95.2-1.6-135,0.1C116.5,449.3,34.4,481.4,0,486.1V900h1440V485.3z"/>
</svg>
