<?xml version="1.0" encoding="utf-8"?>
<!-- Generator: Adobe Illustrator 20.1.0, SVG Export Plug-In . SVG Version: 6.00 Build 0)  -->
<svg version="1.1" xmlns="http://www.w3.org/2000/svg" xmlns:xlink="http://www.w3.org/1999/xlink" x="0px" y="0px"
	 viewBox="0 0 1440.5 1382" style="enable-background:new 0 0 1440.5 1382;" xml:space="preserve">
<style type="text/css">
	.st0{fill:url(#SVGID_1_);}
	.st1{opacity:0.25;enable-background:new    ;}
	.st2{fill:#4D752F;}
	.st3{opacity:0.16;fill:#4D752F;enable-background:new    ;}
	.st4{fill:#64720F;}
	.st5{fill:#425035;}
	.st6{fill:#54831B;}
	.st7{fill:url(#SVGID_2_);}
	.st8{opacity:3.000000e-02;}
	.st9{opacity:7.000000e-02;}
	.st10{opacity:9.000000e-02;}
	.st11{opacity:0.1;}
	.st12{opacity:0.11;}
	.st13{opacity:0.12;}
	.st14{opacity:0.13;}
	.st15{opacity:0.14;}
	.st16{opacity:0.15;}
	.st17{opacity:0.22;}
	.st18{fill:url(#SVGID_3_);}
	.st19{fill:url(#SVGID_4_);}
</style>
<g id="Layer_1">
	
		<linearGradient id="SVGID_1_" gradientUnits="userSpaceOnUse" x1="720.2335" y1="109.365" x2="720.2335" y2="902" gradientTransform="matrix(1 0 0 -1 0 902)">
		<stop  offset="0" style="stop-color:#E3FF15;stop-opacity:0.8"/>
		<stop  offset="1" style="stop-color:#00582B"/>
	</linearGradient>
	<polygon class="st0" points="0.2,0 1440.3,0 1440.3,792.6 0.2,792.6 	"/>
	<g class="st1">
		<path class="st2" d="M278.9,221c-2.5-3.1-4.4-7.1-15-8.1c0,0-11.1-11.1-26.1-2.6c0,0-15.2,10.7-15.2,27.8c0,0-1.3,4.4,1.5,12.6
			c0,0,2.3,41,3.9,47.5c1.6,6.5-3.4,30.7-29.1,37.1c0,0-67.5,1.4-81.5,10.2c-14,8.8-40.4,1.1-77,68.5c0,0-5.9,50,32.8,35.5
			c0,0,16.3-8,21,0.6c4.7,8.6,22.8,4.1,22.8,4.1s8,18.9-1.5,38.1c0,0-2.8,6.2,1.9,17.5c4.7,11.4,4.5,29.9,4.5,29.9
			c-0.5,3.7-5.6,6.4-7.9,9.2s1.2,5,0.7,4.5c-0.5-0.5,0.2-2,0.8-2.6c0.6-0.6,5-2.5,5-2.5c4.5-3.8,3.6,1.6,3.6,1.6l-1,5.7
			c0,5.4,8.5,6,8.5,6s7.2,8.8,8.2,12.1c1.1,3.3,6.3,2.6,6.3,2.6c1.8,2.4,6.4,3,6.4,3c3.3,3.3,4.1,0,4.1,0
			c0.4-10.9-7.8-11.5-7.8-11.5c-5.2-4.2-2.6-2.7-5.1-5.2c-2.5-2.5,0.5-1.4,0.5-1.4c6.1,2.8,6.6,1.2,13.4,2.3
			c6.8,1.1,10.5-2.8,10.5-2.8c10.4,0,9.5-1.3,9.5-1.3c-3.7-6-8.8-7.7-16.3-6.4c-7.5,1.3-12.7-0.8-12.7-0.8s2.9-1.4,5.1-2.3
			c2.2-1,6.8-4.4,6.8-4.4c1.3-4.5-7.6-3.8-7.6-3.8c-4.3,4.3-13.4,4.7-13.4,4.7s-2.3-1.2-2.3-7.8s-1.2-15-1.2-15s3.4-0.7,5-3.7
			c1.6-2.9,1.7-1.6,2.3,0.6s-0.5,4.9-0.5,4.9s-0.5,5.2,4,4.2c4.4-1.1,10.3,6,10.3,6l10,2.7c5.6-2.2,12,1.1,12,1.1
			c2.9-7.5-8.8-9-8.8-9l22-1.1l-0.4-3.3c-1.1-5.6-10.4-4.9-10.4-4.9l-11.7,0.9c0,0,8.4-5.6,6.9-8.5c-1.6-2.9-5.8-0.9-5.8-0.9
			s-6,2.9-8.4,4.1c-2.3,1.2-5.3-0.1-5.3-0.1s-20-29.2-12.9-33.5c7.2-4.3,10-18.8,10-18.8c0-14.3,20.1-21.7,20.1-21.7
			c33.2-21.7,42.1-45.9,42.1-54.2s28.7-39.8,28.7-39.8c13.4-33.8,5.4-41.8,1.9-64.1c-3.5-22.3-3.4-46.6-3.4-46.6s1.6-6.1,8.4-7.7
			s13.9-5.6,13.9-5.6s4.9-2.1,12.4-1.4C278.2,223.4,281.4,224.1,278.9,221z M139.1,518.6c-3.4,3.4-3.2,2.9-4,2.1
			c0,0-2.1-13.8,1.1-17C136.3,503.7,142.5,515.2,139.1,518.6z"/>
		<g>
			<g id="Wgju50.tif">
				<g>
					<path class="st2" d="M307,492.8c-0.1,1.2-0.2,2.5-0.3,3.7c-0.2,2.7-0.3,5.5-0.6,8.2c-0.3,3.8-0.9,7.6-1,11.4
						c-0.2,5.4,0,10.9,0.1,16.3c0.1,4.9,0.2,9.8,0.4,14.7c0.1,1.7,0.6,3.3,1,5c0.4,2,0.8,4.1,1.3,6.1c0.6,2.7,1.2,5.3,1.8,8
						c0.2,0.8,0.1,1.7,0.1,2.6c-0.1,3.7-0.1,3.7-3.9,3.9c-1,0.1-2.2,0.5-3,1.2c-2.2,1.9-7.9,2.8-10.3,1.4c-0.4-0.3-0.8-1.1-0.8-1.6
						c0.1-0.7,0.5-1.6,1.1-1.9c6-3.7,4.7-9.4,3.8-14.8c-0.9-5.6-2.5-11-3.5-16.6c-0.7-3.9-1.3-7.8-1.1-11.7
						c0.7-14.9-2.5-29.2-5.3-43.6c-0.4-2.2-2-4.1-3-6.1c-0.4-0.8-1.2-1.7-1.2-2.5c-0.8-9.1-4.4-17.8-1.8-27.3
						c1.2-4.7,0.3-9.9,0.8-14.8c0.5-6.1,2.1-11.7,8.4-14.6c2.2-1,4.2-2.3,6.3-3.5c2.7-1.6,3.3-4.2,2.3-7c-0.6-1.8-1.8-3.4-2.7-5.2
						c-0.2-0.4-0.7-0.8-0.7-1.2c-0.3-3.2-0.9-6.5-0.7-9.8c0.2-3.4,2.5-6.2,5.3-7.4c2.2-0.9,5.6-0.6,7.9,0.5c2.8,1.4,5.5,3.6,4.8,7.8
						c-0.2,1.1,0.8,2.4,0.8,3.5c0,1.9,0,4-0.8,5.5c-2.4,4.6-1.4,9.1,4.2,10.5c2.4,0.6,4.8,1.4,7.2,2c3.7,1,6.2,3.3,7.7,6.8
						c2.2,5.5,5.1,10.6,5.2,16.9c0.1,3.6,1.9,7.2,2.6,10.9c0.4,2.3,0.4,4.8-0.1,7c-1.4,5.9-3.2,11.6-5,17.4
						c-0.5,1.7-1.4,3.4-2.4,4.8c-3.7,5.2-3.1,11-3.1,16.9c0,9.6-0.5,19.1-0.8,28.7c-0.3,7.4-0.5,14.8-1.2,22.1
						c-0.4,4.1-0.5,8.2,0.4,12.2c0.1,0.6,0.3,1.2,0.1,1.7c-1,4.4-0.1,7.8,4,10.3c1.6,1,1,3-1,3.3c-3.4,0.5-7,1.4-10.2-1.2
						c-0.7-0.5-1.8-0.8-2.7-0.8c-2.8,0.1-3.3-1.6-3-3.7c0.3-2.6,0.8-5-0.6-7.8c-0.7-1.4,0.7-3.8,1.2-5.7c0.3-1.3,0.9-2.6,0.9-3.9
						c-0.1-5.4-0.4-10.7-0.5-16.1c0-0.8-0.1-1.6,0-2.3c0.6-3.6,0.3-7-0.9-10.6c-1.3-4.2-0.7-8.9-1.6-13.3c-1.2-5.7-3-11.2-4.6-16.7
						C307.6,492.7,307.3,492.8,307,492.8z M326.3,439.8c-0.2,0.8-0.3,1.2-0.4,1.6c-1.9,7.2-0.4,14.2,0.6,21.3
						c0.2,1.2,0.2,2.9-0.4,3.6c-2,2.3-2.3,4.7-1.8,7.4c3.6,0.4,5-1.6,5.5-4.4c0.6-3.7,0.8-7.4,1.6-11
						C332.9,451.4,330.5,445.6,326.3,439.8z M291.2,441.8c-1.8,4.2-3.9,7.5-3.6,11.8c0.2,2.7,0.4,5.5,0.2,8.2
						c-0.2,3.2-0.8,6.5-1,9.7c-0.1,0.8,0.6,1.6,1,2.4c0.3-0.1,0.6-0.2,0.9-0.3c0.1-0.6,0.3-1.3,0.2-1.9c-0.9-2.6-0.2-4.6,1-7
						c1.3-2.6,1.9-5.8,2-8.7C291.9,451.5,291.4,447.1,291.2,441.8z"/>
				</g>
			</g>
			<g>
				<path class="st2" d="M320.1,467.8c0.6,1.3,1.3,2.5,2.3,3.7c-0.3-2,0.2-4,1.3-5.7c0.3-0.4,0.8-0.9,1.2-0.7c0.4,0.1,0.5,0.6,0.7,1
					c1,3.3,1.9,6.9,0.7,10.2c-1.3-2.7-2.5-5.4-3.3-8.3c1.1,1.9,1.9,4.1,2.3,6.3"/>
			</g>
			<g>
				<path class="st2" d="M287.7,476.4c2.1-6.7,5.4-13,9.8-18.5"/>
			</g>
		</g>
	</g>
	<path class="st3" d="M1159.5,658.7c0.5-11.5,1.2-23.1,1.6-34.6c1-25.5,1.9-51,2.9-76.4c1.5-39.2,3-78.3,4.3-117.5
		c0.9-25,1.7-50,2.1-75c0.2-14.7-0.4-29.3-1.2-44c-1.3-22.5-3.2-45.1-4.9-67.6c-0.5-5.7-0.6-11.5,0.5-17.2c0.7-3.3-0.3-4.7-3.2-5.6
		c-0.5-0.2-1.2-0.3-1.8-0.5c-1.8-0.4-3.8-0.2-5.2-1.2c-1.9-1.4,0-4-0.3-6.1c-0.2-1.5-1-1.9-2-2.1c-2.7-0.5-6,3.2-6.2,7.3
		c0,0.7,0.1,1.5,0.1,2.2c0.2,2,1.8,4.4,0.2,6c-1.3,1.5-3.5,0.4-5.2,0.5c-2,0.1-4,0.3-5.9,0.9c-2.9,0.9-5,3-6.4,6.1
		c-0.5,1.3-1,2.6-1.6,3.9c-1.9,5-5.4,7.5-9.7,8.9c-1.2,0.4-2.3,0.2-3.2-1.2c-0.4-0.5-0.8-1.1-1.2-1.6c-2.5-3.3-5.6-3.9-8.7-2
		c-6.4,4-13.4,4.4-20.3,6c-0.6,0.2-1.2,0.2-1.8,0.2c-2.8,0.1-4-1.7-3.5-5c0.2-1.2,0.5-2.3,1-3.9c-5.1,0-9.6,1.6-14,2.6
		c-0.6,1.9,0.3,2.1,0.9,2.5c2.4,1.6,5,3.1,7.4,4.8c2.8,1.9,5.2,4.5,7.1,7.7c2.2,3.7,1.5,5.9-2.2,6.3c-2.6,0.3-5.2,0.1-7.8,0.2
		c-2,0.1-4,0-6,0.3c-5.7,1-7.1,3.3-6.4,10.2c0.3,2.9,0.5,5.7,0.5,8.6c0.2,3.3-0.9,6.1-2.2,8.9c-1.1,2.2-2.9,2.9-4.6,1.6
		c-1.5-1.2-2.8-2.6-4.2-4c-5.5-5.6-8.3-5-11.7,2.6c-0.7,1.7-1.2,3.5-2.5,4.9c-1.5,1.6-3.5,1.6-4.7-0.3c-0.5-0.7-0.9-1.6-1.4-2.3
		c-0.5-1-0.9-2.2-1.4-3.2c-5.3-11.4-12-14.5-22.1-9.6c-4.6,2.3-9.2,3.3-14,3.5c-0.6,0-1.2,0-1.8,0c-1.4-0.1-2.1-1.1-2.6-2.6
		c-0.5-1.9,1-4.8-1.2-5.7c-1.3-0.5-3.1,0.5-4.7,0.8c-4,0.8-7.8,1.6-11.8,2.4c-0.8,0.2-1.6,0.5-2.3,0.5c-2.6,0.1-4-2.4-3.1-5.4
		c0.7-2,1.6-3.9,2.2-5.9c0.5-1.6-0.2-2.8-1.6-2.9c-5.4-0.2-10.8-0.2-16.2-1.2c-3-0.6-5.9-1.3-8.8-2.1c-1-0.2-1.9-0.9-2-2.3
		c-0.2-1.3,0.5-2.3,1.3-3c4.6-4,9.4-7.2,14.5-10c2.9-1.6,5.7-3.2,8.5-4.7c-0.4-3.1-2.3-4.4-3.7-5.9c-1.6-1.8-3.3-3.5-4.8-5.4
		c-1.5-1.9-1-3.5,1-4.2c3.1-1.1,6.3-1.1,9.5-1.2c1.6-0.1,3.7,0.7,4.5-0.9c1.2-2.2-0.9-3.9-1.8-5.6c-2.2-4.4-4.4-8.5-6.8-12.7
		c-1.3-2.3-2.3-2.6-4.7-1.6c-5.5,2.4-10.4,6.1-15,10.4c-1.2,1.2-2.3,2.6-2.7,4.6c-0.3,1.2-0.7,2.3-1.2,3.3c-0.9,1.8-2.6,2.4-4.2,1.5
		c-1.1-0.6-2-1.5-3-2.3c-0.8-0.7-1.6-1.6-2.3-2.3c-4.4-3.8-7.6-3.1-10.6,2.3c-0.6,1.2-1.1,2.6-1.8,3.8c-1.8,3.2-4.2,3.4-6.4,0.5
		c-1.1-1.4-1.9-3.1-3-4.5c-1.9-2.4-4.1-3.8-6.9-3.6c-1.6,0.1-2.4,1.2-1.6,2.7c4.2,8.2,1.9,16.2-0.2,24.3c-0.4,1.5-1.6,2.1-2.8,2.3
		c-0.9,0.2-1.9,0.4-2.9,0.6c0-2.2,0.1-4.4,0-6.5c-0.3-6.4,0.6-12.5,2.3-18.4c1-3.5,1.4-7,1.2-10.6c-0.7-16.6,2.5-32.6,7.5-47.9
		c3.7-11.3,10.7-19,20.2-23.2c2.8-1.2,5.6-2.5,8.4-3.7c6.9-3,12.7-8.1,17.8-14.3c3.9-4.7,6.8-10.1,9.2-15.9
		c3.4-8,8.1-13.7,15.6-15.3c2.6-0.5,4.3-2.3,5.4-5.1c0.8-1.7,1.6-3.4,2.6-4.8c2.3-3.3,4.7-4,8-2.4c2.3,1.1,4.3,2.6,6.5,3.7
		c3.3,1.7,6,0,6.5-4.4c0.3-2.3,0.2-4.8,0.2-7.2c0-2.4,0-4.8,0-7.2c0.2-6.5,1.8-8.9,7.2-10.3c2.7-0.7,5.5-1,8.2-1.7
		c1.6-0.4,3.1-0.9,4.6-1.6c2.8-1.3,3.4-4.9,1.4-7.6c-0.4-0.5-0.9-1.1-1.3-1.5c-4.2-3.3-8-7.3-13-8.8c-0.8-0.2-1.6-0.5-2.3-1
		c-2.5-1.4-3.2-4.5-1.4-7.1c2.8-4.3,6.6-7.1,11-8.1c5.7-1.3,11.4-2.2,17.2-3.1c1.8-0.3,3.6-0.1,5.4-0.1c2.7,0,5.1,1.2,7.1,3.3
		c1,1.1,1.9,2.5,3,3.5c3.3,3.1,3.6,7.3,3.1,11.7c-0.4,3.6-2.1,5.6-5.2,5.7c-1.8,0.1-3.6-0.1-5.4-0.5c-2.8-0.8-5.5-0.8-8.3-0.6
		c-1.2,0.1-2.3,0.6-3.3,1.6c-1.2,1.2-1.7,2.7-1.3,4.5c0.3,1.4,0.9,2.6,1.3,4c1.1,4,0.2,6.4-3,8.2c-1.2,0.7-2.6,1.2-3.9,1.9
		c-3.9,2.3-4.2,5-1.2,8.9c1.5,1.9,3.3,3.4,5.1,5c1.9,1.6,3.9,3.4,5.7,5.3c2.6,2.6,3.1,6,1.8,9.8c-1.1,3.1-2.2,6.2-3.2,9.3
		c-1.2,3.9-0.1,5.9,3.4,6.2c3.8,0.3,7.6,0.2,11.3-1.6c1.6-0.8,3.4-1.5,5.1-2c3.6-1.1,6.3,0.2,8.2,3.9c0.9,1.6,1.4,3.4,2.3,5.1
		c1.6,3.3,3.7,4,6.6,2.2c3.1-1.9,5.4-4.9,7.1-8.5c1.9-4.2,3.4-8.7,4.4-13.4c0.9-4.4,2.9-5.4,6.2-3.2c7.4,4.8,14.7,3.5,22.1,0.4
		c5.1-2.2,9.9-5.2,15.2-6.4c0.8-0.2,1.6-0.5,2.3-0.7c7.3-1.6,13.5,0.3,17.9,8c0.7,1.2,1.3,2.4,2.1,3.5c1.9,2.8,4.4,3,7.1,2.3
		c1-0.3,1.8-1.1,2.3-2.2c0.8-1.4,1.3-3,2.2-4.4c2.8-4.7,5.3-5.7,9.8-3.4c1.3,0.6,2.5,1.5,3.8,2.1c4.4,2,8.1,0.2,9.5-5.4
		c0.9-3.8,2.1-7.3,4.7-9.7c2.8-2.5,6-3.8,9.5-4.2c2.2-0.2,4.4-0.2,6.6,0c3.3,0.2,4.3,1.3,4.7,5.2c0.1,0.9,0,1.9,0.2,2.9
		c0.6,5.1,2.9,6.8,7.2,5.5c0.8-0.2,1.6-0.5,2.3-0.9c4.3-1.9,8.7-1.2,13.1-1.1c1.7,0,2.9,1.3,3.8,3c4.4,8.3,9.6,16,13,25.1
		c0.7,1.9,2,3.6,3.3,5.1c4,4.9,6.3,11,9.2,16.9c0.7,1.4-0.1,3-1.5,3.1c-3.3,0.5-4.8-0.3-6.4-3.8c-1.1-2.3-1.6-4.9-2.3-7.5
		c-1.1-4.8-5.1-7.7-9.2-6.8c-1.2,0.2-2.3,1.9-2.3,3.7c0,1.8,0.5,3.3,1.2,4.7c0.9,1.9,2.2,3.5,3.7,4.7c2.6,1.9,4.7,4.5,6.3,7.5
		c2.3,4.4,6.1,6.3,11.6,3.6c4.3-2.2,5.2-1.9,8.3,2c0.7,0.9,1.4,1.8,1.9,2.8c6.8,13.3,14.8,25.6,22.4,38.3
		c6.7,11.3,13.2,22.9,18.1,35.7c3.5,9.1,5.1,18.6,5.5,28.6c0.2,4.6,0,9.2,0.1,13.7c0,1.7-0.2,3.5,0.2,5.1c1.2,4.9,0.4,9.5-1.3,13.9
		c-2.3-0.6-4.4,0.5-6.4,1c-3.8,0.9-6.4,0.8-6.8-5.7c-0.2-2.7-0.8-3-3.2-2.5c-3.6,0.8-7.1,1.6-10.6,2.3c-1.6,0.3-3.2,0.7-4.7,0.8
		c-4,0.2-5.6-2.4-3.9-6.8c0.6-1.5,1.3-3,1.9-4.5c0.4-1.2-0.3-2.5-1.4-2.6c-0.8-0.1-1.6,0-2.4,0c-6.8,0.3-13.5-1-20.2-2.7
		c-1.3-0.3-2.6-0.9-4-1.6c-1-0.5-1.3-2.8-0.5-3.7c0.5-0.7,1.2-1.3,1.9-1.8c3.3-2.4,6.4-4.9,9.8-7c3.5-2.3,7.2-4,10.9-6.1
		c1.9-1.1,2.1-2.5,0.3-4.3c-1.4-1.4-2.9-2.6-4.1-4.1c-2.4-3-1.6-7.4,1.9-8.5c1.7-0.5,3.6-0.5,5.4-0.6c3.2-0.2,6.4-0.1,9.6-0.2
		c0.9,0,1.3-0.9,1.2-1.9c-0.9-5.7-2.8-7.8-7.5-8.3c-0.8-0.1-1.6-0.1-2.3-0.2c-1.1-0.3-1.8-1.1-1.7-2.5c0-0.9,0.2-1.9,0.2-2.9
		c0-2.4-0.5-3.2-2.4-2.9c-4.7,0.8-9.5,1.6-14.2,2.5c-7.1,1.3-14.2,2.9-21.4,2.3c-1.4-0.1-2.8,0.1-4.1,0.5c-2.9,0.9-3.7,3-3,6.5
		c0.5,2.3,1.7,4.4,1.4,6.9c-0.5,3.6-0.9,7.1-1.6,10.6c-1.2,5.9-4.3,7.1-8.4,3.2c-1.6-1.5-3-3.1-4.6-4.7c-1.2-1.2-2.6-2-4.4-2
		c-1.4,0-2.3,0.9-2.4,2.5c-0.1,2.2-0.1,4.4-0.1,6.5c-0.1,24-0.1,48.1-0.2,72.1c-0.3,30.3-1.1,60.6-1.1,90.9
		c0,34.4,0.2,68.8,1.1,103.2c1.2,48.6,2,97.1,3,145.7c0.1,2.4-0.1,4.8-0.2,7.1c-1.4-1.4-1-3.6-1.6-5.3c-0.3-1-1.2-1.3-1.9-0.9
		c-0.7,0.5-1.3,1.1-1.9,1.8c-4.9,5.7-10.8,8.9-17.3,10.8c-1.9,0.6-4,0.8-5.9,0.8c-5.6-0.1-11.2,0.2-16.7-0.5
		C1165.9,659.4,1162.7,658.8,1159.5,658.7z"/>
	<path class="st4" d="M1238.1,773.2c0.3,0,0.5,0.1,0.8,0.1c2.1,3.1,4.3,6.2,6.4,9.2c0.1,0.2,0.2,0.4,0.2,0.6c-0.3,2.3-0.7,4.5-1,6.8
		c0.7-2.6,4.5-4.6,6.8-6.5c3.2-2.6,6.5-5.3,9.3-8.3c6.5-7,6.4-15.6,10.5-23.7c2.9-5.9,3.5-13.4-0.5-19c-3.2-4.5-9.7-5.2-12.5,0.3
		c-1.7,3.4-3.3,6.7-4.5,10.3c-0.9,2.6-1.2,5.5-2.2,7.9c-1.7,4.5-7.9,8.2-11.6,11.2c-5.4,4.4-9.8,9.2-11.3,16.2
		c-1.5,7.2-0.4,22.6,10.2,21.7c6.3-0.6,8.6-8.3,8.5-13.7C1247.1,781.7,1244.4,772.6,1238.1,773.2L1238.1,773.2z"/>
	<path class="st4" d="M1207.5,179.9"/>
	<path class="st3" d="M632.9,125.1c4.8-0.3,9.6,0.1,14.4,0.4c9.3,0.5,18.5,1,27.8,1.5s18.5,1,27.8,1.5c7,0.4,14,0.8,21.1,1.1
		c16.8,0.8,33.5,1.5,50.3,2.3c15.6,0.7,31.3,1.2,46.9,1.9c0.3,0,0.6,0.1,0.9,0.2c0.4,1.7,0.7,3.5,1.1,5.1c0.5,1.9,0.9,3.7,0.9,5.7
		c0,2.3,0.6,4.4,1.3,6.6c1.1,3.6,3.2,4.8,6.9,4.3c0.3,0,0.6-0.1,0.9-0.2c2.9-1,4.2-0.4,5.3,2.9c2.3,7.1,1.4,13.9-2,20.4
		c-1.3,2.5-2.9,5-4.5,7.4c-2.3,3.5-3.5,3.8-7.7,2.6c-0.8-0.2-1.5-0.5-2.3-0.7c-1.2-0.4-2.2-0.3-3,0.7s-0.8,2.4,0,3.6
		c0.6,0.9,1.5,1.7,2.1,2.6c0.8,1,0.7,2.2-0.4,3c-1,0.8-2.1,1.4-3.2,2c-1.3,0.7-2.2,1.9-2.7,3.3c-1,2.9-0.1,5,2.6,6.3
		c2.3,1.1,4.7,2.1,6.9,3.3c1.5,0.8,2.4,2,2.5,3.8c0.1,1.7-0.6,2.7-2.1,3.3c-0.6,0.2-1.3,0.3-1.9,0.4c-1,0.3-1.6,1-1.6,2.1
		c-0.1,1-0.1,1.9-0.1,2.9c0,1.3-0.5,2.5-1.1,3.6c-3.5,6-7.8,11.3-13.7,15.2c-1.5,1-2.8,2.1-4.3,3.1c-1.3,0.9-2.7,0.9-4,0
		c-1.1-0.7-2-1.5-3.1-2.2c-0.7-0.4-1.5-0.6-2.3-0.1c-0.9,0.6-1.2,1.5-1,2.5c0.2,1.1,0.7,2.1,1.1,3.1c0.7,1.8,1.6,3.5,2.1,5.4
		c0.9,3.2-0.6,5.2-4,5.5c-0.6,0.1-1.3,0.1-1.9,0c-3.3-0.3-6.4,0.6-9,2.6c-2.3,1.7-4.8,2.4-7.7,2.2c-0.3-0.6-0.7-1.3-1-1.9
		c-0.9-6-2.9-7.8-8.7-7.8c-2.7,0-5.4,0.1-8.1,0.1c-1.1,0-2.2-0.1-3.3-0.3c-2.2-0.5-3-1.6-2.5-3.8c0.3-1.4,0.8-2.8,0.7-4.2
		c-0.2-2.4-2.1-4.5-4.5-4.9c-0.9-0.2-2.1,0.6-2.1,1.5c0,1.1,0.2,2.2,0.4,3.3c0.3,2.3-0.4,3.3-2.7,3.5c-1.1,0.1-2.2,0-3.3,0.1
		c-3.5,0.2-4.5,1.1-5.1,4.4c-0.1,0.6-0.1,1.3-0.2,1.9c-0.3,1.4-1.2,2.1-2.7,2.3c-1.8,0.2-3.1-0.6-4.2-1.8c-1.2-1.3-2.3-2.7-3.9-3.5
		c-1.6-0.9-3.4,0.2-3.4,2c0,2.2,1,4,2.7,5.3c0.1,0.9,0.1,1.9,0.3,2.8c0.3,1.6,0.8,3.1,0.6,4.7c-0.2,2-1,2.9-3,3
		c-1.4,0-2.9,0-4.2-0.4c-2.8-0.8-5,0-7,1.9c-0.7,0.6-1.4,1.3-2.2,1.9c-2.4,1.6-4.1,1.3-5.5-1.2c-0.5-0.8-0.8-1.7-1.2-2.6
		c-1.1-2.5-3-4-5.7-4.7c-1.9-0.5-3.7-0.7-5.6-0.2c-2.2,0.6-4.4,0.5-6.6,0.4c-1.5,0-2.8-0.3-4.1-1.1c-0.9-0.5-1.4-1.3-1.3-2.3
		c0.1-0.8,0.3-1.6,0.5-2.3c0-0.8,0.1-1.6,0-2.4c-0.5-4.2-2.8-6.2-7.1-6.2c-1.3,0-2.5,0.2-3.8,0.5c-2.4,0.5-4.8,0.5-7.2,0.3
		c-2.5-0.2-3.9-1.5-3.9-4c-0.1-2.7-0.6-5-2.8-6.8c-1.3-1.1-1-2.5-0.6-4c0.9-3.4-0.2-6-3.3-7.6c-0.3-0.1-0.6-0.3-0.8-0.5
		c-2.2-1.4-2.5-2-1.2-4.3c1.2-2.2,1.1-4.2,0.1-6.4c-0.5-1-1-2-1.5-3c-0.9-1.7-1.5-3.5-1-5.5c1-3.8-3.5-6.4-6.4-5.6
		c-1.1,0.3-2.1,0.6-3.2,1c-2.8,0.9-5.7,0.8-8.6,0.4c-1.6-0.2-2.4-1.6-1.9-3.2c0.4-1.4,1-2.7,1.3-4.1c0.3-1.1,0-2.3-1.2-2.9
		c-2.3-1-3.1-3.1-4-5.2c-1.6-3.9-2.6-7.8-2.5-12.1c0.2-5.4,0.1-10.9,0-16.3c0-2.8,0.4-5.4,2.1-7.7c2.1-2.8,2.9-5.9,2.8-9.4
		c-0.1-5.7,1.4-6.8,6.9-5.9c0.8,0.1,1.6,0.4,2.3,0.4c0.9,0,1.5-0.6,1.8-1.4c0.3-0.9-0.1-1.6-0.9-2c-1.3-0.6-2.7-1-4.1-1.1
		c-1-0.1-1.9-0.1-2.9-0.3c-1.8-0.4-2.4-2.3-1.4-3.7c1.1-1.6,2.8-2.6,4.5-3.4C629.2,129,631.5,127.5,632.9,125.1z"/>
	<path class="st3" d="M575.5,75.2c-4.8-0.3-9.6,0.1-14.4,0.4c-9.3,0.5-18.5,1.1-27.8,1.6s-18.5,1.1-27.8,1.6c-7,0.4-14,0.9-21.1,1.2
		c-16.8,0.9-33.5,1.6-50.3,2.5c-15.6,0.8-31.3,1.3-46.9,2.1c-0.3,0-0.6,0.1-0.9,0.2c-0.4,1.9-0.7,3.8-1.1,5.6
		c-0.5,2.1-0.9,4.1-0.9,6.3c0,2.5-0.6,4.8-1.3,7.3c-1.1,4-3.2,5.3-6.9,4.7c-0.3,0-0.6-0.1-0.9-0.2c-2.9-1.1-4.2-0.4-5.3,3.2
		c-2.3,7.8-1.4,15.3,2,22.4c1.3,2.7,2.9,5.5,4.5,8.1c2.3,3.8,3.5,4.2,7.7,2.9c0.8-0.2,1.5-0.5,2.3-0.8c1.2-0.4,2.2-0.3,3,0.8
		s0.8,2.6,0,4c-0.6,1-1.5,1.9-2.1,2.9c-0.8,1.1-0.7,2.4,0.4,3.3c1,0.9,2.1,1.5,3.2,2.2c1.3,0.8,2.2,2.1,2.7,3.6
		c1,3.2,0.1,5.5-2.6,6.9c-2.3,1.2-4.7,2.3-6.9,3.6c-1.5,0.9-2.4,2.2-2.5,4.2c-0.1,1.9,0.6,3,2.1,3.6c0.6,0.2,1.3,0.3,1.9,0.4
		c1,0.3,1.6,1.1,1.6,2.3c0.1,1.1,0.1,2.1,0.1,3.2c0,1.4,0.5,2.7,1.1,4c3.5,6.6,7.8,12.4,13.7,16.7c1.5,1.1,2.8,2.3,4.3,3.4
		c1.3,1,2.7,1,4,0c1.1-0.8,2-1.6,3.1-2.4c0.7-0.4,1.5-0.7,2.3-0.1c0.9,0.7,1.2,1.6,1,2.7c-0.2,1.2-0.7,2.3-1.1,3.4
		c-0.7,2-1.6,3.8-2.1,5.9c-0.9,3.5,0.6,5.7,4,6c0.6,0.1,1.3,0.1,1.9,0c3.3-0.3,6.4,0.7,9,2.9c2.3,1.9,4.8,2.6,7.7,2.4
		c0.3-0.7,0.7-1.4,1-2.1c0.9-6.6,2.9-8.6,8.7-8.6c2.7,0,5.4,0.1,8.1,0.1c1.1,0,2.2-0.1,3.3-0.3c2.2-0.5,3-1.8,2.5-4.2
		c-0.3-1.5-0.8-3.1-0.7-4.6c0.2-2.6,2.1-4.9,4.5-5.4c0.9-0.2,2.1,0.7,2.1,1.6c0,1.2-0.2,2.4-0.4,3.6c-0.3,2.5,0.4,3.6,2.7,3.8
		c1.1,0.1,2.2,0,3.3,0.1c3.5,0.2,4.5,1.2,5.1,4.8c0.1,0.7,0.1,1.4,0.2,2.1c0.3,1.5,1.2,2.3,2.7,2.5c1.8,0.2,3.1-0.7,4.2-2
		c1.2-1.4,2.3-3,3.9-3.8c1.6-1,3.4,0.2,3.4,2.2c0,2.4-1,4.4-2.7,5.8c-0.1,1-0.1,2.1-0.3,3.1c-0.3,1.8-0.8,3.4-0.6,5.2
		c0.2,2.2,1,3.2,3,3.3c1.4,0,2.9,0,4.2-0.4c2.8-0.9,5,0,7,2.1c0.7,0.7,1.4,1.4,2.2,2.1c2.4,1.8,4.1,1.4,5.5-1.3
		c0.5-0.9,0.8-1.9,1.2-2.9c1.1-2.7,3-4.4,5.7-5.2c1.9-0.5,3.7-0.8,5.6-0.2c2.2,0.7,4.4,0.5,6.6,0.4c1.5,0,2.8-0.3,4.1-1.2
		c0.9-0.5,1.4-1.4,1.3-2.5c-0.1-0.9-0.3-1.8-0.5-2.5c0-0.9-0.1-1.8,0-2.6c0.5-4.6,2.8-6.8,7.1-6.8c1.3,0,2.5,0.2,3.8,0.5
		c2.4,0.5,4.8,0.5,7.2,0.3c2.5-0.2,3.9-1.6,3.9-4.4c0.1-3,0.6-5.5,2.8-7.5c1.3-1.2,1-2.7,0.6-4.4c-0.9-3.7,0.2-6.6,3.3-8.4
		c0.3-0.1,0.6-0.3,0.8-0.5c2.2-1.5,2.5-2.2,1.2-4.7c-1.2-2.4-1.1-4.6-0.1-7c0.5-1.1,1-2.2,1.5-3.3c0.9-1.9,1.5-3.8,1-6
		c-1-4.2,3.5-7,6.4-6.2c1.1,0.3,2.1,0.7,3.2,1.1c2.8,1,5.7,0.9,8.6,0.4c1.6-0.2,2.4-1.8,1.9-3.5c-0.4-1.5-1-3-1.3-4.5
		c-0.3-1.2,0-2.5,1.2-3.2c2.3-1.1,3.1-3.4,4-5.7c1.6-4.3,2.6-8.6,2.5-13.3c-0.2-5.9-0.1-12,0-17.9c0-3.1-0.4-5.9-2.1-8.5
		c-2.1-3.1-2.9-6.5-2.8-10.3c0.1-6.3-1.4-7.5-6.9-6.5c-0.8,0.1-1.6,0.4-2.3,0.4c-0.9,0-1.5-0.7-1.8-1.5c-0.3-1,0.1-1.8,0.9-2.2
		c1.3-0.7,2.7-1.1,4.1-1.2c1-0.1,1.9-0.1,2.9-0.3c1.8-0.4,2.4-2.5,1.4-4.1c-1.1-1.8-2.8-2.9-4.5-3.7C579.2,79.6,576.9,78,575.5,75.2
		z"/>
	<g>
		<path class="st5" d="M1440.7,582.4v237.3H-1.5L-1.2,520c87.3,11.7,196.9,17.5,320.6,25.1c56.6,3.5,120.9,6,125.4,6.2c0,0,0,0,0,0
			c72,0,145,3.9,161.5,4.1c69.3,0.7,102-5.4,290.1-17.4c57-3.6,105.7-6.4,125.4-7.4c95.1-5,235-7.6,419.1,4.5L1440.7,582.4z"/>
		<g>
			<path class="st5" d="M350.8,531.6c-1.5-4.6-2.5-9.1-4.7-13.6c-2.2-4.5-4.2-9-12.9-13.4c1.1,2.6,2.4,5.2,3.2,7.7
				c1.6,5.1,3.1,10,0.3,14.8c-0.7,1.1-2.3,2.2-4.1,3.2c-2.1-10.9-2.4-21.8-21.6-32.9c1.8,5.7,4,11.2,5,16.6
				c0.9,5.5-0.7,10.8-7.9,15.5c-0.3-0.1-0.8-0.1-1.1-0.1c-2.4-8.8-4.7-17.6-7.1-26.3c-1.4,2.4-3.2,4.8-4.5,7.3
				c-1.4,2.5-2.8,5.2-3.7,7.7c-1,2.6-1.3,5.2-2.1,7.7c-4.9-12.9-10.1-26-7.8-38.6c-0.4-0.1-0.8-0.1-1.1-0.1
				c-1.7,5.3-3.9,10.3-4.9,15.6c-1,5.3-0.8,10.6-1.7,15.9c-2.3-5.1-4.6-10.1-15-15.3c3.3,8.1,9.5,16-1.5,23
				c-4.9-5.3-8.6-10.5-10.5-15.7c-1.9-5.3-2.4-10.4-0.3-15.5c-11.4,8.4-11.4,17.9-11.7,27.2c-0.9-3-1.7-5.9-2.9-8.8
				c-1.1-3-2.1-5.8-6-8.7c-1.1,5.9-1.9,11.8-3,17.9c-0.2-0.1-0.6-0.1-0.9-0.1c-0.7-1.7-1.1-3.4-1.8-5.2c-2.8-7.6-6-15.4-13.8-23.1
				c-2.3-2.2-4.7-3.5-7.7-4.3c4.2,11,9.9,22.2,3.3,32.6c-10.8-7.3-21.7-14.6-23.7-22.3c-4.8,2.7-7.4,5.6-8.6,8.7
				c-1.2,3.1-1.8,6.1-2.8,9.3c-4.1-4.2-5.9-8.3-6.2-12.4c-0.3-4.2,1.7-8,6.6-11.7c-12,3.3-15.1,8-16.8,12.9
				c-2.2-4.2-4.1-8.5-6.9-12.8c-2.6-4.4-6.2-8.6-13.8-12.8c8.3,11.7,14.7,23.4,9.1,34.8c-7.4-3.7-17.9-12.5-12.6-16.6
				c-4.1,1.2-5.8,2.8-7,4.5c-1.2,1.7-1.8,3.4-2.3,5.2c-0.5,1.7-0.2,3.6-0.8,5.3c-10.4-8.1-9.9-15.8-3.8-23.2
				c-8.3,4.7-11.6,9.9-13.1,15.4c-2.3-6.5-4.2-13.1-10.8-19.7c-0.3,4.8-0.4,9.5-0.9,14.2c-0.5,4.7-1.6,9.5-6.1,13.8
				c-9.3-8.4-12.5-16.6-10.2-24.6c-6,5.1-6.2,10.5-5.3,16.1c-6.3-8.8-10.7-17.7-29.6-26c12.9,11,23.8,22.2,18.1,33.1
				c-20.6-6.1-26.5-12.5-21.6-19.3c-7.9,4.9-8.8,10.4-7.3,16.1c-7.7-11.7-9.3-22.8,0-33.5c-1.9,1-4.3,1.8-5.9,2.8
				c-6.6,3.9-9.5,8.3-11.5,12.8c-1.5,3.3-2.2,6.9-3.2,10.3c0,0.3-0.4,0.6-0.6,0.9c-0.4,7.1-3.9,13.9-4.4,20.9
				c1.7,0.1,4.2,0.3,7.3,0.5c103.6,7.1,115.9,19.5,177.9,23.4c60.6,3.8,73.5-6.6,177.8-1.1c2.2,0.1,4,0.2,5.3,0.3
				c0.1-0.4,0.3-0.8,0.3-1.1c0.3-4.2,1.1-8.5,0.6-12.7c-0.7-4.4-2.7-9-4.5-13.5c-2.3-5.3-3.7-4.1-9.7-9.5c-3-2.6-4.5-5.3-1.9,0.1
				C357.3,520,351.4,531.8,350.8,531.6z"/>
			<path class="st5" d="M1417.8,512.7c-1.8-6-3-11.8-5.4-17.7c-2.4-5.9-4.6-11.7-13.2-16.8c1.2,3.4,2.6,6.6,3.5,10
				c1.8,6.5,3.5,13,1.1,19.6c-0.5,1.6-2.1,3.1-3.7,4.7c-2.6-14.3-3.6-28.8-22.7-42c2.1,7.5,4.6,14.6,5.8,21.7
				c1.1,7.3,0,14.3-6.7,21.2c-0.3,0-0.7,0-1,0c-2.7-11.4-5.5-23-8.3-34.3c-1.2,3.2-2.8,6.6-3.9,10c-1.2,3.6-2.4,7.2-3.1,10.7
				s-0.9,7-1.5,10.5c-5.5-16.8-11.3-33.7-9.9-50.7c-0.4,0-0.7,0-1.1,0c-1.3,7-3.1,14-3.7,21c-0.6,7.1-0.1,14.2-0.7,21.3
				c-2.5-6.6-5-13.1-15.3-19.1c3.7,10.5,10.1,20.7-0.1,30.8c-4.9-6.6-8.8-13.2-11-20c-2.1-6.9-2.9-13.6-1.2-20.5
				c-10.4,12.1-9.9,24.7-9.6,37.2c-1-3.9-2-7.7-3.3-11.4c-1.3-3.7-2.4-7.5-6.3-11c-0.6,8-1.1,15.9-1.7,24c-0.2,0-0.5,0-0.8,0
				c-0.8-2.4-1.4-4.6-2.1-6.8c-3.2-10-6.7-20-14.7-29.6c-2.3-2.8-4.7-4.3-7.7-5.1c4.6,14.3,10.8,28.6,5.1,43
				c-10.8-8.9-21.7-17.7-24.1-27.7c-4.4,3.9-6.8,8-7.7,12.2c-1,4.2-1.4,8.3-2.1,12.6c-4.2-5.2-6.2-10.5-6.7-16
				c-0.5-5.6,1.3-10.9,5.7-16.1c-11.3,5.5-14,12-15.3,18.6c-2.4-5.5-4.5-11-7.4-16.5c-2.8-5.5-6.5-10.9-14-15.8
				c8.6,15,15.5,29.9,10.8,45.5c-7.3-4.2-17.9-15.2-13.1-21c-3.8,2-5.4,4.2-6.4,6.5c-1.1,2.3-1.6,4.7-1.9,7c-0.3,2.3,0,4.8-0.4,7.1
				c-10.5-9.8-10.5-20.1-5-30.5c-7.7,6.9-10.5,14.2-11.6,21.6c-2.5-8.4-4.8-17-11.5-25.2c0,6.4,0.2,12.6,0,19c-0.2,6.4-1,12.8-5,19
				c-9.4-10.4-13-21.1-11.3-32c-5.4,7.3-5.2,14.6-4.1,22c-6.5-11.2-11.3-22.6-29.9-32.1c13.1,13.6,24.2,27.5,19.5,42.6
				c-20.2-6.5-26.1-14.4-21.9-23.9c-7.3,7.2-7.9,14.6-6,22.1c-8.2-14.9-10.3-29.7-2.1-44.6c-1.9,1.5-4.1,2.8-5.6,4.2
				c-6.1,5.7-8.7,11.8-10.2,17.9c-1.3,4.6-1.7,9.3-2.5,14c0,0.4-0.3,0.8-0.5,1.2c0,9.5-12,18.8-12,28.2c1.4,0,14.8,0,16.1,0
				c114.2,0,227.8,2.4,342,2.4c1.7,0,8.2-0.6,10.1-0.6c0,0-3.9-3.1-3.9-3.5c0-5.6,0.1-11-0.4-16.6c-0.9-5.8-3-11.7-5.1-17.5
				c-2.5-6.9-3.8-5.2-9.9-11.8c-3-3.2-4.7-6.7-1.9,0.3C1423.6,496.7,1418.7,513,1417.8,512.7z"/>
			<path class="st5" d="M1059.7,510.5c-2.1-5.2-3.8-10.4-6.5-15.4c-2.7-5-5.3-10.1-14-13.9c1.5,2.9,3,5.7,4.2,8.7
				c2.3,5.7,4.4,11.4,2.6,17.5c-0.4,1.4-1.7,3-3.2,4.5c-3.7-12.6-5.7-25.4-25.2-35.7c2.5,6.6,5.5,12.7,7.2,19
				c1.6,6.5,1.1,12.9-4.8,19.6c-0.3,0-0.7,0.1-1,0.1c-3.6-10.1-7.1-20.2-10.7-30.1c-0.9,3-2.2,6.2-3,9.3c-0.9,3.2-1.6,6.6-2.1,9.8
				s-0.4,6.4-0.7,9.6c-6.6-14.6-13.6-29.2-13.5-44.6c-0.4,0-0.7,0.1-1.1,0.1c-0.7,6.4-1.9,12.9-1.9,19.2c0,6.5,1,12.7,1,19.2
				c-3-5.7-5.9-11.3-16.3-15.8c4.4,9.1,11.3,17.7,2.3,27.6c-5.3-5.5-9.6-11.1-12.2-17c-2.6-6-3.9-12-2.8-18.3
				c-9,11.7-7.6,22.9-6.3,34.1c-1.3-3.4-2.6-6.7-4.1-10s-2.9-6.6-6.9-9.4c0,7.3,0.2,14.4,0.2,21.7c-0.2,0-0.5,0.1-0.8,0.1
				c-0.9-2-1.6-4-2.5-5.9c-3.9-8.7-8-17.3-16.5-25.3c-2.5-2.3-4.9-3.5-7.8-3.9c5.6,12.4,12.6,24.7,8.3,38.1
				c-11.1-7-22.3-14-25.4-22.8c-4,3.9-5.9,7.8-6.5,11.6c-0.6,3.8-0.6,7.6-1,11.5c-4.5-4.3-6.8-8.9-7.7-13.8
				c-0.9-4.9,0.3-9.9,4.2-14.9c-10.5,5.9-12.5,11.9-13.3,18c-2.7-4.7-5.2-9.5-8.4-14.2c-3.1-4.7-7.1-9.2-14.7-13
				c9.5,12.7,17.3,25.5,14,39.9c-7.3-3.2-18.4-12.1-14.2-17.8c-3.5,2.1-4.8,4.2-5.6,6.4c-0.8,2.1-1.1,4.3-1.2,6.4s0.4,4.3,0.2,6.4
				c-10.8-8-11.6-17.2-7.2-27c-6.9,6.8-9,13.6-9.5,20.3c-3.2-7.3-6-14.8-13.1-21.6c0.5,5.7,1.2,11.3,1.5,17c0.3,5.7,0,11.5-3.4,17.4
				c-9.9-8.5-14.2-17.8-13.4-27.7c-4.7,6.9-4,13.5-2.3,20c-7.3-9.5-12.7-19.4-31.4-26.3c13.7,11.1,25.5,22.7,22.1,36.6
				c-20-4.1-26.3-10.7-23-19.6c-6.5,7-6.4,13.7-4,20.3c-9-12.6-12.3-25.7-5.5-39.8c-1.6,1.4-3.6,2.8-5,4.2
				c-5.4,5.6-7.4,11.3-8.4,16.9c-0.8,4.3-0.9,8.5-1.3,12.8c0,0.4-0.2,0.7-0.4,1.1c0.7,8.5-10.1,17.9-9.4,26.3
				c1.3-0.1,14.2-1.2,15.5-1.3c110-9.6,220.1-19.1,330.1-28.7c1.6-0.1,3.1-0.2,4.9-0.4c0.1-0.5,0.1-1,0.1-1.3
				c-0.4-5-0.3-10.2-1.5-15.1c-1.3-5.2-3.9-10.2-6.3-15.3c-2.9-6-4-4.4-10.4-9.8c-3.2-2.7-5-5.7-1.8,0.4
				C1063.9,495.8,1060.4,510.8,1059.7,510.5z"/>
			<path class="st5" d="M393.9,518.9c2.8-5.4,1.2-2.7-1.8-0.2c-6,5.1-7.3,3.8-9.8,9.1c-2,4.5-4.2,9-5.1,13.5
				c-0.8,4.3-0.2,8.7-0.2,13c0,0.3,0.1,0.7,0.2,1.1c1.1,0,2.9,0,5,0c147,0.3,160.2,28.8,228,16.7c28-5,58.7-15.7,113.1-16.7
				c6.8-0.1,12.4-0.1,16,0c0-7.2-12-14.4-12-21.7c-0.2-0.3-0.5-0.6-0.5-0.9c-0.9-3.6-1.3-7.2-2.5-10.8c-1.5-4.7-4.1-9.4-10.1-13.8
				c-1.5-1.1-3.7-2.1-5.5-3.2c8.2,11.5,6.1,22.9-2,34.3c1.9-5.8,1.4-11.5-5.9-17c4.2,7.3-1.7,13.4-21.8,18.4
				c-4.7-11.6,6.4-22.3,19.4-32.8c-18.5,7.3-23.2,16.1-29.8,24.7c1.1-5.7,1.3-11.3-4.1-16.9c1.7,8.4-1.9,16.6-11.3,24.6
				c-4-4.8-4.8-9.7-5-14.6s0-9.7,0-14.6c-6.7,6.3-8.9,12.9-11.5,19.4c-1.2-5.7-3.9-11.3-11.6-16.6c5.4,8,5.4,15.9-5,23.5
				c-0.4-1.8-0.1-3.7-0.4-5.5s-0.7-3.6-1.8-5.4s-2.6-3.5-6.4-5c4.8,4.5-5.7,12.9-13,16.2c-4.7-12,2.2-23.5,10.8-35
				c-7.4,3.8-11.1,7.9-13.9,12.2c-2.9,4.2-5,8.5-7.4,12.7c-1.4-5.1-4-10.1-15.3-14.3c4.4,4,6.1,8.1,5.6,12.4
				c-0.6,4.2-2.5,8.3-6.7,12.3c-0.7-3.3-1.1-6.5-2-9.7c-0.9-3.2-3.3-6.4-7.7-9.4c-2.4,7.7-13.2,14.5-24,21.3
				c-5.7-11.1,0.5-22.1,5.1-33.1c-3,0.6-5.3,1.8-7.7,3.9c-7.9,7.4-11.4,15.1-14.6,22.8c-0.7,1.7-1.3,3.4-2,5.2c-0.3,0-0.6,0-0.8,0
				c-0.6-6.2-1.1-12.3-1.7-18.5c-3.8,2.7-5,5.6-6.2,8.5c-1.3,2.9-2.3,5.8-3.3,8.8c0.3-9.6,0.8-19.3-9.5-28.6
				c1.8,5.3,1,10.5-1.2,15.8c-2.2,5.2-6.1,10.3-11,15.4c-10.1-7.8-3.8-15.6-0.1-23.7c-10.3,4.6-12.7,9.6-15.3,14.7
				c-0.6-5.5-0.1-10.9-0.7-16.4c-0.6-5.4-2.4-10.8-3.7-16.2c-0.4,0-0.7,0-1.1,0c1.5,13.1-4.4,26.1-9.8,39c-0.6-2.7-0.8-5.4-1.5-8.1
				s-1.9-5.5-3.1-8.2c-1.1-2.6-2.7-5.2-3.9-7.7c-2.8,8.7-5.5,17.6-8.3,26.4c-0.3,0-0.7,0-1,0c-6.7-5.3-7.8-10.7-6.7-16.3
				c1.2-5.5,3.7-10.9,5.7-16.7c-19,10.2-19.9,21.3-22.6,32.3c-1.7-1.2-3.2-2.4-3.7-3.6c-2.4-5.1-0.7-10.1,1.1-15.1
				c0.9-2.6,2.3-5.1,3.5-7.7c-8.6,3.9-10.7,8.4-13.1,12.9c-2.3,4.5-3.6,9-5.3,13.6C394.9,539.7,390,527.1,393.9,518.9z"/>
		</g>
	</g>
	<path class="st4" d="M4.9,59.1c3,7.1,6,14.3,8.8,21.6c1.2,3.1,2.5,5.8,3.8,8.6c2.3,4.8,4.2,10,6.2,15.1l5.7,8.9
		c0.8,1.3,1.7,2.6,2.4,4c5.6,12.4,11.2,24.9,16.8,37.2c4.4,9.8,8.7,19.7,12.1,30.3c3.1,9.5,4.7,19.5,4.9,30.1
		c0.1,3.5,0,6.9,0.2,10.4c0.1,3.2,0.2,6.4,0.5,9.5c0.2,3.4-0.1,6.6-0.9,9.7c-0.2,1.1-0.4,2.3-0.4,3.5c0,10.6-0.1,21.4,0.1,32
		c0.2,15.2,0.6,30.3,0.9,45.5c0.2,9.9,0.6,19.9,0.5,29.8c-0.1,8.8-0.6,17.5-1,26.3c-0.2,6.2-0.6,12.3-0.7,18.5
		c-0.4,13.2-0.7,26.5-1,39.7c-0.2,6.2-0.2,12.4-0.3,18.6c-0.2,22.3-0.3,44.7-0.5,67c-0.1,14.4-0.2,28.7-0.5,43.2
		c-0.1,8.7-0.3,17.3-0.4,26.1c0,6.6,0.2,13.1,0.2,19.7c0,3.8-0.4,7.8-0.6,11.6c-0.2,2.9-0.2,5.7-0.4,8.7c-0.3,5.8-0.7,11.7-0.9,17.5
		c-0.1,3.7-0.2,7.4-0.6,11.2c-0.3,2.2,0,4.6-0.2,6.8c-0.3,7.6-0.6,15.1-1,22.8c-0.3,7.3-0.5,14.7-0.9,22c-0.2,3.8-0.6,7.7-1.2,11.3
		c-0.7,4.1-2.4,6.8-4.6,7.6c0.3,0.8,0.7,1.6,1,2.5c13.2,4.7,26.8,7.2,40.5,8c10.4,0.6,20.9,1,31.3,0.4c6.5-0.3,13-1.8,18.7-5.8
		c5.8-4,10.5-9.9,15.4-15.4c-3.9,0-7.7,0-11.6-0.1c-5.6,0-8.9-3.9-10.4-12.3c-3.7-20.5-7.6-40.9-11-61.6
		c-1.9-11.7-3.3-23.7-4.7-35.6c-0.5-3.9-0.4-8,0.2-11.9c0.1-0.6,0-1.3-0.1-2c-0.4-3.9-0.9-8-1.4-11.9c-0.1-0.4,0-1-0.2-1.3
		c-1.7-2.9-2-6.5-2.1-10c-0.8-12.4-1.5-25-2.1-37.5c-0.4-8.5-0.7-17.1-1-25.6c-0.5-15.8-1-31.8-1.5-47.8c-0.3-8.6-0.6-17.3-1-26
		c-0.3-8.3-0.9-16.6-1.2-24.9c-0.2-5.4-0.3-10.8-0.4-16.3c-0.1-7.6-0.2-15.1-0.1-22.7c0.2-14.6,0.4-29.1,0.6-43.6
		c0.2-9.7,0.4-19.4,0.6-29c0.4-14.1,0.8-28.4,1.4-42.5c0.4-9.3,1.1-18.4,1.6-27.7c0.2-5,0.2-10,0.3-15.1c0.1-1.9,0.3-3.7,0.4-5.6
		c0.2-3.5,0.4-7,0.5-10.5c0.5-17.9,4.6-33.5,11.8-47.3c4.9-9.5,10.8-17.3,17.3-23.9c9.2-9.3,18.5-18.7,27.6-28.4
		c3-3.2,5.7-7.3,8.5-11c1.1-1.5,2.3-2.8,3.6-4.4c-1.8-1.4-3.7-2.9-5.6-4.3c-11.1-8.1-22.8-13.4-34.7-17.1
		c-10.2-3.2-20.5-5.3-30.9-6.9c-8.7-1.3-17.3-2.4-26-3.8c-6.8-1.1-13.4-2.4-20.1-3.6c-6-1.1-12-2-18-2.9c-2.6-0.4-5.3-0.5-7.9-0.7
		c-0.2,0-0.5-0.2-0.7-0.3H29.7c-1.8,0.2-3.5,0.5-5.2,0.7c-8.2,1.1-16.1,3.6-23.8,8.2c-0.1,0.1-0.2,0.1-0.2,0.5h1.7
		C3.3,56.8,4.3,57.6,4.9,59.1z M129.3,119.5c0.6-4.4,1.3-8.7,1.9-13c1.1-7.4,2.3-15,3.5-22.4c0.2-1.1,0.4-2.1,0.6-3.1
		c1.1-4.4,2.8-6.1,5.8-6.1h1.4v0.3c2.8-0.5,5.6-1,8.4-1.6c1.6-0.3,3.2,1.8,3.4,4.5c0.1,1.1-0.1,2.1-0.1,3.2c0,1-0.1,1.8-0.1,2.8
		c0.1,1.8,0.6,2.7,1.8,2.4c2-0.3,4.1-1,6-1.6c2.1-0.6,4.1-1.4,6.2-2c1.1-0.3,2.1,0.1,2.7,1.6c0.6,1.4,0.2,2.9-0.3,3.9
		c-0.9,1.7-1.8,3.2-2.9,4.7c-5.1,7.3-11,13.1-17,18.3c-5.5,4.8-11.1,9.1-16.7,13.6c-1.2,1-2.5,2.1-3.8,0.5
		C128.8,124.2,128.9,121.8,129.3,119.5z M59.4,65.2c2-1.4,4.1-2.6,6.1-3.8c1.2-0.7,1.5-0.4,1.8,1.6c0.2,1.1,0.2,2.2,0.3,3.4
		c0.3,3.1,1.1,4,3,4.3c2.8,0.3,5.3-1.3,8-2.3c1.8-0.6,3.4-1.4,5.2-2.1c1.6-0.6,2.1-0.2,2.9,2.1c1.6,5.4,1.9,5.7,5.7,4.6
		c3.7-1.2,7.3-2.3,10.9-3.8c1.7-0.7,3.3-2,4.8-3.4c2.5-2.1,4.5-2,6.6,1.2c1.4,2,2.6,4.3,3.9,6.5c1.1,2,2.1,4.1,3.3,6.2
		c1.6,2.9,2.1,6.3,2.2,10c-0.3,2.3-0.4,4.9-1,7.1c-5.1,19.7-10.9,38.8-18.9,55.9c-1.2,2.6-2.5,5-3.8,7.4c-1.4,2.7-3.3,4.6-5.3,5.8
		c-2.3,1.5-4.4,0.3-6-2.2c-1.3-1.9-2.4-4.3-3.3-6.6c-5.1-13.4-10.2-26.8-15.2-40.3c-3.4-9.1-6.8-18.4-10-27.7
		c-1.8-5-2.9-10.3-3.7-15.8C56.2,68.8,56.8,67,59.4,65.2z M27.6,53.5c0.7-0.9,1.6-1.3,2.3-1.8c0.8,0.4,1.4,0.5,1.8,1
		c2.1,2.2,3.7,4.9,4.1,8.8c0.2,1.2-0.1,2.4-0.2,3.6c-1.2,6.4,0.9,9.4,4.3,10.7c0.7,0.3,1.5,0.4,2.2,0.7c1,0.3,1.4,1.3,1.5,2.8
		c0,1.6-0.5,2.7-1.4,3.3c-1,0.6-1.9,0.4-2.8-0.5c-2.9-3.1-5.6-6.6-6.9-12c-0.6-2.3-1.8-4.4-2.9-6.5c-0.8-1.7-1.8-3.4-2.5-5.1
		C26.2,56.4,26.3,55,27.6,53.5z"/>
	<path class="st5" d="M320.4,683.8c1.5,0.4,3,0.8,4.6,1.2c-0.5,2.3-0.7,4.7-0.1,7.1c0.1,0.2,0,0.5,0,0.8c0,2.6,0,5.3,0.1,7.9
		c0.1,2.4,0.2,4.9,0.9,7.2c0.3,1.1,0.3,2.2,0.7,3.3c0.6,1.7,1.8,2.7,3.4,3.3c1.9,0.7,3.9,0.8,5.9,1c0.5,0,1,0,1.4-0.1
		c0.9-0.2,1.8-0.2,2.7,0.1c1,0.3,1.2,0.9,0.8,1.8c-0.5,1.2-1.6,1.6-2.7,1.5c-1.9-0.1-3.7-0.3-5.6-0.4c-0.4,0-0.8-0.1-1.3-0.1
		c-0.4,0-0.5,0.1-0.3,0.5c0.2,0.5,0.6,0.9,1,1.3c1.7,1.8,3.6,3.4,5.3,5.1c0.7,0.7,1.4,1.3,2.1,2c0.1,0.1,0.2,0.2,0.2,0.3
		c0.1,0.7,0.3,1.4,0.1,2.1c-0.1,0.8-0.6,1.1-1.4,0.8c-0.8-0.3-1.5-0.8-2.1-1.3c-2.3-1.9-4.6-3.8-6.8-6c-1.6-1.6-3.2-3.1-4.9-4.7
		c-0.3-0.3-0.6-0.4-1-0.5s-0.9,0-1.2,0.3c-0.6,0.6-1.1,1.2-0.8,2.1c0.2,0.5,0,1.1,0,1.6c-0.1,1.1-0.1,2.2-0.7,3.2
		c-0.5,0.8-1,1.4-2,1.3s-1.9-1.3-1.2-2.3c0.6-0.9,0.7-2,0.6-3.1c-0.1-1,0.2-1.9,0.3-2.9c0.1-0.9,0.3-1.9,0-2.8
		c-0.4-1.2-1.1-1.9-2.3-2.3c-1.4-0.4-2.9-0.8-4.1-1.7c-0.3-0.2-0.6-0.5-0.8-0.8c-0.2-0.2-0.1-0.4,0.1-0.6c0.8-0.6,1.8-0.6,2.7-0.5
		c0.6,0.1,1.2,0.3,1.8,0.5c1.1,0.5,2,0.2,2.6-0.9s0.8-2.2,0.9-3.4c0.2-2.3,0.3-4.7,0.4-7c0.1-2.1,0.2-4.3,0.4-6.4
		c0.1-1.5,0.3-2.9,0.3-4.4C320.6,686.6,320.5,685.2,320.4,683.8z"/>
	<g id="Layer_4">
		<path class="st4" d="M1440.1,0H0.1v105.8c14.6,2.1,19-0.1,33.6-2.1c10.6-1.4,20.4-3.9,30.9-5.4c35.4-5.1,73.3,0.9,110.3,1
			c21.9,0.1,48.9-2.4,69.9-5.4c29.2,5.7,60.2,11.4,91.5,9.3c32-2.1,62.5-12.1,94-8.8c41.6,4.4,58.8,29.2,97.9,37.1
			c15.9,3.2,34.6,3.4,48.6,8.2c8.9,3.1,14.9,7.7,23,11.2c26.8,11.7,72.5,9,100.1-2.3c13.1-5.4,24.7-12.8,41.9-14.1
			c12-0.9,24,1.4,34.9,4c42.3,10.2,82.6,25.5,130,25.1c19.6-0.1,38.7-3.1,57.4-5.9c47.3-7.3,94.5-14.6,141.8-21.9
			c15.3-2.4,30.8-4.7,46.8-5.2c17.7-0.5,35.1,1.4,52.5,2.9c35.5,3.1,71.7,4.4,107.8,3.9c25.4-0.4,51.4-1.6,74.3-6.7
			c22.9-5.1,47.9-14.2,52.6-25.9"/>
	</g>
	<path class="st4" d="M1425.5,94.9c0.1,0.8,0,1.5,0,2.3c-0.1,5-1.3,10.4-1.9,15.3c-1.2,9.3-1.9,19.1-4,28.2
		c-1.4,5.6-3.4,11-4.9,16.6c-3.5,11.8-6.8,23.8-11.9,34.8c-0.3,3-0.7,5.8-1.1,8c-1.9,15.7-3.6,31.5-6.6,46.9c-0.6,3-1.3,6-2.1,8.9
		c-0.2,1.3-0.3,2.1-0.3,2.1c-0.1,0-0.2-0.1-0.3-0.1c-0.1,0.4-0.3,0.9-0.4,1.3c-0.8,2.5-1.7,5-2.3,7.5c-0.2,6.5-1.7,13.3-2.5,19.8
		c-0.5,4.1-1.5,8.5-2.1,12.8c-0.2,1.3-0.3,2.6-0.5,3.9c-0.1,1.3-0.2,2.5-0.2,3.8c0-0.8,0-1.5,0.1-2.3c0,0.4-0.1,0.8-0.1,1.3
		c-2.4-9.4-3.7-17.9-4.3-26.6c-1.1-1-2-3.6-2.3-4.8c-1.5-4.5-1.7-9.7-1.7-14.4c-0.1-8.2,0.4-16.3,1.2-24.4c0,0.1,0,0.3-0.1,0.3
		c0-0.4,0.1-0.8,0.1-1.1c0.4-4.5,0.9-8.9,1.6-13.3c1.1-7.8,2-15.6,3.2-23.2c0.4-2.5,0.6-5.4,1.9-7.5c0.7-1.4,1.8-2.1,2.8-2.6
		c0.1-1,0.3-2,0.5-2.4c8-11.5,13.6-25.1,18.1-39c2.4-7.7,4.5-15.4,6.3-23.3c0.9-4.1,1.8-8.3,2.5-12.4c0.2-1.4,0.5-2.8,0.7-4
		c0.2-1.1,0.3-2.3,0.5-3.5c0.1-0.8,0.2-1.6,0.3-2.4c0-0.4,0.1-0.6,0.1-1c0,0.1,0,0.1,0,0.3c0.1-1.1,0.3-2.3,0.4-3.3
		c0.1-0.5,0.1-1.1,0.2-1.6c-4.3,1.5-8.8,4.1-13.5,7.2c-1.9,13.8-4.4,27.6-8.5,40.5c-1.6,4.9-4.3,15.7-9,17.7
		c-2.1,0.9-1.8,0.3-2.4-2.6c-0.7-3.4-1.4-6.8-1.8-10.2c-0.9-6.9-1.3-13.9-1.3-20.8c0-4.6,0.7-9.5,1.6-14.3c-0.1,0-0.1,0-0.2,0
		c0.1-0.4,0.2-0.8,0.3-1.1c0.2-1,0.3-2.1,0.5-3.1c-0.4-7.7-18.9,5-18.9,5.1c0.7,8.2,7.4,29.1,7.9,37.3c0.5,8.3,1.7,16.7,1.2,25.1
		c-0.4,7.4-1.8,14.4-2.2,21.8c0.1,0.5,0.1,1.3,0.1,2c-0.9,18.8-3.7,36.3-8,52.5c-1.7,6.5-3.6,7-6.3,2.6c-1.1-1.8-2.1-3.9-3.2-5.8
		c-12.9-25-24.7-52.6-36.3-81c-4-9.8-23.9-47.2-27.8-57l-13.8-2.9c5.6,16.6,21.8,75.1,27.4,91.6c12.1,35.5,24.3,70.9,36.5,106.2
		c5.8,16.8,9.6,35.6,11.4,56.5c1.2,13.1,1.6,26.4,1.8,39.7c0.3,24,0.4,47.8,0.7,71.8c0.5,49,1.2,97.9,1.7,146.9
		c0.2,24,0.6,47.8,0.5,71.8c-0.1,34.1-0.2,68.4-1.7,102.4c-0.4,8.7-1.1,17.3-1.6,26c5.9,0.1,11.8,0.3,17.7,0.4c2.2,0,4.3,0,6.5,1.4
		c2.1,1.4,4.4,1.4,6.5,0.8c4.8-1.5,9.7-1.6,14.5-0.1c1.4,0.4,2.7,0,4,0c-0.3-9.5-0.7-19-0.8-28.5c-0.9-52.8-2.2-105.6-2.6-158.4
		c-0.1-18.2-0.3-36.5-0.4-54.7c-0.1-12.2,0.2-24.4,1.1-36.4c0.2-3.8,0.2-7.5,0.2-11.4c0.2-39.9,0.2-79.8,0.6-119.7
		c0.3-30.4,1.1-60.8,2.9-90.9c2.6-39.7,7.1-78.1,14.8-114.5c2.9-13.8,16.7-111.2,22.2-102.7C1434.1,99.4,1429.8,96.1,1425.5,94.9z"
		/>
	<g>
		<path class="st6" d="M-1,643.7c186-13.9,323.4-8.8,419.5-3.1c19.9,1.2,69.1,4.3,126.7,8.5c190,13.8,223,20.8,293.1,20
			c16.6-0.2,89.9-4.7,162.5-4.7c1.7,4,6.3,7,9.2,9c-0.1-0.1-0.1-1,0.1-2.4c1.8,4.6,4,0.3,5.4-3.8c9.8-27.8,23.7,4.1,31.7,0.5
			c3.2-1.4,5.1,2.6,7.5-0.3c0.4-0.2,0.8-0.5,1.2-0.8c1.6-1.1,2.8-2.4,3.5-4.1c1.3-0.5,2.6-0.8,3.9-1.2c20.2-1.1,43.1-2.5,64.8-4
			c125-8.7,224.8-7.9,312.9-21.3l-0.6,333.2H-0.9"/>
		<g>
			<path class="st6" d="M1011,631.3c2.5-6.5,1-3.2-1.9-0.1c-5.9,6.4-7.3,5.1-9.5,11.4c-1.8,5.4-3.7,10.9-4.4,16.2
				c-0.6,5.1,0.3,10.2,0.6,15.3c0,0.3,0.2,0.8,0.3,1.3c1.2-0.1,3-0.2,5.1-0.3c48.6-3.2,90.3-4.9,184.6-7.5
				c35.6-1,71.8-12.6,106.7-4.2c14.2,3.5,45.4,13,59.3-5.4c2.8-3.7,4.2-7.6,5-10.3c-0.5-8.4-3.9-16.7-4.3-25.2
				c-0.2-0.3-0.6-0.7-0.6-1c-1-4.1-1.7-8.4-3.2-12.4c-1.9-5.4-4.8-10.7-11.2-15.4c-1.6-1.1-3.9-2.2-5.8-3.3
				c9.1,12.9,7.6,26.3,0,40.3c1.5-6.9,0.7-13.6-7.1-19.4c4.8,8.2-0.9,15.9-21.1,23.2c-5.5-13.2,5.1-26.6,17.8-39.9
				c-18.5,10-22.8,20.7-29,31.2c0.8-6.8,0.7-13.3-5.2-19.4c2.2,9.6-0.9,19.5-10,29.6c-4.4-5.3-5.5-11-6-16.7
				c-0.5-5.7-0.6-11.4-0.8-17.1c-6.5,7.9-8.3,15.9-10.6,23.7c-1.5-6.5-4.7-12.9-12.8-18.5c6,9,6.5,18.1-3.7,27.9
				c-0.6-2.1-0.3-4.4-0.7-6.4s-1-4.1-2.2-6.2c-1.1-2.1-2.8-3.9-6.8-5.4c5.1,4.9-5.1,15.5-12.4,20c-5.5-13.7,0.7-27.7,8.9-41.8
				c-7.4,5.1-10.9,10.1-13.5,15.4c-2.7,5.2-4.6,10.3-6.7,15.4c-1.7-5.9-4.7-11.5-16.5-15.5c4.8,4.4,6.7,9,6.5,14
				c-0.3,4.9-2.1,9.9-6.1,14.9c-0.9-3.8-1.5-7.5-2.7-11.1c-1.1-3.7-3.7-7.2-8.4-10.5c-2,9.2-12.6,18-23.2,26.8
				c-6.5-12.5-0.8-26,3.3-39.2c-3,0.9-5.3,2.5-7.6,5.2c-7.7,9.3-10.9,18.6-13.6,27.8c-0.7,2.1-1.1,4.1-1.8,6.2c-0.3,0-0.7,0-0.8,0.1
				c-1-7.2-1.9-14.4-2.9-21.5c-3.8,3.4-4.8,6.9-5.9,10.5c-1.1,3.4-2,7-2.8,10.6c-0.3-11.3-0.3-22.6-11.4-32.7
				c2.1,6.1,1.6,12.2-0.3,18.6c-1.9,6.2-5.5,12.5-10.3,18.8c-10.9-8.4-4.8-17.9-1.5-27.7c-10.2,6.2-12.4,12.3-14.7,18.4
				c-0.9-6.4-0.7-12.8-1.7-19.2c-0.9-6.3-3.1-12.4-4.8-18.7c-0.4,0-0.7,0-1.1,0.1c2.2,15.2-2.9,30.9-7.7,46.4
				c-0.7-3.1-1.1-6.2-2.1-9.3s-2.2-6.3-3.6-9.3c-1.3-3-3-5.9-4.4-8.7c-2.3,10.5-4.6,21-6.9,31.6c-0.3,0-0.7,0-1,0.1
				c-7.1-5.6-8.6-11.9-7.8-18.6c0.9-6.5,3.1-13.1,4.9-20c-18.8,13.4-19.1,26.5-21.1,39.6c-1.8-1.3-3.4-2.5-4-3.9
				c-2.7-5.7-1.3-11.7,0.3-17.8c0.7-3.1,2-6.2,3.1-9.3c-8.5,5.3-10.5,10.7-12.6,16.1c-2.2,5.4-3.1,10.8-4.6,16.3
				C1012.8,655.5,1007,641.3,1011,631.3z"/>
			<path class="st6" d="M16.5,589.3c2.8-8,1.1-4-1.9-0.3c-6.2,7.6-7.5,5.6-10,13.6c-2.1,6.7-4.3,13.4-5.2,20.1
				c-0.5,6.4-0.4,12.6-0.4,19.1c0,0.5,0,2,0,2c1.9,0,3.8,0,5.6,0c115.6,0,231.2,0,346.8,0c1.3,0,14.9,0,16.3,0
				c0-10.8-12.1-21.5-12.1-32.4c-0.2-0.5-0.5-0.9-0.5-1.4c-0.8-5.4-1.2-10.8-2.5-16.1c-1.5-7-4.1-14-10.3-20.6
				c-1.5-1.6-3.7-3.1-5.7-4.8c8.3,17.1,6.2,34.1-2.1,51.2c1.9-8.6,1.3-17.1-6.1-25.4c4.3,10.9-1.7,20-22.2,27.5
				c-4.8-17.3,6.5-33.3,19.7-48.9c-18.8,10.9-23.7,24-30.3,36.9c1.1-8.5,1.3-16.9-4.1-25.3c1.7,12.5-1.9,24.8-11.4,36.8
				c-4-7.1-4.9-14.5-5.1-21.8c-0.2-7.4,0-14.5,0-21.8c-6.8,9.4-9.1,19.3-11.6,28.9c-1.1-8.5-3.9-16.9-11.7-24.8
				c5.6,11.9,5.6,23.8-5.1,35c-0.4-2.6-0.1-5.5-0.4-8.2c-0.3-2.6-0.8-5.4-1.9-8c-1-2.6-2.6-5.2-6.5-7.5c4.9,6.7-5.9,19.3-13.3,24.1
				c-4.8-17.9,2.2-35,10.9-52.3c-7.6,5.6-11.3,11.8-14.2,18.1c-2.9,6.3-5.1,12.6-7.5,19c-1.3-7.6-4-15-15.5-21.4
				c4.5,6,6.3,12.1,5.8,18.5c-0.5,6.3-2.5,12.4-6.8,18.4c-0.7-4.9-1.1-9.6-2.1-14.5c-0.9-4.8-3.3-9.5-7.8-14
				c-2.4,11.5-13.5,21.6-24.4,31.8c-5.8-16.5,0.5-33,5.2-49.4c-3,0.9-5.5,2.6-7.8,5.9c-8.1,11-11.6,22.5-14.9,34
				c-0.7,2.5-1.3,5.1-2.1,7.8c-0.3,0-0.6,0-0.8,0c-0.6-9.3-1.1-18.4-1.7-27.6c-3.9,4-5.1,8.4-6.4,12.6c-1.3,4.3-2.3,8.6-3.3,13.1
				c0.3-14.4,0.8-28.8-9.7-42.7c1.7,7.9,0.9,15.6-1.2,23.5c-2.2,7.8-6.2,15.4-11.1,23c-10.3-11.6-3.8-23.3-0.1-35.4
				c-10.4,6.9-13,14.4-15.5,21.9c-0.6-8.2-0.1-16.3-0.7-24.5c-0.6-8-2.4-16.1-3.7-24.1c-0.4,0-0.7,0-1.1,0
				c1.4,19.5-4.5,38.9-10,58.2c-0.6-4-0.8-8-1.5-12.1c-0.7-4-1.9-8.2-3.1-12.3c-1.1-3.9-2.7-7.8-3.9-11.5c-2.8,13-5.7,26.3-8.4,39.4
				c-0.3,0-0.7,0-1,0c-6.8-7.9-7.9-16-6.8-24.4c1.2-8.2,3.7-16.3,5.9-24.9c-19.3,15.2-20.3,31.8-23,48.2c-1.6-1.8-3.2-3.6-3.7-5.4
				c-2.4-7.6-0.7-15,1.1-22.5c0.9-3.9,2.3-7.6,3.5-11.5c-8.7,5.9-10.9,12.5-13.4,19.3c-2.4,6.8-3.6,13.4-5.5,20.3
				C17.2,620.3,12.2,601.6,16.5,589.3z"/>
			<path class="st6" d="M381.3,589.9c3.2-7,1.4-3.6-1.8-0.5c-6.5,6.2-7.6,4.4-10.5,11.3c-2.4,5.9-5.1,11.6-6.4,17.6
				c-1.2,5.6-1.1,11.6-1.5,17.3c0,0.3,0,0.9,0.1,1.5c1.8,0.2,3.3,0.3,5,0.5c111.3,11,222.7,21.9,334,33c1.3,0.1,14.4,1.4,15.7,1.5
				c0.7-9.6-10.2-20.4-9.5-30.2c-0.2-0.5-0.4-0.8-0.4-1.3c-0.4-4.9-0.5-9.8-1.3-14.7c-1-6.4-3-13-8.5-19.4c-1.4-1.6-3.4-3.2-5.1-4.8
				c6.9,16.2,3.5,31.2-5.6,45.7c2.4-7.6,2.5-15.3-4-23.3c3.3,10.2-3,17.8-23.3,22.5c-3.4-16,8.5-29.3,22.4-42
				c-18.9,7.9-24.4,19.3-31.8,30.2c1.7-7.5,2.4-15-2.3-23c0.8,11.4-3.5,22.1-13.6,31.8c-3.4-6.8-3.7-13.4-3.4-20
				c0.3-6.5,1-13,1.5-19.5c-7.2,7.8-10,16.4-13.3,24.8c-0.5-7.7-2.6-15.5-9.6-23.3c4.5,11.3,3.6,21.8-7.3,31
				c-0.2-2.4,0.3-4.9,0.2-7.4c-0.1-2.4-0.4-4.9-1.2-7.4c-0.8-2.5-2.1-4.9-5.7-7.4c4.3,6.5-7,16.8-14.4,20.4
				c-3.3-16.5,4.6-31.2,14.2-45.8c-7.7,4.4-11.7,9.5-14.9,14.9c-3.2,5.4-5.8,10.9-8.5,16.3c-0.8-7-2.8-13.9-13.5-20.7
				c3.9,5.7,5.2,11.5,4.3,17.1s-3.2,10.9-7.8,15.9c-0.4-4.5-0.4-8.8-1-13.2c-0.6-4.4-2.5-8.8-6.6-13.3
				c-3.1,10.1-14.5,18.1-25.7,26.2c-4.4-15.4,2.7-29.5,8.4-43.8c-2.9,0.5-5.4,1.8-7.9,4.5c-8.6,9.2-12.8,19.1-16.7,29.1
				c-0.9,2.2-1.6,4.5-2.5,6.8c-0.3,0-0.6-0.1-0.8-0.1c0-8.4,0.2-16.5,0.2-24.9c-4,3.2-5.5,7-7,10.8c-1.5,3.8-2.8,7.6-4.1,11.5
				c1.3-12.9,2.7-25.7-6.4-39.2c1.1,7.2-0.2,14.1-2.8,21c-2.6,6.8-7,13.2-12.3,19.5c-9.1-11.4-2.1-21.3,2.3-31.7
				c-10.5,5.2-13.5,11.6-16.5,18.1c0-7.5,1-14.6,1-22.1c0-7.2-1.2-14.7-1.9-22.1c-0.4,0-0.7-0.1-1.1-0.1c0.1,17.7-7,34.5-13.7,51.2
				c-0.3-3.7-0.2-7.4-0.7-11s-1.2-7.6-2.1-11.3c-0.8-3.6-2.1-7.2-3-10.7c-3.6,11.4-7.2,23-10.8,34.6c-0.3,0-0.7-0.1-1-0.1
				c-6-7.7-6.5-15-4.9-22.5c1.7-7.2,4.8-14.2,7.3-21.8c-19.7,11.8-21.8,26.5-25.5,41c-1.5-1.7-2.8-3.6-3.2-5.2
				c-1.8-7,0.3-13.6,2.6-20.1c1.2-3.4,2.7-6.7,4.3-10c-8.8,4.4-11.4,10.2-14.2,16c-2.7,5.7-4.5,11.7-6.6,17.7
				C379.7,617.8,376.2,600.6,381.3,589.9z"/>
			<path class="st6" d="M1069.6,647.1c-0.3,0.4-0.6,0.8-0.9,1.2c-0.3,2-0.5,3.9-0.8,5.9c0.1-0.6-0.6,5.6-0.9,5.7
				c-2.4,1.2-5.1,1.5-7.7,2.5c-0.8,1.7-1.9,3-3.5,4.1c-0.4,0.3-0.8,0.5-1.2,0.8c-0.5,0.6-0.9,1.2-1.4,1.7h17.9
				c0.1-0.5,0.2-0.9,0.2-1.3c0-4.9,0.6-10-0.2-14.9C1070.8,650.9,1070.2,649,1069.6,647.1z"/>
			<path class="st6" d="M1000.1,661.3c0-0.3,0-0.6,0-0.9c-0.4,0.6-0.9,1.2-1.5,0.9c-0.1,0,0-0.8,0.1-1.7c-0.3,0.2-0.5,0.5-0.8,0.7
				c0.1-0.9,0.1-1.8,0.3-2.7c0.1-1,0.2-2,0.4-3.1c0.6-4.6,1.2-9.2,1.8-13.9c0.3-1.9,0.5-3.9,0.8-5.8c-0.5-3.2-1-6.4-1.3-9.5
				c-0.7,1.6-1.5,3.1-2.1,4.7c-1.2,3.1-2.4,6.3-3.1,9.4c-0.7,3.1-0.9,6.2-1.5,9.3c-5.5-14.8-11.4-29.8-9.9-44.8H982
				c-1.3,6.2-3.1,12.4-3.7,18.6c-0.6,6.3-0.1,12.5-0.7,18.8c-2.6-5.9-5.1-11.6-15.5-16.9c3.7,9.3,10.1,18.3-0.1,27.2
				c-5-5.9-8.9-11.7-11.1-17.7c-2.2-6.1-3-12.1-1.2-18.1c-10.4,10.7-9.9,21.8-9.6,32.9c-1-3.4-2-6.8-3.3-10.1
				c-1.2-3.3-2.4-6.7-6.3-9.8c-0.6,7.1-1.1,14.1-1.7,21.3h-0.8c-0.7-2.1-1.3-4-2-6c-3.2-8.8-6.8-17.7-14.8-26.2
				c-2.4-2.4-4.8-3.8-7.8-4.5c4.7,12.6,10.9,25.3,5.2,38c-10.9-7.8-21.9-15.6-24.3-24.5c-4.5,3.4-6.9,7.1-7.8,10.8
				c-0.9,3.7-1.3,7.4-2,11.1c-4.3-4.6-6.2-9.3-6.8-14.1c-0.5-4.9,1.2-9.6,5.7-14.2c-11.4,4.8-14.1,10.6-15.5,16.4
				c-2.4-4.8-4.6-9.8-7.5-14.6c-2.8-4.9-6.6-9.6-14.1-14c8.7,13.2,15.7,26.4,10.9,40.2c-7.4-3.8-18-13.4-13.2-18.6
				c-3.8,1.7-5.4,3.7-6.5,5.7s-1.5,4.1-1.8,6.2c-0.3,2.1,0,4.3-0.4,6.3c-10.5-8.7-10.5-17.8-5.1-27c-7.8,6.1-10.5,12.5-11.7,19.1
				c-2.6-7.5-4.9-15-11.6-22.3c0,5.6,0.2,11.1,0,16.8c-0.2,5.6-1,11.3-5.1,16.8c-9.5-9.2-13.2-18.6-11.4-28.3
				c-5.5,6.4-5.3,12.9-4.1,19.4c-6.7-9.9-11.4-20-30.2-28.4c13.2,12.1,24.4,24.4,19.6,37.7c-20.3-5.7-26.3-12.8-22.1-21.1
				c-7.4,6.3-7.9,12.9-6,19.5c-8.2-13.1-10.3-26.2-2-39.4c-1.8,1.3-4,2.4-5.6,3.7c-6.1,5.1-8.7,10.5-10.2,15.9
				c-1.2,4.1-1.6,8.3-2.5,12.4c0,0.3-0.3,0.7-0.5,1c0,8.4-12.1,16.7-12.1,24.9h299.6C1002,666.9,1000.1,664.4,1000.1,661.3z"/>
		</g>
	</g>
</g>
<g id="Layer_3">
	<linearGradient id="SVGID_2_" gradientUnits="userSpaceOnUse" x1="857.8537" y1="779.9787" x2="1440.467" y2="779.9787">
		<stop  offset="0" style="stop-color:#B7A263"/>
		<stop  offset="1" style="stop-color:#877F4D"/>
	</linearGradient>
	<path class="st7" d="M1354.2,633.1c-28.5,43.8-67.2,88.3-120.3,128.6c0,0-90.7,69.9-376,146.4l14.7-12.4c0,0,62.1,62.8,261.2,10.3
		c199.1-52.5,0,0,0,0c40.8-16.4,93.9-43.1,148.5-87.2c84.6-68.4,132.8-133.4,158.2-182.9c-13.9,1.8-32.2,1.4-46.9,2.8
		C1378.7,640,1368.3,632.3,1354.2,633.1z"/>
	<g id="eThpVe.tif_10_" class="st8">
		<g>
			<path d="M1373.6,650c-0.4,0.6-0.8,1.2-1.1,1.6c-0.4,0.6-0.9,1-1.2,1.6l-0.1,0.1c-0.5,1-1.5,1.8-2.2,2.7c-0.4,0.6-0.6,1.1-1,1.7
				c-0.4,0.6-0.9,1.3-1.4,1.7c-0.3,0.4-0.6,0.9-1,1.1c-0.6,0.5-1.2,1.1-1.7,1.5l-0.1-0.1c0.1-0.2,0.1-0.4,0.2-0.6
				c0.1-0.4,0.2-1,0.5-1.4c0.3-0.5,0.6-1.1,1-1.7c0.4-0.6,0.9-1.3,1.3-1.8c0.1-0.1,0.2-0.3,0.3-0.4c0.2-0.3,0.4-0.6,0.6-0.9
				c0.1-0.4,0.4-0.9,0.8-1.4c0.7-0.6,1.3-1.5,1.7-2.4c0.4-0.6,0.7-1,1.2-1.4c0.1-0.1,0.1-0.1,0.2-0.3c-0.8-0.1-1.4,0.1-2.2,0.3
				c-0.9,0.3-1.9,0.8-2.8,1.1c-0.5,0.1-1,0.2-1.5,0.2c-0.1,0.1-0.2-0.1-0.4,0c-0.9,0.3-1.1,0.1-1.8-0.2c0.5-0.3,1.1-0.6,1.6-1.1
				c0.8-0.5,1.6-0.9,2.2-1.5c0.3-0.2,0.5-0.3,0.8-0.3c1.1-0.1,1.9-0.5,2.9-0.9c0.6-0.2,1.3-0.4,2-0.4c0.4,0,0.6,0,0.7,0
				c0.4,0,0.5-0.3,0.6-0.5c0.2-0.3,0.4-0.6,0.6-0.9c0.6-0.5,1-1.5,1.3-2.2c0.4-0.8,0.8-1.7,1.4-2.6c0.5-0.7,1.1-1.3,1.7-1.9
				c0.1,1.4,0.1,2.7-0.8,3.7c-0.6,0.9-1,2-1.4,3c-0.3,0.7-0.5,1.6-1,2.4c-0.3,0.7-0.5,1.4-0.4,2.2c0.1,1.4,0,2.8-0.1,4.2
				c-0.1,1.5-0.7,2.9-1.1,4.4c-0.2,0.3,0,0.7-0.2,1c-0.3,0.5-0.5,1-0.8,1.4c-0.4-0.3-0.6-0.7-0.5-1.2c0.1-1.4,0.4-2.8,0.5-4.1
				c0-0.4,0-0.6,0-0.9c0.1-0.2,0.1-0.4,0.2-0.6c0.1-0.2,0.3-0.5,0.2-0.9c0.2-1,0.1-2.1,0.4-3.1
				C1373.8,650.3,1373.7,650.2,1373.6,650L1373.6,650z"/>
			<path d="M1372,686.1c0.9-1,1.5-2.1,2.2-3.1c0.3-0.4,0.4-0.8,0.9-1c0.1-0.1,0.3-0.2,0.2-0.3c0-0.6,0.4-0.9,0.8-1.4
				c0.4-0.6,0.8-1.2,1.2-1.8c0.2-0.3,0.3-0.4,0.5-0.7l0.1,0.1c0,0.4,0,0.6,0,0.9c-0.1,0.8-0.2,1.6-0.3,2.4c-0.1,0.4-0.1,0.8-0.1,1.1
				c0,0.4-0.2,0.6-0.2,0.9c0,0.6,0,1.3,0,2c0,0.4,0,0.7,0.1,1.1c-0.1,0.2,0,0.6-0.1,0.8c0.5-0.5,1.2-0.8,1.7-1.2
				c0.1-0.4,0.3-0.7,0.2-1.2c-0.1-1.1,0.1-2.1,0.3-2.9c0.1-0.4,0.2-1,0.2-1.6c0.1-0.2,0-0.6,0-0.9c1,0.7,1.3,1.6,1.8,2.4
				c0.3,0.5,0.6,1.3,0.9,1.9c0.6-0.5,1.1-1,1.6-1.6c-0.2-0.6-0.4-1-0.9-1.6c-0.5-0.5-0.8-1-0.9-1.6c-0.4-1-1-1.8-1.8-2.4
				c-0.3-0.2-0.3-0.5-0.3-0.8c0.1-0.4,0.1-0.8,0.2-1.2c0.1-0.2-0.1-0.5,0-0.7c0.1-0.8,0.4-1.5,0.6-2.2c0.5-1.4,0.6-2.7,0.7-4.2
				c0-0.4,0-0.6,0-0.9c-0.3,0.4-0.5,0.7-0.8,0.8c-0.7,0.6-0.9,1.6-1.3,2.5c-0.2,1-0.5,1.9-0.8,3c-0.2,0.6-0.4,1.2-0.6,1.8
				c-0.3,0.5-0.3,1.3-0.7,1.7c-0.6,0.9-1.5,1.6-2.2,2.5c-0.7,1-1.4,1.9-2.2,2.9c-0.6,1.1-1,2.4-1.8,3.4c-0.5,0.5-0.4,1.2-0.4,1.9
				C1371.5,686.6,1371.8,686.4,1372,686.1z"/>
		</g>
	</g>
	<g id="eThpVe.tif_11_" class="st9">
		<g>
			<path d="M1345.8,691.3c-0.5,0.5-1,0.9-1.6,1.2c-0.5,0.5-1.1,0.8-1.6,1.2l-0.1,0.1c-0.8,0.9-2,1.3-2.9,2c-0.4,0.4-1,0.9-1.4,1.3
				c-0.5,0.5-1.1,0.8-1.8,1.3c-0.5,0.3-0.8,0.6-1.3,0.9c-0.7,0.4-1.3,0.8-2.1,1.1l-0.1-0.1c0.1-0.2,0.2-0.4,0.3-0.5
				c0.2-0.4,0.5-0.9,0.7-1.2c0.4-0.4,1-0.9,1.4-1.3c0.5-0.5,1.2-1,1.7-1.5c0.1-0.1,0.2-0.1,0.4-0.2c0.2-0.1,0.5-0.5,0.7-0.7
				c0.2-0.4,0.6-0.8,1-1.1c0.8-0.5,1.6-1.1,2.2-1.7c0.4-0.4,1-0.7,1.4-1.1c0.1-0.1,0.2-0.1,0.4-0.2c-0.8-0.2-1.5-0.3-2.1-0.3
				c-1.1,0.1-1.9,0.3-3,0.3c-0.5,0-1-0.1-1.5-0.1c-0.1,0.1-0.2-0.1-0.4-0.1c-0.9,0-1-0.1-1.5-0.7c0.7-0.2,1.2-0.4,1.9-0.6
				c0.8-0.3,1.8-0.5,2.6-0.8c0.2-0.1,0.6-0.2,0.7-0.1c1.1,0.2,1.9,0,3-0.1c0.6,0,1.3,0.1,1.9,0c0.3,0,0.6,0.2,0.8,0.2
				c0.4,0.1,0.6-0.2,0.7-0.4c0.4-0.2,0.5-0.5,0.9-0.7c0.7-0.4,1.2-1.2,1.7-1.8c0.7-0.7,1.2-1.5,2-2.1c0.7-0.5,1.4-0.9,2.1-1.4
				c-0.2,1.3-0.7,2.5-1.8,3.4c-0.9,0.7-1.5,1.6-2.1,2.5c-0.6,0.7-1,1.4-1.6,2c-0.5,0.6-0.7,1.2-0.8,1.9c-0.2,1.4-0.7,2.7-1.1,4
				c-0.5,1.4-1.4,2.7-2.2,4c-0.2,0.3-0.3,0.6-0.5,0.9c-0.4,0.4-0.8,0.8-1.2,1.2c-0.3-0.5-0.3-0.8-0.2-1.2c0.6-1.3,1.1-2.6,1.5-3.8
				c0.2-0.3,0.2-0.6,0.3-1c0.1-0.2,0.1-0.4,0.3-0.5c0.2-0.3,0.3-0.5,0.4-0.7c0.4-1,0.6-2,1.1-2.9
				C1345.9,691.8,1345.8,691.6,1345.8,691.3C1345.9,691.5,1345.9,691.5,1345.8,691.3z"/>
			<path d="M1359,727c-0.3-0.3-0.7-0.4-0.8-0.6c-0.3-0.6-0.7-1.2-0.9-1.9c-0.3-0.8-0.5-1.7-0.6-2.4c-0.2-1-0.4-2-1-2.8
				c-0.1,0.4-0.2,0.6-0.2,0.8c-0.2,0.4-0.3,1-0.5,1.4c-0.5,0.9-0.9,1.8-1,2.8c0,0.5-0.3,0.8-0.7,1.2c-0.2,0.3-0.2,0.4-0.4,0.7
				c-0.2,0.4-0.4,1-0.6,1.5c-0.3,0.8-0.8,1.7-1.1,2.6c-0.2,0.3-0.3,0.5-0.5,0.8c-0.3,0.3-0.6,0.8-0.9,1.2c0,0,0,0-0.2-0.1
				c0.1-0.2,0-0.5,0.1-0.7c0.2-1.1,0.6-2.1,0.9-3.2c0.3-1.1,0.8-2,1.3-3c0.2-0.3,0.2-0.6,0.3-1c0.2-0.6,0.2-1.3,0.4-1.8
				c0.1-0.2,0.2-0.4,0.3-0.8c0.1-0.4,0.2-0.8,0.3-1.1c0.3-0.6,0.6-1.5,0.9-2.1c0.2-0.3,0.2-0.6,0.3-0.8l-0.1-0.1
				c-0.2,0.1-0.4,0.4-0.7,0.5c-0.5,0.5-1.1,0.9-1.6,1.4c-0.4,0.4-0.9,0.7-1.1,1.1c-0.1,0.2-0.2,0.3-0.3,0.3
				c-0.4,0.1-0.7,0.4-1.1,0.8c-1,0.9-2,1.6-2.9,2.5c-0.4,0.2-0.6,0.3-1.1,0.1c0.2-0.6,0.2-1.3,0.8-1.7c1-0.7,1.6-2,2.6-2.8
				c0.8-0.8,1.9-1.5,2.8-2.2c0.9-0.7,1.9-1.1,2.7-1.8c0.4-0.4,0.8-0.9,1.1-1.4c0.3-0.5,0.8-0.9,1-1.6c0.6-1,1.1-1.7,1.7-2.7
				c0.5-0.9,0.9-1.6,1.8-2.2c0.2-0.1,0.6-0.3,1-0.6c-0.1,0.4-0.2,0.6-0.1,0.9c-0.4,1.3-0.9,2.6-1.7,3.8c-0.5,0.6-0.7,1.2-1.1,1.9
				c-0.1,0.2-0.1,0.4-0.2,0.6c-0.1,0.4-0.4,0.7-0.5,1.1c-0.2,0.3-0.2,0.6,0,0.8c0.6,0.8,1,1.7,1.1,2.8c0,0.6,0.3,1.3,0.4,1.9
				c0.4,0.7,0.4,1.5,0.4,2.4c0,0.8,0,1.7,0.1,2.5C1359,726.2,1359,726.5,1359,727z"/>
		</g>
	</g>
	<g id="eThpVe.tif_12_" class="st10">
		<g>
			<path d="M1312.1,726.5c-0.5,0.5-1,0.9-1.6,1.2c-0.5,0.5-1.1,0.8-1.6,1.2l-0.1,0.1c-0.8,0.9-2,1.3-2.9,2c-0.4,0.4-1,0.9-1.4,1.3
				c-0.5,0.5-1.1,0.8-1.8,1.3c-0.5,0.3-0.8,0.6-1.3,0.9c-0.7,0.4-1.3,0.8-2.1,1.1l-0.1-0.1c0.1-0.2,0.2-0.4,0.3-0.5
				c0.2-0.4,0.5-0.9,0.7-1.2c0.4-0.4,1-0.9,1.4-1.3c0.5-0.5,1.2-1,1.7-1.5c0.1-0.1,0.2-0.1,0.4-0.2c0.2-0.1,0.5-0.5,0.7-0.7
				c0.2-0.4,0.6-0.8,1-1.1c0.8-0.5,1.6-1.1,2.2-1.7c0.4-0.4,1-0.7,1.4-1.1c0.1-0.1,0.2-0.1,0.4-0.2c-0.8-0.2-1.5-0.3-2.1-0.3
				c-1.1,0.1-1.9,0.3-3,0.3c-0.5,0-1-0.1-1.5-0.1c-0.1,0.1-0.2-0.1-0.4-0.1c-0.9,0-1-0.1-1.5-0.7c0.7-0.2,1.2-0.4,1.9-0.6
				c0.8-0.3,1.8-0.5,2.6-0.8c0.2-0.1,0.6-0.2,0.7-0.1c1.1,0.2,1.9,0,3-0.1c0.6,0,1.3,0.1,1.9,0c0.3,0,0.6,0.2,0.8,0.2
				c0.4,0.1,0.6-0.2,0.7-0.4c0.4-0.2,0.5-0.5,0.9-0.7c0.7-0.4,1.2-1.2,1.7-1.8c0.7-0.7,1.2-1.5,2-2.1c0.7-0.5,1.4-0.9,2.1-1.4
				c-0.2,1.3-0.7,2.5-1.8,3.4c-0.9,0.7-1.5,1.6-2.1,2.5c-0.6,0.7-1,1.4-1.6,2c-0.5,0.6-0.7,1.2-0.8,1.9c-0.2,1.4-0.7,2.7-1.1,4
				c-0.5,1.4-1.4,2.7-2.2,4c-0.2,0.3-0.3,0.6-0.5,0.9c-0.4,0.4-0.8,0.8-1.2,1.2c-0.3-0.5-0.3-0.8-0.2-1.2c0.6-1.3,1.1-2.6,1.5-3.8
				c0.2-0.3,0.2-0.6,0.3-1c0.1-0.2,0.1-0.4,0.3-0.5c0.2-0.3,0.3-0.5,0.4-0.7c0.4-1,0.6-2,1.1-2.9
				C1312.2,726.9,1312.1,726.8,1312.1,726.5C1312.1,726.6,1312.1,726.6,1312.1,726.5z"/>
			<path d="M1325.3,762.2c-0.3-0.3-0.7-0.4-0.8-0.6c-0.3-0.6-0.7-1.2-0.9-1.9c-0.3-0.8-0.5-1.7-0.6-2.4c-0.2-1-0.4-2-1-2.8
				c-0.1,0.4-0.2,0.6-0.2,0.8c-0.2,0.4-0.3,1-0.5,1.4c-0.5,0.9-0.9,1.8-1,2.8c0,0.5-0.3,0.8-0.7,1.2c-0.2,0.3-0.2,0.4-0.4,0.7
				c-0.2,0.4-0.4,1-0.6,1.5c-0.3,0.8-0.8,1.7-1.1,2.6c-0.2,0.3-0.3,0.5-0.5,0.8c-0.3,0.3-0.6,0.8-0.9,1.2c0,0,0,0-0.2-0.1
				c0.1-0.2,0-0.5,0.1-0.7c0.2-1.1,0.6-2.1,0.9-3.2c0.3-1.1,0.8-2,1.3-3c0.2-0.3,0.2-0.6,0.3-1c0.2-0.6,0.2-1.3,0.4-1.8
				c0.1-0.2,0.2-0.4,0.3-0.8c0.1-0.4,0.2-0.8,0.3-1.1c0.3-0.6,0.6-1.5,0.9-2.1c0.2-0.3,0.2-0.6,0.3-0.8l-0.1-0.1
				c-0.2,0.1-0.4,0.4-0.7,0.5c-0.5,0.5-1.1,0.9-1.6,1.4c-0.4,0.4-0.9,0.7-1.1,1.1c-0.1,0.2-0.2,0.3-0.3,0.3
				c-0.4,0.1-0.7,0.4-1.1,0.8c-1,0.9-2,1.6-2.9,2.5c-0.4,0.2-0.6,0.3-1.1,0.1c0.2-0.6,0.2-1.3,0.8-1.7c1-0.7,1.6-2,2.6-2.8
				c0.8-0.8,1.9-1.5,2.8-2.2c0.9-0.7,1.9-1.1,2.7-1.8c0.4-0.4,0.8-0.9,1.1-1.4c0.3-0.5,0.8-0.9,1-1.6c0.6-1,1.1-1.7,1.7-2.7
				c0.5-0.9,0.9-1.6,1.8-2.2c0.2-0.1,0.6-0.3,1-0.6c-0.1,0.4-0.2,0.6-0.1,0.9c-0.4,1.3-0.9,2.6-1.7,3.8c-0.5,0.6-0.7,1.2-1.1,1.9
				c-0.1,0.2-0.1,0.4-0.2,0.6c-0.1,0.4-0.4,0.7-0.5,1.1c-0.2,0.3-0.2,0.6,0,0.8c0.6,0.8,1,1.7,1.1,2.8c0,0.6,0.3,1.3,0.4,1.9
				c0.4,0.7,0.4,1.5,0.4,2.4c0,0.8,0,1.7,0.1,2.5C1325.3,761.4,1325.3,761.7,1325.3,762.2z"/>
		</g>
	</g>
	<g id="eThpVe.tif_13_" class="st11">
		<g>
			<path d="M1280.8,759.4c-0.6,0.3-1.1,0.6-1.8,0.8c-0.6,0.3-1.3,0.5-1.8,0.8l-0.1,0c-0.9,0.7-2.2,0.8-3.2,1.3
				c-0.5,0.3-1.1,0.6-1.6,0.9c-0.6,0.3-1.3,0.5-2,0.9c-0.5,0.2-0.9,0.4-1.4,0.6c-0.8,0.3-1.5,0.5-2.3,0.6l0-0.1
				c0.1-0.2,0.3-0.4,0.4-0.4c0.3-0.4,0.6-0.8,1-1c0.5-0.3,1.1-0.6,1.6-0.9c0.6-0.3,1.4-0.7,2-1.1c0.1,0,0.3-0.1,0.4-0.1
				c0.3-0.1,0.6-0.3,0.8-0.6c0.3-0.4,0.8-0.7,1.2-0.8c0.9-0.3,1.8-0.7,2.5-1.2c0.5-0.3,1.2-0.5,1.6-0.8c0.1,0,0.3-0.1,0.4-0.1
				c-0.7-0.4-1.4-0.6-2-0.7c-1.1-0.1-1.9-0.1-3-0.4c-0.5-0.1-1-0.3-1.4-0.4c-0.1,0-0.2-0.1-0.3-0.2c-0.9-0.1-1-0.3-1.3-1
				c0.7-0.1,1.3-0.1,2-0.2c0.8-0.1,1.9-0.1,2.7-0.3c0.3-0.1,0.6,0,0.7,0.1c1,0.4,1.9,0.4,2.9,0.5c0.6,0.1,1.3,0.3,1.9,0.4
				c0.3,0,0.5,0.3,0.7,0.4c0.3,0.2,0.6,0,0.8-0.3c0.4-0.1,0.6-0.3,1-0.5c0.8-0.3,1.5-0.9,2.1-1.4c0.8-0.6,1.5-1.2,2.4-1.6
				c0.8-0.4,1.6-0.6,2.4-0.9c-0.5,1.2-1.2,2.3-2.4,3c-1,0.5-1.8,1.3-2.6,2c-0.7,0.5-1.3,1.1-2,1.6c-0.6,0.5-1,1-1.2,1.7
				c-0.5,1.3-1.3,2.4-1.9,3.7c-0.8,1.3-1.9,2.3-3,3.4c-0.2,0.2-0.4,0.6-0.6,0.8c-0.5,0.3-1,0.6-1.5,0.9c-0.2-0.5-0.1-0.8,0.1-1.2
				c0.8-1.1,1.6-2.3,2.3-3.4c0.2-0.2,0.3-0.5,0.5-0.9c0.1-0.2,0.2-0.3,0.4-0.4c0.2-0.2,0.4-0.4,0.5-0.6c0.6-0.9,1-1.8,1.7-2.6
				C1280.8,759.8,1280.8,759.7,1280.8,759.4C1280.9,759.5,1280.9,759.5,1280.8,759.4z"/>
			<path d="M1286.2,797.1c-0.3-0.4-0.6-0.5-0.7-0.8c-0.2-0.7-0.4-1.3-0.5-2c-0.1-0.8-0.1-1.7,0-2.5c0-1,0.1-2.1-0.3-3
				c-0.2,0.3-0.3,0.5-0.4,0.7c-0.3,0.4-0.5,0.9-0.8,1.3c-0.6,0.8-1.3,1.6-1.5,2.5c-0.1,0.5-0.5,0.7-1,1c-0.2,0.2-0.3,0.4-0.5,0.6
				c-0.3,0.4-0.6,0.9-0.9,1.3c-0.5,0.7-1.1,1.5-1.6,2.3c-0.2,0.2-0.4,0.4-0.7,0.6c-0.4,0.3-0.8,0.7-1.2,0.9c0,0,0,0-0.2-0.1
				c0.1-0.2,0.1-0.5,0.2-0.7c0.4-1,1-1.9,1.6-3c0.5-1,1.2-1.8,1.9-2.7c0.2-0.2,0.3-0.5,0.5-0.9c0.3-0.5,0.5-1.2,0.8-1.7
				c0.1-0.2,0.3-0.4,0.5-0.7s0.4-0.7,0.5-1c0.4-0.6,0.9-1.3,1.3-1.9c0.2-0.2,0.3-0.5,0.5-0.7l0-0.1c-0.3,0.1-0.5,0.3-0.8,0.4
				c-0.6,0.3-1.2,0.7-1.9,1c-0.5,0.3-1,0.5-1.3,0.9c-0.1,0.2-0.2,0.2-0.4,0.3c-0.4,0-0.8,0.3-1.3,0.5c-1.1,0.6-2.3,1.1-3.4,1.8
				c-0.4,0.1-0.7,0.2-1.1-0.1c0.3-0.5,0.5-1.2,1.1-1.5c1.2-0.5,2-1.6,3.1-2.1c1-0.6,2.1-1.1,3.2-1.6c1-0.5,2.1-0.7,3-1.2
				c0.5-0.3,0.9-0.7,1.4-1.2s0.9-0.7,1.3-1.3c0.8-0.8,1.4-1.5,2.2-2.3c0.6-0.8,1.2-1.4,2.2-1.7c0.3-0.1,0.7-0.2,1.1-0.3
				c-0.2,0.3-0.3,0.5-0.3,0.8c-0.6,1.2-1.5,2.4-2.4,3.4c-0.6,0.5-1,1-1.5,1.6c-0.1,0.2-0.2,0.3-0.3,0.5c-0.2,0.3-0.5,0.6-0.7,1
				c-0.2,0.2-0.3,0.5-0.2,0.8c0.4,0.9,0.6,1.9,0.5,2.9c-0.1,0.6,0,1.3,0,1.9c0.2,0.8,0.1,1.6-0.1,2.4c-0.2,0.8-0.3,1.7-0.4,2.5
				C1286.4,796.3,1286.3,796.6,1286.2,797.1z"/>
		</g>
	</g>
	<g id="eThpVe.tif_14_" class="st12">
		<g>
			<path d="M1242.9,791.8c-0.7,0.3-1.2,0.6-2,0.7c-0.7,0.3-1.4,0.5-2,0.7l-0.1,0c-1.1,0.7-2.4,0.7-3.6,1.1c-0.5,0.3-1.2,0.6-1.8,0.9
				c-0.7,0.3-1.4,0.5-2.3,0.8c-0.6,0.1-1,0.4-1.6,0.5c-0.9,0.2-1.6,0.4-2.5,0.4l0-0.1c0.1-0.2,0.4-0.4,0.5-0.4
				c0.4-0.4,0.7-0.8,1.1-1c0.5-0.3,1.2-0.6,1.8-0.9c0.7-0.3,1.5-0.6,2.2-1c0.1,0,0.3-0.1,0.4-0.1c0.3-0.1,0.7-0.3,1-0.5
				c0.4-0.4,0.9-0.7,1.4-0.8c1-0.2,2-0.6,2.8-1.1c0.5-0.3,1.3-0.4,1.8-0.7c0.1,0,0.3-0.1,0.4-0.1c-0.7-0.5-1.4-0.8-2-0.9
				c-1.1-0.2-2-0.3-3.2-0.7c-0.5-0.2-1-0.4-1.5-0.6c-0.1,0-0.2-0.1-0.4-0.2c-1-0.2-1-0.4-1.3-1.2c0.8,0,1.4,0,2.1,0c0.9,0,2,0,2.9,0
				c0.3-0.1,0.6,0,0.8,0.1c1,0.5,2,0.6,3.1,0.8c0.6,0.2,1.3,0.5,2,0.6c0.3,0.1,0.5,0.3,0.7,0.5c0.4,0.2,0.6,0,0.9-0.2
				c0.4-0.1,0.7-0.3,1.1-0.4c0.9-0.2,1.6-0.8,2.3-1.3c1-0.5,1.7-1.1,2.7-1.5c0.8-0.3,1.7-0.5,2.6-0.7c-0.6,1.2-1.5,2.3-2.9,2.9
				c-1.1,0.4-2,1.2-2.9,1.9c-0.8,0.5-1.4,1.1-2.2,1.6c-0.7,0.5-1.1,1-1.4,1.7c-0.6,1.4-1.6,2.5-2.4,3.7c-0.9,1.3-2.2,2.3-3.5,3.4
				c-0.3,0.2-0.5,0.6-0.7,0.8c-0.5,0.3-1.1,0.6-1.6,0.8c-0.1-0.6,0-0.9,0.2-1.3c1-1.1,1.9-2.3,2.8-3.4c0.3-0.2,0.3-0.5,0.6-0.9
				c0.1-0.2,0.2-0.4,0.5-0.4c0.3-0.2,0.5-0.4,0.6-0.6c0.7-0.9,1.3-1.8,2-2.6C1242.8,792.3,1242.8,792.1,1242.9,791.8
				C1242.9,792,1242.9,792,1242.9,791.8z"/>
			<path d="M1245.2,832.3c-0.2-0.4-0.6-0.6-0.7-0.9c-0.2-0.7-0.3-1.5-0.3-2.2c0-0.9,0-1.8,0.2-2.6c0.1-1.1,0.3-2.2-0.1-3.2
				c-0.2,0.4-0.3,0.5-0.5,0.7c-0.4,0.4-0.6,0.9-0.9,1.3c-0.7,0.8-1.5,1.6-1.9,2.6c-0.2,0.5-0.6,0.7-1.1,1c-0.3,0.2-0.4,0.4-0.6,0.6
				c-0.4,0.4-0.7,0.9-1.1,1.3c-0.6,0.7-1.3,1.5-1.9,2.3c-0.3,0.2-0.5,0.4-0.8,0.6c-0.4,0.2-0.9,0.7-1.3,0.9c0,0,0,0-0.2-0.1
				c0.1-0.2,0.2-0.5,0.3-0.7c0.5-1,1.2-2,1.9-3c0.7-1.1,1.4-1.8,2.3-2.6c0.3-0.2,0.3-0.5,0.6-0.9c0.3-0.5,0.6-1.2,1-1.7
				c0.1-0.2,0.4-0.4,0.6-0.7c0.2-0.4,0.5-0.7,0.7-1.1c0.5-0.6,1.1-1.3,1.6-1.9c0.3-0.2,0.3-0.5,0.6-0.7l0-0.1
				c-0.3,0.1-0.5,0.3-0.8,0.3c-0.7,0.3-1.4,0.6-2.1,0.9c-0.5,0.3-1.1,0.4-1.5,0.8c-0.1,0.2-0.3,0.2-0.4,0.2c-0.5,0-0.9,0.2-1.4,0.5
				c-1.2,0.6-2.5,1-3.8,1.6c-0.4,0.1-0.7,0.2-1.1-0.2c0.3-0.5,0.6-1.2,1.3-1.5c1.3-0.4,2.2-1.6,3.5-2c1.1-0.6,2.4-1,3.5-1.4
				c1.1-0.4,2.3-0.5,3.3-1c0.5-0.3,1.1-0.7,1.6-1.1c0.5-0.4,1.1-0.7,1.5-1.3c0.9-0.8,1.7-1.4,2.5-2.2c0.7-0.8,1.4-1.4,2.5-1.6
				c0.3-0.1,0.7-0.2,1.2-0.3c-0.2,0.4-0.3,0.5-0.4,0.9c-0.8,1.2-1.8,2.4-2.9,3.4c-0.7,0.5-1.1,1-1.8,1.6c-0.1,0.2-0.2,0.4-0.3,0.5
				c-0.2,0.4-0.6,0.6-0.9,1c-0.3,0.2-0.3,0.5-0.3,0.8c0.4,1,0.5,2,0.2,3.1c-0.2,0.6-0.1,1.4-0.2,2c0.2,0.9-0.1,1.7-0.4,2.5
				c-0.3,0.8-0.5,1.8-0.6,2.6C1245.5,831.5,1245.4,831.8,1245.2,832.3z"/>
		</g>
	</g>
	<g id="eThpVe.tif_15_" class="st13">
		<g>
			<path d="M1201.5,816.6c-0.8,0.4-1.5,0.7-2.4,0.9c-0.8,0.4-1.7,0.6-2.4,0.9l-0.2,0c-1.3,0.8-3,0.8-4.3,1.3c-0.7,0.3-1.5,0.7-2.2,1
				c-0.8,0.4-1.7,0.6-2.7,1c-0.7,0.2-1.2,0.5-1.9,0.6c-1.1,0.2-1.9,0.4-3,0.5l0-0.2c0.1-0.2,0.4-0.5,0.6-0.5
				c0.4-0.5,0.9-0.9,1.4-1.2c0.7-0.3,1.5-0.7,2.2-1c0.8-0.4,1.9-0.8,2.7-1.2c0.2,0,0.4-0.1,0.5-0.1c0.4-0.1,0.8-0.4,1.2-0.6
				c0.4-0.5,1.1-0.8,1.6-0.9c1.2-0.3,2.4-0.7,3.4-1.3c0.7-0.3,1.5-0.5,2.2-0.9c0.2,0,0.4-0.1,0.5-0.1c-0.9-0.5-1.7-0.9-2.5-1.1
				c-1.4-0.3-2.5-0.4-3.9-0.8c-0.6-0.2-1.2-0.5-1.8-0.7c-0.2,0-0.2-0.1-0.4-0.3c-1.2-0.3-1.2-0.5-1.6-1.5c0.9,0,1.7,0,2.6,0
				c1.1-0.1,2.4,0,3.5,0c0.4-0.1,0.7,0,1,0.2c1.3,0.6,2.4,0.8,3.7,1c0.8,0.2,1.6,0.6,2.4,0.8c0.4,0.1,0.6,0.4,0.9,0.5
				c0.4,0.3,0.7,0,1.1-0.2c0.5-0.1,0.8-0.4,1.4-0.5c1.1-0.2,2-1,2.8-1.6c1.2-0.6,2.1-1.4,3.3-1.8c1-0.4,2.1-0.6,3.1-0.9
				c-0.8,1.5-1.8,2.8-3.5,3.6c-1.4,0.5-2.4,1.5-3.6,2.3c-1,0.6-1.7,1.3-2.7,1.9c-0.8,0.5-1.4,1.2-1.8,2.1c-0.7,1.6-1.9,3-2.9,4.5
				c-1.1,1.5-2.7,2.8-4.3,4.1c-0.3,0.3-0.6,0.7-0.9,0.9c-0.7,0.3-1.3,0.7-2,1c-0.2-0.7-0.1-1.1,0.2-1.5c1.2-1.4,2.3-2.7,3.3-4.1
				c0.3-0.3,0.4-0.6,0.7-1.1c0.1-0.2,0.3-0.4,0.6-0.5c0.3-0.3,0.6-0.5,0.8-0.7c0.9-1.1,1.5-2.2,2.4-3.1
				C1201.5,817.2,1201.4,817,1201.5,816.6C1201.6,816.8,1201.6,816.8,1201.5,816.6z"/>
			<path d="M1204.3,865.8c-0.3-0.5-0.7-0.8-0.8-1.1c-0.2-0.9-0.4-1.8-0.4-2.7c-0.1-1.1,0.1-2.2,0.2-3.2c0.1-1.3,0.3-2.7-0.1-3.9
				c-0.3,0.4-0.4,0.6-0.5,0.9c-0.4,0.5-0.7,1.1-1.1,1.5c-0.9,0.9-1.8,1.9-2.3,3.1c-0.2,0.6-0.7,0.9-1.4,1.2
				c-0.3,0.3-0.4,0.5-0.8,0.7c-0.4,0.5-0.9,1.1-1.3,1.6c-0.7,0.9-1.6,1.8-2.3,2.7c-0.3,0.3-0.6,0.5-0.9,0.8
				c-0.5,0.3-1.1,0.8-1.6,1.1c0,0,0,0-0.2-0.1c0.1-0.2,0.2-0.6,0.4-0.8c0.6-1.3,1.5-2.4,2.3-3.7c0.8-1.3,1.7-2.2,2.8-3.2
				c0.3-0.3,0.4-0.6,0.7-1.1c0.4-0.6,0.8-1.5,1.2-2.1c0.1-0.2,0.4-0.5,0.7-0.9c0.3-0.4,0.5-0.9,0.8-1.3c0.6-0.7,1.3-1.6,1.9-2.3
				c0.3-0.3,0.4-0.6,0.7-0.9l0-0.2c-0.4,0.1-0.7,0.3-1,0.4c-0.8,0.4-1.7,0.7-2.5,1.1c-0.7,0.3-1.4,0.5-1.8,1
				c-0.1,0.2-0.3,0.3-0.5,0.3c-0.6-0.1-1.1,0.2-1.7,0.6c-1.5,0.7-3.1,1.2-4.6,1.9c-0.5,0.1-0.9,0.2-1.4-0.3c0.4-0.6,0.8-1.5,1.6-1.8
				c1.5-0.5,2.7-1.9,4.3-2.4c1.3-0.7,2.9-1.2,4.2-1.7c1.4-0.5,2.8-0.6,4-1.3c0.7-0.3,1.3-0.8,1.9-1.4c0.6-0.5,1.3-0.8,1.9-1.5
				c1.1-1,2-1.7,3.1-2.7c0.9-0.9,1.7-1.7,3.1-2c0.4-0.1,0.9-0.2,1.4-0.3c-0.3,0.4-0.4,0.6-0.5,1c-1,1.5-2.1,2.9-3.5,4.1
				c-0.8,0.5-1.4,1.2-2.2,2c-0.1,0.2-0.3,0.4-0.4,0.6c-0.3,0.4-0.8,0.7-1,1.2c-0.3,0.3-0.4,0.6-0.3,1c0.5,1.2,0.6,2.5,0.3,3.8
				c-0.2,0.8-0.2,1.7-0.2,2.4c0.2,1.1-0.1,2.1-0.4,3.1s-0.6,2.2-0.8,3.1C1204.7,864.8,1204.6,865.2,1204.3,865.8z"/>
		</g>
	</g>
	<g id="eThpVe.tif_16_" class="st14">
		<g>
			<path d="M1155,839.7c-0.9,0.2-1.6,0.4-2.5,0.4c-0.9,0.2-1.8,0.2-2.5,0.4l-0.2,0c-1.4,0.6-3.1,0.3-4.5,0.5
				c-0.7,0.2-1.6,0.4-2.3,0.6c-0.9,0.2-1.8,0.2-2.9,0.4c-0.7,0-1.3,0.2-2,0.2c-1.1,0-2,0.1-3.1-0.1l0-0.2c0.2-0.2,0.5-0.4,0.7-0.4
				c0.5-0.4,1.1-0.8,1.6-0.9c0.7-0.2,1.6-0.4,2.3-0.6c0.9-0.2,2-0.4,2.9-0.6c0.2,0,0.4,0,0.5,0c0.4,0,0.9-0.2,1.3-0.4
				c0.5-0.4,1.2-0.6,1.8-0.6c1.3,0,2.5-0.2,3.6-0.6c0.7-0.2,1.6-0.2,2.3-0.4c0.2,0,0.4,0,0.5,0c-0.7-0.7-1.5-1.2-2.2-1.6
				c-1.3-0.5-2.4-0.8-3.7-1.5c-0.6-0.3-1.1-0.7-1.7-1c-0.2,0-0.2-0.2-0.4-0.4c-1.1-0.5-1.1-0.7-1.3-1.8c0.9,0.2,1.6,0.3,2.5,0.5
				c1.1,0.2,2.4,0.5,3.4,0.6c0.4,0,0.7,0.2,0.9,0.3c1.1,0.9,2.2,1.2,3.5,1.7c0.7,0.3,1.5,0.9,2.2,1.2c0.4,0.2,0.6,0.5,0.7,0.7
				c0.4,0.4,0.7,0.2,1.1,0c0.5,0,0.9-0.2,1.4-0.2c1.1,0,2.2-0.6,3-1c1.3-0.4,2.3-1,3.6-1.2c1.1-0.2,2.2-0.2,3.2-0.3
				c-1,1.3-2.3,2.4-4.1,2.8c-1.4,0.2-2.7,1-3.9,1.6c-1.1,0.4-2,1-3,1.3c-0.9,0.4-1.6,0.9-2.1,1.7c-1,1.5-2.5,2.6-3.7,3.9
				c-1.4,1.3-3.2,2.3-5,3.2c-0.4,0.2-0.7,0.6-1.1,0.8c-0.7,0.2-1.4,0.4-2.2,0.6c0-0.7,0.2-1.1,0.5-1.5c1.4-1.1,2.8-2.2,4.1-3.4
				c0.4-0.2,0.5-0.6,0.9-0.9c0.2-0.2,0.4-0.4,0.7-0.4c0.4-0.2,0.7-0.4,0.9-0.6c1.1-0.9,1.9-1.9,3-2.6
				C1154.9,840.2,1154.8,840,1155,839.7C1155,839.8,1155,839.8,1155,839.7z"/>
			<path d="M1148.3,888.5c-0.2-0.5-0.6-0.9-0.6-1.2c0-0.9,0-1.8,0.1-2.7c0.2-1.1,0.5-2.2,0.8-3.1c0.3-1.3,0.8-2.6,0.6-3.8
				c-0.4,0.4-0.5,0.6-0.7,0.7c-0.5,0.4-0.9,0.9-1.4,1.3c-1.1,0.8-2.1,1.5-2.8,2.6c-0.3,0.6-0.9,0.7-1.6,0.9
				c-0.4,0.2-0.5,0.4-0.9,0.6c-0.5,0.4-1.1,0.9-1.6,1.3c-0.9,0.7-1.9,1.5-2.8,2.2c-0.4,0.2-0.7,0.4-1.1,0.6
				c-0.5,0.2-1.2,0.6-1.8,0.8c0,0,0,0-0.2-0.2c0.2-0.2,0.3-0.6,0.5-0.7c0.9-1.1,1.9-2,3-3.2s2.1-1.9,3.4-2.6
				c0.4-0.2,0.5-0.6,0.9-0.9c0.5-0.6,1-1.3,1.6-1.8c0.2-0.2,0.5-0.4,0.9-0.7c0.4-0.4,0.7-0.7,1.1-1.1c0.7-0.6,1.6-1.3,2.3-1.9
				c0.4-0.2,0.5-0.6,0.9-0.7l0-0.2c-0.4,0-0.7,0.2-1.1,0.2c-0.9,0.2-1.8,0.4-2.7,0.6c-0.7,0.2-1.4,0.2-2,0.6
				c-0.2,0.2-0.4,0.2-0.5,0.2c-0.5-0.2-1.1,0-1.8,0.2c-1.6,0.4-3.2,0.6-4.8,1c-0.5,0-0.9,0-1.3-0.5c0.5-0.6,1-1.3,1.9-1.5
				c1.6-0.2,3-1.3,4.7-1.6c1.4-0.4,3.1-0.6,4.5-0.8c1.4-0.2,2.9-0.1,4.1-0.5c0.7-0.2,1.4-0.6,2.1-1s1.4-0.6,2.1-1.1
				c1.2-0.8,2.3-1.3,3.6-2.1c1.1-0.8,2-1.3,3.4-1.4c0.4,0,0.9,0,1.4,0c-0.4,0.4-0.5,0.6-0.7,0.9c-1.2,1.3-2.6,2.4-4.2,3.4
				c-0.9,0.4-1.6,0.9-2.5,1.5c-0.2,0.2-0.4,0.4-0.5,0.6c-0.4,0.4-0.9,0.6-1.2,0.9c-0.4,0.2-0.5,0.6-0.5,0.9c0.2,1.3,0.1,2.5-0.4,3.8
				c-0.3,0.7-0.5,1.6-0.7,2.4c0,1.1-0.5,2-1,2.9c-0.5,0.9-1,2-1.4,2.9C1148.9,887.6,1148.7,887.9,1148.3,888.5z"/>
		</g>
	</g>
	<g id="eThpVe.tif_17_" class="st15">
		<g>
			<path d="M1103.8,858.2c-1,0.2-1.9,0.5-2.9,0.5c-1,0.2-2.1,0.3-2.9,0.5l-0.2,0c-1.7,0.7-3.5,0.3-5.2,0.6c-0.8,0.2-1.9,0.5-2.7,0.7
				c-1,0.2-2.1,0.3-3.3,0.5c-0.8,0-1.5,0.2-2.3,0.3c-1.3,0-2.3,0.1-3.5-0.1l0-0.2c0.2-0.2,0.6-0.4,0.8-0.4c0.6-0.4,1.2-0.9,1.8-1.1
				c0.8-0.2,1.9-0.5,2.7-0.7c1-0.2,2.3-0.5,3.3-0.7c0.2,0,0.4,0,0.6,0c0.4,0,1-0.2,1.4-0.5c0.6-0.4,1.4-0.7,2.1-0.7
				c1.5,0,2.9-0.3,4.2-0.7c0.8-0.2,1.9-0.3,2.7-0.5c0.2,0,0.4,0,0.6,0c-0.9-0.8-1.7-1.4-2.6-1.8c-1.5-0.6-2.7-1-4.2-1.8
				c-0.6-0.4-1.3-0.8-1.9-1.2c-0.2,0-0.2-0.2-0.4-0.4c-1.3-0.6-1.3-0.8-1.5-2c1,0.2,1.9,0.4,2.9,0.5c1.3,0.2,2.7,0.6,4,0.7
				c0.4,0,0.8,0.2,1.1,0.4c1.3,1,2.5,1.4,4,2c0.8,0.4,1.7,1,2.5,1.4c0.4,0.2,0.6,0.6,0.9,0.8c0.4,0.4,0.8,0.2,1.3,0
				c0.6,0,1-0.2,1.7-0.3c1.3,0,2.5-0.7,3.5-1.1c1.4-0.5,2.7-1.1,4.1-1.4c1.2-0.2,2.5-0.3,3.7-0.3c-1.2,1.5-2.6,2.8-4.7,3.3
				c-1.7,0.3-3.1,1.1-4.5,1.8c-1.2,0.5-2.3,1.1-3.5,1.6c-1,0.4-1.8,1.1-2.5,1.9c-1.2,1.7-2.8,3-4.3,4.5c-1.6,1.5-3.7,2.6-5.7,3.7
				c-0.4,0.2-0.8,0.6-1.2,0.9c-0.8,0.2-1.7,0.5-2.5,0.7c0-0.8,0.2-1.3,0.6-1.7c1.6-1.3,3.3-2.6,4.7-3.9c0.4-0.2,0.6-0.6,1-1.1
				c0.2-0.2,0.4-0.4,0.8-0.4c0.4-0.2,0.8-0.4,1-0.7c1.2-1.1,2.2-2.1,3.5-3C1103.6,858.8,1103.6,858.6,1103.8,858.2
				C1103.8,858.4,1103.8,858.4,1103.8,858.2z"/>
			<path d="M1096.1,914.5c-0.2-0.6-0.7-1-0.7-1.4c0-1-0.1-2.1,0.1-3.1c0.2-1.3,0.6-2.5,0.9-3.6c0.4-1.5,1-2.9,0.7-4.4
				c-0.4,0.4-0.6,0.6-0.8,0.9c-0.6,0.4-1,1.1-1.6,1.5c-1.2,0.9-2.5,1.7-3.3,3c-0.4,0.6-1,0.9-1.8,1.1c-0.4,0.2-0.6,0.4-1,0.7
				c-0.6,0.4-1.2,1.1-1.8,1.5c-1,0.9-2.2,1.7-3.3,2.6c-0.4,0.2-0.8,0.4-1.2,0.7c-0.6,0.2-1.4,0.7-2.1,0.9c0,0,0,0-0.2-0.2
				c0.2-0.2,0.4-0.6,0.6-0.9c1-1.3,2.2-2.4,3.4-3.6c1.2-1.3,2.4-2.2,3.9-3c0.4-0.2,0.6-0.6,1-1.1c0.6-0.6,1.2-1.5,1.8-2.1
				c0.2-0.2,0.6-0.4,1-0.9c0.4-0.4,0.8-0.9,1.2-1.3c0.8-0.6,1.8-1.5,2.7-2.2c0.4-0.2,0.6-0.6,1-0.9l0-0.2c-0.4,0-0.8,0.2-1.2,0.2
				c-1,0.2-2.1,0.5-3.1,0.7c-0.8,0.2-1.7,0.3-2.3,0.7c-0.2,0.2-0.4,0.2-0.6,0.2c-0.6-0.2-1.3,0-2.1,0.3c-1.9,0.5-3.7,0.7-5.6,1.2
				c-0.6,0-1,0-1.5-0.6c0.6-0.6,1.2-1.5,2.2-1.7c1.9-0.3,3.5-1.6,5.4-1.8c1.7-0.5,3.5-0.7,5.2-1c1.7-0.3,3.3-0.1,4.8-0.5
				c0.8-0.2,1.7-0.7,2.5-1.1c0.8-0.4,1.7-0.7,2.5-1.3c1.4-0.9,2.7-1.5,4.1-2.4c1.2-0.9,2.3-1.5,3.9-1.6c0.4,0,1,0,1.7,0
				c-0.4,0.4-0.6,0.6-0.8,1.1c-1.4,1.5-3.1,2.8-4.9,3.9c-1,0.4-1.8,1.1-2.9,1.7c-0.2,0.2-0.4,0.4-0.6,0.6c-0.4,0.4-1,0.7-1.4,1.1
				c-0.4,0.2-0.6,0.6-0.6,1.1c0.2,1.5,0.1,2.9-0.5,4.4c-0.4,0.8-0.6,1.9-0.8,2.7c0,1.3-0.6,2.3-1.2,3.4c-0.6,1.1-1.2,2.3-1.6,3.4
				C1096.7,913.5,1096.5,913.9,1096.1,914.5z"/>
		</g>
	</g>
	<g id="eThpVe.tif_18_" class="st16">
		<g>
			<path d="M1039.5,889.8c-1,0.4-1.8,0.8-2.8,1c-1,0.4-2,0.6-2.8,1l-0.2,0c-1.5,0.9-3.4,0.9-5,1.4c-0.8,0.4-1.8,0.8-2.5,1.1
				c-1,0.4-2,0.6-3.2,1.1c-0.8,0.2-1.4,0.5-2.2,0.7c-1.2,0.2-2.2,0.4-3.5,0.5l0-0.2c0.2-0.2,0.5-0.5,0.7-0.6
				c0.5-0.5,1.1-1.1,1.6-1.4c0.8-0.4,1.8-0.8,2.5-1.1c1-0.4,2.2-0.9,3.1-1.3c0.2,0,0.4-0.1,0.6-0.1c0.4-0.1,1-0.4,1.3-0.7
				c0.5-0.5,1.3-0.9,1.9-1c1.4-0.3,2.8-0.8,4-1.4c0.8-0.4,1.8-0.6,2.6-0.9c0.2,0,0.4-0.1,0.6-0.1c-1-0.7-1.9-1.1-2.8-1.4
				c-1.6-0.3-2.9-0.5-4.5-1c-0.7-0.3-1.4-0.6-2.1-0.9c-0.2,0-0.2-0.2-0.5-0.3c-1.3-0.4-1.4-0.6-1.8-1.8c1.1,0,1.9,0,3,0
				c1.3,0,2.8,0.1,4,0c0.4-0.1,0.9,0,1.1,0.2c1.4,0.8,2.7,0.9,4.3,1.3c0.9,0.2,1.8,0.7,2.7,0.9c0.4,0.1,0.7,0.5,1,0.7
				c0.5,0.3,0.9,0,1.2-0.2c0.6-0.1,1-0.4,1.6-0.5c1.2-0.2,2.3-1.1,3.3-1.7c1.3-0.7,2.5-1.6,3.8-2c1.2-0.4,2.4-0.7,3.6-0.9
				c-0.9,1.7-2.1,3.2-4.1,4c-1.6,0.5-2.9,1.6-4.2,2.5c-1.1,0.7-2,1.5-3.2,2.1c-0.9,0.6-1.6,1.4-2.1,2.3c-0.9,1.9-2.3,3.4-3.4,5.1
				c-1.4,1.8-3.2,3.2-5,4.6c-0.4,0.3-0.7,0.8-1.1,1.1c-0.8,0.4-1.6,0.7-2.3,1.1c-0.2-0.8,0-1.3,0.3-1.8c1.4-1.6,2.8-3.1,4-4.6
				c0.4-0.3,0.5-0.7,0.8-1.2c0.2-0.2,0.3-0.5,0.7-0.6c0.4-0.3,0.7-0.6,0.9-0.8c1-1.3,1.8-2.5,2.9-3.6
				C1039.4,890.4,1039.4,890.2,1039.5,889.8C1039.5,890,1039.5,890,1039.5,889.8z"/>
			<path d="M1041.4,946.6c-0.3-0.6-0.8-0.9-0.9-1.3c-0.2-1-0.4-2-0.4-3.1c0-1.3,0.1-2.6,0.3-3.7c0.1-1.5,0.5-3.1,0-4.5
				c-0.3,0.5-0.5,0.7-0.7,1c-0.5,0.5-0.8,1.2-1.4,1.8c-1.1,1.1-2.1,2.1-2.7,3.5c-0.3,0.7-0.9,1-1.6,1.4c-0.4,0.3-0.5,0.5-0.9,0.8
				c-0.5,0.5-1,1.3-1.6,1.8c-0.9,1-1.9,2.1-2.8,3.1c-0.4,0.3-0.7,0.6-1.1,0.9c-0.6,0.3-1.3,0.9-1.9,1.2c0,0,0,0-0.2-0.2
				c0.2-0.2,0.3-0.7,0.5-0.9c0.8-1.4,1.8-2.7,2.8-4.2c1-1.5,2-2.5,3.3-3.6c0.4-0.3,0.5-0.7,0.8-1.2c0.5-0.7,0.9-1.7,1.4-2.4
				c0.2-0.2,0.5-0.5,0.9-1c0.3-0.5,0.7-1,1-1.5c0.7-0.8,1.6-1.8,2.3-2.6c0.4-0.3,0.5-0.7,0.9-1l0-0.2c-0.4,0.1-0.8,0.4-1.2,0.4
				c-1,0.4-2,0.8-2.9,1.2c-0.8,0.4-1.6,0.5-2.1,1.1c-0.2,0.2-0.4,0.3-0.6,0.3c-0.7-0.1-1.2,0.2-2,0.6c-1.8,0.8-3.6,1.3-5.3,2.1
				c-0.6,0.1-1,0.2-1.6-0.3c0.5-0.7,0.9-1.7,1.9-2.1c1.8-0.6,3.2-2.1,5-2.7c1.6-0.7,3.4-1.3,4.9-1.8c1.6-0.5,3.3-0.7,4.6-1.3
				c0.8-0.4,1.5-0.9,2.2-1.5s1.5-0.9,2.2-1.7c1.3-1.1,2.4-2,3.6-3.1c1.1-1.1,2-1.9,3.6-2.2c0.4-0.1,1-0.2,1.6-0.3
				c-0.3,0.5-0.5,0.7-0.6,1.2c-1.1,1.7-2.5,3.3-4.2,4.7c-0.9,0.6-1.6,1.4-2.5,2.2c-0.2,0.2-0.3,0.5-0.5,0.7
				c-0.3,0.5-0.9,0.8-1.2,1.3c-0.4,0.3-0.5,0.7-0.4,1.1c0.5,1.4,0.6,2.9,0.2,4.4c-0.2,0.9-0.2,2-0.3,2.8c0.2,1.2-0.2,2.4-0.6,3.5
				c-0.4,1.1-0.8,2.5-1,3.6C1041.8,945.5,1041.7,945.9,1041.4,946.6z"/>
		</g>
	</g>
	<g id="eThpVe.tif_19_" class="st17">
		<g>
			<path d="M976.8,921.8c-1,0.4-1.8,0.8-2.8,1c-1,0.4-2,0.6-2.8,1l-0.2,0c-1.5,0.9-3.4,0.9-5,1.4c-0.8,0.4-1.8,0.8-2.5,1.1
				c-1,0.4-2,0.6-3.2,1.1c-0.8,0.2-1.4,0.5-2.2,0.7c-1.2,0.2-2.2,0.4-3.5,0.5l0-0.2c0.2-0.2,0.5-0.5,0.7-0.6
				c0.5-0.5,1.1-1.1,1.6-1.4c0.8-0.4,1.8-0.8,2.5-1.1c1-0.4,2.2-0.9,3.1-1.3c0.2,0,0.4-0.1,0.6-0.1c0.4-0.1,1-0.4,1.3-0.7
				c0.5-0.5,1.3-0.9,1.9-1c1.4-0.3,2.8-0.8,4-1.4c0.8-0.4,1.8-0.6,2.6-0.9c0.2,0,0.4-0.1,0.6-0.1c-1-0.7-1.9-1.1-2.8-1.4
				c-1.6-0.3-2.9-0.5-4.5-1c-0.7-0.3-1.4-0.6-2.1-0.9c-0.2,0-0.2-0.2-0.5-0.3c-1.3-0.4-1.4-0.6-1.8-1.8c1.1,0,1.9,0,3,0
				c1.3,0,2.8,0.1,4,0c0.4-0.1,0.9,0,1.1,0.2c1.4,0.8,2.7,0.9,4.3,1.3c0.9,0.2,1.8,0.7,2.7,0.9c0.4,0.1,0.7,0.5,1,0.7
				c0.5,0.3,0.9,0,1.2-0.2c0.6-0.1,1-0.4,1.6-0.5c1.2-0.2,2.3-1.1,3.3-1.7c1.3-0.7,2.5-1.6,3.8-2c1.2-0.4,2.4-0.7,3.6-0.9
				c-0.9,1.7-2.1,3.2-4.1,4c-1.6,0.5-2.9,1.6-4.2,2.5c-1.1,0.7-2,1.5-3.2,2.1c-0.9,0.6-1.6,1.4-2.1,2.3c-0.9,1.9-2.3,3.4-3.4,5.1
				c-1.4,1.8-3.2,3.2-5,4.6c-0.4,0.3-0.7,0.8-1.1,1.1c-0.8,0.4-1.6,0.7-2.3,1.1c-0.2-0.8,0-1.3,0.3-1.8c1.4-1.6,2.8-3.1,4-4.6
				c0.4-0.3,0.5-0.7,0.8-1.2c0.2-0.2,0.3-0.5,0.7-0.6c0.4-0.3,0.7-0.6,0.9-0.8c1-1.3,1.8-2.5,2.9-3.6
				C976.7,922.4,976.7,922.2,976.8,921.8C976.9,922,976.9,922,976.8,921.8z"/>
			<path d="M978.8,978.6c-0.3-0.6-0.8-0.9-0.9-1.3c-0.2-1-0.4-2-0.4-3.1c0-1.3,0.1-2.6,0.3-3.7c0.1-1.5,0.5-3.1,0-4.5
				c-0.3,0.5-0.5,0.7-0.7,1c-0.5,0.5-0.8,1.2-1.4,1.8c-1.1,1.1-2.1,2.1-2.7,3.5c-0.3,0.7-0.9,1-1.6,1.4c-0.4,0.3-0.5,0.5-0.9,0.8
				c-0.5,0.5-1,1.3-1.6,1.8c-0.9,1-1.9,2.1-2.8,3.1c-0.4,0.3-0.7,0.6-1.1,0.9c-0.6,0.3-1.3,0.9-1.9,1.2c0,0,0,0-0.2-0.2
				c0.2-0.2,0.3-0.7,0.5-0.9c0.8-1.4,1.8-2.7,2.8-4.2c1-1.5,2-2.5,3.3-3.6c0.4-0.3,0.5-0.7,0.8-1.2c0.5-0.7,0.9-1.7,1.4-2.4
				c0.2-0.2,0.5-0.5,0.9-1c0.3-0.5,0.7-1,1-1.5c0.7-0.8,1.6-1.8,2.3-2.6c0.4-0.3,0.5-0.7,0.9-1l0-0.2c-0.4,0.1-0.8,0.4-1.2,0.4
				c-1,0.4-2,0.8-2.9,1.2c-0.8,0.4-1.6,0.5-2.1,1.1c-0.2,0.2-0.4,0.3-0.6,0.3c-0.7-0.1-1.2,0.2-2,0.6c-1.8,0.8-3.6,1.3-5.3,2.1
				c-0.6,0.1-1,0.2-1.6-0.3c0.5-0.7,0.9-1.7,1.9-2.1c1.8-0.6,3.2-2.1,5-2.7c1.6-0.7,3.4-1.3,4.9-1.8c1.6-0.5,3.3-0.7,4.6-1.3
				c0.8-0.4,1.5-0.9,2.2-1.5c0.7-0.6,1.5-0.9,2.2-1.7c1.3-1.1,2.4-2,3.6-3.1c1.1-1.1,2-1.9,3.6-2.2c0.4-0.1,1-0.2,1.6-0.3
				c-0.3,0.5-0.5,0.7-0.6,1.2c-1.1,1.7-2.5,3.3-4.2,4.7c-0.9,0.6-1.6,1.4-2.5,2.2c-0.2,0.2-0.3,0.5-0.5,0.7
				c-0.3,0.5-0.9,0.8-1.2,1.3c-0.4,0.3-0.5,0.7-0.4,1.1c0.5,1.4,0.6,2.9,0.2,4.4c-0.2,0.9-0.2,2-0.3,2.8c0.2,1.2-0.2,2.4-0.6,3.5
				c-0.4,1.1-0.8,2.5-1,3.6C979.2,977.5,979,977.9,978.8,978.6z"/>
		</g>
	</g>
</g>
<g id="Layer_2">
	<linearGradient id="SVGID_3_" gradientUnits="userSpaceOnUse" x1="626.8995" y1="1526.9448" x2="799.2162" y2="780.5591">
		<stop  offset="0" style="stop-color:#697300"/>
		<stop  offset="0.5109" style="stop-color:#687202"/>
		<stop  offset="0.695" style="stop-color:#636D09"/>
		<stop  offset="0.8261" style="stop-color:#5A6514"/>
		<stop  offset="0.9315" style="stop-color:#4E5A25"/>
		<stop  offset="1" style="stop-color:#425035"/>
	</linearGradient>
	<path class="st18" d="M1440.5,1382V929.1c-4-3.7-29.2,0.6-33.5-1.8c-12.8-7.1-33.3,5.9-43.6,1.9c-142.4-56.1-293.3,11.2-436.2-22.9
		c-103.7-24.8-172.3-83.8-276.5-64c-24.7,4.7-78.7,9.2-102.7,18.8c-138.7,55.4-283.6,54.3-426.8,21.7c-22.4-5.1-89.4-47.7-107.9-38
		c-19,9.9-13.1,31.7-13.5,62.5C-0.8,955.1-0.9,1334-0.9,1382H1440.5z"/>
	<linearGradient id="SVGID_4_" gradientUnits="userSpaceOnUse" x1="150.1121" y1="1130.3413" x2="1440.467" y2="1130.3413">
		<stop  offset="0" style="stop-color:#B7A263"/>
		<stop  offset="1" style="stop-color:#877F4D"/>
	</linearGradient>
	<path class="st19" d="M386.3,906.3c485.1,282,1054.2,363.7,1054.2,363.7v101.9c-733,0-1290.4-483.2-1290.4-483.2
		c37.2,6.9,78.9,12.6,124.6,15.7C315,907.1,352.3,907.4,386.3,906.3z"/>
	<g id="eThpVe.tif_1_" class="st16">
		<g>
			<path d="M324.1,959.1c0.8,0.7,1.4,1.3,2,2.1c0.8,0.7,1.4,1.6,2,2.1l0.1,0.2c1.5,1,2.2,2.8,3.3,4c0.7,0.6,1.4,1.3,2.1,1.9
				c0.8,0.7,1.4,1.6,2.3,2.5c0.5,0.7,1,1.1,1.5,1.8c0.7,1,1.3,1.9,1.9,3l-0.2,0.1c-0.3-0.1-0.7-0.3-0.8-0.4
				c-0.7-0.3-1.4-0.5-1.9-0.9c-0.7-0.6-1.4-1.3-2.1-1.9c-0.8-0.7-1.7-1.6-2.4-2.4c-0.1-0.2-0.2-0.3-0.4-0.5c-0.2-0.3-0.8-0.7-1.2-1
				c-0.7-0.3-1.4-0.8-1.7-1.3c-0.8-1.2-1.9-2.3-2.9-3c-0.7-0.6-1.3-1.4-1.9-2c-0.1-0.2-0.2-0.3-0.4-0.5c-0.2,1.2-0.2,2.2-0.1,3.1
				c0.3,1.6,0.7,2.8,0.9,4.5c0,0.8,0,1.5,0.1,2.3c0.1,0.2-0.1,0.3-0.1,0.6c0.2,1.4,0,1.5-0.9,2.4c-0.4-1-0.7-1.8-1.2-2.7
				c-0.6-1.1-1.1-2.6-1.6-3.7c-0.2-0.3-0.3-0.8-0.3-1.1c0.1-1.6-0.2-2.9-0.6-4.4c-0.1-0.9-0.1-2-0.2-2.9c-0.1-0.5,0.2-0.9,0.2-1.2
				c0.1-0.6-0.3-0.8-0.7-1c-0.4-0.5-0.8-0.7-1.1-1.2c-0.7-1-2-1.7-2.9-2.3c-1.2-1-2.4-1.6-3.4-2.7c-0.9-0.9-1.6-1.9-2.3-2.9
				c1.9,0.2,3.8,0.7,5.3,2.1c1.1,1.2,2.7,2,4,2.8c1.1,0.8,2.2,1.3,3.2,2.1c0.9,0.6,1.9,0.9,3,1c2.1,0.1,4.1,0.7,6.1,1.1
				c2.2,0.5,4.2,1.6,6.3,2.7c0.4,0.2,1,0.3,1.4,0.5c0.7,0.6,1.3,1.1,2,1.7c-0.7,0.5-1.1,0.6-1.7,0.4c-2-0.6-4-1.3-5.8-1.8
				c-0.4-0.2-0.9-0.2-1.5-0.3c-0.3-0.1-0.6-0.1-0.8-0.4c-0.4-0.2-0.8-0.4-1.1-0.5c-1.6-0.4-3-0.7-4.4-1.2
				C324.8,958.9,324.6,959,324.1,959.1C324.3,959,324.3,959,324.1,959.1z"/>
			<path d="M394.7,948.3c-0.4,0.5-0.5,1.1-0.8,1.4c-0.9,0.6-1.7,1.2-2.7,1.6c-1.1,0.6-2.4,0.9-3.5,1.2c-1.4,0.5-3,0.8-4.1,1.8
				c0.6,0.1,0.9,0.2,1.2,0.2c0.7,0.3,1.5,0.3,2.2,0.5c1.4,0.5,2.8,1.1,4.3,1c0.8,0,1.3,0.4,1.9,0.9c0.4,0.2,0.7,0.3,1.1,0.5
				c0.7,0.3,1.6,0.4,2.3,0.7c1.3,0.4,2.7,0.9,4,1.3c0.4,0.2,0.8,0.4,1.2,0.7c0.5,0.4,1.4,0.8,1.9,1.2c0,0,0,0-0.1,0.3
				c-0.3-0.1-0.8,0-1,0c-1.6-0.1-3.2-0.6-4.9-0.9c-1.7-0.3-3.1-0.8-4.7-1.6c-0.4-0.2-0.9-0.2-1.5-0.3c-0.9-0.2-1.9-0.2-2.8-0.3
				c-0.3-0.1-0.7-0.3-1.3-0.4c-0.6-0.1-1.2-0.2-1.7-0.3c-1-0.3-2.3-0.7-3.3-1c-0.4-0.2-0.9-0.2-1.3-0.4l-0.2,0.1
				c0.2,0.3,0.7,0.6,0.9,0.9c0.8,0.7,1.5,1.5,2.3,2.2c0.7,0.6,1.1,1.2,1.8,1.5c0.3,0.1,0.4,0.2,0.5,0.4c0.2,0.6,0.7,1,1.4,1.6
				c1.4,1.3,2.7,2.7,4.1,4c0.4,0.5,0.6,0.9,0.3,1.6c-0.9-0.2-1.9-0.2-2.7-0.9c-1.3-1.4-3.2-2.1-4.5-3.5c-1.3-1.1-2.6-2.5-3.7-3.8
				c-1.1-1.2-1.9-2.7-3.1-3.7c-0.7-0.6-1.5-1-2.3-1.4c-0.8-0.4-1.5-1-2.5-1.3c-1.5-0.7-2.8-1.4-4.3-2.1c-1.4-0.5-2.5-1-3.5-2.4
				c-0.2-0.3-0.6-0.9-1-1.4c0.6,0.1,0.9,0.2,1.3,0.1c2,0.4,4,1,6,1.9c0.9,0.6,1.9,0.9,3,1.4c0.3,0.1,0.6,0.1,0.9,0.2
				c0.6,0.1,1.1,0.5,1.7,0.6c0.4,0.2,0.9,0.2,1.2-0.1c1.1-1,2.4-1.7,3.9-2c0.9-0.1,1.9-0.6,2.7-0.9c1-0.7,2.2-0.8,3.4-0.9
				c1.2-0.1,2.6-0.3,3.7-0.6C393.5,948.4,393.9,948.3,394.7,948.3z"/>
		</g>
	</g>
	<g id="eThpVe.tif_2_" class="st16">
		<g>
			<path d="M387.3,1006.6c0.8,0.7,1.4,1.3,2,2.1c0.8,0.7,1.4,1.6,2,2.1l0.1,0.2c1.5,1,2.2,2.8,3.3,4c0.7,0.6,1.4,1.3,2.1,1.9
				c0.8,0.7,1.4,1.6,2.3,2.5c0.5,0.7,1,1.1,1.5,1.8c0.7,1,1.3,1.9,1.9,3l-0.2,0.1c-0.3-0.1-0.7-0.3-0.8-0.4
				c-0.7-0.3-1.4-0.5-1.9-0.9c-0.7-0.6-1.4-1.3-2.1-1.9c-0.8-0.7-1.7-1.6-2.4-2.4c-0.1-0.2-0.2-0.3-0.4-0.5c-0.2-0.3-0.8-0.7-1.2-1
				c-0.7-0.3-1.4-0.8-1.7-1.3c-0.8-1.2-1.9-2.3-2.9-3c-0.7-0.6-1.3-1.4-1.9-2c-0.1-0.2-0.2-0.3-0.4-0.5c-0.2,1.2-0.2,2.2-0.1,3.1
				c0.3,1.6,0.7,2.8,0.9,4.5c0,0.8,0,1.5,0.1,2.3c0.1,0.2-0.1,0.3-0.1,0.6c0.2,1.4,0,1.5-0.9,2.4c-0.4-1-0.7-1.8-1.2-2.7
				c-0.6-1.1-1.1-2.6-1.6-3.7c-0.2-0.3-0.3-0.8-0.3-1.1c0.1-1.6-0.2-2.9-0.6-4.4c-0.1-0.9-0.1-2-0.2-2.9c-0.1-0.5,0.2-0.9,0.2-1.2
				c0.1-0.6-0.3-0.8-0.7-1c-0.4-0.5-0.8-0.7-1.1-1.2c-0.7-1-2-1.7-2.9-2.3c-1.2-1-2.4-1.6-3.4-2.7c-0.9-0.9-1.6-1.9-2.3-2.9
				c1.9,0.2,3.8,0.7,5.3,2.1c1.1,1.2,2.7,2,4,2.8c1.1,0.8,2.2,1.3,3.2,2.1c0.9,0.6,1.9,0.9,3,1c2.1,0.1,4.1,0.7,6.1,1.1
				c2.2,0.5,4.2,1.6,6.3,2.7c0.4,0.2,1,0.3,1.4,0.5c0.7,0.6,1.3,1.1,2,1.7c-0.7,0.5-1.1,0.6-1.7,0.4c-2-0.6-4-1.3-5.8-1.8
				c-0.4-0.2-0.9-0.2-1.5-0.3c-0.3-0.1-0.6-0.1-0.8-0.4c-0.4-0.2-0.8-0.4-1.1-0.5c-1.6-0.4-3-0.7-4.4-1.2
				C388,1006.5,387.8,1006.6,387.3,1006.6C387.5,1006.5,387.5,1006.5,387.3,1006.6z"/>
			<path d="M457.9,995.9c-0.4,0.5-0.5,1.1-0.8,1.4c-0.9,0.6-1.7,1.2-2.7,1.6c-1.1,0.6-2.4,0.9-3.5,1.2c-1.4,0.5-3,0.8-4.1,1.8
				c0.6,0.1,0.9,0.2,1.2,0.2c0.7,0.3,1.5,0.3,2.2,0.5c1.4,0.5,2.8,1.1,4.3,1c0.8,0,1.3,0.4,1.9,0.9c0.4,0.2,0.7,0.3,1.1,0.5
				c0.7,0.3,1.6,0.4,2.3,0.7c1.3,0.4,2.7,0.9,4,1.3c0.4,0.2,0.8,0.4,1.2,0.7c0.5,0.4,1.4,0.8,1.9,1.2c0,0,0,0-0.1,0.3
				c-0.3-0.1-0.8,0-1,0c-1.6-0.1-3.2-0.6-4.9-0.9c-1.7-0.3-3.1-0.8-4.7-1.6c-0.4-0.2-0.9-0.2-1.5-0.3c-0.9-0.2-1.9-0.2-2.8-0.3
				c-0.3-0.1-0.7-0.3-1.3-0.4c-0.6-0.1-1.2-0.2-1.7-0.3c-1-0.3-2.3-0.7-3.3-1c-0.4-0.2-0.9-0.2-1.3-0.4l-0.2,0.1
				c0.2,0.3,0.7,0.6,0.9,0.9c0.8,0.7,1.5,1.5,2.3,2.2c0.7,0.6,1.1,1.2,1.8,1.5c0.3,0.1,0.4,0.2,0.5,0.4c0.2,0.6,0.7,1,1.4,1.6
				c1.4,1.3,2.7,2.7,4.1,4c0.4,0.5,0.6,0.9,0.3,1.6c-0.9-0.2-1.9-0.2-2.7-0.9c-1.3-1.4-3.2-2.1-4.5-3.5c-1.3-1.1-2.6-2.5-3.7-3.8
				c-1.1-1.2-1.9-2.7-3.1-3.7c-0.7-0.6-1.5-1-2.3-1.4s-1.5-1-2.5-1.3c-1.5-0.7-2.8-1.4-4.3-2.1c-1.4-0.5-2.5-1-3.5-2.4
				c-0.2-0.3-0.6-0.9-1-1.4c0.6,0.1,0.9,0.2,1.3,0.1c2,0.4,4,1,6,1.9c0.9,0.6,1.9,0.9,3,1.4c0.3,0.1,0.6,0.1,0.9,0.2
				c0.6,0.1,1.1,0.5,1.7,0.6c0.4,0.2,0.9,0.2,1.2-0.1c1.1-1,2.4-1.7,3.9-2c0.9-0.1,1.9-0.6,2.7-0.9c1-0.7,2.2-0.8,3.4-0.9
				c1.2-0.1,2.6-0.3,3.7-0.6C456.7,996,457.1,995.9,457.9,995.9z"/>
		</g>
	</g>
	<g id="eThpVe.tif_3_" class="st16">
		<g>
			<path d="M462.1,1053.1c1,0.8,1.8,1.4,2.5,2.3c1,0.8,1.7,1.7,2.5,2.3l0.2,0.2c1.8,1,2.8,3,4.2,4.3c0.8,0.6,1.8,1.4,2.6,2
				c1,0.8,1.7,1.7,2.8,2.7c0.6,0.7,1.3,1.1,1.9,1.9c0.9,1.1,1.7,2,2.4,3.3l-0.2,0.2c-0.3,0-0.8-0.2-1-0.4c-0.8-0.2-1.7-0.5-2.3-0.9
				c-0.8-0.6-1.8-1.4-2.6-2c-1-0.8-2.1-1.7-3-2.5c-0.2-0.2-0.3-0.4-0.5-0.6c-0.3-0.4-1-0.8-1.5-1c-0.8-0.2-1.6-0.8-2.1-1.4
				c-1.1-1.3-2.3-2.5-3.6-3.3c-0.8-0.6-1.6-1.5-2.4-2.1c-0.2-0.2-0.3-0.4-0.5-0.6c-0.1,1.4-0.1,2.6,0.2,3.6c0.5,1.8,1.1,3.2,1.4,5.1
				c0.1,0.9,0.2,1.7,0.3,2.6c0.2,0.2,0,0.3-0.1,0.7c0.4,1.6,0.2,1.7-0.8,2.8c-0.6-1.1-1-2-1.6-3.1c-0.7-1.3-1.4-2.9-2.2-4.2
				c-0.3-0.4-0.4-0.9-0.4-1.2c0-1.9-0.5-3.3-1.1-5.1c-0.2-1.1-0.3-2.3-0.5-3.3c-0.1-0.5,0.1-1,0.1-1.4c0.1-0.7-0.4-0.9-0.9-1.1
				c-0.5-0.6-1-0.8-1.4-1.3c-0.9-1.1-2.4-1.8-3.6-2.4c-1.5-1-2.9-1.6-4.2-2.8c-1.1-1-2-2.1-3-3.2c2.2,0,4.4,0.4,6.3,2
				c1.4,1.3,3.2,2,4.9,2.9c1.3,0.8,2.6,1.3,3.9,2.1c1.1,0.6,2.3,0.9,3.5,0.8c2.4-0.1,4.8,0.4,7.2,0.7c2.5,0.4,5,1.5,7.5,2.6
				c0.5,0.2,1.2,0.3,1.7,0.5c0.8,0.6,1.6,1.2,2.4,1.8c-0.7,0.6-1.3,0.7-2,0.7c-2.4-0.6-4.7-1.1-6.9-1.5c-0.5-0.2-1-0.1-1.7-0.2
				c-0.3,0-0.7-0.1-1-0.4c-0.5-0.2-1-0.4-1.3-0.5c-1.9-0.3-3.6-0.5-5.2-1C462.8,1052.9,462.6,1053,462.1,1053.1
				C462.2,1053,462.2,1053,462.1,1053.1z"/>
			<path d="M542.7,1034.3c-0.4,0.6-0.5,1.3-0.8,1.6c-0.9,0.8-1.9,1.5-2.9,2.1c-1.3,0.7-2.7,1.3-3.9,1.7c-1.6,0.7-3.4,1.2-4.5,2.5
				c0.7,0.1,1,0.1,1.4,0.1c0.8,0.2,1.7,0.2,2.5,0.4c1.7,0.5,3.3,1,5.1,0.8c0.9-0.1,1.5,0.3,2.3,0.9c0.5,0.2,0.8,0.2,1.3,0.5
				c0.8,0.2,1.9,0.3,2.7,0.6c1.5,0.3,3.2,0.8,4.7,1.1c0.5,0.2,1,0.4,1.5,0.7c0.6,0.4,1.6,0.8,2.3,1.2c0,0,0,0,0,0.3
				c-0.3,0-0.9,0.1-1.2,0.1c-1.9,0-3.7-0.3-5.8-0.5c-2-0.2-3.7-0.7-5.5-1.4c-0.5-0.2-1-0.1-1.7-0.2c-1-0.1-2.2,0-3.3-0.1
				c-0.3,0-0.8-0.2-1.5-0.3c-0.7-0.1-1.4-0.1-2-0.2c-1.2-0.3-2.7-0.6-3.9-0.9c-0.5-0.2-1-0.1-1.5-0.3l-0.2,0.2
				c0.3,0.4,0.8,0.6,1.1,1c1,0.8,1.9,1.6,2.9,2.3c0.8,0.6,1.4,1.3,2.3,1.6c0.3,0,0.5,0.2,0.6,0.4c0.3,0.7,0.9,1.1,1.7,1.7
				c1.8,1.4,3.3,2.9,5.1,4.3c0.5,0.6,0.8,0.9,0.5,1.8c-1-0.1-2.2,0-3.2-0.8c-1.6-1.5-3.9-2.1-5.5-3.6c-1.6-1.2-3.2-2.7-4.6-4
				c-1.4-1.3-2.5-3-3.9-4c-0.8-0.6-1.8-1-2.8-1.5s-1.8-1-3-1.3c-1.8-0.7-3.3-1.3-5.1-2c-1.7-0.5-3-1-4.2-2.5
				c-0.3-0.4-0.8-0.9-1.2-1.5c0.7,0.1,1,0.1,1.5,0c2.4,0.2,4.7,0.8,7.1,1.7c1.1,0.6,2.3,0.9,3.7,1.4c0.3,0,0.7,0.1,1,0.1
				c0.7,0.1,1.3,0.5,2,0.5c0.5,0.2,1,0.1,1.4-0.2c1.1-1.3,2.6-2.2,4.4-2.7c1.1-0.2,2.1-0.8,3-1.3c1.1-0.9,2.5-1.1,3.9-1.4
				c1.4-0.2,3-0.6,4.2-1C541.3,1034.5,541.8,1034.4,542.7,1034.3z"/>
		</g>
	</g>
	<g id="eThpVe.tif_4_" class="st16">
		<g>
			<path d="M550.8,1099.2c0.9,0.9,1.7,1.6,2.4,2.6c0.9,0.9,1.7,1.9,2.4,2.6l0.1,0.2c1.8,1.2,2.7,3.3,4,4.8c0.8,0.7,1.7,1.6,2.5,2.2
				c0.9,0.9,1.7,1.9,2.7,3c0.6,0.8,1.2,1.3,1.8,2.1c0.9,1.2,1.6,2.3,2.3,3.6l-0.2,0.1c-0.4-0.1-0.8-0.3-1-0.5
				c-0.8-0.3-1.7-0.7-2.3-1.1c-0.8-0.7-1.7-1.6-2.5-2.2c-0.9-0.9-2-2-2.9-2.9c-0.1-0.2-0.3-0.4-0.4-0.6c-0.3-0.4-0.9-0.9-1.4-1.1
				c-0.8-0.3-1.6-1-2.1-1.6c-1-1.4-2.2-2.7-3.5-3.7c-0.8-0.7-1.5-1.7-2.3-2.4c-0.1-0.2-0.3-0.4-0.4-0.6c-0.2,1.4-0.3,2.7-0.1,3.8
				c0.4,1.9,0.9,3.4,1,5.4c0,0.9,0,1.8,0.1,2.7c0.1,0.2-0.1,0.4-0.1,0.7c0.3,1.7,0,1.8-1,2.9c-0.5-1.2-0.9-2.1-1.4-3.3
				c-0.7-1.4-1.3-3.1-1.9-4.5c-0.3-0.4-0.4-1-0.3-1.3c0.2-2-0.3-3.5-0.7-5.4c-0.2-1.1-0.1-2.4-0.3-3.5c-0.1-0.6,0.2-1.1,0.2-1.4
				c0.1-0.7-0.4-1-0.9-1.2c-0.4-0.6-0.9-0.9-1.4-1.5c-0.9-1.2-2.4-2-3.5-2.8c-1.4-1.1-2.9-1.9-4.1-3.2c-1.1-1.1-1.9-2.3-2.8-3.6
				c2.3,0.2,4.6,0.8,6.4,2.6c1.4,1.5,3.2,2.4,4.8,3.4c1.3,0.9,2.6,1.5,3.9,2.5c1.1,0.7,2.3,1.1,3.6,1.2c2.5,0.1,4.9,0.8,7.4,1.3
				c2.6,0.6,5.1,2,7.5,3.3c0.5,0.3,1.2,0.4,1.7,0.7c0.8,0.7,1.6,1.4,2.4,2c-0.8,0.6-1.4,0.7-2.1,0.5c-2.4-0.8-4.8-1.5-7-2.1
				c-0.5-0.3-1.1-0.2-1.8-0.3c-0.4-0.1-0.7-0.1-1-0.5c-0.5-0.3-1-0.5-1.3-0.6c-1.9-0.5-3.6-0.8-5.3-1.5
				C551.6,1098.9,551.4,1099.1,550.8,1099.2C551,1099,551,1099,550.8,1099.2z"/>
			<path d="M635.9,1086.2c-0.5,0.6-0.6,1.3-1,1.6c-1,0.7-2.1,1.4-3.2,2c-1.4,0.7-2.9,1.1-4.2,1.4c-1.7,0.6-3.6,1-4.9,2.2
				c0.7,0.1,1.1,0.2,1.4,0.2c0.8,0.3,1.8,0.3,2.6,0.6c1.7,0.7,3.4,1.3,5.2,1.3c0.9,0,1.5,0.4,2.3,1.1c0.5,0.3,0.8,0.3,1.3,0.6
				c0.8,0.3,1.9,0.5,2.7,0.8c1.5,0.4,3.2,1.1,4.8,1.5c0.5,0.3,1,0.5,1.5,0.8c0.6,0.5,1.6,1,2.3,1.5c0,0,0,0-0.1,0.4
				c-0.4-0.1-0.9,0-1.3,0c-2-0.2-3.9-0.7-6-1c-2.1-0.4-3.8-1-5.6-1.9c-0.5-0.3-1.1-0.2-1.8-0.3c-1.1-0.2-2.3-0.2-3.4-0.4
				c-0.4-0.1-0.8-0.3-1.5-0.4c-0.7-0.1-1.4-0.2-2.1-0.4c-1.2-0.4-2.7-0.8-3.9-1.2c-0.5-0.3-1.1-0.2-1.5-0.4l-0.2,0.1
				c0.3,0.4,0.8,0.7,1.1,1.1c0.9,0.9,1.9,1.8,2.8,2.6c0.8,0.7,1.4,1.5,2.2,1.8c0.4,0.1,0.5,0.3,0.6,0.5c0.2,0.8,0.9,1.2,1.7,1.9
				c1.7,1.6,3.2,3.3,4.9,4.8c0.4,0.6,0.7,1,0.4,1.9c-1.1-0.2-2.3-0.2-3.2-1.1c-1.5-1.7-3.9-2.5-5.4-4.2c-1.6-1.4-3.1-3.1-4.4-4.6
				c-1.4-1.5-2.3-3.3-3.7-4.4c-0.8-0.7-1.8-1.2-2.8-1.7c-1-0.5-1.8-1.2-3-1.6c-1.8-0.9-3.3-1.7-5.2-2.5c-1.7-0.7-3-1.2-4.2-2.9
				c-0.3-0.4-0.7-1-1.2-1.6c0.7,0.1,1.1,0.2,1.6,0.1c2.5,0.4,4.8,1.2,7.2,2.3c1.1,0.7,2.3,1.1,3.7,1.7c0.4,0.1,0.7,0.1,1.1,0.2
				c0.7,0.1,1.3,0.6,2,0.7c0.5,0.3,1.1,0.2,1.5-0.1c1.3-1.2,2.9-2,4.7-2.4c1.1-0.2,2.3-0.7,3.2-1.1c1.2-0.9,2.7-1,4.2-1.1
				c1.5-0.1,3.1-0.4,4.4-0.7C634.4,1086.3,635,1086.2,635.9,1086.2z"/>
		</g>
	</g>
	<g id="eThpVe.tif_5_" class="st16">
		<g>
			<path d="M654.1,1149.2c1.1,0.7,2,1.2,2.9,2.1c1.1,0.7,2,1.6,2.9,2.1l0.2,0.2c2,0.9,3.2,2.8,4.9,4c0.9,0.5,2,1.2,2.9,1.7
				c1.1,0.7,2,1.6,3.2,2.4c0.7,0.7,1.4,1,2.2,1.7c1.1,1,2,1.9,2.9,3.1l-0.2,0.2c-0.4,0-0.9-0.2-1.1-0.3c-0.9-0.2-1.8-0.3-2.5-0.7
				c-0.9-0.5-2-1.2-2.9-1.7c-1.1-0.7-2.3-1.6-3.4-2.3c-0.2-0.2-0.4-0.3-0.5-0.5c-0.4-0.3-1.1-0.7-1.6-0.9c-0.9-0.2-1.8-0.7-2.3-1.2
				c-1.3-1.2-2.7-2.3-4.1-3c-0.9-0.5-1.8-1.4-2.7-1.9c-0.2-0.2-0.4-0.3-0.5-0.5c0,1.4,0.2,2.7,0.6,3.7c0.7,1.8,1.5,3.2,2,5.1
				c0.2,0.9,0.4,1.8,0.6,2.7c0.2,0.2,0,0.4,0,0.7c0.6,1.6,0.4,1.8-0.5,3c-0.7-1.1-1.3-1.9-2-3c-0.9-1.2-1.8-2.8-2.7-4
				c-0.4-0.3-0.5-0.9-0.6-1.2c-0.2-2-0.9-3.4-1.7-5.1c-0.4-1.1-0.6-2.3-0.9-3.4c-0.2-0.5,0-1.1,0-1.4c0-0.7-0.5-0.9-1.1-1
				c-0.5-0.5-1.1-0.7-1.6-1.2c-1.1-1-2.7-1.6-3.9-2.1c-1.6-0.9-3.2-1.4-4.7-2.4c-1.3-0.9-2.3-1.9-3.4-3c2.3-0.2,4.6-0.1,6.8,1.3
				c1.6,1.2,3.6,1.7,5.4,2.4c1.4,0.7,2.9,1,4.3,1.7c1.3,0.5,2.5,0.7,3.7,0.5c2.5-0.4,5-0.1,7.5-0.1c2.7,0.1,5.3,1,8,1.8
				c0.5,0.2,1.2,0.2,1.8,0.3c0.9,0.5,1.8,1,2.7,1.6c-0.7,0.7-1.2,0.9-1.9,0.9c-2.5-0.3-5-0.6-7.3-0.8c-0.5-0.2-1.1,0-1.8,0
				c-0.4,0-0.7,0-1.1-0.3c-0.5-0.2-1.1-0.3-1.4-0.3c-2-0.1-3.7-0.1-5.5-0.4C654.8,1148.9,654.6,1149,654.1,1149.2
				C654.2,1149,654.2,1149,654.1,1149.2z"/>
			<path d="M735.2,1120.5c-0.3,0.7-0.3,1.4-0.7,1.8c-0.9,0.9-1.7,1.8-2.8,2.5c-1.2,0.9-2.6,1.6-3.9,2.2c-1.6,0.9-3.3,1.7-4.4,3.1
				c0.7,0,1.1,0,1.4,0c0.9,0.2,1.8,0,2.7,0.1c1.8,0.3,3.6,0.6,5.3,0.3c0.9-0.2,1.6,0.1,2.5,0.7c0.5,0.2,0.9,0.2,1.4,0.3
				c0.9,0.2,2,0.1,2.8,0.3c1.6,0.2,3.4,0.5,5,0.6c0.5,0.2,1.1,0.3,1.6,0.5c0.7,0.3,1.8,0.7,2.5,1c0,0,0,0,0,0.4
				c-0.4,0-0.9,0.2-1.2,0.2c-2,0.2-3.9,0.1-6,0.1c-2.1,0-3.9-0.3-5.9-0.8c-0.5-0.2-1.1,0-1.8,0c-1.1,0-2.3,0.2-3.4,0.2
				c-0.4,0-0.9-0.2-1.6-0.1c-0.7,0-1.4,0-2.1,0c-1.2-0.2-2.8-0.3-4.1-0.5c-0.5-0.2-1.1,0-1.6-0.1l-0.2,0.2c0.4,0.3,0.9,0.5,1.3,0.9
				c1.1,0.7,2.2,1.4,3.2,2.1c0.9,0.5,1.6,1.2,2.5,1.4c0.4,0,0.5,0.2,0.7,0.3c0.4,0.7,1.1,1,2,1.6c2,1.2,3.8,2.6,5.8,3.8
				c0.5,0.5,0.9,0.9,0.7,1.8c-1.1,0-2.3,0.2-3.4-0.5c-1.8-1.4-4.3-1.7-6.1-3.1c-1.8-1-3.6-2.4-5.2-3.6c-1.6-1.2-2.9-2.8-4.5-3.7
				c-0.9-0.5-2-0.9-3-1.2s-2-0.9-3.2-1c-2-0.5-3.6-1-5.5-1.5c-1.8-0.3-3.2-0.7-4.7-2.1c-0.4-0.3-0.9-0.9-1.4-1.4
				c0.7,0,1.1,0,1.6-0.2c2.5,0,5,0.3,7.5,0.9c1.3,0.5,2.5,0.7,3.9,1c0.4,0,0.7,0,1.1,0c0.7,0,1.4,0.3,2.1,0.3c0.5,0.2,1.1,0,1.4-0.4
				c1-1.4,2.4-2.5,4.2-3.3c1.1-0.4,2.1-1.1,3-1.7c1-1.1,2.5-1.5,3.9-1.8c1.4-0.4,3-0.9,4.2-1.5
				C733.8,1120.9,734.3,1120.7,735.2,1120.5z"/>
		</g>
	</g>
	<g id="eThpVe.tif_6_" class="st16">
		<g>
			<path d="M744.6,1192.1c1.1,0.6,2,1.1,3,1.9c1.1,0.6,2.1,1.5,3,1.9l0.2,0.2c2,0.8,3.4,2.6,5,3.8c0.9,0.5,2,1.1,3,1.6
				c1.1,0.6,2.1,1.5,3.4,2.3c0.8,0.7,1.5,1,2.2,1.6c1.1,1,2.1,1.8,3,3l-0.2,0.2c-0.4,0-0.9-0.1-1.1-0.3c-0.9-0.1-1.8-0.2-2.5-0.6
				c-0.9-0.5-2-1.1-3-1.6c-1.1-0.6-2.4-1.5-3.5-2.1c-0.2-0.2-0.4-0.3-0.6-0.5c-0.4-0.3-1.1-0.6-1.7-0.8c-0.9-0.1-1.8-0.6-2.4-1.1
				c-1.3-1.2-2.8-2.1-4.3-2.8c-0.9-0.5-1.9-1.3-2.8-1.8c-0.2-0.2-0.4-0.3-0.6-0.5c0.1,1.4,0.3,2.6,0.8,3.7c0.8,1.7,1.6,3.1,2.3,5
				c0.2,0.9,0.5,1.8,0.7,2.6c0.2,0.2,0,0.4,0,0.7c0.6,1.6,0.5,1.8-0.3,3c-0.8-1-1.4-1.9-2.1-2.9c-1-1.2-2-2.7-2.9-3.9
				c-0.4-0.3-0.6-0.9-0.6-1.2c-0.3-1.9-1.1-3.3-1.9-5c-0.4-1-0.7-2.3-1.1-3.3c-0.2-0.5-0.1-1.1-0.1-1.4c0-0.7-0.6-0.9-1.1-1
				c-0.6-0.5-1.1-0.6-1.7-1.1c-1.1-1-2.8-1.4-4-1.9c-1.7-0.8-3.3-1.2-4.8-2.2c-1.3-0.8-2.4-1.8-3.6-2.8c2.3-0.3,4.6-0.3,6.8,1
				c1.7,1.1,3.7,1.5,5.5,2.1c1.5,0.6,2.9,0.9,4.4,1.5c1.3,0.5,2.5,0.6,3.8,0.3c2.5-0.5,5-0.3,7.4-0.5c2.7,0,5.4,0.7,8.1,1.4
				c0.5,0.1,1.3,0.1,1.8,0.2c0.9,0.5,1.8,1,2.8,1.4c-0.7,0.8-1.2,1-1.9,1c-2.5-0.2-5-0.4-7.3-0.4c-0.5-0.1-1.1,0.1-1.8,0.1
				c-0.4,0-0.7,0-1.1-0.3c-0.5-0.1-1.1-0.3-1.4-0.3c-2-0.1-3.7,0.1-5.5-0.2C745.3,1191.7,745.1,1191.9,744.6,1192.1
				C744.7,1191.9,744.7,1191.9,744.6,1192.1z"/>
			<path d="M824.3,1159.7c-0.3,0.7-0.3,1.4-0.6,1.8c-0.8,0.9-1.7,1.9-2.7,2.7c-1.2,1-2.6,1.8-3.8,2.4c-1.5,1-3.3,1.8-4.2,3.3
				c0.7,0,1.1-0.1,1.4-0.1c0.9,0.1,1.8-0.1,2.7,0c1.8,0.2,3.6,0.5,5.3,0c0.9-0.2,1.6,0.1,2.5,0.6c0.5,0.1,0.9,0.1,1.4,0.3
				c0.9,0.1,2,0.1,2.9,0.2c1.6,0.1,3.4,0.3,5,0.4c0.5,0.1,1.1,0.3,1.6,0.4c0.7,0.3,1.8,0.6,2.6,0.9c0,0,0,0,0,0.4
				c-0.4,0-0.9,0.2-1.2,0.3c-1.9,0.3-3.9,0.2-6,0.4c-2.1,0.1-3.9-0.1-5.9-0.5c-0.5-0.1-1.1,0.1-1.8,0.1c-1.1,0.1-2.3,0.3-3.4,0.4
				c-0.4,0-0.9-0.1-1.6-0.1c-0.7,0-1.4,0.1-2.1,0.1c-1.3-0.1-2.9-0.2-4.1-0.3c-0.5-0.1-1.1,0.1-1.6-0.1l-0.2,0.2
				c0.4,0.3,0.9,0.5,1.3,0.8c1.1,0.6,2.2,1.3,3.3,1.9c0.9,0.5,1.7,1.1,2.6,1.3c0.4,0,0.5,0.1,0.7,0.3c0.4,0.7,1.1,1,2.1,1.5
				c2,1.1,3.9,2.4,5.9,3.5c0.6,0.5,0.9,0.8,0.8,1.7c-1.1,0.1-2.3,0.3-3.4-0.3c-1.9-1.3-4.4-1.5-6.2-2.8c-1.8-1-3.7-2.3-5.4-3.4
				c-1.7-1.1-3-2.7-4.7-3.4c-0.9-0.5-2-0.8-3.1-1.1c-1.1-0.3-2-0.8-3.3-0.9c-2-0.4-3.6-0.8-5.6-1.2c-1.8-0.2-3.2-0.5-4.7-1.8
				c-0.4-0.3-0.9-0.8-1.5-1.3c0.7,0,1.1-0.1,1.6-0.3c2.5-0.2,5,0,7.5,0.6c1.3,0.5,2.5,0.6,4,0.8c0.4,0,0.7,0,1.1-0.1
				c0.7,0,1.4,0.3,2.2,0.2c0.5,0.1,1.1-0.1,1.4-0.4c1-1.5,2.3-2.6,4.1-3.5c1-0.4,2.1-1.2,2.9-1.8c1-1.1,2.4-1.6,3.8-2s3-1.1,4.2-1.7
				C822.9,1160.2,823.4,1160,824.3,1159.7z"/>
		</g>
	</g>
	<g id="eThpVe.tif_7_" class="st16">
		<g>
			<path d="M847.4,1231.9c1.1,0.6,2.1,1,3.1,1.8c1.1,0.6,2.1,1.4,3.1,1.8l0.2,0.2c2,0.6,3.5,2.4,5.3,3.5c0.9,0.4,2.1,1,3,1.4
				c1.1,0.6,2.1,1.4,3.5,2.1c0.8,0.6,1.5,0.9,2.3,1.5c1.2,0.9,2.2,1.7,3.2,2.8l-0.2,0.2c-0.4,0-0.9-0.1-1.1-0.2
				c-0.9-0.1-1.8-0.1-2.6-0.4c-0.9-0.4-2.1-1-3-1.4c-1.1-0.6-2.5-1.3-3.6-1.9c-0.2-0.2-0.4-0.3-0.6-0.5c-0.4-0.3-1.1-0.6-1.7-0.7
				c-0.9-0.1-1.9-0.5-2.4-1c-1.4-1.1-2.9-2-4.4-2.5c-0.9-0.4-1.9-1.2-2.9-1.6c-0.2-0.2-0.4-0.3-0.6-0.5c0.2,1.4,0.5,2.6,1,3.6
				c0.9,1.7,1.8,3,2.6,4.9c0.3,0.9,0.6,1.7,0.9,2.6c0.2,0.2,0,0.4,0.1,0.7c0.7,1.5,0.6,1.7-0.2,3.1c-0.8-1-1.5-1.8-2.3-2.8
				c-1-1.1-2.1-2.6-3.1-3.7c-0.4-0.3-0.6-0.8-0.7-1.2c-0.4-1.9-1.3-3.2-2.2-4.9c-0.5-1-0.8-2.2-1.3-3.2c-0.2-0.5-0.1-1.1-0.2-1.4
				c-0.1-0.7-0.6-0.8-1.2-0.9c-0.6-0.5-1.1-0.6-1.7-1c-1.2-0.9-2.8-1.3-4.1-1.6c-1.7-0.7-3.3-1-4.9-1.9c-1.3-0.7-2.5-1.7-3.7-2.6
				c2.3-0.5,4.6-0.6,6.9,0.6c1.7,1,3.7,1.3,5.6,1.8c1.5,0.5,3,0.7,4.4,1.2c1.3,0.4,2.6,0.4,3.8,0.1c2.4-0.7,4.9-0.6,7.4-0.9
				c2.7-0.1,5.4,0.4,8.2,1c0.6,0.1,1.3,0,1.8,0.1c0.9,0.4,1.9,0.8,2.8,1.3c-0.6,0.8-1.1,1-1.8,1.1c-2.5-0.1-5-0.1-7.3,0
				c-0.6-0.1-1.1,0.1-1.8,0.2c-0.4,0-0.7,0.1-1.1-0.2c-0.6-0.1-1.1-0.2-1.5-0.2c-2,0.1-3.7,0.3-5.5,0.1
				C848.1,1231.5,848,1231.7,847.4,1231.9C847.6,1231.7,847.6,1231.7,847.4,1231.9z"/>
			<path d="M925.1,1194.9c-0.3,0.7-0.2,1.5-0.5,1.9c-0.8,1-1.5,2-2.5,2.8c-1.1,1-2.5,1.9-3.6,2.6c-1.5,1.1-3.2,2-4,3.5
				c0.7-0.1,1.1-0.1,1.4-0.2c0.9,0.1,1.8-0.2,2.7-0.1c1.8,0.1,3.6,0.3,5.3-0.3c0.9-0.3,1.6,0,2.6,0.4c0.6,0.1,0.9,0.1,1.5,0.2
				c0.9,0.1,2-0.1,2.9,0c1.6,0,3.4,0.1,5,0.1c0.6,0.1,1.1,0.2,1.7,0.3c0.7,0.3,1.9,0.5,2.6,0.8c0,0,0,0,0,0.4
				c-0.4,0-0.9,0.3-1.2,0.3c-1.9,0.4-3.9,0.5-6,0.7c-2.1,0.3-3.9,0.1-5.9-0.2c-0.6-0.1-1.1,0.1-1.8,0.2c-1.1,0.1-2.3,0.5-3.3,0.6
				c-0.4,0-0.9-0.1-1.6,0c-0.7,0.1-1.4,0.2-2.1,0.3c-1.3,0-2.9,0-4.1,0c-0.6-0.1-1.1,0.1-1.6,0l-0.2,0.2c0.4,0.3,0.9,0.4,1.3,0.7
				c1.1,0.6,2.3,1.2,3.4,1.7c0.9,0.4,1.7,1,2.6,1.1c0.4,0,0.6,0.1,0.7,0.3c0.4,0.7,1.2,0.9,2.1,1.4c2.1,1,4,2.2,6.1,3.2
				c0.6,0.5,1,0.8,0.9,1.7c-1.1,0.1-2.3,0.5-3.4-0.1c-1.9-1.2-4.4-1.2-6.4-2.4c-1.9-0.8-3.8-2-5.6-3.1c-1.7-1-3.2-2.5-4.9-3.2
				c-0.9-0.4-2-0.6-3.2-0.9c-1.1-0.2-2-0.6-3.3-0.7c-2-0.3-3.7-0.6-5.7-0.9c-1.8-0.1-3.3-0.3-4.8-1.6c-0.4-0.3-1-0.8-1.6-1.2
				c0.7-0.1,1.1-0.1,1.6-0.4c2.5-0.3,5-0.3,7.5,0.2c1.3,0.4,2.6,0.4,4,0.6c0.4,0,0.7-0.1,1.1-0.1c0.7-0.1,1.5,0.2,2.2,0.1
				c0.6,0.1,1.1-0.1,1.4-0.5c0.9-1.5,2.2-2.8,3.8-3.7c1-0.5,2-1.3,2.8-2c0.9-1.2,2.3-1.7,3.7-2.2c1.4-0.5,2.9-1.2,4.1-1.9
				C923.8,1195.5,924.3,1195.2,925.1,1194.9z"/>
		</g>
	</g>
	<g id="eThpVe.tif_8_" class="st16">
		<g>
			<path d="M945.9,1262.7c1.1,0.6,2.1,1,3.1,1.8c1.1,0.6,2.1,1.4,3.1,1.8l0.2,0.2c2,0.6,3.5,2.4,5.3,3.5c0.9,0.4,2.1,1,3,1.4
				c1.1,0.6,2.1,1.4,3.5,2.1c0.8,0.6,1.5,0.9,2.3,1.5c1.2,0.9,2.2,1.7,3.2,2.8l-0.2,0.2c-0.4,0-0.9-0.1-1.1-0.2
				c-0.9-0.1-1.8-0.1-2.6-0.4c-0.9-0.4-2.1-1-3-1.4c-1.1-0.6-2.5-1.3-3.6-1.9c-0.2-0.2-0.4-0.3-0.6-0.5c-0.4-0.3-1.1-0.6-1.7-0.7
				c-0.9-0.1-1.9-0.5-2.4-1c-1.4-1.1-2.9-2-4.4-2.5c-0.9-0.4-1.9-1.2-2.9-1.6c-0.2-0.2-0.4-0.3-0.6-0.5c0.2,1.4,0.5,2.6,1,3.6
				c0.9,1.7,1.8,3,2.6,4.9c0.3,0.9,0.6,1.7,0.9,2.6c0.2,0.2,0,0.4,0.1,0.7c0.7,1.5,0.6,1.7-0.2,3.1c-0.8-1-1.5-1.8-2.3-2.8
				c-1-1.1-2.1-2.6-3.1-3.7c-0.4-0.3-0.6-0.8-0.7-1.2c-0.4-1.9-1.3-3.2-2.2-4.9c-0.5-1-0.8-2.2-1.3-3.2c-0.2-0.5-0.1-1.1-0.2-1.4
				c-0.1-0.7-0.6-0.8-1.2-0.9c-0.6-0.5-1.1-0.6-1.7-1c-1.2-0.9-2.8-1.3-4.1-1.6c-1.7-0.7-3.3-1-4.9-1.9c-1.3-0.7-2.5-1.7-3.7-2.6
				c2.3-0.5,4.6-0.6,6.9,0.6c1.7,1,3.7,1.3,5.6,1.8c1.5,0.5,3,0.7,4.4,1.2c1.3,0.4,2.6,0.4,3.8,0.1c2.4-0.7,4.9-0.6,7.4-0.9
				c2.7-0.1,5.4,0.4,8.2,1c0.6,0.1,1.3,0,1.8,0.1c0.9,0.4,1.9,0.8,2.8,1.3c-0.6,0.8-1.1,1-1.8,1.1c-2.5-0.1-5-0.1-7.3,0
				c-0.6-0.1-1.1,0.1-1.8,0.2c-0.4,0-0.7,0.1-1.1-0.2c-0.6-0.1-1.1-0.2-1.5-0.2c-2,0.1-3.7,0.3-5.5,0.1
				C946.5,1262.3,946.4,1262.5,945.9,1262.7C946,1262.5,946,1262.5,945.9,1262.7z"/>
			<path d="M1023.6,1225.7c-0.3,0.7-0.2,1.5-0.5,1.9c-0.8,1-1.5,2-2.5,2.8c-1.1,1-2.5,1.9-3.6,2.6c-1.5,1.1-3.2,2-4,3.5
				c0.7-0.1,1.1-0.1,1.4-0.2c0.9,0.1,1.8-0.2,2.7-0.1c1.8,0.1,3.6,0.3,5.3-0.3c0.9-0.3,1.6,0,2.6,0.4c0.6,0.1,0.9,0.1,1.5,0.2
				c0.9,0.1,2-0.1,2.9,0c1.6,0,3.4,0.1,5,0.1c0.6,0.1,1.1,0.2,1.7,0.3c0.7,0.3,1.9,0.5,2.6,0.8c0,0,0,0,0,0.4
				c-0.4,0-0.9,0.3-1.2,0.3c-1.9,0.4-3.9,0.5-6,0.7c-2.1,0.3-3.9,0.1-5.9-0.2c-0.6-0.1-1.1,0.1-1.8,0.2c-1.1,0.1-2.3,0.5-3.3,0.6
				c-0.4,0-0.9-0.1-1.6,0c-0.7,0.1-1.4,0.2-2.1,0.3c-1.3,0-2.9,0-4.1,0c-0.6-0.1-1.1,0.1-1.6,0l-0.2,0.2c0.4,0.3,0.9,0.4,1.3,0.7
				c1.1,0.6,2.3,1.2,3.4,1.7c0.9,0.4,1.7,1,2.6,1.1c0.4,0,0.6,0.1,0.7,0.3c0.4,0.7,1.2,0.9,2.1,1.4c2.1,1,4,2.2,6.1,3.2
				c0.6,0.5,1,0.8,0.9,1.7c-1.1,0.1-2.3,0.5-3.4-0.1c-1.9-1.2-4.4-1.2-6.4-2.4c-1.9-0.8-3.8-2-5.6-3.1c-1.7-1-3.2-2.5-4.9-3.2
				c-0.9-0.4-2-0.6-3.2-0.9c-1.1-0.2-2-0.6-3.3-0.7c-2-0.3-3.7-0.6-5.7-0.9c-1.8-0.1-3.3-0.3-4.8-1.6c-0.4-0.3-1-0.8-1.6-1.2
				c0.7-0.1,1.1-0.1,1.6-0.4c2.5-0.3,5-0.3,7.5,0.2c1.3,0.4,2.6,0.4,4,0.6c0.4,0,0.7-0.1,1.1-0.1c0.7-0.1,1.5,0.2,2.2,0.1
				c0.6,0.1,1.1-0.1,1.4-0.5c0.9-1.5,2.2-2.8,3.8-3.7c1-0.5,2-1.3,2.8-2c0.9-1.2,2.3-1.7,3.7-2.2c1.4-0.5,2.9-1.2,4.1-1.9
				C1022.2,1226.2,1022.7,1226,1023.6,1225.7z"/>
		</g>
	</g>
	<g id="eThpVe.tif_9_" class="st16">
		<g>
			<path d="M1057.3,1297.6c1.2,0.4,2.2,0.6,3.4,1.2c1.2,0.4,2.3,0.9,3.4,1.2l0.2,0.1c2.1,0.3,3.9,1.8,5.8,2.5c1,0.2,2.2,0.6,3.2,0.8
				c1.2,0.4,2.3,0.9,3.8,1.4c0.9,0.5,1.7,0.6,2.6,1.1c1.3,0.7,2.5,1.3,3.7,2.2l-0.1,0.2c-0.3,0.1-0.9,0.1-1.1,0
				c-0.9,0.1-1.8,0.2-2.6,0.1c-1-0.2-2.2-0.6-3.2-0.8c-1.2-0.4-2.7-0.8-3.9-1.2c-0.2-0.1-0.4-0.2-0.7-0.3c-0.4-0.2-1.2-0.4-1.8-0.4
				c-0.9,0.1-1.9-0.1-2.6-0.5c-1.6-0.8-3.2-1.4-4.8-1.7c-1-0.2-2.1-0.8-3.1-1.1c-0.2-0.1-0.4-0.2-0.7-0.3c0.4,1.4,1,2.5,1.6,3.4
				c1.2,1.5,2.3,2.6,3.4,4.3c0.4,0.8,0.9,1.6,1.3,2.4c0.2,0.1,0.1,0.3,0.2,0.7c1,1.4,0.9,1.6,0.4,3c-1-0.8-1.8-1.5-2.8-2.3
				c-1.2-0.9-2.5-2.2-3.8-3.1c-0.4-0.2-0.8-0.7-0.9-1c-0.8-1.8-1.9-3-3.1-4.4c-0.7-0.9-1.2-2-1.9-3c-0.3-0.5-0.3-1-0.4-1.4
				c-0.2-0.7-0.8-0.7-1.3-0.7c-0.7-0.3-1.2-0.4-1.9-0.7c-1.3-0.7-3-0.7-4.4-0.9c-1.8-0.4-3.5-0.4-5.2-1c-1.5-0.5-2.8-1.2-4.1-1.9
				c2.2-0.9,4.4-1.4,6.9-0.7c1.9,0.7,3.9,0.6,5.8,0.8c1.6,0.3,3,0.2,4.6,0.4c1.3,0.1,2.6-0.1,3.7-0.6c2.3-1.1,4.7-1.5,7.1-2.2
				c2.6-0.6,5.4-0.6,8.2-0.5c0.6,0,1.2-0.2,1.8-0.2c1,0.2,2,0.5,3,0.7c-0.5,0.9-0.9,1.2-1.6,1.4c-2.5,0.4-5,0.8-7.2,1.3
				c-0.6,0-1,0.3-1.7,0.5c-0.3,0.1-0.7,0.2-1.1,0c-0.6,0-1.1,0-1.5,0.1c-1.9,0.4-3.6,0.9-5.4,1.1
				C1057.9,1297.1,1057.7,1297.3,1057.3,1297.6C1057.4,1297.4,1057.4,1297.4,1057.3,1297.6z"/>
			<path d="M1127,1247.1c-0.1,0.8,0.1,1.5-0.1,1.9c-0.6,1.1-1.2,2.2-2,3.2c-0.9,1.2-2.1,2.3-3.1,3.2c-1.3,1.3-2.7,2.5-3.3,4.2
				c0.7-0.2,1-0.3,1.4-0.4c0.9-0.1,1.7-0.5,2.6-0.6c1.8-0.2,3.6-0.4,5.2-1.3c0.8-0.4,1.6-0.3,2.6-0.1c0.6,0,0.9-0.1,1.5-0.1
				c0.9-0.1,1.9-0.4,2.8-0.5c1.6-0.3,3.4-0.5,5-0.8c0.6,0,1.1,0,1.7,0c0.8,0.1,1.9,0.1,2.7,0.3c0,0,0,0,0.1,0.3
				c-0.3,0.1-0.8,0.4-1.1,0.5c-1.8,0.8-3.7,1.2-5.8,1.8c-2,0.6-3.8,0.8-5.9,0.9c-0.6,0-1,0.3-1.7,0.5c-1,0.3-2.2,0.9-3.2,1.2
				c-0.3,0.1-0.9,0.1-1.6,0.3c-0.7,0.2-1.4,0.4-2,0.6c-1.2,0.2-2.8,0.5-4.1,0.7c-0.6,0-1,0.3-1.6,0.3l-0.1,0.2
				c0.4,0.2,1,0.2,1.5,0.5c1.2,0.4,2.5,0.7,3.7,1.1c1,0.2,1.9,0.7,2.8,0.6c0.3-0.1,0.6,0,0.8,0.1c0.6,0.6,1.3,0.7,2.3,0.9
				c2.2,0.6,4.4,1.4,6.6,2c0.7,0.3,1.1,0.6,1.2,1.5c-1,0.3-2.2,0.9-3.4,0.5c-2.1-0.8-4.6-0.4-6.7-1.2c-2-0.5-4.1-1.3-6-2
				c-1.9-0.7-3.6-1.9-5.4-2.2c-1-0.2-2.1-0.3-3.3-0.3c-1.1,0-2.1-0.3-3.4-0.1c-2,0.1-3.7,0-5.7,0.1c-1.8,0.2-3.3,0.3-5-0.7
				c-0.4-0.2-1.1-0.6-1.8-0.9c0.7-0.2,1-0.3,1.5-0.6c2.4-0.7,4.9-1.2,7.4-1.2c1.3,0.1,2.6-0.1,4-0.2c0.3-0.1,0.7-0.2,1-0.3
				c0.7-0.2,1.5-0.1,2.1-0.3c0.6,0,1-0.3,1.3-0.8c0.6-1.7,1.6-3.1,3.1-4.3c0.9-0.7,1.7-1.7,2.4-2.4c0.7-1.3,1.9-2.1,3.2-2.9
				c1.3-0.8,2.6-1.8,3.6-2.6C1125.8,1247.9,1126.2,1247.6,1127,1247.1z"/>
		</g>
	</g>
	<g id="eThpVe.tif_20_" class="st16">
		<g>
			<path d="M1161.4,1319c1.2,0.4,2.2,0.8,3.3,1.4c1.2,0.4,2.3,1.1,3.3,1.4l0.2,0.1c2.1,0.4,3.8,2,5.6,2.9c1,0.3,2.2,0.8,3.2,1.1
				c1.2,0.4,2.3,1.1,3.7,1.7c0.9,0.5,1.6,0.7,2.5,1.2c1.3,0.8,2.3,1.5,3.5,2.5l-0.1,0.2c-0.3,0.1-0.9,0-1.1-0.1
				c-0.9,0-1.8,0.1-2.6-0.1c-1-0.3-2.2-0.8-3.2-1.1c-1.2-0.4-2.6-1-3.8-1.5c-0.2-0.1-0.4-0.3-0.6-0.4c-0.4-0.3-1.2-0.4-1.8-0.5
				c-0.9,0-1.9-0.3-2.5-0.7c-1.5-0.9-3.1-1.6-4.7-2c-1-0.3-2.1-1-3-1.3c-0.2-0.1-0.4-0.3-0.6-0.4c0.3,1.4,0.8,2.6,1.4,3.5
				c1.1,1.6,2.1,2.8,3.1,4.6c0.4,0.8,0.8,1.6,1.1,2.5c0.2,0.1,0.1,0.3,0.2,0.7c0.9,1.4,0.8,1.6,0.2,3.1c-0.9-0.9-1.7-1.6-2.6-2.5
				c-1.1-1-2.4-2.4-3.5-3.4c-0.4-0.3-0.7-0.7-0.8-1.1c-0.6-1.9-1.6-3.1-2.7-4.7c-0.6-1-1-2.1-1.6-3.1c-0.3-0.5-0.2-1-0.3-1.4
				c-0.2-0.7-0.7-0.7-1.3-0.8c-0.6-0.4-1.2-0.4-1.8-0.8c-1.3-0.8-3-0.9-4.3-1.2c-1.8-0.5-3.4-0.7-5.1-1.4c-1.4-0.6-2.7-1.4-4-2.2
				c2.2-0.7,4.5-1.1,6.9-0.2c1.8,0.8,3.9,0.9,5.8,1.2c1.5,0.4,3,0.4,4.6,0.8c1.3,0.2,2.6,0.1,3.8-0.3c2.3-0.9,4.8-1.1,7.3-1.7
				c2.6-0.4,5.4-0.2,8.2,0.1c0.6,0.1,1.3-0.1,1.8-0.1c1,0.3,2,0.6,3,0.9c-0.5,0.9-1,1.1-1.7,1.3c-2.5,0.2-5,0.4-7.3,0.8
				c-0.6-0.1-1,0.2-1.7,0.4c-0.3,0.1-0.7,0.2-1.1-0.1c-0.6-0.1-1.1-0.1-1.5,0c-1.9,0.3-3.7,0.7-5.5,0.7
				C1162,1318.5,1161.9,1318.7,1161.4,1319C1161.5,1318.8,1161.5,1318.8,1161.4,1319z"/>
			<path d="M1234.7,1273.9c-0.2,0.8,0,1.5-0.3,1.9c-0.7,1.1-1.3,2.1-2.2,3.1c-1,1.1-2.2,2.2-3.3,3c-1.4,1.2-2.9,2.3-3.6,4
				c0.7-0.2,1-0.2,1.4-0.3c0.9,0,1.7-0.4,2.6-0.4c1.8-0.1,3.6-0.1,5.3-0.9c0.8-0.4,1.6-0.2,2.6,0.1c0.6,0.1,0.9,0,1.5,0
				c0.9,0,1.9-0.3,2.8-0.3c1.6-0.2,3.4-0.3,5-0.4c0.6,0.1,1.1,0.1,1.7,0.2c0.8,0.2,1.9,0.3,2.7,0.5c0,0,0,0,0.1,0.3
				c-0.3,0.1-0.8,0.4-1.2,0.5c-1.9,0.6-3.8,0.9-5.9,1.4c-2.1,0.5-3.9,0.5-5.9,0.5c-0.6-0.1-1,0.2-1.7,0.4c-1,0.2-2.2,0.7-3.2,0.9
				c-0.3,0.1-0.9,0-1.6,0.2c-0.7,0.2-1.4,0.3-2.1,0.5c-1.3,0.1-2.8,0.3-4.1,0.4c-0.6-0.1-1,0.2-1.6,0.2l-0.1,0.2
				c0.4,0.3,1,0.3,1.4,0.6c1.2,0.4,2.4,0.9,3.6,1.3c1,0.3,1.8,0.8,2.7,0.8c0.3-0.1,0.6,0.1,0.8,0.2c0.5,0.6,1.3,0.8,2.3,1.1
				c2.2,0.8,4.2,1.7,6.4,2.5c0.6,0.4,1.1,0.7,1.1,1.6c-1,0.2-2.2,0.7-3.4,0.3c-2.1-1-4.6-0.8-6.6-1.7c-2-0.6-4-1.6-5.9-2.5
				c-1.8-0.8-3.4-2.1-5.2-2.6c-1-0.3-2.1-0.4-3.2-0.5c-1.1-0.1-2.1-0.4-3.4-0.3c-2-0.1-3.7-0.2-5.7-0.3c-1.8,0.1-3.3,0-5-1
				c-0.4-0.3-1.1-0.7-1.7-1.1c0.7-0.2,1-0.2,1.5-0.5c2.4-0.6,4.9-0.8,7.5-0.7c1.3,0.2,2.6,0.1,4.1,0.1c0.3-0.1,0.7-0.2,1-0.2
				c0.7-0.2,1.5,0,2.2-0.1c0.6,0.1,1-0.2,1.3-0.7c0.7-1.6,1.9-3,3.4-4.1c1-0.6,1.8-1.5,2.6-2.2c0.8-1.3,2.1-2,3.4-2.6
				c1.3-0.7,2.7-1.6,3.8-2.4C1233.4,1274.5,1233.8,1274.2,1234.7,1273.9z"/>
		</g>
	</g>
	<g id="eThpVe.tif_21_" class="st16">
		<g>
			<path d="M1277.6,1329.5c1.1,0.6,2.1,1,3.1,1.8c1.1,0.6,2.1,1.4,3.1,1.8l0.2,0.2c2,0.6,3.5,2.4,5.3,3.5c0.9,0.4,2.1,1,3,1.4
				c1.1,0.6,2.1,1.4,3.5,2.1c0.8,0.6,1.5,0.9,2.3,1.5c1.2,0.9,2.2,1.7,3.2,2.8l-0.2,0.2c-0.4,0-0.9-0.1-1.1-0.2
				c-0.9-0.1-1.8-0.1-2.6-0.4c-0.9-0.4-2.1-1-3-1.4c-1.1-0.6-2.5-1.3-3.6-1.9c-0.2-0.2-0.4-0.3-0.6-0.5c-0.4-0.3-1.1-0.6-1.7-0.7
				c-0.9-0.1-1.9-0.5-2.4-1c-1.4-1.1-2.9-2-4.4-2.5c-0.9-0.4-1.9-1.2-2.9-1.6c-0.2-0.2-0.4-0.3-0.6-0.5c0.2,1.4,0.5,2.6,1,3.6
				c0.9,1.7,1.8,3,2.6,4.9c0.3,0.9,0.6,1.7,0.9,2.6c0.2,0.2,0,0.4,0.1,0.7c0.7,1.5,0.6,1.7-0.2,3.1c-0.8-1-1.5-1.8-2.3-2.8
				c-1-1.1-2.1-2.6-3.1-3.7c-0.4-0.3-0.6-0.8-0.7-1.2c-0.4-1.9-1.3-3.2-2.2-4.9c-0.5-1-0.8-2.2-1.3-3.2c-0.2-0.5-0.1-1.1-0.2-1.4
				c-0.1-0.7-0.6-0.8-1.2-0.9c-0.6-0.5-1.1-0.6-1.7-1c-1.2-0.9-2.8-1.3-4.1-1.6c-1.7-0.7-3.3-1-4.9-1.9c-1.3-0.7-2.5-1.7-3.7-2.6
				c2.3-0.5,4.6-0.6,6.9,0.6c1.7,1,3.7,1.3,5.6,1.8c1.5,0.5,3,0.7,4.4,1.2c1.3,0.4,2.6,0.4,3.8,0.1c2.4-0.7,4.9-0.6,7.4-0.9
				c2.7-0.1,5.4,0.4,8.2,1c0.6,0.1,1.3,0,1.8,0.1c0.9,0.4,1.9,0.8,2.8,1.3c-0.6,0.8-1.1,1-1.8,1.1c-2.5-0.1-5-0.1-7.3,0
				c-0.6-0.1-1.1,0.1-1.8,0.2c-0.4,0-0.7,0.1-1.1-0.2c-0.6-0.1-1.1-0.2-1.5-0.2c-2,0.1-3.7,0.3-5.5,0.1
				C1278.3,1329.1,1278.2,1329.3,1277.6,1329.5C1277.8,1329.3,1277.8,1329.3,1277.6,1329.5z"/>
			<path d="M1355.4,1292.5c-0.3,0.7-0.2,1.5-0.5,1.9c-0.8,1-1.5,2-2.5,2.8c-1.1,1-2.5,1.9-3.6,2.6c-1.5,1.1-3.2,2-4,3.5
				c0.7-0.1,1.1-0.1,1.4-0.2c0.9,0.1,1.8-0.2,2.7-0.1c1.8,0.1,3.6,0.3,5.3-0.3c0.9-0.3,1.6,0,2.6,0.4c0.6,0.1,0.9,0.1,1.5,0.2
				c0.9,0.1,2-0.1,2.9,0c1.6,0,3.4,0.1,5,0.1c0.6,0.1,1.1,0.2,1.7,0.3c0.7,0.3,1.9,0.5,2.6,0.8c0,0,0,0,0,0.4
				c-0.4,0-0.9,0.3-1.2,0.3c-1.9,0.4-3.9,0.5-6,0.7c-2.1,0.3-3.9,0.1-5.9-0.2c-0.6-0.1-1.1,0.1-1.8,0.2c-1.1,0.1-2.3,0.5-3.3,0.6
				c-0.4,0-0.9-0.1-1.6,0s-1.4,0.2-2.1,0.3c-1.3,0-2.9,0-4.1,0c-0.6-0.1-1.1,0.1-1.6,0l-0.2,0.2c0.4,0.3,0.9,0.4,1.3,0.7
				c1.1,0.6,2.3,1.2,3.4,1.7c0.9,0.4,1.7,1,2.6,1.1c0.4,0,0.6,0.1,0.7,0.3c0.4,0.7,1.2,0.9,2.1,1.4c2.1,1,4,2.2,6.1,3.2
				c0.6,0.5,1,0.8,0.9,1.7c-1.1,0.1-2.3,0.5-3.4-0.1c-1.9-1.2-4.4-1.2-6.4-2.4c-1.9-0.8-3.8-2-5.6-3.1c-1.7-1-3.2-2.5-4.9-3.2
				c-0.9-0.4-2-0.6-3.2-0.9c-1.1-0.2-2-0.6-3.3-0.7c-2-0.3-3.7-0.6-5.7-0.9c-1.8-0.1-3.3-0.3-4.8-1.6c-0.4-0.3-1-0.8-1.6-1.2
				c0.7-0.1,1.1-0.1,1.6-0.4c2.5-0.3,5-0.3,7.5,0.2c1.3,0.4,2.6,0.4,4,0.6c0.4,0,0.7-0.1,1.1-0.1c0.7-0.1,1.5,0.2,2.2,0.1
				c0.6,0.1,1.1-0.1,1.4-0.5c0.9-1.5,2.2-2.8,3.8-3.7c1-0.5,2-1.3,2.8-2c0.9-1.2,2.3-1.7,3.7-2.2c1.4-0.5,2.9-1.2,4.1-1.9
				C1354,1293,1354.5,1292.8,1355.4,1292.5z"/>
		</g>
	</g>
	<g id="eThpVe.tif_22_" class="st16">
		<g>
			<path d="M1404,1347.6c1.3,0.3,2.3,0.4,3.4,0.9c1.3,0.3,2.4,0.7,3.4,0.9l0.2,0.1c2.1,0.1,4,1.4,6,2c1,0.2,2.3,0.4,3.3,0.6
				c1.3,0.3,2.4,0.7,3.9,1.1c0.9,0.4,1.7,0.5,2.6,0.8c1.4,0.6,2.5,1.1,3.8,1.9l-0.1,0.2c-0.3,0.1-0.9,0.2-1.1,0.1
				c-0.9,0.2-1.8,0.3-2.6,0.3c-1-0.2-2.3-0.4-3.3-0.6c-1.3-0.3-2.7-0.6-4-0.9c-0.2-0.1-0.5-0.2-0.7-0.3c-0.5-0.2-1.3-0.3-1.8-0.2
				c-0.9,0.2-1.9,0-2.6-0.3c-1.6-0.7-3.3-1.1-4.9-1.3c-1-0.2-2.2-0.6-3.2-0.8c-0.2-0.1-0.5-0.2-0.7-0.3c0.5,1.3,1.2,2.4,1.9,3.3
				c1.3,1.4,2.5,2.4,3.8,4c0.5,0.8,1,1.5,1.5,2.3c0.2,0.1,0.1,0.3,0.3,0.7c1.1,1.3,1,1.5,0.6,3c-1.1-0.7-1.9-1.3-3-2.1
				c-1.3-0.8-2.7-2-4-2.8c-0.5-0.2-0.8-0.6-1-1c-0.9-1.7-2.1-2.8-3.4-4.2c-0.7-0.9-1.4-1.9-2.1-2.8c-0.4-0.4-0.4-1-0.5-1.3
				c-0.3-0.7-0.8-0.6-1.4-0.6c-0.7-0.3-1.3-0.3-2-0.5c-1.4-0.6-3.1-0.5-4.4-0.5c-1.8-0.2-3.5-0.1-5.2-0.6c-1.5-0.4-2.9-0.9-4.3-1.5
				c2.1-1,4.3-1.7,6.8-1.2c2,0.5,4,0.3,5.9,0.3c1.6,0.1,3-0.1,4.6,0c1.4,0,2.6-0.3,3.7-0.9c2.2-1.3,4.6-1.9,6.9-2.8
				c2.5-0.8,5.3-1,8.1-1.2c0.6,0,1.2-0.3,1.8-0.3c1,0.2,2,0.3,3.1,0.5c-0.4,0.9-0.8,1.3-1.5,1.6c-2.4,0.6-4.9,1.2-7.1,1.9
				c-0.6,0-1,0.4-1.6,0.7c-0.3,0.1-0.7,0.3-1.1,0.1c-0.6,0-1.1,0.1-1.5,0.2c-1.9,0.6-3.5,1.2-5.3,1.6
				C1404.5,1347,1404.4,1347.2,1404,1347.6C1404.1,1347.4,1404.1,1347.4,1404,1347.6z"/>
		</g>
	</g>
</g>
</svg>
