<?xml version="1.0" encoding="utf-8"?>
<!-- Generator: Adobe Illustrator 20.1.0, SVG Export Plug-In . SVG Version: 6.00 Build 0)  -->
<svg version="1.1" xmlns="http://www.w3.org/2000/svg" xmlns:xlink="http://www.w3.org/1999/xlink" x="0px" y="0px"
	 viewBox="0 0 1440 900" style="enable-background:new 0 0 1440 900;" xml:space="preserve">
<style type="text/css">
	.st0{fill:#F2F2F2;}
	.st1{fill:url(#SVGID_1_);}
	.st2{opacity:6.000000e-02;}
	.st3{fill:url(#SVGID_2_);}
	.st4{opacity:0.33;fill:#998675;}
	.st5{fill:#998675;}
	.st6{opacity:0.35;}
	.st7{fill:url(#SVGID_3_);}
	.st8{fill:url(#SVGID_4_);}
	.st9{opacity:7.000000e-02;}
	.st10{fill:url(#SVGID_5_);}
	.st11{opacity:0.23;fill:url(#SVGID_6_);}
	.st12{opacity:0.23;fill:url(#SVGID_7_);}
	.st13{opacity:4.000000e-02;}
	.st14{opacity:0.31;}
	.st15{fill:url(#SVGID_8_);}
	.st16{fill:url(#SVGID_9_);}
	.st17{fill:url(#SVGID_10_);}
	.st18{fill:url(#SVGID_11_);}
	.st19{opacity:0.22;}
	.st20{fill:url(#SVGID_12_);}
	.st21{opacity:0.32;fill:url(#SVGID_13_);}
	.st22{opacity:0.32;fill:url(#SVGID_14_);}
</style>
<g id="Layer_2">
</g>
<g id="Layer_3">
</g>
<g id="Layer_1">
	<path class="st0" d="M0.8,904l1.6-107.8c0,0,666.6-172.6,1436.6-55.5V904H0.8z"/>
	<linearGradient id="SVGID_1_" gradientUnits="userSpaceOnUse" x1="719.7092" y1="904" x2="719.7092" y2="699.017">
		<stop  offset="0" style="stop-color:#0071BC;stop-opacity:0.5"/>
		<stop  offset="0.2855" style="stop-color:#4C9BD0;stop-opacity:0.6428"/>
		<stop  offset="0.7815" style="stop-color:#CCE26E;stop-opacity:0.8908"/>
		<stop  offset="1" style="stop-color:#A9E16F"/>
	</linearGradient>
	<path class="st1" d="M-0.2,904l-0.4-109.3c0,0,670.6-171.7,1440.6-55.2V904H-0.2z"/>
	<path class="st2" d="M14.6,114c29.6-4.7,102.1-7.2,115.4,76.9c0.5,3.4,2.3,6.5,4.8,8.8c9.3,8.3,32.1,32.7,41.7,78.8
		c8.7,42.1,21.5,42.9,28,40c3.8-1.7,8.1-1.6,11.9,0c9.9,4.3,26.9,13.7,36.6,30.7c10.4,18.2,27.7,19,36.3,18.1
		c4.6-0.5,9.1,1,12.3,4.3c6.6,6.7,15.4,21.3,15.8,51.6c0,1.2,0.2,2.5,0.5,3.7c3,11.3,19.6,72.1,46.8,118.3
		c25.3,43,101.1,143.6,129.1,197c5.4,10.3-2.4,22.6-14.1,22c-32.3-1.7-93.8,0-165.5,26.4c-89.3,32.9-277.2,29.9-326.7,27.6
		c-8.1-0.4,8.5-8.7,8.6-16.7l5.8-672.7C2,121.3,7.3,115.1,14.6,114z"/>
	<linearGradient id="SVGID_2_" gradientUnits="userSpaceOnUse" x1="719.5" y1="794.3494" x2="719.5" y2="-9.094947e-13">
		<stop  offset="0" style="stop-color:#0071BC;stop-opacity:0.5"/>
		<stop  offset="0.7815" style="stop-color:#CCE26E;stop-opacity:0.8908"/>
		<stop  offset="1" style="stop-color:#A9E16F"/>
	</linearGradient>
	<path class="st3" d="M2.6,794.3c0,0,666.4-169.2,1436.4-54.3V0H0"/>
	<path class="st2" d="M1354,676.3c-79.8-12.9-159.4-33.1-240.7-33.5c-30-0.2-57.3-1.6-85.8-2.3c-21.4-0.5-38.9,16.7-38.9,38
		c0.1,23.7,1.2,47.4,2.2,71c0.8,19.6,16.4,35.2,35.9,36.3c51.7,2.8,100.1-5.1,154.3-6.3c72.7-1.7,188.7,9.2,261.3,12.6
		c21.5,1-4-16.5-3.8-38l0.3-32.8c0.1-19.5-14.5-35.9-33.8-38C1387.9,681.5,1370.9,679,1354,676.3z"/>
	<path class="st4" d="M325.1,740H2c0,0,26.7-601.1,140-684.3c0,0,161.7-34.6,208.2,64.1s53.9,126.5,85.5,155.9
		c31.6,29.4,33.5,78,33.5,78S540,621,668.3,567.3c0,0,76.6,76.2,278.5,85s59.7,47.7,59.7,47.7c-91-1.6-187-0.5-287.6,4.2
		C578.1,710.8,446.5,723.6,325.1,740z"/>
	<path class="st5" d="M1443.3,763.7c-85.9-0.3-171.3-15.2-257.2-13.2c-66.1,1.5-132.7,13-198.1,2.7c-1.6-65.6-3.2-132.2,6.3-197.1
		c6.7-45.1,14.8-93.3,46.9-126.4c30.7-31.7,81.7-48,94.2-90c6.1-20.5,1-42.9,5.6-63.8c11.1-49.4,69.3-71.9,100.7-112
		c16.9-21.5,25.7-47.8,35.3-73.3c9.6-25.4,20.9-51.3,41.1-69.8s51.8-27.8,76.4-15.4c9.7,4.9,17.9,12.9,28.4,15.9
		c8.3,2.4,17.2,1.5,25.8,0.5"/>
	<path class="st5" d="M0,95.6c0,0,114.9-32.9,128.7,79.7c0,0,33.6,23.5,45.8,82.1c12.2,58.6,32.2,37.2,32.2,37.2s30,8.6,44.3,33.6
		c14.3,25,41.5,17.2,41.5,17.2s22.9,8.6,22.9,58.6c0,0,17.2,69,47.3,120.1c30.1,51.1,125.2,185.3,133.2,223.4c0,0-77.7-17-183.6,22
		C206.3,808.6,0,794.7,0,794.7V95.6z"/>
	<g id="_x34_ZIECE.tif" class="st6">
		<g>
			
				<linearGradient id="SVGID_3_" gradientUnits="userSpaceOnUse" x1="336.0233" y1="720.4041" x2="399.7973" y2="830.8637" gradientTransform="matrix(1 0 0 -1 0 902)">
				<stop  offset="0" style="stop-color:#BDCCD4"/>
				<stop  offset="0.1641" style="stop-color:#BDCDCF;stop-opacity:0.8359"/>
				<stop  offset="0.3566" style="stop-color:#BDD2C1;stop-opacity:0.6434"/>
				<stop  offset="0.5634" style="stop-color:#BCD9A9;stop-opacity:0.4366"/>
				<stop  offset="0.7803" style="stop-color:#BBE388;stop-opacity:0.2197"/>
				<stop  offset="1" style="stop-color:#BAEF5F;stop-opacity:0"/>
			</linearGradient>
			<path class="st7" d="M332.2,79c3.4,0,6.8,0,10.1,0c0.4,0.2,0.9,0.2,1.5,0.2c15.2,1.1,26.8,5.1,34.7,11.8c1.3,1.1,2.1,1.1,4.1,0.4
				c8.8-3.4,18.8-4.7,29.7-3.6c17.5,1.9,28.9,9,29.3,18c0,1.7,0.9,1.9,3.6,1.7c0.9,0,1.9,0,2.8,0c9.2,0,16.9,1.7,23.3,4.9
				c8.1,4.1,11.1,9.2,9.4,15c-3.2,9.9-22.3,16-41.1,13.9c-3.4-0.4-3.4-0.4-4.3,1.3c-0.2,0.4-0.6,0.8-0.8,1.1
				c-6.4,12-36.8,16.3-54.8,7.9c-1.5-0.8-2.1-0.8-3,0.4c-3.9,5.1-11.1,8.6-20.6,10.9c-3.8,0.9-7.7,1.1-11.6,1.7c-3,0-6,0-9,0
				c-0.4-0.2-1.1-0.2-1.7-0.2c-9.4-0.8-17.3-3-23.7-6.8c-4.7-2.8-7.7-6-9-9.6c-0.2-0.8-0.6-0.8-2.1-0.8c-3.4,0.2-6.6,0.2-9.9-0.2
				c-20.8-1.7-35.9-10.9-33.4-22c1.9-9,14.8-15.8,32.5-17.3c1.5-0.2,1.9-0.6,1.7-1.1c-0.9-3.4-0.8-6.6,1.1-9.9
				c4.5-7.7,14.3-13.1,29.1-16.1C323.9,79.8,328,79.6,332.2,79z"/>
		</g>
	</g>
	<g id="_x34_ZIECE.tif_1_" class="st6">
		<g>
			
				<linearGradient id="SVGID_4_" gradientUnits="userSpaceOnUse" x1="1187.6653" y1="685.4631" x2="1251.4393" y2="795.9229" gradientTransform="matrix(1 0 0 -1 0 902)">
				<stop  offset="0" style="stop-color:#BDCCD4"/>
				<stop  offset="0.1641" style="stop-color:#BDCDCF;stop-opacity:0.8359"/>
				<stop  offset="0.3566" style="stop-color:#BDD2C1;stop-opacity:0.6434"/>
				<stop  offset="0.5634" style="stop-color:#BCD9A9;stop-opacity:0.4366"/>
				<stop  offset="0.7803" style="stop-color:#BBE388;stop-opacity:0.2197"/>
				<stop  offset="1" style="stop-color:#BAEF5F;stop-opacity:0"/>
			</linearGradient>
			<path class="st8" d="M1183.8,114c3.4,0,6.8,0,10.1,0c0.4,0.2,0.9,0.2,1.5,0.2c15.2,1.1,26.8,5.1,34.7,11.8
				c1.3,1.1,2.1,1.1,4.1,0.4c8.8-3.4,18.8-4.7,29.7-3.6c17.5,1.9,28.9,9,29.3,18c0,1.7,0.9,1.9,3.6,1.7c0.9,0,1.9,0,2.8,0
				c9.2,0,16.9,1.7,23.3,4.9c8.1,4.1,11.1,9.2,9.4,15c-3.2,9.9-22.3,16-41.1,13.9c-3.4-0.4-3.4-0.4-4.3,1.3
				c-0.2,0.4-0.6,0.8-0.8,1.1c-6.4,12-36.8,16.3-54.8,7.9c-1.5-0.8-2.1-0.8-3,0.4c-3.9,5.1-11.1,8.6-20.6,10.9
				c-3.8,0.9-7.7,1.1-11.6,1.7c-3,0-6,0-9,0c-0.4-0.2-1.1-0.2-1.7-0.2c-9.4-0.8-17.3-3-23.7-6.8c-4.7-2.8-7.7-6-9-9.6
				c-0.2-0.8-0.6-0.8-2.1-0.8c-3.4,0.2-6.6,0.2-9.9-0.2c-20.8-1.7-35.9-10.9-33.4-22c1.9-9,14.8-15.8,32.5-17.3
				c1.5-0.2,1.9-0.6,1.7-1.1c-0.9-3.4-0.8-6.6,1.1-9.9c4.5-7.7,14.3-13.1,29.1-16.1C1175.6,114.7,1179.7,114.5,1183.8,114z"/>
		</g>
	</g>
	<g id="_x34_ZIECE.tif_2_" class="st9">
		<g>
			
				<linearGradient id="SVGID_5_" gradientUnits="userSpaceOnUse" x1="269.1395" y1="503.3305" x2="332.9135" y2="613.7902" gradientTransform="matrix(1 0 0 -1 0 902)">
				<stop  offset="0" style="stop-color:#BDCCD4"/>
				<stop  offset="0.1641" style="stop-color:#BDCDCF;stop-opacity:0.8359"/>
				<stop  offset="0.3566" style="stop-color:#BDD2C1;stop-opacity:0.6434"/>
				<stop  offset="0.5634" style="stop-color:#BCD9A9;stop-opacity:0.4366"/>
				<stop  offset="0.7803" style="stop-color:#BBE388;stop-opacity:0.2197"/>
				<stop  offset="1" style="stop-color:#BAEF5F;stop-opacity:0"/>
			</linearGradient>
			<path class="st10" d="M265.3,296.1c3.4,0,6.8,0,10.1,0c0.4,0.2,0.9,0.2,1.5,0.2c15.2,1.1,26.8,5.1,34.7,11.8
				c1.3,1.1,2.1,1.1,4.1,0.4c8.8-3.4,18.8-4.7,29.7-3.6c17.5,1.9,28.9,9,29.3,18c0,1.7,0.9,1.9,3.6,1.7c0.9,0,1.9,0,2.8,0
				c9.2,0,16.9,1.7,23.3,4.9c8.1,4.1,11.1,9.2,9.4,15c-3.2,9.9-22.3,16-41.1,13.9c-3.4-0.4-3.4-0.4-4.3,1.3
				c-0.2,0.4-0.6,0.8-0.8,1.1c-6.4,12-36.8,16.3-54.8,7.9c-1.5-0.8-2.1-0.8-3,0.4c-3.9,5.1-11.1,8.6-20.6,10.9
				c-3.8,0.9-7.7,1.1-11.6,1.7c-3,0-6,0-9,0c-0.4-0.2-1.1-0.2-1.7-0.2c-9.4-0.8-17.3-3-23.7-6.8c-4.7-2.8-7.7-6-9-9.6
				c-0.2-0.8-0.6-0.8-2.1-0.8c-3.4,0.2-6.6,0.2-9.9-0.2c-20.8-1.7-35.9-10.9-33.4-22c1.9-9,14.8-15.8,32.5-17.3
				c1.5-0.2,1.9-0.6,1.7-1.1c-0.9-3.4-0.8-6.6,1.1-9.9c4.5-7.7,14.3-13.1,29.1-16.1C257,296.9,261.2,296.7,265.3,296.1z"/>
		</g>
	</g>
	<linearGradient id="SVGID_6_" gradientUnits="userSpaceOnUse" x1="1326.0139" y1="613.8978" x2="1066.3022" y2="164.064">
		<stop  offset="0" style="stop-color:#AF7C36"/>
		<stop  offset="1" style="stop-color:#BDCDCF;stop-opacity:0.2"/>
	</linearGradient>
	<path class="st11" d="M1024.3,752.5c-26.9,0.9-9.7,4.9-36.2,0.7c-1.6-65.6-3.2-132.2,6.3-197.1c6.7-45.1,14.8-93.3,46.9-126.4
		c30.7-31.7,81.7-48,94.2-90c6.1-20.5,1-42.9,5.6-63.8c11.1-49.4,69.3-71.9,100.7-112c16.9-21.5,25.7-47.8,35.3-73.3
		c9.6-25.4,20.9-51.3,41.1-69.8c19.6-17.9,49.8-27.2,74.1-16.5c-2.7,3.6-5.1,7.4-7.2,10.7c-8.9,13.4-16.6,27.7-23.3,42.3
		c-7,15.3-11.9,31.3-16.5,47.4c-11.2,38.8-32.3,63.9-49.2,100.8c-14.8,32.2-26.2,57.8-39.5,90.7c-7.1,17.6-5.8,34.2-10.4,52.6
		c-4.6,18.3-20.6,29-28.4,46.2c-8,17.6-13.1,33.9-24.7,49.2c-12.2,15.9-24.6,24.5-35.6,41.2c-21.2,32-62.1,74.9-70.9,112.3
		c-9.1,39,10.8,104,10,144c0,0,0,0.1,0,0.1c-0.1,4.5-3.6,8.1-8.1,8.3L1024.3,752.5z"/>
	<linearGradient id="SVGID_7_" gradientUnits="userSpaceOnUse" x1="41.5529" y1="428.7479" x2="495.8532" y2="428.7479">
		<stop  offset="0" style="stop-color:#AF7C36"/>
		<stop  offset="1" style="stop-color:#BDCDCF;stop-opacity:0.2"/>
	</linearGradient>
	<path class="st12" d="M362.6,524.1C332.6,473,315.4,404,315.4,404c0-50.1-22.9-58.6-22.9-58.6s-27.2,7.9-41.5-17.2
		c-14.3-25-44.3-33.6-44.3-33.6s-20,21.5-32.2-37.2s-45.8-82.1-45.8-82.1c-8.3-67.4-52.8-82.7-87.2-84.1c2,6.3,4.1,12.5,6.3,18.7
		c25.2,70.4,61.8,135.9,93.3,203.5c16.4,35.1,32.7,70.2,50.4,104.7c18.1,35.2,36.9,70.1,56.1,104.7c9.4,17.1,18.9,34.2,28.5,51.2
		c9.1,16.3,18.8,32.5,27.1,49.2c15,30.1,26.9,64.3,24.8,98.3c-0.8,12.8-3.3,25.6-5.4,38.2c-0.4,2.2-0.7,4.3-1.2,6.4
		c101.2-34.8,174.5-18.8,174.5-18.8C487.8,709.4,392.7,575.2,362.6,524.1z"/>
	<path class="st13" d="M119.6,797.1c-9.1-24.1-7-54.6-7.3-79.8c-0.5-42.4,0.7-84.7,1.7-127.1c1-40.9,2.2-81.8,1.7-122.8
		c-0.2-14.5-0.5-29.1-1.9-43.6c-0.5-4.8-1-9.8-2.2-14.5c-3.4-13.8-0.3-30.1-1.5-44.5c-0.3-3.4-0.6-6.7-1-10
		c-0.5-4.4-1.2-8.7-1.9-13.1c-3.1-20.5-6.2-41-9.3-61.5c-1.3-8.6-2.6-17.2-3.4-25.9c-0.4-4.9-0.7-9.7-1.6-14.5
		c-0.7-4.2-1.9-8.4-3.1-12.5c-1.9-6.7-3.8-13.3-5.6-20c-0.8-2.8-1.6-5.6-2.5-8.4c-3.4-10.4-11.6-20-13.3-30.4
		c-1.7-11.3-5.5-22-10.6-32.2c-0.3-0.6-22.9-44.3-22.9-45.1c0.2-2.5-12,2.5-11.7,0C10.1,91.1,0,95.6,0,95.6v699.1"/>
	<path class="st13" d="M1425.9,20.5c-2.7-0.6-5.3-1.3-7.8-2.2c-2.9-1-28.3-13-26.2-17c-11.2,22-22.3,43.9-33.5,65.9
		c-5.4,10.7-10.9,21.5-14.4,33c-3.3,10.7-4.8,21.9-8.1,32.6c-9.2,30.1-31.8,54.3-43,83.7c-4.8,12.6-7.4,25.8-9.9,39
		c-15.1,79-28.4,158.7-54,234.9c-4,11.9-8.5,24.1-9.6,36.7c-1,11.6,0,18.4-4,29.8c-8.2,23.5-14.3,47.6-20.6,71.7
		c-7.3,27.7-15.3,55.4-25.6,82.1c-4.9,12.8-10.9,25-18.5,36.5c-1.2,1.8-2.5,3.5-3.9,5.2c13.8-0.9,27.7-1.6,41.5-2
		c85.9-2,171.3,12.9,257.2,13.2c0,0,5.7-741.9,5.7-741.9C1442.7,22.7,1434.1,22.3,1425.9,20.5z"/>
	<path class="st4" d="M1057.8,193.9c-2.5,2.8-7.4,3.8-11,2.4c-1.5-0.6-3.1-1.2-2.4-3.8c-0.7,0.6-1.1,0.9-1.7,1.4
		c0-0.8-0.1-1.5-0.1-2.1c-3.1-1.5-3.3-2.1-1.4-5.1c1.7-2.5,1.6-4.5-1-6.6c-3.7-2.9-7.6-6-11.9-8c-7.8-3.5-15.9-6.2-23.8-9.2
		c-2.3-0.9-4.6-1.9-6.8-3c-1-0.5-1.8-1.5-2.6-2.5c6.8-0.8,13.4-0.6,20,0c7.3,0.6,13.7,3.2,19.4,7.9c2.3,1.9,4.6,3.8,7,5.7
		c0.5-0.3,0.9-0.6,1.3-1c1.7-1.3,4.1-1.4,5.2,0.4c3.4,5.6,8.6,5.3,13.6,4c8.7-2.2,16.6-0.5,24.2,3.7c5.5,3.1,11,6.2,16.5,9.3
		c1.2,0.7,2.2,1.6,3.3,2.4c0,0.2-0.1,0.5-0.1,0.7c-1.2,0.1-2.5,0.4-3.7,0.2c-3-0.4-6-0.9-9-1.6c-4.9-1-9.8-2.3-14.8-3.3
		c-2.2-0.4-4.4-0.8-6.6-0.8c-5.6,0-11.3,0.1-16.9,0.4c-2.8,0.2-3.3,1.7-1.4,3.8C1054.5,190.9,1056.1,192.3,1057.8,193.9z"/>
	<path class="st4" d="M466.7,188.3c-1.4-2-2.6-4.1-4.1-6c-2-2.6-3.3-5.3-4.1-8.5c-0.4-1.5-1.2-3-1.9-4.3c-1.4-2.4-2.1-5-2.2-7.8
		c0-2.2-0.2-4.4-0.3-6.7c0.7,0.1,1.2,0.1,1.7,0.2c0-0.6,0-1.1,0-1.7c1.1-0.2,1.9-0.3,2.5,0.8c3.3,5.8,7.7,10.8,12.5,15.5
		c1.5,1.5,2.7,3.3,3.9,5.1c1.2,1.6,2.2,3.3,3.3,5c0.6,1,1.5,1.9,1.8,3c0.5,1.9,1.6,2.1,3.2,1.9c0.8-0.1,1.7-0.1,2.5-0.2
		c2-0.1,3.6,0.6,5,2.2c0.7,0.9,2.1,1.3,3.2,1.9c0.6,0.3,1.3,0.6,1.9,0.9c0,0.2,0,0.3-0.1,0.5c-0.8,0.2-1.5,0.4-2.7,0.6
		c1.3,0.8,2.4,1.3,3.4,2c1.2,0.8,2.5,1.5,3.6,2.4c2,1.6,3.9,3.2,6.6,3.4c0.6,0,1.2,0.4,1.7,0.8c-2.4,1-5,1.2-7.4,0.9
		c-3.2-0.5-6.3-1.3-9.4-1.9c-1.8-0.4-3.6-0.7-5.4-1.1c-1.8-0.4-3.8-0.5-5.4-1.3c-3-1.5-6-0.7-9.1-0.8c-0.3,0-0.7,0.6-0.8,0.9
		c-0.7,2-2.1,2.9-4.2,2.9c-2.9,0-5.7-0.3-8.4-1.5c-0.7-0.3-1.3-1-1.7-1.7c-0.5-0.9-0.7-2-0.9-3c-0.4-2.6,1.5-4.3,4.1-4.1
		c2.3,0.2,4.6,0,6.9,0C466.6,188.6,466.6,188.4,466.7,188.3z"/>
	<path class="st4" d="M889.3,456.6c0.3-0.3,0.6-0.6,1-0.9c0.2-0.1,0.6-0.1,0.8,0c3.3,2.3,6.6,4.6,9.8,7.1c2.9,2.3,4.8,5.3,5.3,9.2
		c0.2,1.5,1,2.9,1.5,4.3c0.3,0.8,0.6,1.6,0.6,2.4c0,1,0.5,1.3,1.3,1.4c0.5,0.1,1.1,0.1,1.6,0c1.6-0.1,2.8,0.4,3.9,1.6
		c0.6,0.6,1.4,0.9,2.2,1.3c0.8,0.3,1.3,0.7,1,1.8c-1.6-0.5-3.2-0.5-4.9,0.6c1.2,0.8,2.2,1.6,3.3,2.3c2.6,1.7,4.7,3.9,6,6.9
		c0.9,2,2.3,3.9,3.2,5.9c0.8,1.8,1.1,3.7,1.6,5.6c0.1,0.4,0,0.9-0.1,1.5c-0.4-0.2-0.7-0.3-1.1-0.4c-0.2,0.3-0.3,0.6-0.6,1.2
		c-0.5-0.6-0.9-1-1.3-1.5c-0.3,0.8-0.7,0.7-1.3,0c-0.4-0.5-0.9-1-1.4-1.4c-1.8-1.4-3.8-2.6-5.5-4.1c-1.1-1-1.8-2.5-2.8-3.8
		c-0.5-0.7-1-1.4-1.6-2c-2.1-1.8-4.2-3.6-6.3-5.4c-0.7-0.6-1.3-1.4-2.1-2c-0.7-0.5-1.3-0.5-1.5,0.5c-0.2,0.9-0.6,1.8-0.9,2.7
		c-0.4,0.9-1.2,1.4-2.1,1.1c-1.9-0.5-3.9-1-5.6-1.9c-3-1.5-4-6.5-2.1-9.2c0.4-0.5,1.3-0.9,2-0.9c0.9,0,1.7,0.5,2.6,0.7
		c0.9,0.3,1.8,0.6,3.1,1c-0.2-0.8-0.2-1.3-0.4-1.7c-1.5-2.5-2.3-5.3-3-8.2c-0.3-1.1-0.9-2.2-1.4-3.3c-1.2-2.4-2.4-4.8-3.6-7.2
		c-0.6-1.2-0.1-2.6-1.2-3.7C889,458,889.3,457.1,889.3,456.6z"/>
	<g id="_x34_ZIECE.tif_3_" class="st14">
		<g>
			
				<linearGradient id="SVGID_8_" gradientUnits="userSpaceOnUse" x1="731.1938" y1="754.9298" x2="795.4066" y2="866.1495" gradientTransform="matrix(-0.7886 -4.099216e-02 -3.375828e-02 0.6494 1105.5624 -100.7046)">
				<stop  offset="0" style="stop-color:#BDCCD4"/>
				<stop  offset="0.1641" style="stop-color:#BDCDCF;stop-opacity:0.8359"/>
				<stop  offset="0.3566" style="stop-color:#BDD2C1;stop-opacity:0.6434"/>
				<stop  offset="0.5634" style="stop-color:#BCD9A9;stop-opacity:0.4366"/>
				<stop  offset="0.7803" style="stop-color:#BBE388;stop-opacity:0.2197"/>
				<stop  offset="1" style="stop-color:#BAEF5F;stop-opacity:0"/>
			</linearGradient>
			<path class="st15" d="M503,426.9c-2.6-0.2-5.3-0.2-7.9-0.4c-0.4-0.2-0.8-0.2-1.1-0.2c-12.1-1.3-21.2-4.5-27.2-9.1
				c-0.9-0.8-1.7-0.9-3.2-0.4c-7.2,1.9-15.1,2.3-23.6,1.1c-13.8-1.9-22.7-7.2-22.7-13.1c0-1.1-0.8-1.3-2.8-1.3c-0.8,0-1.5,0-2.3-0.2
				c-7.2-0.4-13.4-1.9-18.3-4.2c-6.2-3-8.5-6.4-6.8-10.2c2.8-6.4,18.3-9.5,33.1-7.4c2.6,0.4,2.6,0.4,3.4-0.8
				c0.2-0.2,0.4-0.6,0.6-0.8c5.5-7.6,29.9-9.3,43.9-3c1.1,0.6,1.7,0.6,2.3,0c3.4-3.2,9.1-5.1,16.8-6.2c3-0.4,6.2-0.4,9.3-0.6
				c2.5,0.2,4.7,0.2,7.2,0.4c0.4,0.2,0.9,0.2,1.3,0.2c7.6,0.9,13.6,2.6,18.5,5.3c3.6,2.1,5.9,4.2,6.8,6.6c0.2,0.4,0.6,0.6,1.5,0.6
				c2.6,0,5.3,0.2,7.9,0.6c16.6,1.9,28.2,8.7,25.9,15.7c-1.9,5.9-12.3,9.6-26.3,10c-1.1,0-1.5,0.2-1.5,0.8c0.6,2.3,0.4,4.4-1.3,6.4
				c-4,4.9-11.7,7.9-23.6,9.5C509.4,426.7,506.2,426.7,503,426.9z"/>
		</g>
	</g>
	<g id="_x34_ZIECE.tif_4_" class="st14">
		<g>
			
				<linearGradient id="SVGID_9_" gradientUnits="userSpaceOnUse" x1="1225.2119" y1="388.432" x2="1289.4247" y2="499.6516" gradientTransform="matrix(-0.7886 -4.099216e-02 -3.375828e-02 0.6494 1105.5624 -100.7046)">
				<stop  offset="0" style="stop-color:#BDCCD4"/>
				<stop  offset="0.1641" style="stop-color:#BDCDCF;stop-opacity:0.8359"/>
				<stop  offset="0.3566" style="stop-color:#BDD2C1;stop-opacity:0.6434"/>
				<stop  offset="0.5634" style="stop-color:#BCD9A9;stop-opacity:0.4366"/>
				<stop  offset="0.7803" style="stop-color:#BBE388;stop-opacity:0.2197"/>
				<stop  offset="1" style="stop-color:#BAEF5F;stop-opacity:0"/>
			</linearGradient>
			<path class="st16" d="M125.7,168.7c-2.6-0.2-5.3-0.2-7.9-0.4c-0.4-0.2-0.8-0.2-1.1-0.2c-12.1-1.3-21.2-4.5-27.2-9.1
				c-0.9-0.8-1.7-0.9-3.2-0.4c-7.2,1.9-15.1,2.3-23.6,1.1c-13.8-1.9-22.7-7.2-22.7-13.1c0-1.1-0.8-1.3-2.8-1.3c-0.8,0-1.5,0-2.3-0.2
				c-7.2-0.4-13.4-1.9-18.3-4.2c-6.2-3-8.5-6.4-6.8-10.2c2.8-6.4,18.3-9.5,33.1-7.4c2.6,0.4,2.6,0.4,3.4-0.8
				c0.2-0.2,0.4-0.6,0.6-0.8c5.5-7.6,29.9-9.3,43.9-3c1.1,0.6,1.7,0.6,2.3,0c3.4-3.2,9.1-5.1,16.8-6.2c3-0.4,6.2-0.4,9.3-0.6
				c2.5,0.2,4.7,0.2,7.2,0.4c0.4,0.2,0.9,0.2,1.3,0.2c7.6,0.9,13.6,2.6,18.5,5.3c3.6,2.1,5.9,4.2,6.8,6.6c0.2,0.4,0.6,0.6,1.5,0.6
				c2.6,0,5.3,0.2,7.9,0.6c16.6,1.9,28.2,8.7,25.9,15.7c-1.9,5.9-12.3,9.6-26.3,10c-1.1,0-1.5,0.2-1.5,0.8c0.6,2.3,0.4,4.4-1.3,6.4
				c-4,4.9-11.7,7.9-23.6,9.5C132.2,168.5,129,168.5,125.7,168.7z"/>
		</g>
	</g>
	<g id="_x34_ZIECE.tif_5_" class="st14">
		<g>
			
				<linearGradient id="SVGID_10_" gradientUnits="userSpaceOnUse" x1="-298.6121" y1="118.4466" x2="-234.3994" y2="229.6663" gradientTransform="matrix(-0.7886 -4.099216e-02 -3.375828e-02 0.6494 1105.5624 -100.7046)">
				<stop  offset="0" style="stop-color:#BDCCD4"/>
				<stop  offset="0.1641" style="stop-color:#BDCDCF;stop-opacity:0.8359"/>
				<stop  offset="0.3566" style="stop-color:#BDD2C1;stop-opacity:0.6434"/>
				<stop  offset="0.5634" style="stop-color:#BCD9A9;stop-opacity:0.4366"/>
				<stop  offset="0.7803" style="stop-color:#BBE388;stop-opacity:0.2197"/>
				<stop  offset="1" style="stop-color:#BAEF5F;stop-opacity:0"/>
			</linearGradient>
			<path class="st17" d="M1336.5,55.8c-2.6-0.2-5.3-0.2-7.9-0.4c-0.4-0.2-0.8-0.2-1.1-0.2c-12.1-1.3-21.2-4.5-27.2-9.1
				c-0.9-0.8-1.7-0.9-3.2-0.4c-7.2,1.9-15.1,2.3-23.6,1.1c-13.8-1.9-22.7-7.2-22.7-13.1c0-1.1-0.8-1.3-2.8-1.3c-0.8,0-1.5,0-2.3-0.2
				c-7.2-0.4-13.4-1.9-18.3-4.2c-6.2-3-8.5-6.4-6.8-10.2c2.8-6.4,18.3-9.5,33.1-7.4c2.6,0.4,2.6,0.4,3.4-0.8
				c0.2-0.2,0.4-0.6,0.6-0.8c5.5-7.6,29.9-9.3,43.9-3c1.1,0.6,1.7,0.6,2.3,0c3.4-3.2,9.1-5.1,16.8-6.2c3-0.4,6.2-0.4,9.3-0.6
				c2.5,0.2,4.7,0.2,7.2,0.4c0.4,0.2,0.9,0.2,1.3,0.2c7.6,0.9,13.6,2.6,18.5,5.3c3.6,2.1,5.9,4.2,6.8,6.6c0.2,0.4,0.6,0.6,1.5,0.6
				c2.6,0,5.3,0.2,7.9,0.6c16.6,1.9,28.2,8.7,25.9,15.7c-1.9,5.9-12.3,9.6-26.3,10c-1.1,0-1.5,0.2-1.5,0.8c0.6,2.3,0.4,4.4-1.3,6.4
				c-4,4.9-11.7,7.9-23.6,9.5C1343,55.6,1339.8,55.6,1336.5,55.8z"/>
		</g>
	</g>
	<g id="_x34_ZIECE.tif_6_" class="st14">
		<g>
			
				<linearGradient id="SVGID_11_" gradientUnits="userSpaceOnUse" x1="-496.9985" y1="563.0728" x2="-432.7858" y2="674.2924" gradientTransform="matrix(-0.7886 -4.099216e-02 -3.375828e-02 0.6494 1105.5624 -100.7046)">
				<stop  offset="0" style="stop-color:#BDCCD4"/>
				<stop  offset="0.1641" style="stop-color:#BDCDCF;stop-opacity:0.8359"/>
				<stop  offset="0.3566" style="stop-color:#BDD2C1;stop-opacity:0.6434"/>
				<stop  offset="0.5634" style="stop-color:#BCD9A9;stop-opacity:0.4366"/>
				<stop  offset="0.7803" style="stop-color:#BBE388;stop-opacity:0.2197"/>
				<stop  offset="1" style="stop-color:#BAEF5F;stop-opacity:0"/>
			</linearGradient>
			<path class="st18" d="M1478,352.7c-2.6-0.2-5.3-0.2-7.9-0.4c-0.4-0.2-0.8-0.2-1.1-0.2c-12.1-1.3-21.2-4.5-27.2-9.1
				c-0.9-0.8-1.7-0.9-3.2-0.4c-7.2,1.9-15.1,2.3-23.6,1.1c-13.8-1.9-22.7-7.2-22.7-13.1c0-1.1-0.8-1.3-2.8-1.3c-0.8,0-1.5,0-2.3-0.2
				c-7.2-0.4-13.4-1.9-18.3-4.2c-6.2-3-8.5-6.4-6.8-10.2c2.8-6.4,18.3-9.5,33.1-7.4c2.6,0.4,2.6,0.4,3.4-0.8
				c0.2-0.2,0.4-0.6,0.6-0.8c5.5-7.6,29.9-9.3,43.9-3c1.1,0.6,1.7,0.6,2.3,0c3.4-3.2,9.1-5.1,16.8-6.2c3-0.4,6.2-0.4,9.3-0.6
				c2.5,0.2,4.7,0.2,7.2,0.4c0.4,0.2,0.9,0.2,1.3,0.2c7.6,0.9,13.6,2.6,18.5,5.3c3.6,2.1,5.9,4.2,6.8,6.6c0.2,0.4,0.6,0.6,1.5,0.6
				c2.6,0,5.3,0.2,7.9,0.6c16.6,1.9,28.2,8.7,25.9,15.7c-1.9,5.9-12.3,9.6-26.3,10c-1.1,0-1.5,0.2-1.5,0.8c0.6,2.3,0.4,4.4-1.3,6.4
				c-4,4.9-11.7,7.9-23.6,9.5C1484.4,352.5,1481.2,352.5,1478,352.7z"/>
		</g>
	</g>
	<g id="_x34_ZIECE.tif_7_" class="st19">
		<g>
			
				<linearGradient id="SVGID_12_" gradientUnits="userSpaceOnUse" x1="1256.6149" y1="808.9685" x2="1320.8276" y2="920.1882" gradientTransform="matrix(-0.7886 -4.099216e-02 -3.375828e-02 0.6494 1105.5624 -100.7046)">
				<stop  offset="0" style="stop-color:#BDCCD4"/>
				<stop  offset="0.1641" style="stop-color:#BDCDCF;stop-opacity:0.8359"/>
				<stop  offset="0.3566" style="stop-color:#BDD2C1;stop-opacity:0.6434"/>
				<stop  offset="0.5634" style="stop-color:#BCD9A9;stop-opacity:0.4366"/>
				<stop  offset="0.7803" style="stop-color:#BBE388;stop-opacity:0.2197"/>
				<stop  offset="1" style="stop-color:#BAEF5F;stop-opacity:0"/>
			</linearGradient>
			<path class="st20" d="M86.8,440.5c-2.6-0.2-5.3-0.2-7.9-0.4c-0.4-0.2-0.8-0.2-1.1-0.2c-12.1-1.3-21.2-4.5-27.2-9.1
				c-0.9-0.8-1.7-0.9-3.2-0.4c-7.2,1.9-15.1,2.3-23.6,1.1c-13.8-1.9-22.7-7.2-22.7-13.1c0-1.1-0.8-1.3-2.8-1.3c-0.8,0-1.5,0-2.3-0.2
				c-7.2-0.4-13.4-1.9-18.3-4.2c-6.2-3-8.5-6.4-6.8-10.2c2.8-6.4,18.3-9.5,33.1-7.4c2.6,0.4,2.6,0.4,3.4-0.8
				c0.2-0.2,0.4-0.6,0.6-0.8c5.5-7.6,29.9-9.3,43.9-3c1.1,0.6,1.7,0.6,2.3,0c3.4-3.2,9.1-5.1,16.8-6.2c3-0.4,6.2-0.4,9.3-0.6
				c2.5,0.2,4.7,0.2,7.2,0.4c0.4,0.2,0.9,0.2,1.3,0.2c7.6,0.9,13.6,2.6,18.5,5.3c3.6,2.1,5.9,4.2,6.8,6.6c0.2,0.4,0.6,0.6,1.5,0.6
				c2.6,0,5.3,0.2,7.9,0.6c16.6,1.9,28.2,8.7,25.9,15.7c-1.9,5.9-12.3,9.6-26.3,10c-1.1,0-1.5,0.2-1.5,0.8c0.6,2.3,0.4,4.4-1.3,6.4
				c-4,4.9-11.7,7.9-23.6,9.5C93.2,440.3,90,440.3,86.8,440.5z"/>
		</g>
	</g>
	<linearGradient id="SVGID_13_" gradientUnits="userSpaceOnUse" x1="247.9266" y1="797.1217" x2="247.9266" y2="91.1105">
		<stop  offset="0" style="stop-color:#736357"/>
		<stop  offset="0.1167" style="stop-color:#7B6C61;stop-opacity:0.9808"/>
		<stop  offset="0.3144" style="stop-color:#91857C;stop-opacity:0.9484"/>
		<stop  offset="0.5689" style="stop-color:#B6ADA7;stop-opacity:0.9067"/>
		<stop  offset="0.8672" style="stop-color:#E7E4E2;stop-opacity:0.8577"/>
		<stop  offset="1" style="stop-color:#FFFFFF;stop-opacity:0.8359"/>
	</linearGradient>
	<path class="st21" d="M0,95.6c0,0,114.9-32.9,128.7,79.7c0,0,33.6,23.5,45.8,82.1c12.2,58.6,32.2,37.2,32.2,37.2s30,8.6,44.3,33.6
		c14.3,25,41.5,17.2,41.5,17.2s22.9,8.6,22.9,58.6c0,0,17.2,69,47.3,120.1c30.1,51.1,125.2,185.3,133.2,223.4c0,0-77.7-17-183.6,22
		C206.3,808.6,0,794.7,0,794.7V95.6z"/>
	<linearGradient id="SVGID_14_" gradientUnits="userSpaceOnUse" x1="1217.9124" y1="763.7325" x2="1217.9124" y2="-0.3027">
		<stop  offset="0" style="stop-color:#736357"/>
		<stop  offset="0.1328" style="stop-color:#7F7166;stop-opacity:0.9782"/>
		<stop  offset="0.3876" style="stop-color:#A0958D;stop-opacity:0.9364"/>
		<stop  offset="0.7351" style="stop-color:#D4CFCB;stop-opacity:0.8794"/>
		<stop  offset="1" style="stop-color:#FFFFFF;stop-opacity:0.8359"/>
	</linearGradient>
	<path class="st22" d="M1443.3,763.7c-85.9-0.3-171.3-15.2-257.2-13.2c-66.1,1.5-132.7,13-198.1,2.7c-1.6-65.6-3.2-132.2,6.3-197.1
		c6.7-45.1,14.8-93.3,46.9-126.4c30.7-31.7,81.7-48,94.2-90c6.1-20.5,1-42.9,5.6-63.8c11.1-49.4,69.3-71.9,100.7-112
		c16.9-21.5,25.7-47.8,35.3-73.3c9.6-25.4,20.9-51.3,41.1-69.8s51.8-27.8,76.4-15.4c9.7,4.9,17.9,12.9,28.4,15.9
		c8.3,2.4,17.2,1.5,25.8,0.5"/>
</g>
</svg>
