<?xml version="1.0" encoding="utf-8"?>
<!-- Generator: Adobe Illustrator 20.1.0, SVG Export Plug-In . SVG Version: 6.00 Build 0)  -->
<svg version="1.1" id="Layer_1" xmlns="http://www.w3.org/2000/svg" xmlns:xlink="http://www.w3.org/1999/xlink" x="0px" y="0px"
	 viewBox="0 0 1440 900" style="enable-background:new 0 0 1440 900;" xml:space="preserve">
<style type="text/css">
	.st0{fill:url(#SVGID_1_);}
	.st1{opacity:5.000000e-02;}
	.st2{fill:none;stroke:url(#SVGID_2_);stroke-width:37.2075;stroke-miterlimit:10;}
	.st3{fill:url(#SVGID_3_);}
	.st4{fill:url(#SVGID_4_);}
	.st5{fill:url(#SVGID_5_);}
	.st6{fill:url(#SVGID_6_);}
	.st7{fill:url(#SVGID_7_);}
	.st8{fill:url(#SVGID_8_);}
	.st9{fill:url(#SVGID_9_);}
	.st10{fill:url(#SVGID_10_);}
	.st11{fill:url(#SVGID_11_);}
</style>
<g>
	<linearGradient id="SVGID_1_" gradientUnits="userSpaceOnUse" x1="257.8301" y1="-189.3245" x2="1185.3699" y2="1087.3245">
		<stop  offset="0" style="stop-color:#43B3B3"/>
		<stop  offset="0.1514" style="stop-color:#49B6AF"/>
		<stop  offset="0.3529" style="stop-color:#5ABEA3"/>
		<stop  offset="0.5826" style="stop-color:#75CC8F"/>
		<stop  offset="0.8314" style="stop-color:#9CE074"/>
		<stop  offset="1" style="stop-color:#BAEF5F"/>
	</linearGradient>
	<rect y="-2" class="st0" width="1443.2" height="902"/>
	<g class="st1">
		<g>
			<linearGradient id="SVGID_2_" gradientUnits="userSpaceOnUse" x1="660.761" y1="46.3058" x2="660.761" y2="46.3058">
				<stop  offset="0" style="stop-color:#404770"/>
				<stop  offset="0.6307" style="stop-color:#428E9C"/>
				<stop  offset="1" style="stop-color:#43B3B3"/>
			</linearGradient>
			<path class="st2" d="M660.8,46.3"/>
		</g>
	</g>
	<g id="h2RkpY.tif">
		<g>
			<linearGradient id="SVGID_3_" gradientUnits="userSpaceOnUse" x1="1104.541" y1="905.7022" x2="1237.9956" y2="674.5521">
				<stop  offset="0" style="stop-color:#43B3B3;stop-opacity:0.1"/>
				<stop  offset="0.1514" style="stop-color:#49B6AF;stop-opacity:0.1151"/>
				<stop  offset="0.3529" style="stop-color:#5ABEA3;stop-opacity:0.1353"/>
				<stop  offset="0.5826" style="stop-color:#75CC8F;stop-opacity:0.1583"/>
				<stop  offset="0.8314" style="stop-color:#9CE074;stop-opacity:0.1831"/>
				<stop  offset="1" style="stop-color:#BAEF5F;stop-opacity:0.2"/>
			</linearGradient>
			<path class="st3" d="M1173.5,657.3c7.9,0,15.8,0,23.7,0c0.4,0.3,0.8,0.9,1.3,0.9c33.5,4.5,64.9,33.1,70.3,72.2
				c0.5,3.3,1.4,4.6,5,4.9c26.7,2.3,47.6,20.9,53.6,47.1c0.4,1.9-0.3,4.2,1.7,5.6c0,5.6,0,11.3,0,16.9c-2.7,4.6-2.7,9.9-4.6,14.8
				c-9.4,24.1-31.4,38.7-59.2,38.7c-76.1,0.1-152.1,0-228.2,0c-1.7,0-3.4-0.1-5.1-0.2c-23.3-1.5-40.2-19.5-40.1-42.5
				c0.2-23.3,18.2-42.5,41-43.4c3.6-0.1,5-1.3,6.4-4.6c11.4-26.7,31.7-41.1,60.7-42.8c3.8-0.2,5.3-1,6.4-5
				c8.7-32.5,29.5-52.7,62.1-60.8C1170.2,658.9,1172.4,659.3,1173.5,657.3z"/>
		</g>
	</g>
	<g id="h2RkpY.tif_1_">
		<g>
			
				<linearGradient id="SVGID_4_" gradientUnits="userSpaceOnUse" x1="415.2928" y1="921.4437" x2="266.0307" y2="662.9142" gradientTransform="matrix(-1 0 0 1 615.3925 0)">
				<stop  offset="0" style="stop-color:#BAEF5F;stop-opacity:0.1"/>
				<stop  offset="0.1257" style="stop-color:#B5EB65;stop-opacity:8.743321e-02"/>
				<stop  offset="0.293" style="stop-color:#A8E176;stop-opacity:7.069992e-02"/>
				<stop  offset="0.4837" style="stop-color:#92D091;stop-opacity:5.162576e-02"/>
				<stop  offset="0.6919" style="stop-color:#73B8B8;stop-opacity:3.081390e-02"/>
				<stop  offset="0.9117" style="stop-color:#4B9AE9;stop-opacity:8.828506e-03"/>
				<stop  offset="1" style="stop-color:#3A8DFF;stop-opacity:0"/>
			</linearGradient>
			<path class="st4" d="M253.1,614.2c-10.1,0-20.1,0-30.2,0c-0.5,0.4-1,1.1-1.6,1.2c-42.7,5.7-82.7,42.2-89.6,92.1
				c-0.6,4.2-1.8,5.8-6.4,6.2c-34.1,2.9-60.6,26.6-68.3,60.1c-0.5,2.4,0.4,5.4-2.2,7.2c0,7.2,0,14.4,0,21.6
				c3.4,5.8,3.5,12.6,5.9,18.8c12,30.7,40,49.3,75.5,49.4c97,0.1,193.9,0,290.9,0c2.2,0,4.3-0.1,6.5-0.2
				c29.7-1.9,51.3-24.8,51.1-54.2c-0.2-29.7-23.2-54.2-52.2-55.3c-4.6-0.2-6.4-1.7-8.2-5.8c-14.6-34-40.4-52.4-77.4-54.5
				c-4.8-0.3-6.8-1.3-8.1-6.3c-11-41.4-37.6-67.2-79.1-77.6C257.3,616.2,254.6,616.7,253.1,614.2z"/>
		</g>
	</g>
	<g id="ij3Eyp.tif">
		<g>
			
				<linearGradient id="SVGID_5_" gradientUnits="userSpaceOnUse" x1="614.1202" y1="564.0759" x2="793.7185" y2="253.0025" gradientTransform="matrix(0.9225 -0.386 0.386 0.9225 -78.7431 297.2438)">
				<stop  offset="0" style="stop-color:#43B3B3;stop-opacity:0.1"/>
				<stop  offset="0.1514" style="stop-color:#49B6AF;stop-opacity:0.1"/>
				<stop  offset="0.3529" style="stop-color:#5ABEA3;stop-opacity:0.1"/>
				<stop  offset="0.5826" style="stop-color:#75CC8F;stop-opacity:0.1"/>
				<stop  offset="0.8314" style="stop-color:#9CE074;stop-opacity:0.1"/>
				<stop  offset="1" style="stop-color:#BAEF5F;stop-opacity:0.1"/>
			</linearGradient>
			<path class="st5" d="M652.1,233.2c7.4-3.1,14.9-6.2,22.3-9.3c6-1.1,12-2.5,18-3.4c47.7-6.5,96.2,19.2,121.4,60.1
				c5.6,9.1,2.8,7.5,13.3,6.3c18.8-2.2,37-0.2,53.9,8.8c3.2,1.7,5.8,1.5,8.8-0.6c4.5-3.2,9.5-5.4,15-6.4
				c20.1-3.6,36.7,3.2,50.4,17.8c2.6,2.8,4.8,5.9,7.3,8.9c2.3,5.6,4.7,11.1,7,16.7c-0.9,1.2-0.3,2.5-0.1,3.7c1,6,1.2,12,0.2,18
				c-2.6,16.3-9.6,30.1-24.7,37.8c-7.1,3.6-10.8,7.1-12.8,15.4c-5.8,23.6-19.4,42.3-40.3,55.3c-1.4,0.9-3.3,1.3-4,3.1
				c-6.4,2.7-12.7,5.3-19.1,8c-1-0.7-1.9-0.2-2.9,0c-20.2,5-39.9,3.6-59-4.7c-2.6-1.1-3.7-0.3-5.1,1.9c-15.2,23.5-36.9,35.5-65,35.3
				c-4.3,0-6.3,1.2-7.9,5.2c-5.2,12.9-13.5,23.3-26,30c-24.3,13-53.9,5.5-71.8-12.6c-2.4-2.4-3.6-3-6.2-0.1
				c-17.8,19.4-39.9,30.6-66.2,31.7c-27,1.1-50-7.4-66.1-30.5c-1-1.4-1.3-3.2-3.1-4c-2.1-5-4.2-10.1-6.3-15.1
				c0.7-1.1,0.2-2.3,0.1-3.3c-4.3-24.7,3.9-45.6,20.3-63.6c12.3-13.5,27.7-22.1,45.5-26.4c2.9-0.7,3.8-1.7,2.8-4.7
				c-1.3-3.9-1.8-8.1-2.1-12.3c-1.4-23.9,17.3-46.6,40.7-45.6c2.1,0.1,2.9-0.6,2.7-2.7c-0.2-1.6-0.3-3.1-0.4-4.7
				c-1.3-40.7,12.4-75.1,43.3-102.1C641.1,240.7,647.2,237.8,652.1,233.2z"/>
		</g>
	</g>
	<g id="_x34_ZIECE.tif">
		<g>
			<linearGradient id="SVGID_6_" gradientUnits="userSpaceOnUse" x1="174.7027" y1="335.3602" x2="332.1849" y2="62.5929">
				<stop  offset="0" style="stop-color:#43B3B3;stop-opacity:0.2"/>
				<stop  offset="0.1514" style="stop-color:#49B6AF;stop-opacity:0.1849"/>
				<stop  offset="0.3529" style="stop-color:#5ABEA3;stop-opacity:0.1647"/>
				<stop  offset="0.5826" style="stop-color:#75CC8F;stop-opacity:0.1417"/>
				<stop  offset="0.8314" style="stop-color:#9CE074;stop-opacity:0.1169"/>
				<stop  offset="1" style="stop-color:#BAEF5F;stop-opacity:0.1"/>
			</linearGradient>
			<path class="st6" d="M187.5,34.4c6,0,12.1,0,18.1,0c0.7,0.8,1.6,0.8,2.6,1c27.4,4.2,48.4,18.2,62.6,41.9c2.4,4.1,3.8,4.3,7.5,1.5
				c15.8-12.2,33.9-16.6,53.4-12.4c31.3,6.8,52.1,32.2,52.9,64.3c0.1,6.1,1.8,6.5,6.4,6c1.7-0.2,3.5,0,5.2-0.1
				c16.5,0,30.6,6.2,41.9,17.7c14.5,14.7,20.1,32.7,16.8,53.3c-5.8,35.6-40.3,57.1-74.1,49.2c-6.1-1.4-6-1.5-7.6,4.6
				c-0.4,1.4-0.9,2.7-1.3,4.1c-11.6,42.6-66.4,58.3-99,28.4c-2.8-2.6-3.8-2.7-5.3,1c-7.1,18-19.8,30.7-37.3,38.9
				c-6.7,3.1-13.9,4-20.9,6.1c-5.4,0-10.8,0-16.2,0c-0.8-1-2-0.8-3.1-1c-17-3-31.3-10.8-42.6-24c-8.5-9.9-13.8-21.3-16.2-34
				c-0.5-2.5-1.2-2.9-3.7-2.6c-6,0.8-12,0.5-18-0.5c-37.7-5.7-64.7-39.1-60.3-78.5c3.5-32.1,26.7-56,58.6-61.9
				c2.7-0.5,3.5-1.8,3.1-4.2c-1.7-11.9-1.4-23.7,2.1-35.3c8.2-27.6,25.6-47,52.5-57.7C172.6,37.4,180.2,36.4,187.5,34.4z"/>
		</g>
	</g>
	<g id="_x34_ZIECE.tif_1_">
		<g>
			<linearGradient id="SVGID_7_" gradientUnits="userSpaceOnUse" x1="1090.6339" y1="292.9615" x2="1232.4229" y2="47.3759">
				<stop  offset="0" style="stop-color:#43B3B3;stop-opacity:0.1"/>
				<stop  offset="0.1514" style="stop-color:#49B6AF;stop-opacity:0.1"/>
				<stop  offset="0.3529" style="stop-color:#5ABEA3;stop-opacity:0.1"/>
				<stop  offset="0.5826" style="stop-color:#75CC8F;stop-opacity:0.1"/>
				<stop  offset="0.8314" style="stop-color:#9CE074;stop-opacity:0.1"/>
				<stop  offset="1" style="stop-color:#BAEF5F;stop-opacity:0.1"/>
			</linearGradient>
			<path class="st7" d="M1102.1,22c5.4,0,10.9,0,16.3,0c0.6,0.7,1.5,0.7,2.3,0.9c24.7,3.8,43.6,16.4,56.4,37.8
				c2.2,3.7,3.4,3.9,6.8,1.3c14.3-11,30.6-15,48.1-11.2c28.2,6.1,46.9,29,47.6,57.9c0.1,5.5,1.6,5.8,5.7,5.4c1.6-0.2,3.1,0,4.7,0
				c14.8,0,27.5,5.6,37.7,15.9c13,13.2,18.1,29.4,15.1,48c-5.2,32-36.3,51.4-66.7,44.3c-5.5-1.3-5.4-1.3-6.9,4.2
				c-0.3,1.2-0.8,2.5-1.1,3.7c-10.5,38.3-59.8,52.5-89.1,25.6c-2.5-2.3-3.4-2.4-4.8,0.9c-6.4,16.2-17.9,27.6-33.6,35
				c-6,2.8-12.6,3.6-18.8,5.5c-4.9,0-9.7,0-14.6,0c-0.7-0.9-1.8-0.7-2.8-0.9c-15.3-2.7-28.1-9.7-38.4-21.6
				c-7.7-8.9-12.4-19.1-14.6-30.6c-0.4-2.3-1.1-2.6-3.3-2.3c-5.4,0.7-10.8,0.4-16.2-0.4c-34-5.2-58.2-35.2-54.3-70.7
				c3.2-28.9,24.1-50.4,52.7-55.7c2.4-0.5,3.1-1.6,2.8-3.8c-1.6-10.7-1.2-21.4,1.9-31.8c7.4-24.9,23.1-42.3,47.2-52
				C1088.8,24.7,1095.6,23.8,1102.1,22z"/>
		</g>
	</g>
	<g id="h2RkpY.tif_2_">
		<g>
			
				<linearGradient id="SVGID_8_" gradientUnits="userSpaceOnUse" x1="-36.6545" y1="857.3846" x2="-185.9165" y2="598.8552" gradientTransform="matrix(-1 0 0 1 615.3925 0)">
				<stop  offset="0" style="stop-color:#BAEF5F;stop-opacity:0.1"/>
				<stop  offset="0.1257" style="stop-color:#B5EB65;stop-opacity:8.743321e-02"/>
				<stop  offset="0.293" style="stop-color:#A8E176;stop-opacity:7.069992e-02"/>
				<stop  offset="0.4837" style="stop-color:#92D091;stop-opacity:5.162576e-02"/>
				<stop  offset="0.6919" style="stop-color:#73B8B8;stop-opacity:3.081390e-02"/>
				<stop  offset="0.9117" style="stop-color:#4B9AE9;stop-opacity:8.828506e-03"/>
				<stop  offset="1" style="stop-color:#3A8DFF;stop-opacity:0"/>
			</linearGradient>
			<path class="st8" d="M705.1,550.2c-10.1,0-20.1,0-30.2,0c-0.5,0.4-1,1.1-1.6,1.2c-42.7,5.7-82.7,42.2-89.6,92.1
				c-0.6,4.2-1.8,5.8-6.4,6.2c-34.1,2.9-60.6,26.6-68.3,60.1c-0.5,2.4,0.4,5.4-2.2,7.2c0,7.2,0,14.4,0,21.6
				c3.4,5.8,3.5,12.6,5.9,18.8c12,30.7,40,49.3,75.5,49.4c97,0.1,193.9,0,290.9,0c2.2,0,4.3-0.1,6.5-0.2
				c29.7-1.9,51.3-24.8,51.1-54.2c-0.2-29.7-23.2-54.2-52.2-55.3c-4.6-0.2-6.4-1.7-8.2-5.8c-14.6-34-40.4-52.4-77.4-54.5
				c-4.8-0.3-6.8-1.3-8.1-6.3c-11-41.4-37.6-67.2-79.1-77.6C709.3,552.2,706.5,552.6,705.1,550.2z"/>
		</g>
	</g>
	<g id="_x34_ZIECE.tif_2_">
		<g>
			
				<linearGradient id="SVGID_9_" gradientUnits="userSpaceOnUse" x1="584.4646" y1="563.3834" x2="690.7654" y2="379.2651" gradientTransform="matrix(-1 0 0 1 1828.5835 0)">
				<stop  offset="0" style="stop-color:#43B3B3;stop-opacity:0.1"/>
				<stop  offset="0.1514" style="stop-color:#49B6AF;stop-opacity:0.1"/>
				<stop  offset="0.3529" style="stop-color:#5ABEA3;stop-opacity:0.1"/>
				<stop  offset="0.5826" style="stop-color:#75CC8F;stop-opacity:0.1"/>
				<stop  offset="0.8314" style="stop-color:#9CE074;stop-opacity:0.1"/>
				<stop  offset="1" style="stop-color:#BAEF5F;stop-opacity:0.1"/>
			</linearGradient>
			<path class="st9" d="M1235.5,360.2c-4.1,0-8.2,0-12.2,0c-0.5,0.6-1.1,0.5-1.7,0.6c-18.5,2.8-32.7,12.3-42.3,28.3
				c-1.6,2.7-2.6,2.9-5.1,1c-10.7-8.2-22.9-11.2-36.1-8.4c-21.2,4.6-35.1,21.8-35.7,43.4c-0.1,4.1-1.2,4.4-4.3,4
				c-1.2-0.1-2.4,0-3.5,0c-11.1,0-20.6,4.2-28.3,11.9c-9.8,9.9-13.6,22.1-11.3,36c3.9,24,27.2,38.5,50,33.2c4.1-1,4.1-1,5.1,3.1
				c0.2,0.9,0.6,1.8,0.8,2.8c7.9,28.7,44.8,39.4,66.8,19.2c1.9-1.7,2.6-1.8,3.6,0.7c4.8,12.1,13.4,20.7,25.2,26.2
				c4.5,2.1,9.4,2.7,14.1,4.1c3.7,0,7.3,0,11,0c0.6-0.6,1.3-0.5,2.1-0.7c11.5-2,21.1-7.3,28.8-16.2c5.8-6.7,9.3-14.3,10.9-22.9
				c0.3-1.7,0.8-2,2.5-1.7c4,0.5,8.1,0.3,12.2-0.3c25.5-3.9,43.6-26.4,40.7-53c-2.4-21.7-18.1-37.8-39.5-41.8
				c-1.8-0.3-2.4-1.2-2.1-2.9c1.2-8,0.9-16-1.4-23.8c-5.6-18.7-17.3-31.7-35.4-39C1245.5,362.2,1240.4,361.6,1235.5,360.2z"/>
		</g>
	</g>
	<g id="_x34_ZIECE.tif_3_">
		<g>
			
				<linearGradient id="SVGID_10_" gradientUnits="userSpaceOnUse" x1="1569.665" y1="563.3834" x2="1675.9658" y2="379.2651" gradientTransform="matrix(-1 0 0 1 1828.5835 0)">
				<stop  offset="0" style="stop-color:#43B3B3;stop-opacity:0.1"/>
				<stop  offset="0.1514" style="stop-color:#49B6AF;stop-opacity:0.1"/>
				<stop  offset="0.3529" style="stop-color:#5ABEA3;stop-opacity:0.1"/>
				<stop  offset="0.5826" style="stop-color:#75CC8F;stop-opacity:0.1"/>
				<stop  offset="0.8314" style="stop-color:#9CE074;stop-opacity:0.1"/>
				<stop  offset="1" style="stop-color:#BAEF5F;stop-opacity:0.1"/>
			</linearGradient>
			<path class="st10" d="M250.3,360.2c-4.1,0-8.2,0-12.2,0c-0.5,0.6-1.1,0.5-1.7,0.6c-18.5,2.8-32.7,12.3-42.3,28.3
				c-1.6,2.7-2.6,2.9-5.1,1c-10.7-8.2-22.9-11.2-36.1-8.4c-21.2,4.6-35.1,21.8-35.7,43.4c-0.1,4.1-1.2,4.4-4.3,4
				c-1.2-0.1-2.4,0-3.5,0c-11.1,0-20.6,4.2-28.3,11.9c-9.8,9.9-13.6,22.1-11.3,36c3.9,24,27.2,38.5,50,33.2c4.1-1,4.1-1,5.1,3.1
				c0.2,0.9,0.6,1.8,0.8,2.8c7.9,28.7,44.8,39.4,66.8,19.2c1.9-1.7,2.6-1.8,3.6,0.7c4.8,12.1,13.4,20.7,25.2,26.2
				c4.5,2.1,9.4,2.7,14.1,4.1c3.7,0,7.3,0,11,0c0.6-0.6,1.3-0.5,2.1-0.7c11.5-2,21.1-7.3,28.8-16.2c5.8-6.7,9.3-14.3,10.9-22.9
				c0.3-1.7,0.8-2,2.5-1.7c4,0.5,8.1,0.3,12.2-0.3c25.5-3.9,43.6-26.4,40.7-53c-2.4-21.7-18.1-37.8-39.5-41.8
				c-1.8-0.3-2.4-1.2-2.1-2.9c1.2-8,0.9-16-1.4-23.8c-5.6-18.7-17.3-31.7-35.4-39C260.3,362.2,255.2,361.6,250.3,360.2z"/>
		</g>
	</g>
	<g id="h2RkpY.tif_3_">
		<g>
			
				<linearGradient id="SVGID_11_" gradientUnits="userSpaceOnUse" x1="1021.9056" y1="1006.6541" x2="1114.3151" y2="846.5963" gradientTransform="matrix(-1 0 0 -1 1828.5835 972)">
				<stop  offset="0" style="stop-color:#43B3B3;stop-opacity:0.1"/>
				<stop  offset="0.1514" style="stop-color:#49B6AF;stop-opacity:0.1151"/>
				<stop  offset="0.3529" style="stop-color:#5ABEA3;stop-opacity:0.1353"/>
				<stop  offset="0.5826" style="stop-color:#75CC8F;stop-opacity:0.1583"/>
				<stop  offset="0.8314" style="stop-color:#9CE074;stop-opacity:0.1831"/>
				<stop  offset="1" style="stop-color:#BAEF5F;stop-opacity:0.2"/>
			</linearGradient>
			<path class="st11" d="M758.9,137.3c-5.5,0-10.9,0-16.4,0c-0.3-0.2-0.6-0.6-0.9-0.6c-23.2-3.1-44.9-22.9-48.7-50
				c-0.3-2.3-1-3.2-3.5-3.4c-18.5-1.6-32.9-14.4-37.1-32.6c-0.3-1.3,0.2-2.9-1.2-3.9c0-3.9,0-7.8,0-11.7c1.9-3.2,1.9-6.9,3.2-10.2
				C660.9,8.2,676.1-2,695.4-2C748-2,800.7-2,853.4-2c1.2,0,2.3,0,3.5,0.1c16.1,1,27.9,13.5,27.7,29.5c-0.1,16.1-12.6,29.5-28.4,30
				c-2.5,0.1-3.5,0.9-4.4,3.2c-7.9,18.5-22,28.5-42.1,29.6c-2.6,0.2-3.7,0.7-4.4,3.4c-6,22.5-20.4,36.5-43,42.1
				C761.2,136.2,759.7,136,758.9,137.3z"/>
		</g>
	</g>
</g>
</svg>
