<?xml version="1.0" encoding="utf-8"?>
<!-- Generator: Adobe Illustrator 20.1.0, SVG Export Plug-In . SVG Version: 6.00 Build 0)  -->
<svg version="1.1" xmlns="http://www.w3.org/2000/svg" xmlns:xlink="http://www.w3.org/1999/xlink" x="0px" y="0px"
	 viewBox="0 0 1440.9 1037.2" style="enable-background:new 0 0 1440.9 1037.2;" xml:space="preserve">
<style type="text/css">
	.st0{fill:url(#SVGID_1_);}
	.st1{fill:#64720F;}
	.st2{opacity:0.33;fill:url(#SVGID_2_);}
	.st3{opacity:0.33;fill:url(#SVGID_3_);}
	.st4{opacity:0.85;fill:#64720F;}
	.st5{opacity:0.82;fill:#64720F;}
</style>
<g id="Layer_1">
	<g id="Layer_2">
		
			<linearGradient id="SVGID_1_" gradientUnits="userSpaceOnUse" x1="747.7621" y1="7.2454" x2="692.2919" y2="1065.6814" gradientTransform="matrix(1 0 0 1 0 7.8)">
			<stop  offset="0" style="stop-color:#3FA9F5"/>
			<stop  offset="3.396702e-02" style="stop-color:#46ADEE"/>
			<stop  offset="0.1867" style="stop-color:#63BBD1"/>
			<stop  offset="0.3501" style="stop-color:#7AC6BA"/>
			<stop  offset="0.5269" style="stop-color:#8ACEAA"/>
			<stop  offset="0.727" style="stop-color:#93D3A1"/>
			<stop  offset="1" style="stop-color:#96D49E"/>
		</linearGradient>
		<polygon class="st0" points="1440,1037.2 0,1037.2 0,52.4 1441,51.4 		"/>
	</g>
	<g id="wjbogK.tif_5_">
		<g>
			<path class="st1" d="M17.6,20.1c2.8-5.4,1.1-2.7-1.8-0.2c-6,5.1-7.4,3.8-9.8,9.1c-2,4.5-4.2,9-5.1,13.5c-0.8,4.3-0.2,8.7-0.2,13
				c0,0.3,0.1,0.7,0.2,1.1c1.8,0,3.4,0,5,0c113.7,0,227.4,0,341.1,0c1.3,0,14.6,0,16,0c0-7.2-12-14.4-12-21.7
				c-0.2-0.3-0.5-0.6-0.5-0.9c-0.8-3.6-1.2-7.2-2.5-10.8c-1.5-4.7-4.1-9.4-10.1-13.8c-1.5-1.1-3.7-2.1-5.5-3.2
				c8.2,11.5,6,22.9-2,34.3c1.8-5.8,1.3-11.5-5.9-17c4.2,7.3-1.7,13.4-21.8,18.4c-4.7-11.6,6.4-22.3,19.4-32.8
				c-18.5,7.3-23.3,16.1-29.8,24.7c1.1-5.7,1.3-11.3-4.1-16.9c1.7,8.4-1.8,16.6-11.3,24.6c-4-4.8-4.8-9.7-5-14.6
				c-0.2-4.9,0-9.7,0-14.6c-6.7,6.3-8.9,12.9-11.5,19.4c-1.1-5.7-3.9-11.3-11.6-16.6c5.4,8,5.4,15.9-5,23.5
				c-0.4-1.8-0.1-3.7-0.4-5.5c-0.3-1.8-0.8-3.6-1.8-5.4c-1-1.8-2.6-3.5-6.4-5c4.8,4.5-5.7,12.9-13,16.2c-4.7-12,2.2-23.5,10.8-35
				c-7.5,3.8-11.2,7.9-13.9,12.2c-2.9,4.2-5,8.5-7.4,12.7c-1.3-5.1-4-10.1-15.3-14.3c4.4,4,6.1,8.1,5.6,12.4
				c-0.5,4.2-2.5,8.3-6.7,12.3c-0.7-3.3-1.1-6.5-2-9.7c-0.9-3.2-3.3-6.4-7.7-9.4c-2.4,7.7-13.2,14.5-24,21.3
				c-5.6-11.1,0.5-22.1,5.1-33.1c-3,0.6-5.3,1.8-7.7,3.9c-8,7.4-11.5,15.1-14.6,22.8c-0.7,1.7-1.3,3.4-2,5.2c-0.3,0-0.6,0-0.8,0
				c-0.6-6.2-1.1-12.3-1.7-18.5c-3.9,2.7-5,5.6-6.2,8.5c-1.2,2.9-2.3,5.8-3.3,8.8c0.3-9.6,0.8-19.3-9.5-28.6
				c1.7,5.3,0.9,10.5-1.2,15.8c-2.2,5.2-6,10.3-11,15.4c-10.1-7.8-3.8-15.6-0.1-23.7C98,22.5,95.6,27.5,93,32.6
				c-0.6-5.5-0.1-10.9-0.7-16.4C91.7,10.8,89.9,5.4,88.6,0c-0.4,0-0.7,0-1.1,0c1.4,13.1-4.4,26.1-9.8,39c-0.6-2.7-0.8-5.4-1.5-8.1
				c-0.7-2.7-1.8-5.5-3.1-8.2c-1.1-2.6-2.7-5.2-3.9-7.7c-2.8,8.7-5.5,17.6-8.3,26.4c-0.3,0-0.7,0-1,0c-6.7-5.3-7.8-10.7-6.7-16.3
				c1.2-5.5,3.7-10.9,5.7-16.7c-19.1,10.2-20,21.3-22.6,32.3c-1.6-1.2-3.2-2.4-3.7-3.6C30.2,32,31.9,27,33.7,22
				c0.9-2.6,2.3-5.1,3.5-7.7c-8.6,3.9-10.8,8.4-13.1,12.9s-3.6,9-5.3,13.6C18.2,40.9,13.3,28.4,17.6,20.1z"/>
		</g>
	</g>
	<g id="wjbogK.tif_6_">
		<g>
			<path class="st1" d="M371.1,20.1c2.7-5.4,1.1-2.7-1.8-0.2c-5.9,5.1-7.2,3.8-9.6,9.1c-2,4.5-4.1,9-5,13.5c-0.8,4.3-0.2,8.7-0.2,13
				c0,0.3,0.1,0.7,0.2,1.1c1.8,0,3.3,0,4.9,0c111,0,222,0,333,0c1.3,0,14.3,0,15.6,0c0-7.2-11.7-14.4-11.7-21.7
				c-0.2-0.3-0.5-0.6-0.5-0.9c-0.8-3.6-1.2-7.2-2.4-10.8c-1.5-4.7-4-9.4-9.9-13.8c-1.5-1.1-3.6-2.1-5.4-3.2c8,11.5,5.9,22.9-2,34.3
				c1.8-5.8,1.3-11.5-5.8-17c4.1,7.3-1.7,13.4-21.3,18.4c-4.6-11.6,6.2-22.3,18.9-32.8C650,16.4,645.4,25.2,639,33.8
				c1.1-5.7,1.3-11.3-4-16.9c1.7,8.4-1.8,16.6-11,24.6c-3.9-4.8-4.7-9.7-4.9-14.6c-0.2-4.9,0-9.7,0-14.6
				c-6.5,6.3-8.7,12.9-11.2,19.4c-1.1-5.7-3.8-11.3-11.3-16.6c5.3,8,5.3,15.9-4.9,23.5c-0.4-1.8-0.1-3.7-0.4-5.5s-0.8-3.6-1.8-5.4
				c-1-1.8-2.5-3.5-6.2-5c4.7,4.5-5.6,12.9-12.7,16.2c-4.6-12,2.1-23.5,10.5-35c-7.3,3.8-10.9,7.9-13.6,12.2
				c-2.8,4.2-4.9,8.5-7.2,12.7c-1.3-5.1-3.9-10.1-14.9-14.3c4.3,4,6,8.1,5.5,12.4c-0.5,4.2-2.4,8.3-6.5,12.3c-0.7-3.3-1.1-6.5-2-9.7
				s-3.2-6.4-7.5-9.4c-2.3,7.7-12.9,14.5-23.4,21.3c-5.5-11.1,0.5-22.1,5-33.1c-2.9,0.6-5.2,1.8-7.5,3.9
				c-7.8,7.4-11.2,15.1-14.3,22.8c-0.7,1.7-1.3,3.4-2,5.2c-0.3,0-0.6,0-0.8,0c-0.6-6.2-1.1-12.3-1.7-18.5c-3.8,2.7-4.9,5.6-6.1,8.5
				s-2.2,5.8-3.2,8.8c0.3-9.6,0.8-19.3-9.3-28.6c1.7,5.3,0.9,10.5-1.2,15.8c-2.1,5.2-5.9,10.3-10.7,15.4c-9.9-7.8-3.7-15.6-0.1-23.7
				c-10,4.6-12.4,9.6-14.9,14.7c-0.6-5.5-0.1-10.9-0.7-16.4c-0.6-5.4-2.3-10.8-3.6-16.2c-0.4,0-0.7,0-1.1,0
				c1.4,13.1-4.3,26.1-9.6,39c-0.6-2.7-0.8-5.4-1.5-8.1c-0.7-2.7-1.8-5.5-3-8.2c-1.1-2.6-2.6-5.2-3.8-7.7
				c-2.7,8.7-5.4,17.6-8.1,26.4c-0.3,0-0.7,0-1,0c-6.5-5.3-7.6-10.7-6.5-16.3c1.2-5.5,3.6-10.9,5.6-16.7
				c-18.6,10.2-19.5,21.3-22.1,32.3c-1.6-1.2-3.1-2.4-3.6-3.6C383.4,32,385,27,386.8,22c0.9-2.6,2.2-5.1,3.4-7.7
				c-8.4,3.9-10.5,8.4-12.8,12.9s-3.5,9-5.2,13.6C371.7,40.9,366.9,28.4,371.1,20.1z"/>
		</g>
	</g>
	<g id="wjbogK.tif_8_">
		<g>
			<path class="st1" d="M1072.6,19.9c2.9-5.5,1.2-2.8-2-0.2c-6.4,5.2-7.8,3.9-10.5,9.3c-2.2,4.6-4.5,9.2-5.4,13.8
				c-0.9,4.4-0.2,8.9-0.2,13.3c0,0.3,0.1,0.7,0.2,1.1c2,0,3.6,0,5.3,0c121,0,241.9,0,362.9,0c1.4,0,15.6,0,17,0
				c0-7.4-12.7-14.7-12.7-22.2c-0.2-0.3-0.5-0.6-0.5-0.9c-0.9-3.7-1.3-7.4-2.6-11c-1.6-4.8-4.4-9.6-10.8-14.1
				c-1.6-1.1-3.9-2.1-5.9-3.3c8.7,11.7,6.4,23.4-2.2,35c2-5.9,1.4-11.7-6.3-17.4c4.5,7.5-1.9,13.7-23.2,18.8
				c-5-11.8,6.8-22.8,20.6-33.5c-19.7,7.5-24.7,16.4-31.7,25.2c1.2-5.8,1.4-11.5-4.4-17.3c1.9,8.6-2,16.9-12,25.1
				c-4.2-4.9-5.1-9.9-5.3-14.9c-0.2-5,0-9.9,0-14.9c-7.1,6.4-9.5,13.2-12.2,19.8c-1.2-5.8-4.1-11.5-12.3-16.9
				c5.8,8.2,5.8,16.2-5.3,24c-0.4-1.8-0.1-3.8-0.4-5.6c-0.3-1.8-0.9-3.7-2-5.5c-1.1-1.8-2.7-3.6-6.8-5.1c5.1,4.6-6.1,13.2-13.8,16.5
				c-5-12.3,2.3-24,11.4-35.7c-8,3.9-11.9,8.1-14.8,12.5c-3.1,4.3-5.3,8.7-7.8,13c-1.4-5.2-4.2-10.3-16.2-14.6
				c4.7,4.1,6.5,8.3,6,12.7c-0.5,4.3-2.6,8.5-7.1,12.6c-0.8-3.4-1.2-6.6-2.2-9.9c-1-3.3-3.5-6.5-8.2-9.6
				c-2.5,7.9-14.1,14.8-25.5,21.7c-6-11.3,0.5-22.6,5.4-33.8c-3.2,0.6-5.7,1.8-8.2,4c-8.5,7.6-12.2,15.4-15.6,23.3
				c-0.8,1.7-1.4,3.5-2.2,5.3c-0.3,0-0.7,0-0.9,0c-0.7-6.3-1.2-12.6-1.9-18.9c-4.1,2.8-5.3,5.7-6.6,8.7c-1.3,3-2.4,5.9-3.5,9
				c0.3-9.8,0.9-19.7-10.1-29.2c1.9,5.4,1,10.7-1.3,16.1c-2.3,5.3-6.4,10.5-11.7,15.7c-10.8-8-4-15.9-0.1-24.2
				c-10.9,4.7-13.5,9.8-16.2,15c-0.7-5.6-0.1-11.1-0.8-16.7c-0.7-5.5-2.5-11-3.9-16.5c-0.4,0-0.8,0-1.2,0
				c1.5,13.4-4.7,26.6-10.5,39.8c-0.7-2.8-0.9-5.5-1.6-8.3c-0.8-2.8-2-5.6-3.3-8.4c-1.2-2.7-2.8-5.3-4.1-7.9c-2.9,8.9-5.9,18-8.8,27
				c-0.3,0-0.8,0-1.1,0c-7.1-5.4-8.3-10.9-7.1-16.6c1.3-5.6,3.9-11.1,6.1-17c-20.3,10.4-21.2,21.7-24.1,33c-1.7-1.2-3.4-2.5-3.9-3.7
				c-2.5-5.2-0.8-10.3,1.2-15.4c1-2.7,2.4-5.2,3.7-7.9c-9.2,4-11.4,8.6-13.9,13.2s-3.8,9.2-5.7,13.9
				C1073.3,41.2,1068,28.4,1072.6,19.9z"/>
		</g>
	</g>
	<g id="wjbogK.tif_1_">
		<g>
			<path class="st1" d="M1035.9,40.8c-1.7-4.6-3-9.1-5.3-13.6c-2.4-4.5-4.5-9-13.1-12.9c1.2,2.6,2.6,5.1,3.5,7.7
				c1.8,5,3.5,10,1.1,15.1c-0.5,1.2-2,2.4-3.7,3.6c-2.7-11-3.6-22.1-22.6-32.3c2,5.8,4.5,11.2,5.7,16.7c1.1,5.6,0,11-6.7,16.3
				c-0.3,0-0.7,0-1,0c-2.8-8.8-5.5-17.7-8.3-26.4c-1.2,2.5-2.8,5.1-3.9,7.7c-1.2,2.7-2.4,5.5-3.1,8.2c-0.7,2.7-0.9,5.4-1.5,8.1
				c-5.4-12.9-11.3-25.9-9.8-39c-0.4,0-0.7,0-1.1,0c-1.3,5.4-3.1,10.8-3.7,16.2c-0.6,5.5-0.1,10.9-0.7,16.4
				c-2.6-5.1-5-10.1-15.3-14.7c3.7,8.1,10,15.9-0.1,23.7c-4.9-5.1-8.8-10.2-11-15.4c-2.2-5.3-3-10.5-1.2-15.8
				c-10.3,9.3-9.8,19-9.5,28.6c-1-3-2-5.9-3.3-8.8c-1.2-2.9-2.4-5.8-6.2-8.5c-0.6,6.2-1.1,12.3-1.7,18.5c-0.2,0-0.5,0-0.8,0
				c-0.7-1.8-1.3-3.5-2-5.2c-3.2-7.7-6.7-15.4-14.6-22.8c-2.4-2.1-4.7-3.3-7.7-3.9c4.6,11,10.8,22,5.1,33.1
				c-10.8-6.8-21.6-13.6-24-21.3c-4.4,3-6.8,6.2-7.7,9.4s-1.3,6.4-2,9.7c-4.2-4-6.1-8.1-6.7-12.3c-0.5-4.3,1.2-8.4,5.6-12.4
				c-11.3,4.2-13.9,9.2-15.3,14.3c-2.4-4.2-4.5-8.5-7.4-12.7c-2.8-4.3-6.5-8.4-13.9-12.2c8.6,11.5,15.5,23,10.8,35
				c-7.3-3.3-17.8-11.7-13-16.2c-3.8,1.5-5.3,3.2-6.4,5c-1,1.8-1.5,3.6-1.8,5.4c-0.3,1.8,0,3.7-0.4,5.5c-10.4-7.6-10.4-15.5-5-23.5
				c-7.7,5.3-10.4,10.9-11.6,16.6c-2.6-6.5-4.8-13.1-11.5-19.4c0,4.9,0.2,9.7,0,14.6c-0.2,4.9-1,9.8-5,14.6
				c-9.4-8-13-16.2-11.3-24.6c-5.4,5.6-5.2,11.2-4.1,16.9c-6.6-8.6-11.3-17.4-29.8-24.7c13,10.5,24.1,21.2,19.4,32.8
				c-20.1-5-26-11.1-21.8-18.4c-7.3,5.5-7.8,11.2-5.9,17c-8.1-11.4-10.2-22.8-2-34.3c-1.8,1.1-4,2.1-5.5,3.2
				c-6,4.4-8.6,9.1-10.1,13.8c-1.2,3.6-1.6,7.2-2.5,10.8c0,0.3-0.3,0.6-0.5,0.9c0,7.3-12,14.5-12,21.7c1.3,0,14.6,0,16,0
				c113.7,0,227.4,0,341.1,0c1.6,0,3.2,0,5,0c0.1-0.4,0.2-0.8,0.2-1.1c0-4.3,0.6-8.7-0.2-13c-0.9-4.5-3.1-9-5.1-13.5
				c-2.5-5.3-3.8-4-9.8-9.1c-3-2.5-4.6-5.2-1.8,0.2C1041.4,28.4,1036.5,40.9,1035.9,40.8z"/>
		</g>
	</g>
</g>
<g id="Layer_2_1_">
	<linearGradient id="SVGID_2_" gradientUnits="userSpaceOnUse" x1="127.0453" y1="200.7192" x2="148.8517" y2="312.9033">
		<stop  offset="0.243" style="stop-color:#3F43F5"/>
		<stop  offset="0.3596" style="stop-color:#3F43F5;stop-opacity:0.9985"/>
		<stop  offset="0.3788" style="stop-color:#3F43F5;stop-opacity:0.9983"/>
		<stop  offset="0.6791" style="stop-color:#3F43F5;stop-opacity:0.786"/>
		<stop  offset="0.73" style="stop-color:#3F43F5;stop-opacity:0.75"/>
		<stop  offset="0.7751" style="stop-color:#4147F3;stop-opacity:0.6247"/>
		<stop  offset="0.82" style="stop-color:#4953EB;stop-opacity:0.5"/>
		<stop  offset="0.8648" style="stop-color:#5567DF;stop-opacity:0.3755"/>
		<stop  offset="0.9096" style="stop-color:#6583CF;stop-opacity:0.251"/>
		<stop  offset="0.9545" style="stop-color:#7BA7B9;stop-opacity:0.1265"/>
		<stop  offset="0.9987" style="stop-color:#95D39F;stop-opacity:3.634155e-03"/>
		<stop  offset="1" style="stop-color:#96D49E;stop-opacity:0"/>
	</linearGradient>
	<path class="st2" d="M0.4,232.4c21.6-4.9,63.4-28.2,82.1-15.4c12.9,8.9,32.5-15.4,45.5-6.7c26.8,17.9,33.2-9.8,60.8,6.5
		c3.7,2.2,7.3,4.7,10.6,7.6c4.1,3.6,7.7,7.9,11.3,12c24.3,27.5,52.4,16.5,83.2,34.8c-0.2,0.1-0.6,0.3-1,0.5
		c-33.7,17.6-57.7,17.2-90.7,20.1c-27.9,2.4-21.8,7.6-66.7,22.6c-18.6,6.2-38.5,8.1-57.8,5.4c-8.3-1.2-16.6-3.1-24.9-2.4
		c-18.4,1.7-34.3,17.5-52.8,17.5C0.1,269.9,0.3,297.3,0.4,232.4z"/>
	<linearGradient id="SVGID_3_" gradientUnits="userSpaceOnUse" x1="226.049" y1="619.1817" x2="357.849" y2="889.4117">
		<stop  offset="0.164" style="stop-color:#3F43F5"/>
		<stop  offset="0.4549" style="stop-color:#4045F4;stop-opacity:0.919"/>
		<stop  offset="0.523" style="stop-color:#4248F2;stop-opacity:0.9"/>
		<stop  offset="0.6032" style="stop-color:#444CF0;stop-opacity:0.7486"/>
		<stop  offset="0.684" style="stop-color:#4C58E8;stop-opacity:0.5961"/>
		<stop  offset="0.7651" style="stop-color:#586CDC;stop-opacity:0.4431"/>
		<stop  offset="0.8465" style="stop-color:#6989CB;stop-opacity:0.2897"/>
		<stop  offset="0.9271" style="stop-color:#7EADB6;stop-opacity:0.1375"/>
		<stop  offset="1" style="stop-color:#96D49E;stop-opacity:0"/>
	</linearGradient>
	<path class="st3" d="M-1.3,730.1c54.5-3.6,111.4-7,162.4,5.1c18.1,4.3,35,10.4,53.6,14c19.7,3.8,40.7,4.5,60.9,7.3
		c27,3.7,55.7,30.8,78.3,16.6c47.7-29.9,186.5-151.4,294.4-105.8c-25.2,0.3-41.5,61.9-65,67.4c-12,2.8-43.5,61.6-56,63.5
		c-15,2.2-33.4,24.4-48.6,26.2c-25.7,3.1-35.1,25.3-57.1,33.9c-19.4,7.6-38.8,15.2-58.2,22.8c-15,5.9-30.2,11.8-47.1,15.2
		c-13,2.6-26.9,3.6-39.6,6.7c-17,4.2-31,12.1-47.7,16.8c-30.1,8.5-66.7,6.1-95.5,16.1c-22.3,7.7-36.2,27.4-61.9,32.8l-70,8.7V729.3
		L-1.3,730.1z"/>
	<path class="st4" d="M0.3,129c21.6-4.4,44.8-0.3,63.5,11.5c12.9,8.1,23.5,19.5,36.5,27.4c26.8,16.3,60.8,16.3,88.5,31.2
		c3.7,2,7.3,4.3,10.6,7c4.1,3.3,7.7,7.2,11.3,11c24.3,25.1,52.4,37.7,83.2,54.3c-30.7,4.4-60.7-5.5-91.7-3.8
		c-23.3,1.3-44.3,13.8-66.7,20.6c-18.6,5.7-38.5,7.4-57.8,4.9c-8.3-1.1-16.6-2.9-24.9-2.2c-18.4,1.5-34.3,15.9-52.8,15.9V128
		L0.3,129z"/>
	<path class="st5" d="M-0.8,536.8c54.5-5.9,111.4-11.6,162.4,8.4c18.1,7.1,35,17.3,53.6,23.1c19.7,6.3,40.7,7.5,60.9,12
		c27,6.1,52.2,18.3,78.3,27.4c95.5,33.5,204.4,14.1,294.9,59.3c-25.2,0.5-51.3,18.6-74.8,27.6c-12,4.6-23.6,10.4-36.1,13.4
		c-15,3.7-30.7,3.3-45.9,6.4c-25.7,5.2-48.4,19.7-70.5,34c-19.4,12.6-38.8,25.2-58.2,37.7c-15,9.7-30.2,19.5-47.1,25.1
		c-13,4.3-26.9,5.9-39.6,11.1c-17,7-31,20-47.7,27.7c-30.1,14-66.7,10.1-95.5,26.6c-22.3,12.8-36.2,45.4-61.9,45.4h-70V535.6
		L-0.8,536.8z"/>
	<path class="st1" d="M0.3,120.2c21.6-4.4,44.8-0.3,63.5,11.5c12.9,8.1,23.5,19.5,36.5,27.4c26.8,16.3,60.8,16.3,88.5,31.2
		c3.7,2,7.3,4.3,10.6,7c4.1,3.3,7.7,7.2,11.3,11c24.3,25.1,52.4,46.5,83.2,63.1c-30.7,4.4-60.7-14.3-91.7-12.6
		c-23.3,1.3-44.3,13.8-66.7,20.6c-18.6,5.7-38.5,7.4-57.8,4.9c-8.3-1.1-16.6-2.9-24.9-2.2c-18.4,1.5-34.3,15.9-52.8,15.9V119.1
		L0.3,120.2z"/>
	<path class="st1" d="M-0.8,523.7c54.5-5.9,111.4-11.6,162.4,8.4c18.1,7.1,35,17.3,53.6,23.1c19.7,6.3,40.7,7.5,60.9,12
		c27,6.1,52.2,18.3,78.3,27.4c95.5,33.5,203.4,27.3,293.9,72.5c-25.2,0.5-50.3,5.4-73.8,14.5c-12,4.6-23.6,10.4-36.1,13.4
		c-15,3.7-30.7,3.3-45.9,6.4c-25.7,5.2-48.4,19.7-70.5,34c-19.4,12.6-38.8,25.2-58.2,37.7c-15,9.7-30.2,19.5-47.1,25.1
		c-13,4.3-26.9,5.9-39.6,11.1c-17,7-31,20-47.7,27.7c-30.1,14-66.7,10.1-95.5,26.6C111.8,876.4,97.9,909,72.2,909h-70V522.4
		L-0.8,523.7z"/>
	<path class="st1" d="M624.1,1037.2c18.4-29.4,88.9-58.9,109.1-85.2c21.6-28.2,78-52.4,101.4-76.5c41.9-43.4,83.9-86.7,125.8-130.1
		c35.3-36.5,71.4-73.6,111.7-91.4c5.7-2.5,13.1-10.4,9.9-18.6c-0.8-2.2-2.3-3.5-3.7-4.7c-11.5-9.6-24-15.1-36.5-20.5
		c-25.3-10.9-50.7-21.9-76-32.8c-30.1-13-60.5-26-91.6-26.4c-10-0.1-24.1-6.2-22.1-22.3c25.9-18.9,53.1-33.1,80.9-42.2
		c23.4-7.6,47.5-11.9,69.1-28.3c21.6-16.4,40.8-48.6,42.1-87.7c0.7-21-3.2-45.3,5.5-60.8c8.1-14.5,22-11.8,33.9-12.4
		c31-1.5,58.3-31.4,87.4-49.1c27.7-16.8,57.4-22.6,86.7-28.2c59-11.3,124.3-18.2,183.1-4.1v821.1l-725.7-0.2L624.1,1037.2z"/>
</g>
</svg>
