<?xml version="1.0" encoding="utf-8"?>
<!-- Generator: Adobe Illustrator 20.1.0, SVG Export Plug-In . SVG Version: 6.00 Build 0)  -->
<svg version="1.1" id="Layer_1" xmlns="http://www.w3.org/2000/svg" xmlns:xlink="http://www.w3.org/1999/xlink" x="0px" y="0px"
	 viewBox="0 0 1440 900" style="enable-background:new 0 0 1440 900;" xml:space="preserve">
<style type="text/css">
	.st0{fill:url(#SVGID_1_);}
	.st1{fill:url(#SVGID_2_);}
	.st2{fill:url(#SVGID_3_);}
	.st3{fill:url(#SVGID_4_);}
	.st4{fill:url(#SVGID_5_);}
	.st5{fill:url(#SVGID_6_);}
	.st6{fill:url(#SVGID_7_);}
</style>
<g id="Layer_2">
</g>
<linearGradient id="SVGID_1_" gradientUnits="userSpaceOnUse" x1="120.3476" y1="105.6081" x2="427.927" y2="105.6081" gradientTransform="matrix(0.9692 -0.2462 0.2462 0.9692 -13.9648 65.5844)">
	<stop  offset="0" style="stop-color:#404770"/>
	<stop  offset="1" style="stop-color:#3745A5"/>
</linearGradient>
<path class="st0" d="M130.8,146.6c13.7,0.4,27.5,1.3,41.4,1.2c30.4-0.3,59.5-6.6,87.1-19.8c19-9.1,36.3-20.6,52.5-33.9
	c10-8.3,19.7-17.1,29.1-26.3c5.9-5.8,10.8-12.6,16.3-18.8c4.1-4.6,8.7-8.9,12.8-13.6c-2.5,2.1-5.1,4-7.3,6.4
	c-7.6,8.1-14.8,16.5-22.6,24.4c-5.9,6-12.3,11.4-18.7,17c-20.7,17.8-42.9,33.2-67.9,44.3c-26,11.6-53.2,17.3-81.8,16
	c-0.8,0-1.8-0.1-3-0.2c4.3-15.7,14.8-25.3,29-31.5c0.3,3.2,0.7,6.4,1,9.5c0.3,0.1,0.5,0.1,0.9,0.2c-0.2-6.7,3.9-9.9,9.2-12.2
	c10.8-4.7,21.6-9.4,32.3-14.3c11-4.9,21.9-10.1,32.7-15.2c-0.9,4.5-1.9,9.5-2.9,14.4c3.3-8,5.9-16.2,12.5-23.5
	c0.1,4,0.1,7.1,0.2,10.3c13.3-27.2,32.5-49,59-64.8c-0.8,3.3-1.5,6.1-2.2,8.9c0.4,0.2,0.7,0.3,1,0.5c1.1-1.1,1.9-2.4,3.1-3.4
	c12-9.1,24.5-17.4,40-18.9c11-1,21,2.1,28.1,11.1c5.4,6.7,6,14.8,1.9,21.9c-9.6,16.2-20.7,31.3-37.3,41.2c-2.1,1.3-4.3,2.3-6.5,4
	c2.5-0.4,5-0.8,7.8-1.2c-2.1,3.8-5,6.6-8.4,8.9c-7.3,4.9-15.7,6.1-24.3,6.8c-5.1,0.5-10.2,1-15.3,1.9c13.7-0.3,27.5,0.1,41.1-4
	c-2.6,3.1-5.2,6.2-8,9.3c-15.2,16.9-30.7,33.7-49.1,47.4c-12.7,9.5-26.2,17.5-41.8,21.4c-14.1,3.6-27.9,2.8-41.2-3.3
	c2.2,2.8,5.3,4.3,8.6,5.6c3.3,1.2,6.7,2.4,9.9,3.8c-13.5-0.2-27.1-0.2-39.9-8c0.6,0.9,0.8,1.4,1.1,1.8c0.4,0.5,0.8,0.9,1.7,1.8
	c-1.8-0.3-3-0.4-4.2-0.7c-11.4-2.6-22.3-6.5-31.8-13.4c-0.9-0.6-2-1.2-2.6-2c-2.8-3.9-6.8-4.6-11.4-4.9c-10.4-0.7-20.7-2.1-30.6-5.4
	C131.8,147.1,131.1,146.8,130.8,146.6z"/>
<linearGradient id="SVGID_2_" gradientUnits="userSpaceOnUse" x1="438.3" y1="159.0101" x2="686.6999" y2="159.0101">
	<stop  offset="0" style="stop-color:#404770"/>
	<stop  offset="0.2069" style="stop-color:#3C4686"/>
	<stop  offset="0.4418" style="stop-color:#394697"/>
	<stop  offset="0.6956" style="stop-color:#3845A2"/>
	<stop  offset="1" style="stop-color:#3745A5"/>
</linearGradient>
<path class="st1" d="M621.6,188.2c-2.4,1.7-4.7,3.3-6.9,5c0.1,0.1,0.2,0.3,0.3,0.4c2.5-0.8,5-1.9,7.5-2.5c4.6-1.1,9.2-2,13.8-2.8
	c14.6-2.4,29.5-3,43.8-7.2c2.2-0.6,4.3-1.3,6.6-1.7c-4.1,2.7-8.1,5.5-12.3,8.2c-7.9,5.1-15.7,10.4-23.9,15
	c-6.4,3.6-12.8,7.4-20.3,8.5c-4.5,0.7-9.2,0.4-14.3,0.5c2,0.8,3.6,1.4,5.7,2.3c-12.7,3.7-24.9,3-37.1-0.6c-0.1,0.2-0.1,0.3-0.2,0.5
	c3.3,2.3,6.6,4.6,10.2,7.1c-8.9,1.8-16.1-1.5-23.3-5.4c1.2,1.2,2.4,2.4,3.6,3.5c1.2,1.1,2.5,2.2,3.7,4c-3.6,0.1-7.1,0.4-10.7,0.3
	c-10.7-0.1-21.1-2.1-31.2-5.8c-3-1.1-4.8-3.4-6.6-5.7c-2.2-2.6-4.1-5.4-6.5-8c1.9,3.4,3.8,6.8,5.9,10.7c-3.6-1.6-7.1-2.8-10.1-4.6
	c-7.1-4.2-14.4-8.2-21-13.1c-13.3-9.7-24-21.7-30.1-37.2c-3-7.5-4-13.3-4.7-23.7c-0.4,2.9-0.8,5.8-1.3,9.1c-0.9-3.2-1.7-6.1-2.6-8.8
	c-3.7-10.6-9.8-20-15.3-29.7c-2.1-3.7-4-7.6-6-11.4c0.2-0.1,0.4-0.2,0.6-0.4c1.1,1.5,2.3,3,3.4,4.5c16.4,21.9,34.9,41.7,56.7,58.3
	c18.7,14.3,39.1,25.3,61.4,32.9c14.2,4.9,28.6,8.8,43.7,9.2c9.2,0.3,18.4-0.5,27.5-1.1c-6.5,0.2-13.1,0.5-19.6,0.6
	c-14.8,0.2-29.2-2.2-43.2-7c-38.3-13.3-71.1-35-98.7-64.6c-2.5-2.7-4.9-5.4-7.3-8.1c7.2-7.6,23.5-6,32.2,0.3
	c-2.9,1.2-5.6,2.4-8.4,3.6c7.7-1.8,15.1-1.1,21.9,2.6c4.8,2.6,9.5,5.5,13.6,9c8.6,7.2,16.8,14.9,25,22.3c-1.7,0.8-3.4,1.6-5.1,2.4
	c5.3-0.6,10.2-0.1,14.8,3.6c-7.8,1.6-13.8,6-19.4,10.8c2.5-0.9,5.1-2,7.7-2.8c11.3-3.5,22.4-2.3,33.3,1.5c11.7,4.1,23.3,8.7,35,13
	C615.9,186.8,618.7,187.4,621.6,188.2z"/>
<linearGradient id="SVGID_3_" gradientUnits="userSpaceOnUse" x1="732.4" y1="138.1" x2="830.1" y2="138.1">
	<stop  offset="0" style="stop-color:#404770"/>
	<stop  offset="1" style="stop-color:#3745A5"/>
</linearGradient>
<path class="st2" d="M794.8,94.8c6.5,6.6,11.5,13.8,14.7,22c5.5,14.2,8,29,8.6,44.1c0.1,1.5-1.1,3-1.7,4.5c-0.2,0.6-0.6,1.2-0.7,1.9
	c0.3-0.5,0.7-1.1,1-1.6c0.4-0.6,0.8-1.1,1.4-2c0.1,0.8,0.2,1.3,0.2,1.7c-0.2,5.6,0.1,11.2-0.6,16.8c-0.7,5.5,0.6,10.3,3.3,14.7
	c2.6,4.2,5.6,8.1,8.4,12.2c0.2,0.3,0.5,0.6,0.7,0.9c-0.1,0.1-0.2,0.2-0.4,0.3c-2.3-2.2-4.8-4.3-6.9-6.8c-7.8-9.2-12.6-20-16.3-31.4
	c-3.2-9.9-4.6-20.2-7.2-30.2c-4.2-16-10.5-30.9-20.9-44c-1.3-1.6-2.7-3.2-3.4-4c2.8,4.1,6.5,8.9,9.5,14c6.2,10.3,10.2,21.4,12.9,33
	c2,8.3,3.5,16.8,5.4,25.1c1.8,8.1,4.8,15.7,9.1,22.7c0.2,0.3,0.4,0.7,0.4,1.1c-19.2-10.7-31-27.3-39-47.8c3.9,1.9,7.4,3.7,11,5.5
	c0-0.1,0.1-0.1,0.1-0.2c-1.9-1.4-3.9-2.8-5.8-4.1c-0.2-0.1-0.4-0.3-0.6-0.4c-6.2-4.7-6.3-4.7-8.3-12.3c-1.5-5.8-2.7-11.7-4.5-17.5
	c-4.3-13.8-11.6-25.9-21.5-36.4c-3.6-3.8-7.5-7.1-11.3-10.7c2.5,0.4,5.2,0.8,7.9,1.4c12.9,2.7,25.2,7,36.7,13.6
	c2.6,1.5,5,3.1,7.5,4.8c0.5,0.3,0.8,1,0.9,1.6c0.4,2.1,0.7,4.2,1.3,6.3c-0.1-2-0.2-4-0.2-6.5c2.6,2.3,5.6,3.5,6.2,7.2
	c0.7,4.6,1.9,9.2,2.9,14.1C795.2,104,795,99.5,794.8,94.8z"/>
<linearGradient id="SVGID_4_" gradientUnits="userSpaceOnUse" x1="892.8018" y1="118.9648" x2="1160.902" y2="118.9648">
	<stop  offset="0" style="stop-color:#404770"/>
	<stop  offset="1" style="stop-color:#3745A5"/>
</linearGradient>
<path class="st3" d="M977.9,204.3c3.8,1,7.4,1.9,11,2.8c0,0.2-0.1,0.5-0.1,0.7c-3.5,0.2-7.1,0-10.6,0.5c-6.2,0.9-12.4,1.9-18.5,3.2
	c-19.3,4.1-38.1,10.4-57.9,12.2c-3,0.3-6,0.5-9,1.1c6.4,1.4,12.8,3,19.2,4.3c12.3,2.5,24.6,5.3,37,7.1c9.7,1.4,19.6,3.1,29.3,0.8
	c5.9-1.4,11.6-3.9,18-6.2c-2.1,1.9-3.8,3.5-6,5.5c17.6-1.6,32.5-8.3,45.8-18.7c0.2,0.2,0.3,0.4,0.5,0.6c-3,4.4-6,8.8-9.3,13.7
	c11.9-2,19.3-9.7,26.4-18c-0.9,2-1.8,4.1-2.8,6.1s-2,3.9-2.7,6.8c4.5-1.6,9-3,13.4-4.8c13.3-5.4,25.2-12.8,36-22.3
	c3.2-2.8,4.3-6.6,5.5-10.3c1.4-4.3,2.5-8.7,4.3-13.1c-0.7,5.2-1.4,10.3-2.2,16.1c3.7-3.8,7.4-6.9,10.4-10.6
	c6.8-8.6,13.9-17.1,19.8-26.4c11.8-18.4,19.4-38.5,19.5-60.8c0.1-10.7-1.4-18.5-5.6-31.7c1.9,3.4,3.8,6.8,6,10.7
	c-0.4-4.4-0.9-8.3-1-12.2c-0.5-15,2.5-29.6,4.6-44.3c0.8-5.7,1.3-11.4,2-17.1c-0.3-0.1-0.6-0.1-0.9-0.2c-0.7,2.4-1.4,4.8-2,7.2
	c-9.8,35.1-23.3,68.6-42.3,99.8c-16.3,26.8-36.4,50.2-60.4,70.5c-15.3,12.9-31.4,24.7-49.9,32.6c-11.3,4.8-23,8.3-34.8,11.9
	c8.2-2.9,16.5-5.7,24.7-8.7c18.5-6.8,35.2-16.8,50.3-29.5c41.2-35,71.5-77.7,91.5-127.9c1.8-4.5,3.5-9,5.2-13.6
	c-12.6-6-32,3.8-39.9,15.9c4.1,0.1,8.1,0.3,12.1,0.4c-10.4,1.4-19.3,5.9-26,13.8c-4.7,5.5-9.1,11.4-12.6,17.8
	c-7.2,13.1-13.7,26.6-20.4,39.8c2.4,0.2,5,0.4,7.5,0.6c-6.9,1.8-12.7,4.8-16.6,11.5c10.5-1.7,20,0.8,29.4,4.1
	c-3.6,0-7.3-0.1-10.9,0.2c-15.7,1.1-29,8-40.7,18c-12.6,10.8-24.8,22-37.3,33C984.3,199.8,981,201.9,977.9,204.3z"/>
<linearGradient id="SVGID_5_" gradientUnits="userSpaceOnUse" x1="432.9343" y1="630.6171" x2="661.8687" y2="630.6171" gradientTransform="matrix(0.6438 0.703 -0.7207 0.8608 721.2214 -920.2744)">
	<stop  offset="0" style="stop-color:#404770"/>
	<stop  offset="1" style="stop-color:#3745A5"/>
</linearGradient>
<path class="st4" d="M539.9,40.5c1.5,3,2.9,5.8,4.3,8.7c-0.2,0.1-0.3,0.3-0.5,0.4c-2-2-3.9-4.2-6.1-6c-3.9-3.1-8-6-12.2-8.7
	c-13.1-8.6-27.4-15.2-39.3-25.8c-1.8-1.6-3.6-3.2-5.6-4.6c2.6,4.9,5.2,9.9,7.9,14.7c5.2,9.2,10.2,18.6,16,27.4
	c4.5,6.8,8.9,14,15.6,18.2c4.1,2.6,8.8,4.1,13.7,6.3c-2.4,0.2-4.2,0.3-6.7,0.5c10.6,9.4,22.9,13.4,36.7,13.8c0,0.2-0.1,0.5-0.1,0.7
	c-4.4,1.4-8.7,2.9-13.5,4.5c7.8,5.7,16.5,4.4,25.5,2.6c-1.8,0.9-3.5,1.9-5.3,2.8s-3.5,1.7-5.7,3.4c3.4,1.5,6.8,3.2,10.3,4.6
	c10.6,4,21.8,5.7,33.5,5.2c3.4-0.1,6.4-2.3,9.3-4.2c3.4-2.3,6.8-4.9,10.4-7c-3.5,3.4-7.1,6.7-11.1,10.5c4.4-0.5,8.3-0.6,12.2-1.6
	c9.1-2.2,18.2-4.2,27.1-7.5c17.8-6.5,34.3-16.7,48.1-32.9c6.6-7.8,10.6-14.4,16.4-26.6c-1.1,3.7-2.1,7.3-3.3,11.5
	c2.5-3.5,4.6-6.6,7-9.6c8.9-11.3,19.6-20.2,29.8-29.8c3.9-3.7,7.7-7.6,11.6-11.4c-0.1-0.2-0.2-0.4-0.4-0.6c-1.9,1.4-3.7,2.7-5.6,4.1
	c-27,19.9-55,36.4-84.6,47.9c-25.4,9.9-50.9,15.1-76.5,15.5c-16.4,0.3-32.4-0.6-47.4-6c-9.1-3.3-17.7-7.8-26.4-12.1
	c6.3,2.8,12.6,5.7,18.9,8.4c14.4,6.1,29.7,8.8,45.8,8.5C634.1,65.2,677,51.9,718.8,27c3.8-2.2,7.5-4.5,11.2-6.8
	C726.8,8.3,710,3.8,698.3,8c2.2,2.6,4.3,5.1,6.4,7.6c-6.6-5.2-14.2-7.3-22.8-5.5c-6,1.2-12.1,2.9-17.9,5.5
	c-12,5.3-23.9,11.4-35.7,17c1.2,1.6,2.5,3.3,3.8,4.9c-4.9-2.8-9.9-4.1-16.2-1.5c6.8,5,10.5,12.6,13.6,20.6c-2-2.1-3.9-4.4-6.1-6.4
	c-9.3-8.7-20.8-11.5-33.4-11.2c-13.6,0.4-27.2,1.3-40.8,1.9C546.2,41,543.1,40.7,539.9,40.5z"/>
<linearGradient id="SVGID_6_" gradientUnits="userSpaceOnUse" x1="723.8428" y1="455.6939" x2="883.6078" y2="455.6939" gradientTransform="matrix(0.6107 0.7919 -0.7919 0.6107 825.4729 -870.7134)">
	<stop  offset="0" style="stop-color:#404770"/>
	<stop  offset="1" style="stop-color:#3745A5"/>
</linearGradient>
<path class="st5" d="M1024.4,32.7c-58.7-1.5-117,3.9-175.1,12.1c4.8-13.7,17.4-24.2,33.9-31.5c-1.1,3.3-2.2,6.6-3.3,9.9
	c0.3,0.1,0.5,0.2,0.8,0.3c0.5-0.8,1.1-1.6,1.5-2.4c3.4-6.8,9.3-10.4,16.4-11.8c7.8-1.5,15.6-2.5,23.5-3.1c12.6-1,25.3-1.4,38-2.1
	c0.6,0,1.1,0.1,2.3,0.1c-5.4,4.7-10.3,9.1-15.3,13.4c8.4-5.4,16.2-11.5,26.3-14.2c-1.6,2.1-3.3,4.2-4.9,6.3
	c5.3-3.7,11.3-4.8,17.4-5.7c7-1,13.9-2.8,20.9-3.6c5.4-0.7,10.9-0.6,16.3-0.5c5.7,0.2,11.4,0.9,17.1,1.4c1.4,0.1,2.8,0.5,4.3,0.7
	c-1.9,2.2-3.7,4.2-5.4,6.1c0.1,0.2,0.2,0.4,0.3,0.6c8.4-4.7,16.9-2.3,25.4-0.6c8,1.6,16.2,2.1,23.9,5.2c7.4,3,10.8,10,8.3,17.6
	c-2.2,6.5-6.9,10.5-12.3,14.2c-9.6,6.5-20.1,10.3-31.4,12.2c-3.1,0.5-6.2,1.3-9.2,2c-5.8,1.3-11.7,2.4-17.8,1.5
	c2.1,0.7,4.2,1.5,6.6,2.3c-5,2.6-9.7,3.7-14.9,1.7c-9.2-3.5-17.6-8.6-25.4-14.6c-0.6-0.5-1.2-0.9-1.8-1.4c-0.1-0.1-0.3-0.1-1-0.2
	c9.2,8.3,18.2,15.9,29.5,20.5c0,0.3,0,0.5,0,0.8c-3.6,0.6-7.1,1.6-10.7,1.7c-16.4,0.4-32.3,3.4-48.2,6.9
	c-11.3,2.5-22.8,3.7-34.5,3.2c-4.3-0.2-8.7-0.4-13,0c-7.7,0.7-13.8-2.3-19.2-7.3c-1.4-1.3-2.8-2.6-4.5-4.2
	c1.2,4.1,2.2,5.4,10.4,13.3c-9.3-1.9-18.2-4.7-24.8-12.5c-0.1,0.3-0.2,0.8-0.5,1.5c-0.4-0.5-0.7-1-1.1-1.4
	c-8.1-10-17.3-18.3-31.3-17.8c-6.1,0.2-12.1,1.4-18.2,2.4c-4.1,0.7-8.2,1.7-12.3,2.5c-1.5,0.3-3,0.3-4.4,0.5
	c-0.1-0.3-0.1-0.6-0.2-0.9c6-1.6,11.9-3.4,17.9-4.6c13.3-2.6,26.6-5,39.9-7.3c6.4-1.1,12.9-1.9,19.4-2.8c37-5,74.2-8.7,111.5-9.6
	c8.9-0.2,17.9-0.2,26.8-0.2c0.8,0,1.6-0.1,2.4-0.1C1024.4,33.2,1024.4,33,1024.4,32.7z"/>
<linearGradient id="SVGID_7_" gradientUnits="userSpaceOnUse" x1="1275.8192" y1="1375.8019" x2="1333.0792" y2="1375.8019" gradientTransform="matrix(-0.2033 0.9791 -0.9791 -0.2033 1957.3074 -798.9594)">
	<stop  offset="0" style="stop-color:#404770"/>
	<stop  offset="1" style="stop-color:#3745A5"/>
</linearGradient>
<path class="st6" d="M368.5,211.5c-4.6,3-9.3,5-14.4,5.8c-8.8,1.4-17.6,1.1-26.4-0.3c-0.9-0.1-1.6-1-2.4-1.5c-0.3-0.2-0.6-0.5-1-0.6
	c0.3,0.3,0.5,0.5,0.8,0.8s0.6,0.6,1,1.1c-0.5-0.1-0.7-0.1-1-0.1c-3.2-0.8-6.5-1.3-9.6-2.4c-3.1-1-6-0.9-8.9,0.2
	c-2.7,1-5.3,2.2-8,3.4c-0.2,0.1-0.4,0.2-0.6,0.3c-0.1-0.1-0.1-0.2-0.2-0.3c1.6-1.1,3.1-2.3,4.7-3.1c6.2-3.4,13-4.9,20-5.6
	c6.1-0.6,12.1-0.2,18.2-0.6c9.7-0.5,19-2.3,27.8-6.7c1.1-0.5,2.1-1.2,2.7-1.5c-2.7,1.1-5.9,2.7-9.2,3.8c-6.6,2.3-13.5,3.3-20.5,3.5
	c-5,0.1-10,0-15.1,0.1c-4.8,0.1-9.6,0.9-14.1,2.5c-0.2,0.1-0.4,0.1-0.7,0.1c8.4-9.7,19.4-14.6,32.1-16.7c-1.6,2-3,3.8-4.5,5.7
	l0.1,0.1c1-1,2-1.9,3.1-2.9c0.1-0.1,0.2-0.2,0.3-0.3c3.4-3,3.4-3,8-3.3c3.5-0.2,7.1-0.2,10.6-0.5c8.4-0.8,16.3-3.6,23.5-8
	c2.6-1.6,5-3.5,7.5-5.2c-0.6,1.4-1.1,2.9-1.7,4.4c-3.1,7.1-7,13.7-12.2,19.4c-1.2,1.3-2.4,2.5-3.6,3.7c-0.2,0.2-0.7,0.3-1.1,0.3
	c-1.2,0-2.5-0.1-3.8,0c1.2,0.2,2.3,0.4,3.8,0.6c-1.6,1.2-2.7,2.8-4.9,2.7c-2.7-0.1-5.5,0-8.5,0C363.1,210.7,365.7,211.1,368.5,211.5
	z"/>
</svg>
